<svg id="Layer_1" data-name="Layer 1" xmlns="http://www.w3.org/2000/svg" viewBox="0 0 272.77 73.02"><title>mules</title><path d="M260.71,72.52H20l8.23-2.66L33.08.5H260.71a11.54,11.54,0,0,1,11.56,11.56V61A11.53,11.53,0,0,1,260.71,72.52Z" fill="#fff" stroke="#fff" stroke-miterlimit="10"/><path d="M205.85,32.07h0a4.3,4.3,0,0,1-1.07-.09h-3.65c-.09,0-.71.09-.71.09a3.58,3.58,0,0,0-.89.17c-.71.09-1.33.27-2,.36-2.94.53-6.05.89-8.89-.18V45.76a2.26,2.26,0,0,0,.53,2,3.25,3.25,0,0,0,2.49,1.06h11a3.29,3.29,0,0,0,2.49-1.06,2,2,0,0,0,.53-2V33A2.22,2.22,0,0,0,205.85,32.07Z" fill="#f05a2b"/><path d="M208.6,35.27V24.42a6.9,6.9,0,0,1,.54-3,4.42,4.42,0,0,1,4-2.49,1.35,1.35,0,0,1,1.33,1.24,1.36,1.36,0,0,1-1.07,1.51,3.24,3.24,0,0,1-1,.09,1,1,0,0,0-.89.89,7.12,7.12,0,0,0-.09,1.42V45.94a9.84,9.84,0,0,1-.36,2.84,7.66,7.66,0,0,1-4.27,5,2.82,2.82,0,0,1-1.51.27c-3.73.27-7.38.35-11.11.27-1.6,0-3.2-.09-4.8-.18a6.59,6.59,0,0,1-5.34-3.29,8.3,8.3,0,0,1-1.33-4.63V25.13a14.81,14.81,0,0,0-.09-2,1.54,1.54,0,0,0-1.42-1.43H181a1.41,1.41,0,0,1-1.25-1.6A1.36,1.36,0,0,1,181.39,19a4.59,4.59,0,0,1,2.4.88,4.41,4.41,0,0,1,1.61,3.38c.17,2,.08,4.09.08,6.14,0,5.33,0,10.67-.08,16a13.42,13.42,0,0,0,.26,2.67,5.12,5.12,0,0,0,2.76,3.29,3.34,3.34,0,0,0,1.6.27c3.38.18,6.76.26,10.14.18,1.42-.09,2.93-.09,4.35-.18a4.25,4.25,0,0,0,3.2-2,4.91,4.91,0,0,0,.89-2.93C208.69,42.83,208.6,39.09,208.6,35.27Z" fill="#020202"/><path d="M197.31,55.36H194.2c-1,0-2-.09-2.94-.09-.62,0-1.24-.09-1.86-.09a7.48,7.48,0,0,1-6.14-3.73,9,9,0,0,1-1.51-5.16V25a9.6,9.6,0,0,0-.09-1.6c-.09-.44-.09-.44-.53-.53a.68.68,0,0,1-.36-.09,2.44,2.44,0,1,1,.89-4.8A6.25,6.25,0,0,1,184.51,19a5.53,5.53,0,0,1,2,4.09,39.58,39.58,0,0,1,.09,4.62V45.4a8.24,8.24,0,0,0,.27,2.32,4,4,0,0,0,2.22,2.57,1.91,1.91,0,0,0,1.07.18c3.82.18,7.11.27,10.13.18h1c1.07,0,2.22-.09,3.29-.18a3,3,0,0,0,2.4-1.6,3.91,3.91,0,0,0,.71-2.31V24.42a9.16,9.16,0,0,1,.63-3.47,5.26,5.26,0,0,1,4.89-3.11,2.35,2.35,0,0,1,2.4,2.13,2.42,2.42,0,0,1-1.87,2.58,2.18,2.18,0,0,1-.71.09h-.27v.09a5,5,0,0,0-.09,1.16V45.76a11.28,11.28,0,0,1-.44,3.11,9,9,0,0,1-4.8,5.69,3.66,3.66,0,0,1-1.87.36A66.38,66.38,0,0,1,197.31,55.36ZM181.13,20c-.18,0-.36.09-.36.27s.27.36.36.36h.18a2.49,2.49,0,0,1,2.4,2.31,16.65,16.65,0,0,1,.08,1.95V46.2a6.66,6.66,0,0,0,1.16,4,5.54,5.54,0,0,0,4.45,2.84c.62,0,1.24.09,1.95.09,1,0,2,.09,2.94.09a109.86,109.86,0,0,0,11-.27,3.29,3.29,0,0,0,1.07-.18,6.67,6.67,0,0,0,3.73-4.35,7.78,7.78,0,0,0,.36-2.58V24a9.6,9.6,0,0,1,.09-1.6,2.17,2.17,0,0,1,1.78-1.77h.35a1.14,1.14,0,0,0,.54-.09c.17,0,.26-.18.26-.36a.28.28,0,0,0-.26-.27,3.1,3.1,0,0,0-3,1.78,7.21,7.21,0,0,0-.44,2.58V46.38a5.69,5.69,0,0,1-1.16,3.56,5.12,5.12,0,0,1-4,2.4c-1.15.09-2.31.09-3.38.18h-1A99.64,99.64,0,0,1,190,52.34a3.93,3.93,0,0,1-2-.45A6.24,6.24,0,0,1,184.77,48a12.74,12.74,0,0,1-.35-2.93V27.35c0-1.51,0-2.93-.09-4.35a3.28,3.28,0,0,0-1.25-2.58,4.33,4.33,0,0,0-1.86-.71C181.22,20,181.13,20,181.13,20Z" fill="#020202"/><path d="M66.69,17.31V50.83H87.23v4.09H62.42V17.31Z" fill="#020202"/><path d="M97,54.92H92.74V17.31H97Z" fill="#020202"/><path d="M132.93,21.4H119.77V54.92h-4.26V21.4H102.35V17.31h30.49V21.4Z" fill="#020202"/><path d="M174.9,17.31V54.92h-4.27V23.8l-14,17.87L142.54,23.8V54.92h-4.27V17.31h5l13.51,17.87L170,17.31Z" fill="#020202"/><path d="M224.79,23.09a4.26,4.26,0,0,0-1.43,2,7.67,7.67,0,0,0-.35,2.4,3.46,3.46,0,0,0,1.06,2.4A7.85,7.85,0,0,0,227,31.71,32.85,32.85,0,0,0,231.19,33c1.51.36,3.11.8,4.71,1.16s3.2.89,4.71,1.33a20.11,20.11,0,0,1,4.18,2,7.86,7.86,0,0,1,4,7,9.38,9.38,0,0,1-3.91,8.1c-2.67,1.86-6.31,2.75-10.94,2.75-5.24,0-9.24-1.06-12.09-3.29-2.49-2-3.82-4.8-4.18-8.44h4.45a7,7,0,0,0,3.73,5.86,16.27,16.27,0,0,0,8.09,1.78c7,0,10.59-2.22,10.59-6.67a4.13,4.13,0,0,0-1.87-3.55,15.26,15.26,0,0,0-4.8-2.14c-2-.53-4-1.06-6.23-1.6a56.25,56.25,0,0,1-6.22-1.86,14,14,0,0,1-4.8-3.12,7,7,0,0,1-1.87-5.15,8.93,8.93,0,0,1,3.56-7.47q3.47-2.94,10.67-2.94c4.8,0,8.44,1.07,11.11,3.29a10,10,0,0,1,3.83,7.47h-4.36c-.36-3.11-2.4-5.16-6.05-6.22a18.09,18.09,0,0,0-4.8-.54,14.42,14.42,0,0,0-4.8.63A9.72,9.72,0,0,0,224.79,23.09Z" fill="#020202"/><path d="M92.74,17H97V40.34H92.74Z" fill="#f05a2b"/><circle cx="19.83" cy="23.71" r="3.38" fill="#f05a2b"/><path d="M25.08,48.69a7.57,7.57,0,0,1-1.43,0,1.91,1.91,0,0,1-1.51-1.06,5.65,5.65,0,0,1-.53-4,10.13,10.13,0,0,1,2.66-4.89,4.15,4.15,0,0,1,2.05-1.25,3.08,3.08,0,0,1,2.93.36A7.29,7.29,0,0,1,32.54,42a3.5,3.5,0,0,1-1,3.74A9.83,9.83,0,0,1,26,48.69c-.17,0-.35.09-.53.09C25.43,48.69,25.25,48.69,25.08,48.69Zm.62-.35a2.46,2.46,0,0,0,.8-.09,3.17,3.17,0,0,0,2.31-2A2.79,2.79,0,0,0,29.08,45c-.09-.53-.45-.8-1-.53-.09.08-.18.08-.36.17s-.26.09-.35.18a1.06,1.06,0,0,1-1.25-.44,1.1,1.1,0,0,1,0-1.25,1.34,1.34,0,0,1,.36-.35.69.69,0,0,0-.45-1.16,3.05,3.05,0,0,0-1.78.18A3.17,3.17,0,0,0,22.14,44a5,5,0,0,0,.18,2.58,2.67,2.67,0,0,0,1.78,1.6,3.59,3.59,0,0,0,1.6.18Z" fill="#fff"/><path d="M14.76,48.69a10.33,10.33,0,0,1-6-1.86,7.56,7.56,0,0,1-1.69-1.6,3.65,3.65,0,0,1-.53-3.56,8.48,8.48,0,0,1,1.78-2.85A6.35,6.35,0,0,1,11,37.22a3.24,3.24,0,0,1,2.22.36,8.15,8.15,0,0,1,4,5.07,7.45,7.45,0,0,1,.36,2.75,5.69,5.69,0,0,1-.8,2.32A2.08,2.08,0,0,1,15,48.6.33.33,0,0,1,14.76,48.69Zm-4.71-3.64v.44a.54.54,0,0,0,.09.36,3.07,3.07,0,0,0,2.22,2.4,4.3,4.3,0,0,0,1.07.09,2.63,2.63,0,0,0,1.86-.45A3,3,0,0,0,16.72,45c-.09-.53-.54-.89-1.07-.45-.09.09-.18.18-.27.18a.92.92,0,0,1-1.06-.09c-.63-.53-.72-1.15-.09-1.69l.17-.17a.57.57,0,0,0,.09-.8.87.87,0,0,0-.62-.36H12.8a3.47,3.47,0,0,0-2.75,3.47Z" fill="#fff"/><path d="M31.83,63.37a2.51,2.51,0,0,0-.18-.8c-.09,0-.09-.09-.09-.18-.08-.27-.17-.45-.26-.71a19.76,19.76,0,0,0-3.13-4.54,16.17,16.17,0,0,0-3.57-2.93A10.84,10.84,0,0,0,20,52.52a7.4,7.4,0,0,0-3.39.53,10.22,10.22,0,0,0-3.3,2.13,21.45,21.45,0,0,0-3.4,4A17.16,17.16,0,0,0,8.09,63.1c-.18.53-.27,1.15-.45,1.78.09.09,0,.17,0,.26a6,6,0,0,0,3.66,5.78A12.56,12.56,0,0,0,14.87,72a36.12,36.12,0,0,0,4.38.45s.09-.09.09,0H22.1a13.47,13.47,0,0,0,3.31-.54,10,10,0,0,0,5.26-3.64A6.08,6.08,0,0,0,31.83,63.37ZM27.28,67a8.67,8.67,0,0,1-4.91,3.38,8,8,0,0,1-5.18-.18,11.91,11.91,0,0,1-5.44-3.82.31.31,0,0,1-.09-.18c.71.36,1.34.71,2,1.07A21.81,21.81,0,0,0,18.35,69a9.54,9.54,0,0,0,5.9-.63,17.17,17.17,0,0,0,3.48-2.13c.09,0,.09-.09.18-.09A3.18,3.18,0,0,1,27.28,67Z" fill="#af8070"/><path d="M28.45,60.79A3.4,3.4,0,0,1,27,63.54a17.42,17.42,0,0,1-4.18,2.4.75.75,0,0,1-.62,0,.47.47,0,0,1-.18-.71c.36-.44.62-1,1-1.42a6.84,6.84,0,0,0,1-2.93,2.28,2.28,0,0,1,.62-1.6,2,2,0,0,1,2.67-.18,5.05,5.05,0,0,1,1,1A2.68,2.68,0,0,1,28.45,60.79Z" fill="#060707"/><path d="M11.93,60.06a5.05,5.05,0,0,1,1-1,2,2,0,0,1,2.67.18,2.28,2.28,0,0,1,.62,1.6,6.71,6.71,0,0,0,1,2.93c.35.45.62,1,1,1.42a.49.49,0,0,1-.17.72.86.86,0,0,1-.63,0,17.73,17.73,0,0,1-4.17-2.41,3.41,3.41,0,0,1-1.43-2.75A3,3,0,0,1,11.93,60.06Z" fill="#060707"/><path d="M11.74,66.3c.62.36,1.24.71,1.95,1.07a16,16,0,0,0,4.72,1.69,10.18,10.18,0,0,0,5.86-.63,16.83,16.83,0,0,0,3.47-2.13c.09,0,.09-.09.18-.09h0a9.52,9.52,0,0,1-.53.89,8.66,8.66,0,0,1-4.89,3.38,9.32,9.32,0,0,1-5.16-.18,11.12,11.12,0,0,1-5.42-3.82c-.09-.09-.18-.09-.18-.18Z" fill="#fff"/><path d="M19.47,16.68A1.45,1.45,0,1,1,20,13.84c.26.09.44.18.62.26a1.42,1.42,0,0,1,.27,2,1.36,1.36,0,0,1-1,.53C19.83,16.77,19.65,16.68,19.47,16.68Z" fill="#f05a2b"/><path d="M19.47,16.68h.45v3.56h-.45Z" fill="#060707"/><path d="M15.65,22.11c-.09-.18-.09-.45-.18-.63a2.87,2.87,0,0,1,0-1.24v-.09C15.56,20.77,15.56,21.48,15.65,22.11Z" fill="#4b3938"/><path d="M25.7,48.34a3.45,3.45,0,0,1-1.34-.18,2.65,2.65,0,0,1-1.77-1.6A3.63,3.63,0,0,1,22.41,44a3,3,0,0,1,2.13-2.22,3.91,3.91,0,0,1,1.78-.18.71.71,0,0,1,.44,1.16l-.35.35a.86.86,0,0,0,0,1.25,1,1,0,0,0,1.24.44c.18-.09.27-.09.36-.18s.18-.09.36-.17a.7.7,0,0,1,1,.53,2.15,2.15,0,0,1-.26,1.24,3.19,3.19,0,0,1-2.32,2A2.35,2.35,0,0,1,25.7,48.34Z" fill="#060707"/><path d="M10.05,45.05a3.38,3.38,0,0,1,2.84-3.47,2.15,2.15,0,0,1,1.07,0,.89.89,0,0,1,.62.36.57.57,0,0,1-.09.8l-.17.17a1,1,0,0,0,.08,1.69.94.94,0,0,0,1.07.09c.09-.09.18-.09.27-.18.53-.44,1-.08,1.07.45a3.21,3.21,0,0,1-1.43,2.93,2.63,2.63,0,0,1-1.86.45,4.26,4.26,0,0,1-1.07-.09,3.06,3.06,0,0,1-2.22-2.4c0-.09-.09-.27-.09-.36A3.65,3.65,0,0,0,10.05,45.05Z" fill="#060707"/><path d="M39.48,8.5A8,8,0,0,0,37,2.72,6.74,6.74,0,0,0,33.26.86a4.59,4.59,0,0,0-4.45,1.51,11.09,11.09,0,0,0-2.4,4.27,41.1,41.1,0,0,0-1.69,6.66,35.74,35.74,0,0,0-.53,4.45c-.18,1.42-.27,2.93-.36,4.36.09,0,.09-.09.18-.09h-.09L21,24.42l-4.53-.62-.53-1.07c-.18-1.16-.36-2.49-.36-2.93l-.27-3.74a36.42,36.42,0,0,0-.71-4.45c-.35-1.24-.62-2.66-1.06-4a15.86,15.86,0,0,0-2.14-4.44,4.73,4.73,0,0,0-2.4-2A2,2,0,0,0,7.74.86H6.67C6.4.94,6.05.94,5.78,1A7.36,7.36,0,0,0,1,4.77,11.2,11.2,0,0,0,0,8.15V9.84c.09,0,0,.09,0,.09a15.9,15.9,0,0,0,.44,3.55,42.73,42.73,0,0,0,3.12,9.34A77.11,77.11,0,0,0,7.2,30c0,.09.09.09.09.18.18.27.09.44-.09.71a13.55,13.55,0,0,0-1.06,1.16,12.38,12.38,0,0,0-2.58,5.06,12.91,12.91,0,0,0-.27,3.21l.27,2.93c.09,1.07.17,2.13.26,3.29.09,1,.09,1.87.18,2.85l.27,2.13c.09.8.09,1.69.18,2.49a28.62,28.62,0,0,0,.44,4A15.58,15.58,0,0,0,6,61.32c.53,1.33,1.06,2.58,1.6,3.91a.28.28,0,0,0,.09.18A3.27,3.27,0,0,1,7.74,65c.17-.63.26-1.25.44-1.78A17.16,17.16,0,0,1,10,59.28a21,21,0,0,1,3.38-4,9.86,9.86,0,0,1,3.29-2.13A7.34,7.34,0,0,1,20,52.61a10.64,10.64,0,0,1,4.62,1.69,16.07,16.07,0,0,1,3.56,2.93,19.62,19.62,0,0,1,3.11,4.53,6.2,6.2,0,0,0,.27.72c0,.09,0,.09.09.17a26.49,26.49,0,0,0,1.68-5.15c.18-.89.36-1.87.45-2.76.18-1.33.44-2.58.62-3.91s.45-2.76.62-4.09c.18-1.07.27-2.14.45-3.2A24.73,24.73,0,0,1,35.83,41c.09-.8.18-1.51.27-2.31a8.67,8.67,0,0,0-.27-3A8,8,0,0,0,34.14,32a8.88,8.88,0,0,0-1.33-1.34l-.09-.09c-.35-.26-.35-.44-.18-.88a12.9,12.9,0,0,0,.89-1.61,73.36,73.36,0,0,0,4.81-11.2,30.6,30.6,0,0,0,1.06-4.8,9.54,9.54,0,0,0,.09-1.6h0l.09-2Zm-21.87,37a5.6,5.6,0,0,1-.8,2.31,2.07,2.07,0,0,1-1.78.89h-.27a10.33,10.33,0,0,1-6-1.86,7.56,7.56,0,0,1-1.69-1.6,3.65,3.65,0,0,1-.53-3.56,8.48,8.48,0,0,1,1.78-2.85A5.55,5.55,0,0,1,11,37.22a3.24,3.24,0,0,1,2.22.36,8.46,8.46,0,0,1,4,5.07A7.93,7.93,0,0,1,17.61,45.49Zm6.22-11.11Zm8.8,7.56a3.49,3.49,0,0,1-1,3.73,9.83,9.83,0,0,1-5.61,2.93c-.17,0-.35.09-.53.09H25a7.57,7.57,0,0,1-1.43,0,1.91,1.91,0,0,1-1.51-1.06,5.65,5.65,0,0,1-.53-4,10.14,10.14,0,0,1,2.67-4.9,4.13,4.13,0,0,1,2-1.24,3.1,3.1,0,0,1,2.94.36A6.57,6.57,0,0,1,32.63,41.94Z" fill="#563a39"/><path d="M12.89,25.13c-.09.53-.26,1.07-.35,1.51a6.66,6.66,0,0,1-.89,2.14c-.36.53-.54.62-1.07.17a12.18,12.18,0,0,1-2.4-2.84,33.43,33.43,0,0,1-5.07-10.4,23.5,23.5,0,0,1-1.06-5A7.35,7.35,0,0,1,2.4,6.81a4.34,4.34,0,0,1,1.25-2,5,5,0,0,1,3.2-1.16A3.5,3.5,0,0,1,9.16,4.68a8,8,0,0,1,1.6,2.22,19.55,19.55,0,0,1,1.78,5.43c.26,1.69.53,3.38.62,5.06.09,1,.09,2.05.09,3v.71A9.88,9.88,0,0,0,12.89,24,2.53,2.53,0,0,0,12.89,25.13Z" fill="#f05a2b"/><path d="M26.5,24.6c-.09-.36-.18-2.31-.27-2.67s-.09-.8-.09-1.25v-2.4c0-.53.09-1,.09-1.42.09-1.07.18-2.13.36-3.11a20,20,0,0,1,.89-4.09,16.09,16.09,0,0,1,1.77-3.82,6.67,6.67,0,0,1,1.34-1.43,3.19,3.19,0,0,1,2.93-.62A4.78,4.78,0,0,1,36.1,5.3a5.32,5.32,0,0,1,1.16,3,12.73,12.73,0,0,1-.27,4.1A31.85,31.85,0,0,1,34.14,21a34.66,34.66,0,0,1-3.82,6.31A14.3,14.3,0,0,1,28.72,29c-.53.45-.8.45-1.07-.17a10.08,10.08,0,0,1-1-2.76C26.76,26.11,26.68,25.66,26.5,24.6Z" fill="#f05a2b"/><path d="M26.32,22.37a8.71,8.71,0,0,1,.44,1.69,4.79,4.79,0,0,1,0,2,2.79,2.79,0,0,1-.35.8.17.17,0,0,0,0,.27,2.35,2.35,0,0,1,.44,1.33,8.64,8.64,0,0,1-.35,3c-.09.18-.09.36-.18.54-.09-.36-.09-.71-.18-1.07a3.15,3.15,0,0,0-.53-1.51.7.7,0,0,0-.36-.36v.27a7.67,7.67,0,0,1-.35,2.4,12.52,12.52,0,0,1-1,2.49c0,.09-.09.09-.09.18h0c0-.27.09-.54.09-.89A2.92,2.92,0,0,0,23.74,32a6.17,6.17,0,0,0-1.33-2.49,13.6,13.6,0,0,0-1.07-1.16h0c0,.36.09.62.09,1a4.3,4.3,0,0,1-.09,1.07A9.14,9.14,0,0,1,19.65,34l-.09.09V34a2.69,2.69,0,0,0-.09-1.69,11,11,0,0,0-.8-2.49c-.09-.09-.09-.09-.17-.09a2.09,2.09,0,0,0-.72.8,8.25,8.25,0,0,0-.44,2,21.28,21.28,0,0,0-.18,3.38V36a13.68,13.68,0,0,1-.89-6.49,5.77,5.77,0,0,0-.71,1.69A4,4,0,0,0,15.47,33l-.53-1.07A7.33,7.33,0,0,1,14.4,30a4.17,4.17,0,0,1-.08-1.78c0-.09,0-.09-.09-.18a3.17,3.17,0,0,1-1.16-1.68,7.78,7.78,0,0,1-.35-1.25c0-.36-.09-.8-.09-1.16A10.24,10.24,0,0,1,13,21.13V21a18.73,18.73,0,0,1,.71-1.87,12.6,12.6,0,0,0,.45,4.54,12.78,12.78,0,0,1,.44-2A13.42,13.42,0,0,1,15.21,20v.27a2.87,2.87,0,0,0,0,1.24,1.65,1.65,0,0,0,.17.63,6.64,6.64,0,0,0,.54,1.42,4.24,4.24,0,0,0,.35-2.76h0c.27.18.45.54.71.71.27.36.54.81.8,1.16s.36.8.54,1.16a12.54,12.54,0,0,1,1-2.94,9.31,9.31,0,0,0,.88,3.2,1.72,1.72,0,0,0,.36-.53A3.52,3.52,0,0,0,21,21c0-.18-.08-.36-.08-.53h0a18.09,18.09,0,0,1,1.24,2.66c.09-.17.27-.35.36-.53a2,2,0,0,1,.89-.62,2.32,2.32,0,0,1,1.06-.27h.18c0,.09,0,.09-.09.09a4.55,4.55,0,0,0-.62,1.51A1.73,1.73,0,0,0,24,24.51c.09.18.09.18.26.09a1.6,1.6,0,0,0,.89-1,4,4,0,0,0,.27-1.42V20.68l.27.54C26.05,21.75,26.14,22.11,26.32,22.37Z" fill="#060707"/><path d="M.09,40.07a2.17,2.17,0,0,1,2.13-1.42.78.78,0,0,0,.63-.45A3.14,3.14,0,0,1,6,36.07H31.83a10.79,10.79,0,0,1,2.4.18,2.7,2.7,0,0,1,2.05,1.86c.18.45.35.63.8.54A2,2,0,0,1,39.3,40v3.65c-.53,1.33-1.6,1.51-2.84,1.42l-.27,2.13a8.3,8.3,0,0,1-5.42,6.49c-3.21,1.07-6.58-.35-8.54-3.38A14.39,14.39,0,0,0,20.45,48c-.71-.8-1.15-.8-1.87,0a22.11,22.11,0,0,0-1.69,2.23,7.91,7.91,0,0,1-5.33,3.73,7.11,7.11,0,0,1-7.11-3.2,9.6,9.6,0,0,1-1.78-5.69A2.22,2.22,0,0,1,.09,43.71Zm19.56-2.76H6a1.83,1.83,0,0,0-2,2v4.8a17.39,17.39,0,0,0,.27,3.11,6.7,6.7,0,0,0,6.4,5.43c2.31,0,4-1.25,5.34-3.21a23.53,23.53,0,0,1,2.31-2.84,1.75,1.75,0,0,1,2.75,0,20.09,20.09,0,0,1,2.41,2.93,6.15,6.15,0,0,0,6.31,2.94,7,7,0,0,0,5.42-6.4c.18-2.14.09-4.36.09-6.5,0-1.69-.62-2.4-2.31-2.4C28.54,37.31,24.1,37.31,19.65,37.31Z"/><path d="M19.65,37.31H33c1.69,0,2.31.62,2.31,2.4,0,2.14.09,4.36-.09,6.49a7,7,0,0,1-5.42,6.41,6.34,6.34,0,0,1-6.32-2.94,18.92,18.92,0,0,0-2.4-2.93,1.75,1.75,0,0,0-2.75,0A14.76,14.76,0,0,0,16,49.58a6.6,6.6,0,0,1-5.34,3.2,6.85,6.85,0,0,1-6.4-5.42A11.82,11.82,0,0,1,4,44.25c-.09-1.6,0-3.2,0-4.8A1.83,1.83,0,0,1,6.05,37.4H17a25.59,25.59,0,0,1,2.67-.09Z" fill="#f05a2b" opacity="0.27" style="isolation:isolate"/></svg>