<svg width="268" height="49" viewBox="0 0 268 49" fill="none" xmlns="http://www.w3.org/2000/svg">
<rect width="267" height="47" fill="black" fill-opacity="0" transform="translate(1 1)"/>
<rect width="201" height="21" fill="black" fill-opacity="0" transform="translate(67 14)"/>
<rect width="156" height="20" fill="black" fill-opacity="0" transform="translate(67 14)"/>
<rect width="156" height="20" fill="black" fill-opacity="0" transform="translate(67 14)"/>
<path d="M102.446 14.6006L110.423 33.3393H108.384L102.446 19.1051L96.4484 33.3393H94.4092L102.446 14.6006Z" fill="#FEFEFE"/>
<path d="M115.642 24.5105L114.442 22.7087L118.041 17.1231H120.2L115.642 24.5105ZM115.222 25.1712V33.3393H113.243V25.1712L106.705 14.6006H108.984L115.222 25.1712Z" fill="#FEFEFE"/>
<path d="M126.077 14.6006L134.054 33.3393H132.015L126.077 19.1051L120.019 33.3393H118.04L126.077 14.6006Z" fill="#FEFEFE"/>
<path d="M119.48 14.6006L118.4 16.5225H120.68L121.819 14.6006H119.48Z" fill="#FEFEFE"/>
<path d="M93.9296 23.6698C93.8097 22.889 93.6298 22.1683 93.3898 21.4475C92.7901 19.7058 91.7705 18.0842 90.391 16.8229C89.5513 16.0421 88.5917 15.3815 87.5121 14.8409C87.3922 14.7809 87.2722 14.7809 87.1523 14.8409L85.9527 15.3815C85.173 15.7418 84.3933 16.1623 83.6736 16.6427C82.8339 17.1833 82.0542 17.7839 81.2745 18.3845L80.6148 18.865C80.4948 18.9851 80.3749 18.9851 80.2549 18.865C79.955 18.6247 79.7151 18.4445 79.4152 18.2043C77.9758 17.0632 76.4164 16.1022 74.797 15.2614L73.7774 14.7809C73.6575 14.7208 73.5375 14.7208 73.4175 14.7809C73.3576 14.8409 73.2976 14.8409 73.2376 14.901C72.8178 15.1412 72.3979 15.3214 72.0381 15.6217C71.3183 16.1022 70.6586 16.6427 70.0588 17.3034C69.3391 18.0842 68.6794 18.925 68.1995 19.886C67.4198 21.4476 67 23.1893 67 24.9911C67 25.5316 67 26.1322 67.06 26.6728C67.12 27.1533 67.1799 27.6938 67.2399 28.1743C67.4198 29.1953 67.7797 30.0962 68.3195 30.9971C68.7993 31.7779 69.2791 32.5587 69.7589 33.3394H73.1776L72.9977 32.7388C72.5779 31.5977 72.218 30.4566 71.9181 29.2554C71.7382 28.5947 71.6182 27.934 71.4983 27.2133C71.4383 26.7929 71.3783 26.3725 71.3783 25.9521C71.3783 25.7118 71.3783 25.5316 71.3783 25.2914C71.3783 24.871 71.4383 24.4506 71.4983 24.0301C71.4983 23.6097 71.5583 23.1292 71.6782 22.7088C71.8581 22.0481 72.278 21.4476 72.7578 20.9671C73.3576 20.4265 74.0773 20.1262 74.917 20.0061C75.5167 19.946 76.1165 20.1262 76.5363 20.4866C76.8962 20.7869 77.1961 21.1473 77.376 21.5677C77.6759 22.1683 77.8558 22.7689 77.9758 23.3695C78.1557 24.2103 78.2757 25.1112 78.2757 25.9521C78.2757 26.5527 78.2757 27.1533 78.2757 27.8139C78.2757 28.4145 78.2757 29.0752 78.2757 29.7358C78.2757 30.3965 78.2757 32.6187 78.1557 33.2193C78.1557 33.3394 78.1557 33.3394 78.2757 33.3394H82.8939C82.9539 33.3394 82.9539 33.3394 82.9539 33.2794V33.2193C82.8939 32.859 82.8939 30.877 82.8939 30.5166C82.8339 29.856 82.8339 29.1953 82.7739 28.5346C82.7739 27.6938 82.7739 26.853 82.7739 26.0121C82.7739 25.2313 82.8339 24.3905 82.9539 23.6097C83.0738 23.0692 83.1938 22.4686 83.3737 21.9881C83.5536 21.4476 83.8535 21.0271 84.2134 20.6067C84.6332 20.1863 85.233 19.946 85.8328 19.946C86.1926 19.946 86.4925 20.0061 86.8524 20.1262C87.5721 20.3665 88.2318 20.7869 88.7117 21.3875C89.1915 21.9881 89.4914 22.7088 89.5513 23.4295C89.6113 23.9701 89.6713 24.5707 89.7313 25.1713C89.7313 25.4115 89.7313 25.6518 89.7313 25.892C89.7313 26.4325 89.6113 26.9731 89.5513 27.5136C89.3714 28.5346 89.0715 29.5557 88.7716 30.5166C88.4718 31.4776 88.1119 32.4385 87.812 33.3995H91.1707C91.5906 32.7388 92.0104 32.0181 92.4302 31.3575C93.03 30.3965 93.3898 29.3755 93.6298 28.2944C93.8097 27.4536 93.8697 26.6127 93.9296 25.7719C93.9896 25.0512 93.9896 24.3304 93.9296 23.6698Z" fill="#FEFEFE"/>
<path d="M144.611 15.8018C143.771 15.8619 142.991 16.1021 142.271 16.4024C141.372 16.8228 140.532 17.4234 139.872 18.1441C139.213 18.8649 138.673 19.7057 138.313 20.6667C137.953 21.6276 137.713 22.6487 137.773 23.6697C137.773 24.6907 137.953 25.7117 138.313 26.6727C138.673 27.5736 139.213 28.4144 139.872 29.1351C140.532 29.8559 141.372 30.4565 142.271 30.8769C143.051 31.2372 143.831 31.4174 144.671 31.4775V33.0991C143.651 33.039 142.631 32.7988 141.672 32.3784C140.532 31.8979 139.513 31.2372 138.613 30.3363C137.773 29.4955 137.053 28.4745 136.574 27.3333C136.094 26.1321 135.794 24.8709 135.794 23.5495C135.794 22.2883 136.034 20.967 136.574 19.8258C137.533 17.5435 139.393 15.6817 141.672 14.7207C142.631 14.3003 143.651 14.0601 144.671 14V15.8018H144.611ZM145.63 31.5976C146.59 31.5976 147.609 31.3574 148.509 30.997C149.409 30.6366 150.248 30.036 150.908 29.3153C151.568 28.5946 152.108 27.7537 152.468 26.8528C152.827 25.8919 153.007 24.8709 153.007 23.7898C153.007 22.7087 152.827 21.6877 152.468 20.6667C152.108 19.7057 151.628 18.8649 150.908 18.1441C150.248 17.4234 149.409 16.8829 148.509 16.4625C147.609 16.1021 146.59 15.8619 145.63 15.8619V14.1802C146.83 14.1802 148.029 14.4204 149.169 14.9009C150.308 15.3814 151.328 16.042 152.228 16.9429C153.067 17.7838 153.787 18.8649 154.207 19.9459C154.687 21.1471 154.927 22.4084 154.927 23.7297C154.927 25.051 154.687 26.3123 154.207 27.5135C153.727 28.6547 153.067 29.6757 152.168 30.5165C151.328 31.3574 150.248 32.0781 149.169 32.4985C148.029 32.9189 146.89 33.1592 145.63 33.2192V31.5976Z" fill="#663399"/>
<path d="M156.966 14.1201L170.641 29.015V14.7207H172.56V34L158.885 19.045V33.3393H156.966V14.1201Z" fill="#663399"/>
<path d="M175.318 14.7207H177.238V31.6576H185.574V33.2793H175.318V14.7207Z" fill="#663399"/>
<path d="M188.394 14.7808H190.373V33.3393H188.394V14.7808Z" fill="#663399"/>
<path d="M193.132 14.1802L206.807 29.0751V14.7808H208.726V34L195.051 19.045V33.3393H193.132V14.1802Z" fill="#663399"/>
<path d="M211.545 31.6576H223.001V33.2793H211.605L211.545 31.6576ZM211.545 14.7207H222.941V16.3423H211.545V14.7207ZM211.545 22.9489H222.521V24.6306H211.605L211.545 22.9489Z" fill="#663399"/>
<path d="M228.803 36V28.047H231.548C232.068 28.047 232.512 28.0965 232.879 28.1955C233.249 28.2945 233.551 28.4357 233.786 28.619C234.024 28.8023 234.199 29.0242 234.309 29.2845C234.419 29.5448 234.474 29.8382 234.474 30.1645C234.474 30.3515 234.446 30.5312 234.391 30.7035C234.336 30.8722 234.25 31.0317 234.133 31.182C234.019 31.3287 233.872 31.4625 233.693 31.5835C233.517 31.7045 233.306 31.8072 233.06 31.8915C234.153 32.1372 234.699 32.7275 234.699 33.6625C234.699 33.9998 234.635 34.3115 234.507 34.5975C234.378 34.8835 234.191 35.131 233.946 35.34C233.7 35.5453 233.397 35.7067 233.038 35.824C232.679 35.9413 232.268 36 231.806 36H228.803ZM230.283 32.513V34.845H231.784C232.059 34.845 232.288 34.812 232.472 34.746C232.659 34.68 232.807 34.592 232.917 34.482C233.031 34.372 233.111 34.2437 233.159 34.097C233.21 33.9503 233.236 33.7945 233.236 33.6295C233.236 33.4572 233.209 33.3032 233.154 33.1675C233.099 33.0282 233.012 32.9108 232.895 32.8155C232.778 32.7165 232.627 32.6413 232.444 32.59C232.261 32.5387 232.039 32.513 231.779 32.513H230.283ZM230.283 31.49H231.465C231.967 31.49 232.349 31.3983 232.609 31.215C232.869 31.0317 233 30.7402 233 30.3405C233 29.9262 232.882 29.631 232.648 29.455C232.413 29.279 232.046 29.191 231.548 29.191H230.283V31.49ZM240.984 28.047V29.224H237.459V31.4295H240.236V32.568H237.459V34.8175H240.984V36H235.968V28.047H240.984ZM247.867 28.047V29.2625H245.475V36H243.995V29.2625H241.592V28.047H247.867ZM254.99 36H253.846C253.717 36 253.611 35.9688 253.527 35.9065C253.446 35.8405 253.387 35.7598 253.351 35.6645L252.757 34.042H249.462L248.868 35.6645C248.839 35.7488 248.78 35.8258 248.692 35.8955C248.608 35.9652 248.503 36 248.379 36H247.229L250.353 28.047H251.866L254.99 36ZM249.842 32.997H252.377L251.409 30.3515C251.365 30.2342 251.316 30.0967 251.261 29.939C251.209 29.7777 251.158 29.6035 251.107 29.4165C251.055 29.6035 251.004 29.7777 250.953 29.939C250.905 30.1003 250.857 30.2415 250.81 30.3625L249.842 32.997Z" fill="#FEFEFE"/>
<rect width="47" height="47" fill="black" fill-opacity="0" transform="translate(1 1)"/>
<path d="M35.3098 45.1247C36.2774 44.5717 35.6001 42.9129 35.7245 41.807C35.9733 39.5262 35.3512 37.4664 33.5403 35.9458C33.2777 35.7247 33.2639 35.5311 33.4159 35.227C34.2868 33.4576 35.213 31.702 35.9733 29.8773C37.2174 26.9329 38.1159 23.9194 37.9638 20.6432C37.8533 18.3623 36.3465 16.2611 34.2453 15.7082C32.7247 15.3073 31.4668 15.6944 30.513 16.98C30.1536 17.4638 29.8356 17.9752 29.6006 18.5282C28.8265 20.2561 28.4532 22.0947 28.0662 23.947C27.4994 26.6979 27.2783 29.4626 27.3612 32.2688C27.3751 32.877 27.3612 33.4991 27.3612 34.0659C26.4351 33.9967 25.495 33.8861 24.555 33.8861C23.6012 33.8861 22.6474 34.0105 21.6798 34.0797C21.6798 33.9829 21.6659 33.8723 21.6798 33.7617C22.0115 29.1447 21.4309 24.6244 20.1453 20.2009C19.7997 19.012 19.3297 17.8647 18.5279 16.897C17.9335 16.1782 17.2424 15.6667 16.3024 15.5976C13.6621 15.3903 11.2983 17.6435 11.16 20.4911C11.0771 22.4264 11.2707 24.3064 11.8098 26.1726C12.7359 29.3244 14.0491 32.3103 15.6388 35.1717C15.7909 35.4482 15.9153 35.6832 15.5974 35.9458C13.7865 37.4526 13.2197 39.4708 13.358 41.7517C13.4271 42.9405 13.593 44.1294 13.7727 45.3182C13.7865 45.2906 24.3339 51.3314 35.3098 45.1247Z" fill="#FEFEFE"/>
<path d="M24.5 48C37.4787 48 48 37.4787 48 24.5C48 11.5213 37.4787 1 24.5 1C11.5213 1 1 11.5213 1 24.5C1 37.4787 11.5213 48 24.5 48Z" stroke="#FEFEFE" stroke-width="2" stroke-miterlimit="10"/>
</svg>
