<svg xmlns="http://www.w3.org/2000/svg" xmlns:xlink="http://www.w3.org/1999/xlink" version="1.1" style="enable-background:new 0 0 2160 5184;" xml:space="preserve" width="1763" height="222"><rect id="backgroundrect" width="100%" height="100%" x="0" y="0" fill="none" stroke="none" class="" style=""/>
<style type="text/css">
	.st0{fill:#663399;}
	.st1{fill:#262B3E;}
</style>

<g class="currentLayer" style=""><title>Layer 1</title><g id="XMLID_34_" class="selected">
	<path id="XMLID_69_" class="st0" d="M600.0050898015149,7.8999755859374545 l83.70262870788574,206.1 h-21.354656982421872 L600.0050898015149,57.5999755859375 l-63.01530475616455,156.4 h-21.354656982421872 L600.0050898015149,7.8999755859374545 z"/>
	<path id="XMLID_66_" class="st0" d="M738.2383604466565,116.99997558593759 l-12.488661003112792,-19.7 l38.03798274993896,-61.5 l22.689323043823244,0.3000000000000002 L738.2383604466565,116.99997558593759 zM733.662362521852,124.29997558593755 v89.7 h-20.496657371520996 v-89.7 l-68.83063545227051,-116.3 h23.64265594482422 L733.662362521852,124.29997558593755 z"/>
	<path id="XMLID_64_" class="st0" d="M847.5856441914685,7.999975585937591 l83.70262870788574,206.1 H909.9336159169325 l-62.34797172546387,-156.4 l-63.01530475616455,156.4 h-21.354656982421872 L847.5856441914685,7.999975585937591 z"/>
	<polygon id="XMLID_28_" class="st0" points="778.9456787109375,8 766.9336547851562,28.5999755859375 791.1483764648438,28.5999755859375 803.0650024414062,8 "/>
	<path id="XMLID_27_" class="st0" d="M510.0104639470228,107.19997558593741 c-0.9533329010009765,-8.3 -2.8599987030029297,-16.3 -5.433997535705567,-24.2 c-6.291997146606445,-19.7 -16.68332576751709,-36.6 -31.26931915283203,-50.7 c-9.056662559509277,-8.7 -19.257324600219725,-15.8 -30.125319671630862,-21.8 c-1.1439994812011718,-0.6000000000000004 -2.2879989624023436,-0.6000000000000004 -3.5273317337036136,0 c-4.194664764404298,2 -8.389329528808595,4 -12.488661003112792,6.1 c-8.198662948608398,4.2 -16.301992607116702,8.8 -23.833322525024414,14.1 c-8.579996109008789,6.1 -16.873992347717284,12.7 -25.16798858642578,19.2 c-2.2879989624023436,1.8 -4.575997924804687,3.7 -6.863996887207032,5.4 c-1.6206659317016603,1.2 -2.573998832702637,1.2 -4.003998184204102,-0.1 c-2.8599987030029297,-2.6 -6.005997276306152,-4.9 -8.96132926940918,-7.4 c-15.157993125915528,-12.4 -31.173985862731936,-23.5 -48.429311370849604,-32.4 c-3.5273317337036136,-1.8 -7.149996757507324,-3.5 -10.772661781311037,-5.2 c-1.4299993515014648,-0.7000000000000004 -2.669332122802734,-0.6000000000000004 -3.9086648941040036,0.3000000000000002 c-0.5719997406005864,0.4 -1.2393327713012696,0.8 -1.8113325119018553,1.1 c-4.2899980545043945,2.6 -8.675329399108886,5 -12.67932758331299,7.9 c-7.34066333770752,5.3 -14.204660224914551,11.3 -20.401324081420896,18.1 c-7.912663078308106,8.6 -14.490660095214842,18.1 -19.63865776062012,28.7 c-8.579996109008789,17.6 -12.297994422912598,36.4 -12.67932758331299,56 c-0.09533329010009768,6.1 0.28599987030029317,12.2 0.8579996109008793,18.3 c0.4766664505004883,5.5 1.0486661911010744,11.1 2.0973323822021492,16.6 c2.001999092102051,11 5.624664115905762,21.4 11.058661651611327,31 c4.86199779510498,8.6 9.81932888031006,17.2 14.776659965515137,25.8 h35.65465049743652 c-0.7626663208007813,-2.2 -1.5253326416015627,-4.5 -2.1926656723022457,-6.7 c-4.194664764404298,-12.7 -8.389329528808595,-25.4 -11.535328102111816,-38.4 c-1.8113325119018553,-7.4 -3.24133186340332,-14.8 -4.2899980545043945,-22.3 c-0.6673330307006838,-4.6 -1.1439994812011718,-9.1 -1.4299993515014648,-13.7 c-0.19066658020019536,-2.6 -0.4766664505004883,-5.1 -0.28599987030029317,-7.7 c0.38133316040039067,-4.7 0.7626663208007813,-9.3 1.1439994812011718,-14 c0.4766664505004883,-4.8 1.1439994812011718,-9.5 2.573998832702637,-14 c2.1926656723022457,-7.5 5.815330696105956,-14 11.439994812011719,-19.2 c6.387330436706543,-5.9 13.918660354614257,-9.5 22.40332317352295,-10.4 c6.48266372680664,-0.7000000000000004 12.488661003112792,0.9 17.731991958618167,5.1 c3.8133316040039062,3.1 6.48266372680664,7.2 8.675329399108886,11.7 c3.0506652832031254,6.3 4.86199779510498,13.1 6.291997146606445,20 c1.9066658020019531,9.3 2.7646654129028323,18.8 2.9553319931030275,28.3 c0.19066658020019536,6.8 0.09533329010009768,13.5 -0.09533329010009768,20.3 c-0.19066658020019536,7 -0.38133316040039067,14 -0.4766664505004883,20.9 c-0.19066658020019536,6.9 -0.38133316040039067,31.5 -1.4299993515014648,38.4 c-0.28599987030029317,1.6 -0.19066658020019536,1.6 1.334666061401367,1.6 c15.920659446716307,0 31.745985603332517,0 47.66664505004883,0 c0.28599987030029317,0 0.5719997406005864,0 0.8579996109008793,0 c0.4766664505004883,0 0.6673330307006838,-0.2 0.6673330307006838,-0.7000000000000004 c0,-0.2 0,-0.4 0,-0.7000000000000004 c-0.4766664505004883,-4 -0.6673330307006838,-25.7 -0.8579996109008793,-29.7 c-0.38133316040039067,-7.3 -0.7626663208007813,-14.7 -1.0486661911010744,-22 c-0.28599987030029317,-9.2 -0.28599987030029317,-18.4 0.09533329010009768,-27.6 c0.38133316040039067,-8.8 1.1439994812011718,-17.6 2.669332122802734,-26.4 c1.1439994812011718,-6.3 2.4786655426025392,-12.5 4.86199779510498,-18.4 c2.2879989624023436,-5.6 5.147997665405274,-10.9 9.342662429809572,-15.1 c4.671331214904786,-4.7 10.295995330810548,-7.1 16.77865905761719,-7.2 c3.336665153503418,-0.1 6.673330307006836,0.6000000000000004 9.81932888031006,1.7000000000000002 c7.817329788208007,2.7 14.490660095214842,7.2 19.63865776062012,14.1 c4.86199779510498,6.7 7.435996627807617,14.4 8.675329399108886,22.7 c0.9533329010009765,6.3 1.2393327713012696,12.6 1.715999221801758,18.9 c0.19066658020019536,2.6 0,5.2 -0.19066658020019536,7.8 c-0.38133316040039067,6 -1.0486661911010744,11.9 -1.9066658020019531,17.8 c-1.8113325119018553,11.3 -4.48066463470459,22.3 -7.6266632080078125,33.2 c-3.1459985733032223,10.7 -6.768663597106933,21.2 -10.295995330810548,31.7 h35.84531707763672 c4.3853313446044915,-7.5 8.770662689208983,-14.9 13.060660743713377,-22.4 c6.005997276306152,-10.5 10.295995330810548,-21.8 12.583994293212891,-33.8 c1.715999221801758,-9.1 2.7646654129028323,-18.2 3.24133186340332,-27.5 C511.24979671832403,122.69997558593741 510.9637968480238,114.99997558593759 510.0104639470228,107.19997558593741 z"/>
	<path id="XMLID_59_" class="st1" d="M961.4135925709852,9.399975585937455 h54.244642066955564 c3.5273317337036136,0 7.817329788208007,0.2 12.774660873413087,0.5 c5.052664375305175,0.4 9.81932888031006,1 14.299993515014648,1.9 c10.581995201110841,2.1 20.401324081420896,5.8 29.648653221130374,11.1 c9.247329139709471,5.3 17.25532550811768,12.2 24.11932239532471,20.7 c6.863996887207032,8.4 12.297994422912598,18.2 16.2066593170166,29.4 c3.9086648941040036,11.1 5.910663986206055,23.4 5.910663986206055,36.8 c0,12.6 -1.8113325119018553,24.2 -5.433997535705567,34.9 c-3.6226650238037106,10.7 -8.579996109008789,20.2 -14.871993255615234,28.7 c-6.291997146606445,8.5 -13.82332706451416,15.7 -22.49865646362305,21.6 c-8.675329399108886,5.9 -18.017991828918454,10.2 -28.12332057952881,12.9 c-4.575997924804687,1.3 -9.437995719909669,2.2 -14.585993385314943,2.6 c-5.147997665405274,0.4 -10.867995071411134,0.5 -17.064658927917478,0.5 H961.4135925709852 V9.399975585937455 zM1015.1815681874403,193.0999755859375 c5.529330825805664,0 10.581995201110841,-0.2 15.253326416015625,-0.5 c4.671331214904786,-0.4 9.056662559509277,-1.1 13.155994033813478,-2.3 c8.1033296585083,-2.2 15.53932628631592,-5.7 22.30798988342285,-10.7 c6.768663597106933,-5 12.488661003112792,-10.9 17.350658798217772,-17.8 c4.86199779510498,-6.9 8.579996109008789,-14.7 11.344661521911622,-23.3 c2.669332122802734,-8.7 4.003998184204102,-18 4.003998184204102,-27.8 c0,-10.9 -1.4299993515014648,-20.8 -4.194664764404298,-29.9 c-2.7646654129028323,-9 -6.768663597106933,-17 -11.82132797241211,-23.9 c-5.052664375305175,-6.9 -11.249328231811525,-12.7 -18.30399169921875,-17.3 c-7.149996757507324,-4.6 -14.96732654571533,-7.9 -23.54732265472412,-10 c-3.7179983139038084,-0.9 -7.912663078308106,-1.5 -12.67932758331299,-1.8 c-4.766664505004883,-0.3000000000000002 -9.056662559509277,-0.4 -12.96532745361328,-0.4 h-33.65265140533447 v165.7 H1015.1815681874403 z"/>
	<path id="XMLID_57_" class="st1" d="M1201.5581503331314,-0.00002441406240905056 l85.7046277999878,211 H1265.5267879902967 l-63.87330436706543,-160.2 l-64.54063739776612,160.2 h-21.83132343292236 L1201.5581503331314,-0.00002441406240905056 z"/>
	<path id="XMLID_37_" class="st1" d="M1313.765432780946,27.399975585937455 h-51.28931007385253 v-17.9 h122.4079444885254 v17.9 h-51.003310203552246 v183.6 h-20.019990921020508 V27.399975585937455 z"/>
	<path id="XMLID_35_" class="st1" d="M1449.7107044636855,-0.00002441406240905056 l85.7046277999878,211 h-21.83132343292236 l-63.87330436706543,-160.2 l-64.54063739776612,160.2 h-21.83132343292236 L1449.7107044636855,-0.00002441406240905056 z"/>
</g></g></svg>