<?xml version="1.0" encoding="utf-8"?>
<!-- Generator: Adobe Illustrator 22.1.0, SVG Export Plug-In . SVG Version: 6.00 Build 0)  -->
<svg version="1.1" id="Layer_1" xmlns="http://www.w3.org/2000/svg" xmlns:xlink="http://www.w3.org/1999/xlink" x="0px" y="0px"
	 viewBox="0 0 150.1 14.6" style="enable-background:new 0 0 150.1 14.6;" xml:space="preserve">
<style type="text/css">
	.st0{fill:#F1A64F;}
	.st1{fill:#494B49;}
</style>
<g>
	<path class="st0" d="M26.1,0.4l5.8,13.7h-1.5L26.1,3.7l-4.4,10.4h-1.5L26.1,0.4z"/>
	<path class="st0" d="M35.7,7.6l-0.9-1.3L37.6,2l1.6,0L35.7,7.6z M35.4,8.1V14H34V8.1l-4.8-7.7h1.6L35.4,8.1z"/>
	<path class="st0" d="M43.3,0.4l5.8,13.7h-1.5L43.3,3.7l-4.4,10.4h-1.5L43.3,0.4z"/>
	<polygon class="st0" points="38.5,0.4 37.7,1.8 39.4,1.8 40.2,0.4 	"/>
	<path class="st0" d="M19.9,7c-0.1-0.5-0.2-1.1-0.4-1.6C19,4.1,18.3,2.9,17.3,2c-0.6-0.6-1.3-1-2.1-1.4c-0.1,0-0.2,0-0.2,0
		c-0.3,0.1-0.6,0.3-0.9,0.4c-0.6,0.3-1.1,0.6-1.7,0.9c-0.6,0.4-1.2,0.8-1.7,1.3c-0.2,0.1-0.3,0.2-0.5,0.4c-0.1,0.1-0.2,0.1-0.3,0
		C9.7,3.4,9.5,3.2,9.3,3.1C8.3,2.2,7.2,1.5,6,0.9C5.7,0.8,5.5,0.7,5.2,0.6c-0.1,0-0.2,0-0.3,0c0,0-0.1,0.1-0.1,0.1
		C4.5,0.8,4.2,1,3.9,1.2c-0.5,0.4-1,0.8-1.4,1.2c-0.5,0.6-1,1.2-1.4,1.9C0.5,5.4,0.3,6.7,0.3,8c0,0.4,0,0.8,0.1,1.2
		c0,0.4,0.1,0.7,0.1,1.1c0.1,0.7,0.4,1.4,0.8,2.1c0.3,0.6,0.7,1.1,1,1.7h2.5c-0.1-0.1-0.1-0.3-0.2-0.4c-0.3-0.8-0.6-1.7-0.8-2.5
		c-0.1-0.5-0.2-1-0.3-1.5c0-0.3-0.1-0.6-0.1-0.9c0-0.2,0-0.3,0-0.5c0-0.3,0.1-0.6,0.1-0.9c0-0.3,0.1-0.6,0.2-0.9
		C3.8,5.8,4,5.4,4.4,5c0.4-0.4,1-0.6,1.6-0.7c0.5,0,0.9,0.1,1.2,0.3c0.3,0.2,0.5,0.5,0.6,0.8C8,5.9,8.1,6.3,8.2,6.8
		C8.4,7.4,8.4,8,8.5,8.7c0,0.4,0,0.9,0,1.3c0,0.5,0,0.9,0,1.4c0,0.5,0,2.1-0.1,2.5c0,0.1,0,0.1,0.1,0.1c1.1,0,2.2,0,3.3,0
		c0,0,0,0,0.1,0c0,0,0,0,0,0c0,0,0,0,0,0c0-0.3,0-1.7-0.1-2c0-0.5-0.1-1-0.1-1.5c0-0.6,0-1.2,0-1.8c0-0.6,0.1-1.2,0.2-1.7
		c0.1-0.4,0.2-0.8,0.3-1.2c0.2-0.4,0.4-0.7,0.7-1c0.3-0.3,0.7-0.5,1.2-0.5c0.2,0,0.5,0,0.7,0.1c0.5,0.2,1,0.5,1.4,0.9
		c0.3,0.4,0.5,1,0.6,1.5c0.1,0.4,0.1,0.8,0.1,1.3c0,0.2,0,0.3,0,0.5c0,0.4-0.1,0.8-0.1,1.2c-0.1,0.7-0.3,1.5-0.5,2.2
		c-0.2,0.7-0.5,1.4-0.7,2.1h2.5c0.3-0.5,0.6-1,0.9-1.5c0.4-0.7,0.7-1.4,0.9-2.2c0.1-0.6,0.2-1.2,0.2-1.8C19.9,8,19.9,7.5,19.9,7z"/>
	<path class="st1" d="M56.9,1.3c-0.6,0.1-1.2,0.2-1.7,0.5c-0.7,0.3-1.3,0.7-1.8,1.3c-0.5,0.5-0.9,1.1-1.2,1.8
		C52,5.5,51.8,6.3,51.8,7c0,0.8,0.1,1.5,0.4,2.2c0.3,0.7,0.7,1.3,1.2,1.8c0.5,0.5,1.1,0.9,1.8,1.2c0.5,0.2,1.1,0.4,1.7,0.4V14
		c-0.8-0.1-1.5-0.2-2.2-0.5c-0.9-0.4-1.6-0.8-2.2-1.5c-0.6-0.6-1.1-1.4-1.5-2.2C50.6,8.9,50.4,8,50.4,7c0-1,0.2-1.9,0.6-2.7
		c0.4-0.8,0.9-1.6,1.5-2.2c0.6-0.6,1.4-1.1,2.2-1.5c0.7-0.3,1.4-0.5,2.2-0.5V1.3z M57.6,12.8c0.8,0,1.5-0.2,2.1-0.4
		c0.7-0.3,1.3-0.7,1.8-1.2c0.5-0.5,0.9-1.1,1.1-1.8C62.9,8.6,63,7.9,63,7.1c0-0.8-0.1-1.6-0.4-2.3c-0.3-0.7-0.6-1.3-1.1-1.8
		C61,2.4,60.4,2,59.7,1.7c-0.6-0.3-1.3-0.4-2.1-0.4V0.1c0.9,0,1.8,0.2,2.6,0.5c0.9,0.4,1.6,0.8,2.2,1.5c0.6,0.6,1.1,1.4,1.5,2.2
		C64.2,5.1,64.4,6,64.4,7c0,1-0.2,1.9-0.5,2.8c-0.4,0.8-0.9,1.6-1.5,2.2c-0.6,0.6-1.4,1.1-2.2,1.5c-0.8,0.3-1.7,0.5-2.6,0.5V12.8z"
		/>
	<path class="st1" d="M65.9,0l10,10.9V0.5h1.4v14l-10-10.9V14h-1.4V0z"/>
	<path class="st1" d="M79.3,0.5h1.4v12.3h6.1V14h-7.5V0.5z"/>
	<path class="st1" d="M88.9,0.5h1.4V14h-1.4V0.5z"/>
	<path class="st1" d="M92.3,0.1l10,10.9V0.5h1.4v14l-10-10.9v10.4h-1.4V0.1z"/>
	<path class="st1" d="M105.8,12.8h8.3V14h-8.3L105.8,12.8z M105.8,0.5h8.3v1.2h-8.3V0.5z M105.8,6.5h8v1.2h-8V6.5z"/>
	<g>
		<path class="st0" d="M124.9,6.1c0.5,0.4,0.8,0.9,0.8,1.6c0,0.5-0.1,0.9-0.4,1.3c-0.3,0.3-0.7,0.6-1.2,0.7c0.6,0.1,1.1,0.3,1.4,0.7
			c0.3,0.4,0.5,0.9,0.5,1.5c0,0.7-0.3,1.3-0.8,1.7c-0.6,0.4-1.3,0.6-2.3,0.6h-3.8V5.5h3.7C123.7,5.5,124.4,5.7,124.9,6.1z M124,8.9
			c0.3-0.2,0.4-0.6,0.4-1c0-0.4-0.1-0.7-0.4-1c-0.3-0.2-0.7-0.3-1.2-0.3h-2.4v2.6h2.4C123.3,9.2,123.7,9.1,124,8.9z M124.2,12.7
			c0.4-0.3,0.5-0.6,0.5-1.1c0-0.4-0.2-0.8-0.5-1c-0.4-0.2-0.9-0.4-1.5-0.4h-2.4v2.8h2.4C123.4,13.1,123.9,13,124.2,12.7z"/>
		<path class="st0" d="M127.9,5.5h6v1.1h-4.8v2.7h4.3v1.1h-4.3v2.8h5v1.1h-6.2V5.5z"/>
		<path class="st0" d="M134.9,5.5h6.8v1.1h-2.8v7.6h-1.2V6.6h-2.8V5.5z"/>
		<path class="st0" d="M148.6,14.2l-0.9-2.1h-4.6l-0.9,2.1H141l3.8-8.7h1.2l3.8,8.7H148.6z M143.6,11h3.6l-1.8-4.2L143.6,11z"/>
	</g>
</g>
</svg>
