<?xml version="1.0" encoding="utf-8"?>
<!-- Generator: Adobe Illustrator 22.1.0, SVG Export Plug-In . SVG Version: 6.00 Build 0)  -->
<svg version="1.1" id="Layer_1" xmlns="http://www.w3.org/2000/svg" xmlns:xlink="http://www.w3.org/1999/xlink" x="0px" y="0px"
	 viewBox="0 0 402 44" style="enable-background:new 0 0 402 44;" xml:space="preserve">
<style type="text/css">
	.st0{fill-opacity:0;}
	.st1{fill:#8D8DF9;}
	.st2{fill:#262B3E;}
</style>
<rect x="46" class="st0" width="402" height="42"/>
<rect x="46" class="st0" width="312" height="40"/>
<rect x="46" class="st0" width="312" height="40"/>
<path class="st1" d="M116.9,1.2l16,37.5h-4.1l-11.9-28.5l-12,28.5h-4.1L116.9,1.2z"/>
<path class="st1" d="M143.3,21l-2.4-3.6l7.2-11.2h4.3L143.3,21z M142.4,22.3v16.3h-4V22.3L125.4,1.2h4.6L142.4,22.3z"/>
<path class="st1" d="M164.2,1.2l16,37.5H176l-11.9-28.5L152,38.7h-4L164.2,1.2z"/>
<path class="st1" d="M151,1.2L148.8,5h4.6l2.3-3.8H151z"/>
<path class="st1" d="M99.9,19.3c-0.2-1.6-0.6-3-1.1-4.4c-1.2-3.5-3.2-6.7-6-9.2c-1.7-1.6-3.6-2.9-5.8-4c-0.2-0.1-0.5-0.1-0.7,0
	l-2.4,1.1c-1.6,0.7-3.1,1.6-4.6,2.5c-1.7,1.1-3.2,2.3-4.8,3.5l-1.3,1c-0.2,0.2-0.5,0.2-0.7,0c-0.6-0.5-1.1-0.8-1.7-1.3
	c-2.9-2.3-6-4.2-9.2-5.9l-2-1c-0.2-0.1-0.5-0.1-0.7,0c-0.1,0.1-0.2,0.1-0.4,0.2c-0.8,0.5-1.7,0.8-2.4,1.4c-1.4,1-2.8,2-4,3.4
	c-1.4,1.6-2.8,3.2-3.7,5.2C46.8,14.9,46,18.4,46,22c0,1.1,0,2.3,0.1,3.4c0.1,1,0.2,2,0.4,3c0.4,2,1.1,3.8,2.2,5.6
	c1,1.6,1.9,3.1,2.9,4.7h6.8L58,37.5c-0.8-2.3-1.6-4.6-2.2-7c-0.4-1.3-0.6-2.6-0.8-4.1c-0.1-0.8-0.2-1.7-0.2-2.5c0-0.5,0-0.8,0-1.3
	c0-0.8,0.1-1.7,0.2-2.5c0-0.8,0.1-1.8,0.4-2.6c0.4-1.3,1.2-2.5,2.2-3.5c1.2-1.1,2.6-1.7,4.3-1.9c1.2-0.1,2.4,0.2,3.2,1
	c0.7,0.6,1.3,1.3,1.7,2.2c0.6,1.2,1,2.4,1.2,3.6c0.4,1.7,0.6,3.5,0.6,5.2c0,1.2,0,2.4,0,3.7c0,1.2,0,2.5,0,3.8c0,1.3,0,5.8-0.2,7
	c0,0.2,0,0.2,0.2,0.2h9.2c0.1,0,0.1,0,0.1-0.1v-0.1c-0.1-0.7-0.1-4.7-0.1-5.4c-0.1-1.3-0.1-2.6-0.2-4c0-1.7,0-3.4,0-5
	c0-1.6,0.1-3.2,0.4-4.8c0.2-1.1,0.5-2.3,0.8-3.2c0.4-1.1,1-1.9,1.7-2.8c0.8-0.8,2-1.3,3.2-1.3c0.7,0,1.3,0.1,2,0.4
	c1.4,0.5,2.8,1.3,3.7,2.5s1.6,2.6,1.7,4.1c0.1,1.1,0.2,2.3,0.4,3.5c0,0.5,0,1,0,1.4c0,1.1-0.2,2.2-0.4,3.2c-0.4,2-1,4.1-1.6,6
	c-0.6,1.9-1.3,3.8-1.9,5.8h6.7c0.8-1.3,1.7-2.8,2.5-4.1c1.2-1.9,1.9-4,2.4-6.1c0.4-1.7,0.5-3.4,0.6-5C100,22.1,100,20.7,99.9,19.3z"
	/>
<path class="st2" d="M201.2,3.6c-1.7,0.1-3.2,0.6-4.7,1.2c-1.8,0.8-3.5,2-4.8,3.5c-1.3,1.4-2.4,3.1-3.1,5c-0.7,1.9-1.2,4-1.1,6
	c0,2,0.4,4.1,1.1,6c0.7,1.8,1.8,3.5,3.1,4.9c1.3,1.4,3,2.6,4.8,3.5c1.6,0.7,3.1,1.1,4.8,1.2v3.2c-2-0.1-4.1-0.6-6-1.4
	c-2.3-1-4.3-2.3-6.1-4.1c-1.7-1.7-3.1-3.7-4.1-6c-1-2.4-1.6-4.9-1.6-7.6c0-2.5,0.5-5.2,1.6-7.4c1.9-4.6,5.6-8.3,10.2-10.2
	c1.9-0.8,4-1.3,6-1.4v3.6H201.2z M203.3,35.2c1.9,0,4-0.5,5.8-1.2c1.8-0.7,3.5-1.9,4.8-3.4c1.3-1.4,2.4-3.1,3.1-4.9
	c0.7-1.9,1.1-4,1.1-6.1c0-2.2-0.4-4.2-1.1-6.2c-0.7-1.9-1.7-3.6-3.1-5c-1.3-1.4-3-2.5-4.8-3.4c-1.8-0.7-3.8-1.2-5.8-1.2V0.4
	c2.4,0,4.8,0.5,7.1,1.4c2.3,1,4.3,2.3,6.1,4.1c1.7,1.7,3.1,3.8,4,6c1,2.4,1.4,4.9,1.4,7.6c0,2.6-0.5,5.2-1.4,7.6
	c-1,2.3-2.3,4.3-4.1,6c-1.7,1.7-3.8,3.1-6,4c-2.3,0.8-4.6,1.3-7.1,1.4V35.2z"/>
<path class="st2" d="M225.9,0.2L253.3,30V1.4h3.8V40l-27.3-29.9v28.6h-3.8V0.2z"/>
<path class="st2" d="M262.6,1.4h3.8v33.9h16.7v3.2h-20.5V1.4z"/>
<path class="st2" d="M288.8,1.6h4v37.1h-4V1.6z"/>
<path class="st2" d="M298.3,0.4l27.3,29.8V1.6h3.8V40l-27.4-29.9v28.6h-3.8V0.4z"/>
<path class="st2" d="M335.1,35.3H358v3.2h-22.8L335.1,35.3z M335.1,1.4h22.8v3.2h-22.8V1.4z M335.1,17.9h22v3.4h-21.8L335.1,17.9z"
	/>
</svg>