<?xml version="1.0" encoding="utf-8"?>
<!-- Generator: Adobe Illustrator 22.0.0, SVG Export Plug-In . SVG Version: 6.00 Build 0)  -->
<svg version="1.1" id="Layer_1" xmlns="http://www.w3.org/2000/svg" xmlns:xlink="http://www.w3.org/1999/xlink" x="0px" y="0px"
	 viewBox="0 0 280 35.1" style="enable-background:new 0 0 280 35.1;" xml:space="preserve">
<style type="text/css">
	.st0{fill:#FFFFFF;}
	.st1{fill:#262B3E;}
	.st2{fill:#663399;}
	.st3{fill:#FEFEFE;}
	.st4{fill:none;stroke:#FEFEFE;stroke-miterlimit:10;}
	.st5{fill:#DBDBDB;}
	.st6{fill:#563A39;}
	.st7{fill:#AF8070;}
	.st8{fill:#348FC0;}
	.st9{fill:#060707;}
	.st10{fill:#4B3938;}
	.st11{fill:url(#SVGID_1_);}
	.st12{fill:none;stroke:#FFFFFF;stroke-width:6;stroke-miterlimit:10;}
	.st13{fill:none;stroke:#5F4A8B;stroke-miterlimit:10;stroke-dasharray:3.0176,3.0176;}
	.st14{fill:#C6C6C4;stroke:#FFFFFF;stroke-width:3;stroke-miterlimit:10;}
	.st15{fill:#326DE6;}
	.st16{fill:#FAFBFD;}
	.st17{fill:#FFFFFF;stroke:#5F4A8B;stroke-width:10;stroke-miterlimit:10;}
	.st18{fill:none;stroke:#9A346D;stroke-miterlimit:10;stroke-dasharray:3.0176,3.0176;}
	.st19{fill:#FFFFFF;stroke:#9A346D;stroke-width:10;stroke-miterlimit:10;}
	.st20{fill:none;stroke:#D22050;stroke-miterlimit:10;stroke-dasharray:3.0176,3.0176;}
	.st21{fill:#FFFFFF;stroke:#D22050;stroke-width:10;stroke-miterlimit:10;}
	.st22{fill:#F15A29;}
	.st23{fill:#F05A2B;}
	.st24{fill:#333333;}
	.st25{fill:none;stroke:#C6C6C4;stroke-width:2;stroke-miterlimit:10;}
	.st26{fill:#4C4C4C;}
	.st27{fill:#4C4C4C;stroke:#FCFCFC;stroke-width:2;stroke-miterlimit:10;}
	.st28{fill:#8C8CF8;}
	.st29{fill:#262626;}
	.st30{fill:url(#SVGID_2_);}
	.st31{fill:#103766;}
	.st32{fill:#D7D7D7;}
	.st33{fill:#034868;}
	.st34{fill:#F1A64E;}
	.st35{fill:#262625;}
	.st36{fill:#9AD6D2;}
	.st37{fill:#EDECED;}
	.st38{fill:none;stroke:#673694;stroke-miterlimit:10;stroke-dasharray:2.9976,2.9976;}
	.st39{fill:#673694;}
	.st40{fill:none;stroke:#673694;stroke-linejoin:round;stroke-miterlimit:10;stroke-dasharray:2;}
	.st41{fill:none;stroke:#673694;stroke-miterlimit:10;}
	.st42{fill:none;stroke:#673694;stroke-linejoin:round;stroke-miterlimit:10;}
	.st43{fill:none;stroke:#673694;stroke-linecap:round;stroke-linejoin:round;stroke-miterlimit:10;}
	.st44{fill:none;stroke:#673694;stroke-miterlimit:10;stroke-dasharray:3.0288,3.0288;}
	.st45{fill:#EDECED;stroke:#673693;stroke-miterlimit:10;}
	.st46{fill:none;stroke:#673694;stroke-miterlimit:10;stroke-dasharray:3;}
	.st47{fill:#8D8DF9;}
	.st48{fill-opacity:0;}
	.st49{opacity:0.28;}
	.st50{fill:none;stroke:#D1D1D1;stroke-width:0.75;stroke-miterlimit:10;}
	.st51{fill:#D1D1D1;}
	.st52{fill:none;stroke:#D1D1D1;stroke-width:0.75;stroke-miterlimit:10;stroke-dasharray:3;}
	.st53{fill:none;stroke:#939393;stroke-miterlimit:10;}
	.st54{fill:#CCCCCC;stroke:#CCCCCC;stroke-width:0.5;stroke-miterlimit:10;}
	.st55{fill:#CCCCCC;stroke:#FFFFFF;stroke-width:0.1;stroke-miterlimit:10;}
	.st56{fill:#CCCCCC;}
	.st57{fill:#CCCCCC;stroke:#FFFFFF;stroke-width:0.25;stroke-miterlimit:10;}
	.st58{fill:#D1D1D1;stroke:#D1D1D1;stroke-width:0.75;stroke-miterlimit:10;}
	.st59{fill:none;stroke:#8C8CF8;stroke-miterlimit:10;}
	.st60{fill:#FFFFFF;stroke:#D1D1D1;stroke-width:3;stroke-miterlimit:10;}
	.st61{fill:#D1D1D1;stroke:#D1D1D1;stroke-width:0.25;stroke-miterlimit:10;}
	.st62{fill:#939393;}
	.st63{fill:none;stroke:#939393;stroke-linecap:round;stroke-miterlimit:10;stroke-dasharray:3;}
	.st64{fill:#FFFFFF;stroke:#939393;stroke-width:3;stroke-miterlimit:10;}
	.st65{fill:none;stroke:#663399;stroke-miterlimit:10;}
</style>
<path class="st2" d="M107.4,5.3l-1.3,2.3h2.7l1.3-2.3H107.4z"/>
<g>
	<rect x="-0.6" y="2.2" class="st48" width="281" height="29.5"/>
	<rect x="45.4" y="4.6" class="st48" width="235" height="24.8"/>
	<rect x="45.4" y="4.6" class="st48" width="184.2" height="23.6"/>
	<rect x="45.4" y="4.6" class="st48" width="184.2" height="23.6"/>
	<path class="st2" d="M87.3,5.3l9.4,22.1h-2.4l-7-16.8l-7.1,16.8h-2.4L87.3,5.3z"/>
	<path class="st2" d="M102.9,17l-1.4-2.1l4.2-6.6h2.5L102.9,17z M102.4,17.7v9.6H100v-9.6L92.3,5.3H95L102.4,17.7z"/>
	<path class="st2" d="M115.2,5.3l9.4,22.1h-2.4l-7-16.8L108,27.4h-2.3L115.2,5.3z"/>
	<path class="st2" d="M77.2,16c-0.1-0.9-0.4-1.8-0.6-2.6c-0.7-2.1-1.9-4-3.5-5.5c-1-0.9-2.1-1.7-3.4-2.3c-0.1-0.1-0.3-0.1-0.4,0
		l-1.4,0.6c-0.9,0.4-1.8,0.9-2.7,1.5c-1,0.6-1.9,1.3-2.8,2.1l-0.8,0.6c-0.1,0.1-0.3,0.1-0.4,0c-0.4-0.3-0.6-0.5-1-0.8
		C58.4,8.2,56.5,7,54.6,6l-1.2-0.6c-0.1-0.1-0.3-0.1-0.4,0c-0.1,0.1-0.1,0.1-0.2,0.1c-0.5,0.3-1,0.5-1.4,0.9c-0.8,0.6-1.6,1.2-2.3,2
		c-0.8,0.9-1.6,1.9-2.2,3c-0.9,1.8-1.4,3.9-1.4,6c0,0.6,0,1.3,0.1,2c0.1,0.6,0.1,1.2,0.2,1.8c0.2,1.2,0.6,2.3,1.3,3.3
		c0.6,0.9,1.1,1.8,1.7,2.8h4l-0.2-0.7c-0.5-1.3-0.9-2.7-1.3-4.1c-0.2-0.8-0.4-1.6-0.5-2.4c-0.1-0.5-0.1-1-0.1-1.5c0-0.3,0-0.5,0-0.8
		c0-0.5,0.1-1,0.1-1.5c0-0.5,0.1-1.1,0.2-1.6c0.2-0.8,0.7-1.5,1.3-2.1c0.7-0.6,1.6-1,2.5-1.1c0.7-0.1,1.4,0.1,1.9,0.6
		c0.4,0.4,0.8,0.8,1,1.3c0.4,0.7,0.6,1.4,0.7,2.1c0.2,1,0.4,2.1,0.4,3c0,0.7,0,1.4,0,2.2c0,0.7,0,1.5,0,2.3c0,0.8,0,3.4-0.1,4.1
		c0,0.1,0,0.1,0.1,0.1h5.5c0.1,0,0.1,0,0.1-0.1v-0.1c-0.1-0.4-0.1-2.8-0.1-3.2c-0.1-0.8-0.1-1.6-0.1-2.3c0-1,0-2,0-3
		c0-0.9,0.1-1.9,0.2-2.8c0.1-0.6,0.3-1.3,0.5-1.9c0.2-0.6,0.6-1.1,1-1.6c0.5-0.5,1.2-0.8,1.9-0.8c0.4,0,0.8,0.1,1.2,0.2
		c0.8,0.3,1.6,0.8,2.2,1.5c0.6,0.7,0.9,1.6,1,2.4c0.1,0.6,0.1,1.3,0.2,2.1c0,0.3,0,0.6,0,0.9c0,0.6-0.1,1.3-0.2,1.9
		c-0.2,1.2-0.6,2.4-0.9,3.5c-0.4,1.1-0.8,2.3-1.1,3.4h4c0.5-0.8,1-1.6,1.5-2.4c0.7-1.1,1.1-2.3,1.4-3.6c0.2-1,0.3-2,0.4-3
		C77.3,17.6,77.3,16.7,77.2,16z"/>
	<path class="st1" d="M137.1,6.7c-1,0.1-1.9,0.4-2.8,0.7c-1.1,0.5-2.1,1.2-2.8,2.1c-0.8,0.9-1.4,1.8-1.8,3c-0.4,1.1-0.7,2.3-0.6,3.5
		c0,1.2,0.2,2.4,0.6,3.5c0.4,1.1,1.1,2.1,1.8,2.9c0.8,0.9,1.8,1.6,2.8,2.1c0.9,0.4,1.8,0.6,2.8,0.7v1.9c-1.2-0.1-2.4-0.4-3.5-0.9
		c-1.3-0.6-2.5-1.3-3.6-2.4c-1-1-1.8-2.2-2.4-3.5c-0.6-1.4-0.9-2.9-0.9-4.5c0-1.5,0.3-3,0.9-4.4c1.1-2.7,3.3-4.9,6-6
		c1.1-0.5,2.3-0.8,3.5-0.9L137.1,6.7L137.1,6.7z M138.3,25.3c1.1,0,2.3-0.3,3.4-0.7c1.1-0.4,2.1-1.1,2.8-2c0.8-0.9,1.4-1.8,1.8-2.9
		c0.4-1.1,0.6-2.3,0.6-3.6c0-1.3-0.2-2.5-0.6-3.7c-0.4-1.1-1-2.1-1.8-3c-0.8-0.9-1.8-1.5-2.8-2c-1.1-0.4-2.3-0.7-3.4-0.7v-2
		c1.4,0,2.8,0.3,4.2,0.9c1.3,0.6,2.5,1.3,3.6,2.4c1,1,1.8,2.3,2.3,3.5c0.6,1.4,0.8,2.9,0.8,4.5c0,1.6-0.3,3-0.8,4.5
		c-0.6,1.3-1.3,2.6-2.4,3.5c-1,1-2.3,1.8-3.5,2.3c-1.3,0.5-2.7,0.8-4.2,0.9V25.3z"/>
	<path class="st1" d="M151.6,4.7l16.1,17.6V5.4h2.3v22.8l-16.1-17.7v16.9h-2.3V4.7z"/>
	<path class="st1" d="M173.3,5.4h2.3v20h9.8v1.9h-12.1V5.4z"/>
	<path class="st1" d="M188.8,5.5h2.3v21.9h-2.3V5.5z"/>
	<path class="st1" d="M194.3,4.8l16.1,17.6V5.5h2.3v22.7l-16.1-17.7v16.9h-2.3V4.8z"/>
	<path class="st1" d="M216.1,25.4h13.5v1.9h-13.5L216.1,25.4z M216.1,5.4h13.5v1.9h-13.5V5.4z M216.1,15.1h13v2h-12.9L216.1,15.1z"
		/>
	<path class="st1" d="M244.6,22.7h-4.1v9.1h4.2c0.5,0,1-0.1,1.4-0.2c0.4-0.1,0.8-0.3,1.1-0.5c0.3-0.2,0.5-0.5,0.7-0.8
		c0.2-0.3,0.2-0.7,0.2-1.1c0-0.3,0-0.6-0.1-0.8c-0.1-0.2-0.2-0.5-0.4-0.6c-0.2-0.2-0.3-0.3-0.6-0.4c-0.2-0.1-0.5-0.2-0.7-0.3
		c0.2-0.1,0.3-0.2,0.5-0.3c0.2-0.1,0.3-0.3,0.4-0.4c0.1-0.2,0.2-0.4,0.3-0.6c0.1-0.2,0.1-0.5,0.1-0.7c0-0.7-0.3-1.3-0.8-1.7
		C246.2,22.9,245.5,22.7,244.6,22.7z M244.2,26.5h-2.2v-2.4h2.3c0.5,0,0.9,0.1,1.2,0.3c0.3,0.2,0.4,0.5,0.4,0.9
		c0,0.4-0.2,0.7-0.5,0.9C245.2,26.4,244.8,26.5,244.2,26.5z M244.7,30.3h-2.6v-2.5h2.5c0.6,0,1.1,0.1,1.4,0.3
		c0.3,0.2,0.5,0.5,0.5,0.9c0,0.4-0.2,0.7-0.5,0.9C245.7,30.2,245.2,30.3,244.7,30.3z M256.6,22.7h-6.7v9.1h6.8v-1.4h-5.2v-2.4h4.6
		v-1.4h-4.6v-2.4h5.1V22.7z M262.4,24.1h2.9v-1.5h-7.4v1.5h2.9v7.6h1.6V24.1z M271.1,22.6h-1.5l-4,9.2h1.6l0.9-2.2h4.3l0.9,2.2h1.7
		L271.1,22.6z M271.9,28.1h-3.1l1.6-3.6L271.9,28.1z"/>
	<path class="st65" d="M16.9,32.1c8.2,0,14.8-6.6,14.8-14.8S25,2.6,16.9,2.6S2.1,9.2,2.1,17.3S8.7,32.1,16.9,32.1z"/>
	<path class="st2" d="M23.1,29.1c0.6-0.3,0.2-1.3,0.2-1.9c0.1-1.3-0.2-2.5-1.2-3.4c-0.2-0.1-0.2-0.2-0.1-0.4c0.5-1,1-2,1.5-3.1
		c0.7-1.7,1.2-3.4,1.1-5.3c-0.1-1.3-0.9-2.5-2.1-2.8c-0.9-0.2-1.6,0-2.1,0.7c-0.2,0.3-0.4,0.6-0.5,0.9c-0.4,1-0.7,2-0.9,3.1
		c-0.3,1.6-0.5,3.2-0.4,4.8c0,0.3,0,0.7,0,1c-0.5,0-1.1-0.1-1.6-0.1c-0.5,0-1.1,0.1-1.6,0.1c0-0.1,0-0.1,0-0.2
		c0.2-2.6-0.1-5.2-0.9-7.8c-0.2-0.7-0.5-1.3-0.9-1.9c-0.3-0.4-0.7-0.7-1.3-0.7c-1.5-0.1-2.9,1.2-2.9,2.8c0,1.1,0.1,2.2,0.4,3.2
		c0.5,1.8,1.3,3.5,2.2,5.1c0.1,0.2,0.2,0.3,0,0.4c-1,0.9-1.4,2-1.3,3.3c0,0.7,0.1,1.4,0.2,2C10.8,29.2,16.8,32.6,23.1,29.1z"/>
</g>
</svg>