<?xml version="1.0" encoding="utf-8"?>
<!-- Generator: Adobe Illustrator 19.0.0, SVG Export Plug-In . SVG Version: 6.00 Build 0)  -->
<svg version="1.1" id="Layer_1" xmlns="http://www.w3.org/2000/svg" xmlns:xlink="http://www.w3.org/1999/xlink" x="0px" y="0px"
	 viewBox="-58 393.9 478 54" style="enable-background:new -58 393.9 478 54;" xml:space="preserve">
<style type="text/css">
	.st0{fill-opacity:0;}
	.st1{fill:#8D8DF9;}
	.st2{fill:#663399;}
</style>
<rect x="-373.4" y="396" class="st0" width="476" height="50"/>
<rect x="-80.6" y="395.8" class="st0" width="476" height="50"/>
<rect x="-2.6" y="399.8" class="st0" width="398" height="42"/>
<rect x="-2.6" y="399.8" class="st0" width="312" height="40"/>
<rect x="-2.6" y="399.8" class="st0" width="312" height="40"/>
<path class="st1" d="M68.3,401.1l16,37.5h-4.1l-11.9-28.5l-12,28.5h-4.1L68.3,401.1z"/>
<path class="st1" d="M94.7,420.9l-2.4-3.6l7.2-11.2h4.3L94.7,420.9z M93.8,422.2v16.3h-4v-16.3l-13.1-21.1h4.6L93.8,422.2z"/>
<path class="st1" d="M115.6,401.1l16,37.5h-4.2l-11.9-28.5l-12.1,28.5h-4L115.6,401.1z"/>
<path class="st1" d="M102.4,401.1l-2.2,3.8h4.6l2.3-3.8H102.4z"/>
<path class="st1" d="M51.3,419.2c-0.2-1.6-0.6-3-1.1-4.4c-1.2-3.5-3.2-6.7-6-9.2c-1.7-1.6-3.6-2.9-5.8-4c-0.2-0.1-0.5-0.1-0.7,0
	l-2.4,1.1c-1.6,0.7-3.1,1.6-4.6,2.5c-1.7,1.1-3.2,2.3-4.8,3.5l-1.3,1c-0.2,0.2-0.5,0.2-0.7,0c-0.6-0.5-1.1-0.8-1.7-1.3
	c-2.9-2.3-6-4.2-9.2-5.9l-2-1c-0.2-0.1-0.5-0.1-0.7,0c-0.1,0.1-0.2,0.1-0.4,0.2c-0.8,0.5-1.7,0.8-2.4,1.4c-1.4,1-2.8,2-4,3.4
	c-1.4,1.6-2.8,3.2-3.7,5.2c-1.6,3.1-2.4,6.6-2.4,10.2c0,1.1,0,2.3,0.1,3.4c0.1,1,0.2,2,0.4,3c0.4,2,1.1,3.8,2.2,5.6
	c1,1.6,1.9,3.1,2.9,4.7h6.8l-0.4-1.2c-0.8-2.3-1.6-4.6-2.2-7c-0.4-1.3-0.6-2.6-0.8-4.1c-0.1-0.8-0.2-1.7-0.2-2.5c0-0.5,0-0.8,0-1.3
	c0-0.8,0.1-1.7,0.2-2.5c0-0.8,0.1-1.8,0.4-2.6c0.4-1.3,1.2-2.5,2.2-3.5c1.2-1.1,2.6-1.7,4.3-1.9c1.2-0.1,2.4,0.2,3.2,1
	c0.7,0.6,1.3,1.3,1.7,2.2c0.6,1.2,1,2.4,1.2,3.6c0.4,1.7,0.6,3.5,0.6,5.2c0,1.2,0,2.4,0,3.7c0,1.2,0,2.5,0,3.8s0,5.8-0.2,7
	c0,0.2,0,0.2,0.2,0.2h9.2c0.1,0,0.1,0,0.1-0.1v-0.1c-0.1-0.7-0.1-4.7-0.1-5.4c-0.1-1.3-0.1-2.6-0.2-4c0-1.7,0-3.4,0-5
	s0.1-3.2,0.4-4.8c0.2-1.1,0.5-2.3,0.8-3.2c0.4-1.1,1-1.9,1.7-2.8c0.8-0.8,2-1.3,3.2-1.3c0.7,0,1.3,0.1,2,0.4
	c1.4,0.5,2.8,1.3,3.7,2.5c1,1.2,1.6,2.6,1.7,4.1c0.1,1.1,0.2,2.3,0.4,3.5c0,0.5,0,1,0,1.4c0,1.1-0.2,2.2-0.4,3.2c-0.4,2-1,4.1-1.6,6
	s-1.3,3.8-1.9,5.8h6.7c0.8-1.3,1.7-2.8,2.5-4.1c1.2-1.9,1.9-4,2.4-6.1c0.4-1.7,0.5-3.4,0.6-5C51.4,422,51.4,420.5,51.3,419.2z"/>
<path class="st2" d="M152.6,403.5c-1.7,0.1-3.2,0.6-4.7,1.2c-1.8,0.8-3.5,2-4.8,3.5c-1.3,1.4-2.4,3.1-3.1,5c-0.7,1.9-1.2,4-1.1,6
	c0,2,0.4,4.1,1.1,6c0.7,1.8,1.8,3.5,3.1,4.9s3,2.6,4.8,3.5c1.6,0.7,3.1,1.1,4.8,1.2v3.2c-2-0.1-4.1-0.6-6-1.4
	c-2.3-1-4.3-2.3-6.1-4.1c-1.7-1.7-3.1-3.7-4.1-6c-1-2.4-1.6-4.9-1.6-7.6c0-2.5,0.5-5.2,1.6-7.4c1.9-4.6,5.6-8.3,10.2-10.2
	c1.9-0.8,4-1.3,6-1.4L152.6,403.5L152.6,403.5L152.6,403.5z M154.7,435c1.9,0,4-0.5,5.8-1.2s3.5-1.9,4.8-3.4
	c1.3-1.4,2.4-3.1,3.1-4.9c0.7-1.9,1.1-4,1.1-6.1c0-2.2-0.4-4.2-1.1-6.2c-0.7-1.9-1.7-3.6-3.1-5c-1.3-1.4-3-2.5-4.8-3.4
	c-1.8-0.7-3.8-1.2-5.8-1.2v-3.4c2.4,0,4.8,0.5,7.1,1.4c2.3,1,4.3,2.3,6.1,4.1c1.7,1.7,3.1,3.8,4,6c1,2.4,1.4,4.9,1.4,7.6
	c0,2.6-0.5,5.2-1.4,7.6c-1,2.3-2.3,4.3-4.1,6c-1.7,1.7-3.8,3.1-6,4c-2.3,0.8-4.6,1.3-7.1,1.4V435z"/>
<path class="st2" d="M177.3,400.1l27.3,29.8v-28.6h3.8v38.6L181,410v28.6h-3.8L177.3,400.1L177.3,400.1z"/>
<path class="st2" d="M214,401.3h3.8v33.9h16.7v3.2H214C214,438.4,214,401.3,214,401.3z"/>
<path class="st2" d="M240.2,401.4h4v37.1h-4V401.4z"/>
<path class="st2" d="M249.7,400.2L277,430v-28.6h3.8v38.4l-27.4-29.9v28.6h-3.8L249.7,400.2L249.7,400.2z"/>
<path class="st2" d="M286.5,435.2h22.9v3.2h-22.8L286.5,435.2z M286.5,401.3h22.8v3.2h-22.8V401.3z M286.5,417.7h22v3.4h-21.9
	L286.5,417.7z"/>
<path class="st1" d="M324.3,422.4h-6.9v15.4h7.1c0.9,0,1.6-0.1,2.3-0.3c0.7-0.2,1.3-0.5,1.8-0.8c0.5-0.4,0.9-0.8,1.1-1.3
	c0.3-0.5,0.4-1.1,0.4-1.8c0-0.5-0.1-1-0.2-1.4s-0.4-0.8-0.6-1.1c-0.3-0.3-0.6-0.5-1-0.7s-0.8-0.4-1.2-0.6c0.3-0.1,0.6-0.3,0.8-0.5
	c0.3-0.2,0.5-0.4,0.7-0.7c0.2-0.3,0.4-0.6,0.5-1c0.1-0.4,0.2-0.8,0.2-1.3c0-1.2-0.5-2.2-1.4-2.9
	C327.1,422.8,325.8,422.4,324.3,422.4z M323.7,428.9H320v-4.1h3.9c0.9,0,1.5,0.2,2,0.5s0.7,0.8,0.7,1.5s-0.3,1.3-0.8,1.6
	C325.3,428.8,324.6,428.9,323.7,428.9z M324.5,435.5H320v-4.3h4.3c1.1,0,1.9,0.2,2.4,0.6c0.5,0.4,0.8,0.9,0.8,1.5
	c0,0.7-0.3,1.2-0.8,1.6C326.2,435.3,325.5,435.5,324.5,435.5z M344.7,422.4h-11.4v15.4h11.5v-2.4H336v-4.1h7.7v-2.4H336v-4h8.7
	C344.7,424.9,344.7,422.4,344.7,422.4z M354.5,425h4.9v-2.5h-12.5v2.5h4.9v12.9h2.7V425L354.5,425z M369.3,422.3h-2.5l-6.8,15.5h2.8
	l1.6-3.7h7.3l1.6,3.7h2.9L369.3,422.3z M370.6,431.7h-5.3l2.6-6.2L370.6,431.7z"/>
</svg>
