<?xml version="1.0" encoding="utf-8"?>
<!-- Generator: Adobe Illustrator 22.0.0, SVG Export Plug-In . SVG Version: 6.00 Build 0)  -->
<svg version="1.1" id="Layer_1" xmlns="http://www.w3.org/2000/svg" xmlns:xlink="http://www.w3.org/1999/xlink" x="0px" y="0px"
	 viewBox="0 0 678 188" style="enable-background:new 0 0 678 188;" xml:space="preserve">
<style type="text/css">
	.st0{opacity:0.6;}
	.st1{fill:#F7F7F7;}
	.st2{opacity:0.3;}
	.st3{fill:#FFFFFF;}
	.st4{fill:#F4A84E;}
	.st5{fill:#454745;}
	.st6{opacity:0.24;}
	.st7{clip-path:url(#SVGID_2_);fill:#454745;}
	.st8{clip-path:url(#SVGID_2_);fill:#EFEFEF;stroke:#454745;stroke-width:3;stroke-miterlimit:10;}
	.st9{fill:#CCCCCC;}
	.st10{opacity:0.35;}
	.st11{clip-path:url(#SVGID_4_);fill:#454745;}
	.st12{clip-path:url(#SVGID_4_);fill:#EFEFEF;stroke:#454745;stroke-width:3;stroke-miterlimit:10;}
	.st13{clip-path:url(#SVGID_6_);fill:#EFEFEF;stroke:#454745;stroke-width:3;stroke-miterlimit:10;}
	.st14{fill:#F4A84E;stroke:#454745;stroke-width:3;stroke-miterlimit:10;}
	.st15{fill:#454745;stroke:#454745;stroke-width:3;stroke-miterlimit:10;}
	.st16{opacity:0.11;}
	.st17{clip-path:url(#SVGID_8_);fill:#FFFFFF;}
	.st18{fill:#050505;}
	.st19{fill:url(#SVGID_11_);stroke:#454745;stroke-width:4;stroke-miterlimit:10;}
	.st20{fill:url(#SVGID_12_);stroke:#454745;stroke-width:4;stroke-miterlimit:10;}
	.st21{fill:#454745;stroke:#454745;stroke-miterlimit:10;}
	.st22{clip-path:url(#SVGID_14_);fill:#454745;}
	.st23{clip-path:url(#SVGID_14_);fill:#EFEFEF;stroke:#454745;stroke-width:3;stroke-miterlimit:10;}
	.st24{clip-path:url(#SVGID_16_);fill:#454745;}
	.st25{clip-path:url(#SVGID_16_);fill:#EFEFEF;stroke:#454745;stroke-width:3;stroke-miterlimit:10;}
	.st26{clip-path:url(#SVGID_18_);fill:#EFEFEF;stroke:#454745;stroke-width:3;stroke-miterlimit:10;}
	.st27{clip-path:url(#SVGID_20_);fill:#FFFFFF;}
	.st28{fill:url(#SVGID_23_);stroke:#454745;stroke-width:4;stroke-miterlimit:10;}
	.st29{fill:url(#SVGID_24_);stroke:#454745;stroke-width:4;stroke-miterlimit:10;}
	.st30{fill:#F3A74F;}
	.st31{clip-path:url(#SVGID_26_);fill:url(#SVGID_27_);}
	.st32{clip-path:url(#SVGID_26_);fill:url(#SVGID_28_);}
	.st33{clip-path:url(#SVGID_30_);fill:url(#SVGID_31_);}
	.st34{clip-path:url(#SVGID_30_);fill:url(#SVGID_32_);}
	.st35{clip-path:url(#SVGID_34_);fill:#454745;}
	.st36{clip-path:url(#SVGID_34_);fill:#EFEFEF;stroke:#454745;stroke-width:3;stroke-miterlimit:10;}
	.st37{clip-path:url(#SVGID_36_);fill:#454745;}
	.st38{clip-path:url(#SVGID_36_);fill:#EFEFEF;stroke:#454745;stroke-width:3;stroke-miterlimit:10;}
	.st39{clip-path:url(#SVGID_38_);fill:#EFEFEF;stroke:#454745;stroke-width:3;stroke-miterlimit:10;}
	.st40{clip-path:url(#SVGID_40_);fill:#FFFFFF;}
	.st41{fill:url(#SVGID_43_);stroke:#454745;stroke-width:4;stroke-miterlimit:10;}
	.st42{fill:url(#SVGID_44_);stroke:#454745;stroke-width:4;stroke-miterlimit:10;}
	.st43{clip-path:url(#SVGID_46_);fill:#454745;}
	.st44{clip-path:url(#SVGID_46_);fill:#EFEFEF;stroke:#454745;stroke-width:3;stroke-miterlimit:10;}
	.st45{clip-path:url(#SVGID_48_);fill:#454745;}
	.st46{clip-path:url(#SVGID_48_);fill:#EFEFEF;stroke:#454745;stroke-width:3;stroke-miterlimit:10;}
	.st47{clip-path:url(#SVGID_50_);fill:#EFEFEF;stroke:#454745;stroke-width:3;stroke-miterlimit:10;}
	.st48{clip-path:url(#SVGID_52_);fill:#FFFFFF;}
	.st49{fill:url(#SVGID_55_);stroke:#454745;stroke-width:4;stroke-miterlimit:10;}
	.st50{fill:url(#SVGID_56_);stroke:#454745;stroke-width:4;stroke-miterlimit:10;}
	.st51{fill:#EDEDED;}
	.st52{fill:#DB8F42;}
	.st53{fill:none;stroke:#F4A84E;stroke-width:5;stroke-miterlimit:10;}
	.st54{fill:none;stroke:#D3D3D3;stroke-width:5;stroke-miterlimit:10;}
	.st55{fill:#D3D3D3;}
	.st56{fill:#606060;}
	.st57{fill:#F15A29;}
	.st58{fill:#212020;}
	.st59{fill:#563A39;}
	.st60{fill:#AF8070;}
	.st61{fill:#348FC0;}
	.st62{fill:#060707;}
	.st63{fill:#4B3938;}
	.st64{clip-path:url(#SVGID_58_);fill:#454745;}
	.st65{clip-path:url(#SVGID_58_);fill:#EFEFEF;stroke:#454745;stroke-width:3;stroke-miterlimit:10;}
	.st66{clip-path:url(#SVGID_60_);fill:#454745;}
	.st67{clip-path:url(#SVGID_60_);fill:#EFEFEF;stroke:#454745;stroke-width:3;stroke-miterlimit:10;}
	.st68{fill:#CCCCCC;stroke:#CCCCCC;stroke-width:3;stroke-miterlimit:10;}
	.st69{clip-path:url(#SVGID_62_);fill:#EFEFEF;stroke:#454745;stroke-width:3;stroke-miterlimit:10;}
	.st70{clip-path:url(#SVGID_64_);fill:#EFEFEF;stroke:#454745;stroke-width:3;stroke-miterlimit:10;}
	.st71{fill:#CCCCCC;stroke:#454745;stroke-width:7;stroke-miterlimit:10;}
	.st72{fill:#F4A84E;stroke:#454745;stroke-width:5;stroke-miterlimit:10;}
	.st73{clip-path:url(#SVGID_66_);fill:#FFFFFF;}
	.st74{fill:#EFEFEF;stroke:#454745;stroke-width:3;stroke-miterlimit:10;}
	.st75{fill:#454745;stroke:#454745;stroke-width:2;stroke-miterlimit:10;}
	.st76{fill:url(#SVGID_67_);stroke:#454745;stroke-width:4;stroke-miterlimit:10;}
	.st77{fill:url(#SVGID_68_);stroke:#454745;stroke-width:4;stroke-miterlimit:10;}
	.st78{fill:none;stroke:#2D2D2D;stroke-width:4;stroke-miterlimit:10;}
	.st79{opacity:0.49;}
	.st80{clip-path:url(#SVGID_70_);fill:#454745;}
	.st81{clip-path:url(#SVGID_70_);fill:#EFEFEF;stroke:#454745;stroke-width:3;stroke-miterlimit:10;}
	.st82{clip-path:url(#SVGID_72_);fill:#454745;}
	.st83{clip-path:url(#SVGID_72_);fill:#EFEFEF;stroke:#454745;stroke-width:3;stroke-miterlimit:10;}
	.st84{clip-path:url(#SVGID_74_);fill:#EFEFEF;stroke:#454745;stroke-width:3;stroke-miterlimit:10;}
	.st85{clip-path:url(#SVGID_76_);fill:#EFEFEF;stroke:#454745;stroke-width:3;stroke-miterlimit:10;}
	.st86{clip-path:url(#SVGID_78_);fill:#FFFFFF;}
	.st87{fill:url(#SVGID_79_);stroke:#454745;stroke-width:4;stroke-miterlimit:10;}
	.st88{fill:url(#SVGID_80_);stroke:#454745;stroke-width:4;stroke-miterlimit:10;}
	.st89{clip-path:url(#SVGID_82_);fill:#454745;}
	.st90{clip-path:url(#SVGID_82_);fill:#EFEFEF;stroke:#454745;stroke-width:3;stroke-miterlimit:10;}
	.st91{clip-path:url(#SVGID_84_);fill:#454745;}
	.st92{clip-path:url(#SVGID_84_);fill:#EFEFEF;stroke:#454745;stroke-width:3;stroke-miterlimit:10;}
	.st93{clip-path:url(#SVGID_86_);fill:#EFEFEF;stroke:#454745;stroke-width:3;stroke-miterlimit:10;}
	.st94{clip-path:url(#SVGID_88_);fill:#EFEFEF;stroke:#454745;stroke-width:3;stroke-miterlimit:10;}
	.st95{clip-path:url(#SVGID_90_);fill:#FFFFFF;}
	.st96{fill:url(#SVGID_91_);stroke:#454745;stroke-width:4;stroke-miterlimit:10;}
	.st97{fill:url(#SVGID_92_);stroke:#454745;stroke-width:4;stroke-miterlimit:10;}
	.st98{clip-path:url(#SVGID_94_);fill:#454745;}
	.st99{clip-path:url(#SVGID_94_);fill:#EFEFEF;stroke:#454745;stroke-width:3;stroke-miterlimit:10;}
	.st100{clip-path:url(#SVGID_96_);fill:#454745;}
	.st101{clip-path:url(#SVGID_96_);fill:#EFEFEF;stroke:#454745;stroke-width:3;stroke-miterlimit:10;}
	.st102{clip-path:url(#SVGID_98_);fill:#EFEFEF;stroke:#454745;stroke-width:3;stroke-miterlimit:10;}
	.st103{clip-path:url(#SVGID_100_);fill:#EFEFEF;stroke:#454745;stroke-width:3;stroke-miterlimit:10;}
	.st104{clip-path:url(#SVGID_102_);fill:#FFFFFF;}
	.st105{fill:url(#SVGID_103_);stroke:#454745;stroke-width:4;stroke-miterlimit:10;}
	.st106{fill:url(#SVGID_104_);stroke:#454745;stroke-width:4;stroke-miterlimit:10;}
	.st107{clip-path:url(#SVGID_106_);fill:#454745;}
	.st108{clip-path:url(#SVGID_106_);fill:#EFEFEF;stroke:#454745;stroke-width:3;stroke-miterlimit:10;}
	.st109{clip-path:url(#SVGID_108_);fill:#454745;}
	.st110{clip-path:url(#SVGID_108_);fill:#EFEFEF;stroke:#454745;stroke-width:3;stroke-miterlimit:10;}
	.st111{clip-path:url(#SVGID_110_);fill:#EFEFEF;stroke:#454745;stroke-width:3;stroke-miterlimit:10;}
	.st112{clip-path:url(#SVGID_112_);fill:#EFEFEF;stroke:#454745;stroke-width:3;stroke-miterlimit:10;}
	.st113{clip-path:url(#SVGID_114_);fill:#FFFFFF;}
	.st114{fill:url(#SVGID_115_);stroke:#454745;stroke-width:4;stroke-miterlimit:10;}
	.st115{fill:url(#SVGID_116_);stroke:#454745;stroke-width:4;stroke-miterlimit:10;}
	.st116{fill:#FFFFFF;stroke:#FFFFFF;stroke-width:18;stroke-miterlimit:10;}
	.st117{fill:#AF4C35;}
	.st118{fill:#853A28;}
	.st119{fill:#DB3B3B;}
	.st120{clip-path:url(#SVGID_118_);fill:#AF4C35;}
	.st121{clip-path:url(#SVGID_118_);fill:#CCCCCC;stroke:#454745;stroke-width:3;stroke-miterlimit:10;}
	.st122{clip-path:url(#SVGID_120_);fill:#AF4C35;}
	.st123{clip-path:url(#SVGID_120_);fill:#CCCCCC;stroke:#454745;stroke-width:3;stroke-miterlimit:10;}
	.st124{clip-path:url(#SVGID_122_);fill:#CCCCCC;stroke:#454745;stroke-width:3;stroke-miterlimit:10;}
	.st125{clip-path:url(#SVGID_124_);fill:#CCCCCC;stroke:#454745;stroke-width:3;stroke-miterlimit:10;}
	.st126{fill:#CCCCCC;stroke:#AF4C35;stroke-width:7;stroke-miterlimit:10;}
	.st127{fill:url(#SVGID_125_);stroke:#454745;stroke-width:4;stroke-miterlimit:10;}
	.st128{fill:url(#SVGID_126_);stroke:#454745;stroke-width:4;stroke-miterlimit:10;}
	.st129{clip-path:url(#SVGID_128_);fill:#FFFFFF;}
	.st130{fill:#6B4B0F;}
	.st131{opacity:0.4;}
	.st132{fill:none;stroke:#454745;stroke-width:2;stroke-miterlimit:10;}
	.st133{fill:#282828;}
</style>
<g>
	<path class="st57" d="M559.8,113.6c3.4,0.8,6.3,2.2,8.6,4.8c2,2.1,3,4.7,3,7.5c0.1,5.6,0.1,11.2,0,16.8c-0.1,7-4.3,11.8-11.7,13.3
		c-2,0.4-4.2,0.6-6.3,0.6c-19.8,0-39.7,0-59.5,0.1c-1.3,0-1.7-0.3-1.7-1.7c0-25.5,0-51,0-76.5c0-1.3,0.4-1.7,1.7-1.7
		c19.2,0,38.4,0,57.6,0c3.4,0,6.8,0.4,10,1.8c4.9,2.1,7.8,5.8,8,11.1c0.2,5.1,0.2,10.3-0.2,15.4c-0.4,5-2.4,7.3-8.4,8.3
		C560.5,113.4,560.2,113.5,559.8,113.6z M528.3,147c7.3,0,14.7,0.1,22,0c2,0,4-0.4,5.9-0.9c2.4-0.7,3.8-2.6,3.9-5.1
		c0.1-4.7,0.2-9.4,0.1-14c-0.1-3.6-1.8-5.5-5.4-6.3c-1.1-0.3-2.3-0.5-3.5-0.5c-15.6,0-31.3,0-46.9,0c-1.2,0-1.5,0.4-1.5,1.6
		c0,7.9,0.1,15.8,0,23.7c0,1.4,0.5,1.7,1.8,1.7C512.6,146.9,520.4,147,528.3,147z M527.6,110.5c0,0,0-0.1,0-0.1c7.7,0,15.3,0.1,23,0
		c4.9-0.1,7.8-2.8,7.8-7.1c0-3.1,0-6.3,0-9.4c-0.1-3.5-1.7-5.8-5-6.7c-1.5-0.4-3-0.7-4.5-0.7c-14.7-0.1-29.5,0-44.2-0.1
		c-1.3,0-1.7,0.4-1.7,1.7c0.1,6.9,0,13.8,0,20.6c0,1.9,0,1.9,1.9,1.9C512.4,110.5,520,110.5,527.6,110.5z"/>
	<path class="st57" d="M422.3,120.3c0,0.7,0,1.2,0,1.7c0,4.9,0,9.8,0,14.7c0,6.2,3.9,10.1,10.1,10.1c17.6,0,35.3,0,52.9,0
		c2.8,0,2.4-0.3,2.5,2.5c0,1.9-0.1,3.8,0,5.8c0.1,1.3-0.4,1.6-1.6,1.6c-5.8-0.1-11.6,0-17.4,0c-12.9,0-25.8-0.2-38.8,0.1
		c-9.2,0.2-17.4-6.8-18.4-15.5c-0.1-0.8-0.1-1.7-0.1-2.5c0-14.6,0-29.2,0-43.8c0-10.3,7.8-18.1,18.1-18.1c18.8,0,37.6,0,56.5,0
		c1.3,0,1.8,0.3,1.8,1.7c-0.1,2.3-0.1,4.7,0,7c0,0.8-0.3,1.2-1.1,1.2c-0.4,0-0.8,0-1.3,0c-17.7,0-35.5,0-53.2,0
		c-5.1,0-8.7,2.7-9.7,7.6c-0.2,0.8-0.2,1.7-0.2,2.5c0,4,0,8.1,0,12.1c0,1.4,0.4,1.7,1.7,1.7c17,0,34,0,51,0c1.8,0,1.8,0,1.8,1.8
		c0,2.2-0.1,4.3,0,6.5c0.1,1.3-0.3,1.7-1.6,1.7c-16,0-32,0-48,0C425.6,120.3,424.1,120.3,422.3,120.3z"/>
	<path class="st57" d="M577,146.9c0.8,0,1.4,0,2,0c17.7,0,35.4,0,53.1,0c6,0,9.9-3.6,10.2-9.6c0.1-2.8,0.1-5.6-0.1-8.4
		c-0.3-4.9-4.3-8.6-9.2-8.6c-13.4,0-26.9,0-40.3,0c-3.1,0-6.1-0.5-8.8-2.1c-5.4-3-9-7.3-9.4-13.6c-0.3-4.6-0.4-9.2,0.2-13.7
		c1.1-8,8.6-14.2,17-14.2c18.2-0.1,36.3,0,54.5-0.1c1,0,1.4,0.3,1.4,1.4c-0.1,2.2-0.1,4.5,0,6.7c0,1.2-0.4,1.6-1.6,1.6
		c-17,0-34,0-51,0c-3.5,0-6.5,1.4-8.5,4.4c-2.2,3.3-2.2,12,0.2,15.2c2,2.8,4.8,4.1,8.3,4.1c13.2,0,26.5,0,39.7,0
		c3.3,0,6.3,0.6,9.1,2.2c5.9,3.5,9.1,8.6,9.2,15.5c0.1,3.7,0,7.4,0,11.1c-0.1,9.6-7.8,17.6-17.5,17.6c-19.1,0.1-38.1,0-57.2,0
		c-1,0-1.4-0.2-1.4-1.3C577,152.6,577,149.9,577,146.9z"/>
	<path class="st57" d="M229.1,179.3c-3.3,0-6.4,0-9.5,0c-0.3,0-0.6-0.4-0.7-0.7c-0.1-0.4,0-0.8,0-1.3c0-25.8,0-51.7,0-77.5
		c0-2,0-2,2.1-2c13.5,0,27,0,40.4,0c5.1,0,9.5,1.7,13.2,5.3c2.9,2.9,4.3,6.4,4.3,10.5c0,9.1,0.1,18.2,0,27.2c0,8.5-7.1,15.6-16,15.8
		c-8.4,0.2-16.8,0.1-25.1,0.1c-2.3,0-4.7,0-7,0c-1.2,0-1.5,0.4-1.5,1.5c0,6.5,0,12.9,0,19.4C229.1,178.1,229.1,178.6,229.1,179.3z
		 M229.1,127c0,6.3,0,12.5,0,18.8c0,1,0.1,1.6,1.3,1.6c9.9,0,19.8,0.1,29.8,0c4.4,0,8.1-3.8,8.1-8.1c0.1-8.1,0.1-16.2,0-24.3
		c0-1.2-0.5-2.5-1.1-3.6c-1.9-3.4-5.1-4.5-8.8-4.5c-9.2,0-18.4,0-27.7,0c-1.3,0-1.7,0.4-1.7,1.7C229.1,114.8,229.1,120.9,229.1,127z
		"/>
	<path class="st57" d="M317.6,132.6c-7.7,0-15.4,0-23.2,0c-1.4,0-1.9,0.4-1.8,1.8c0.1,2.7,0,5.3,0,8c0,3.4,1.9,5.4,5.4,5.4
		c6,0,12,0,18,0c6.5,0,13,0,19.5,0c1.2,0,1.5,0.3,1.5,1.5c-0.1,2.1-0.1,4.1,0,6.2c0,0.9-0.3,1.2-1.2,1.2c-13.5,0-27,0-40.4-0.1
		c-5.9,0-11.2-4-12.5-9.1c-0.3-1.2-0.4-2.4-0.4-3.6c0-9.9,0-19.8,0-29.8c0-8.4,6.3-15.4,14.7-16.1c2.5-0.2,5-0.2,7.4-0.2
		c7.7,0,15.4-0.1,23,0.2c7,0.3,13.2,5.8,14.6,12.4c0.2,1,0.2,2.1,0.3,3.2c0,5.7,0,11.4,0,17.1c0,1.5-0.5,1.8-1.9,1.8
		C332.9,132.5,325.3,132.6,317.6,132.6z M312.3,123.3c6,0,12.1,0,18.1,0c1.2,0,1.7-0.3,1.6-1.6c-0.1-2,0-3.9,0-5.9
		c0-4.7-3.5-8.6-8.2-8.7c-7.6-0.2-15.3-0.2-22.9,0c-4.7,0.1-8.2,3.9-8.3,8.6c-0.1,2,0,4,0,6c0,1.2,0.4,1.5,1.6,1.5
		C300.2,123.3,306.3,123.3,312.3,123.3z"/>
	<path class="st57" d="M406.9,133.5c0,7.2,0,14.3,0,21.5c0,1.3-0.3,1.7-1.6,1.7c-2.4-0.1-4.8-0.1-7.2,0c-1.3,0.1-1.6-0.4-1.6-1.6
		c0-12.8,0-25.6,0-38.3c0-5.7-3-9.4-8.6-9.6c-7.8-0.3-15.5-0.3-23.3,0c-5.2,0.2-8.3,3.9-8.3,9.1c0,10.8,0,21.5,0,32.3
		c0,2.2,0,4.4,0,6.6c0,1-0.2,1.4-1.3,1.4c-2.6-0.1-5.2-0.1-7.9,0c-0.9,0-1.2-0.3-1.2-1.2c0-14.1,0-28.2,0-42.3
		c0-7.4,6.2-13.9,13.8-15.1c1.1-0.2,2.1-0.3,3.2-0.3c9,0,18-0.1,27,0c6.1,0,11,2.7,14.5,7.7c1.5,2.1,2.2,4.4,2.3,7
		C406.9,119.4,406.9,126.5,406.9,133.5C406.9,133.5,406.9,133.5,406.9,133.5z"/>
	<path class="st57" d="M212.7,116.3c0,7.3,0.1,14.7,0,22c-0.1,8.3-5.9,15.4-14,17.2c-1.2,0.3-2.5,0.4-3.7,0.4c-0.9,0-1.7,0-2.6,0
		c-10.9,0.3-21.8,0-32.7,0.1c-3.2,0-6.3,0-9.5,0c-2.2,0-4.3,0-6.4-0.7c-6.4-1.9-10.7-6.1-12.6-12.6c-0.4-1.4-0.6-2.9-0.6-4.5
		c0-1.7,0-3.5,0-5.2c0-11.6,0-23.2,0-34.8c0-1.9,0-3.8,0.1-5.7c0.2-3.3,1.3-6.4,3.3-9.1c2.9-4,6.8-6.3,11.6-7.1
		c1.7-0.3,3.5-0.1,5.3-0.2c5.9-0.3,11.8-0.1,17.8-0.1c5.9,0,11.9,0,17.8,0c3,0,5.9-0.1,8.9,0c4.5,0.1,8.4,1.7,11.6,4.7
		c2.9,2.7,4.8,5.9,5.4,9.9c0.2,1.2,0.3,2.4,0.3,3.5C212.7,101.6,212.7,109,212.7,116.3C212.7,116.3,212.7,116.3,212.7,116.3z
		 M172,146.4C172,146.4,172,146.4,172,146.4c6.2,0,12.4,0,18.6,0c1.3,0,2.6-0.1,3.8-0.2c2.6-0.4,4.7-1.5,6.3-3.6
		c1-1.4,1.7-2.9,1.8-4.6c0-0.9,0-1.8,0-2.7c0-2.1,0-4.3-0.1-6.4c0-1.6-0.1-3.1-0.1-4.7c0-1.8-0.1-3.7-0.1-5.5c0-1.6-0.1-3.3-0.1-4.9
		c0-1.8-0.1-3.5-0.1-5.3c0-1.7-0.1-3.3-0.1-5c0-2.3,0-4.7-0.1-7c0-1-0.1-1.9-0.2-2.9c-0.3-2.1-1.2-3.9-2.8-5.3
		c-1.8-1.7-4-2.5-6.5-2.6c-0.3,0-0.7,0.1-1,0.1c-0.6,0-1.2,0-1.8,0c-2.4,0-4.7,0-7.1,0c-10.1,0-20.2,0-30.4,0
		c-1.1,0-2.2,0.1-3.2,0.2c-2.3,0.3-4.3,1.2-5.9,2.9c-1.5,1.6-2.5,3.5-2.5,5.8c0,1.8,0,3.7,0.1,5.5c0,1.7,0.1,3.4,0.1,5.1
		c0,1.8,0.1,3.6,0.1,5.5c0,1.7,0.1,3.4,0.1,5.1c0,1.8,0.1,3.5,0.1,5.3c0,1.6,0.1,3.3,0.1,4.9c0,1.8,0.1,3.6,0.1,5.4
		c0,1.5,0,2.9,0,4.4c0.1,1.2,0.1,2.3,0.4,3.4c1.2,4.9,5.1,7.1,9.4,7.2c0.2,0,0.3-0.2,0.5-0.2c1,0,2,0,2.9,0
		C160.4,146.4,166.2,146.4,172,146.4z"/>
</g>
<g>
	<path class="st59" d="M34.5,9c0.8,0,1.5,0,2.3,0c0.1,0.1,0.2,0.1,0.3,0.1c1,0.1,1.9,0.4,2.9,0.7c2.3,0.9,4,2.6,5.4,4.6
		c2.3,3.1,3.8,6.6,4.9,10.2c1,3.2,1.7,6.5,2.3,9.8c0.7,3.4,1.2,6.8,1.6,10.2c0.3,2.9,0.5,5.7,0.7,8.6c-0.7,1.2-1.1,2.5-1.5,3.8
		c-0.5,1.5-0.9,3-1.1,4.6c-1.1-3.4-1.2-6.9-1.1-10.5c-0.7,1.4-1.2,2.9-1.6,4.3c0-0.4,0-0.8,0-1.1c0-2.3,0-4.6-0.1-7
		c-0.2-3.9-0.7-7.8-1.4-11.6c-0.8-4.4-2.1-8.6-4.1-12.6c-1-1.9-2.1-3.7-3.7-5.1c-1.5-1.4-3.2-2.4-5.3-2.5c-2.9-0.1-5.4,0.9-7.6,2.8
		c-1.4,1.2-2.2,2.9-2.9,4.7c-1.1,2.9-1.1,6-0.7,9c0.5,3.9,1.3,7.7,2.5,11.4c2.6,8.7,6.7,16.8,11.8,24.3c1.6,2.4,3.4,4.6,5.6,6.5
		c1.1,1,1.7,0.9,2.4-0.4c0.9-1.6,1.5-3.3,1.9-5c0.3-1.2,0.6-2.4,0.8-3.6c0.3,1,0.4,2,0.9,3c0.6,1.4,1.1,3,2.6,3.8
		c0.1,0.1,0.2,0.2,0.1,0.4c-0.4,1.4-0.2,2.8,0.1,4.2c0.3,1.5,0.8,2.9,1.3,4.2c0.3,0.9,0.7,1.7,1.1,2.5c-0.3-1.4-0.2-2.8,0.2-4.1
		c0.3-1.4,0.8-2.7,1.6-3.9c-0.6,5.1,0.3,10.1,2.1,15c0-0.2,0.1-0.2,0.1-0.2c0-2.6,0-5.2,0.3-7.8c0.2-1.6,0.4-3.1,1.1-4.6
		c0.4-0.8,0.8-1.5,1.6-1.9c0.2-0.1,0.4-0.1,0.5,0.2c0.8,1.9,1.5,3.8,1.9,5.8c0.3,1.3,0.5,2.6,0.2,4c0,0.1-0.1,0.2,0,0.2
		c0.1,0,0.2-0.1,0.3-0.2c1.9-2.5,3.3-5.3,3.9-8.4c0.1-0.8,0.2-1.6,0.2-2.4c0-0.8-0.2-1.5-0.3-2.3l0,0c0.9,0.8,1.7,1.6,2.4,2.6
		c1.4,1.8,2.5,3.7,3,5.8c0.3,1.1,0.4,2.2,0.3,3.4c-0.1,0.7-0.3,1.3-0.3,2c0,0,0,0.1-0.1,0.1c0,0,0,0,0,0c0,0,0-0.1,0-0.1
		c0.1-0.1,0.2-0.2,0.2-0.4c0.9-1.9,1.6-3.8,2.2-5.8c0.5-1.8,0.8-3.6,0.8-5.5c0-0.2,0-0.4-0.1-0.7c0.4,0.2,0.6,0.5,0.8,0.8
		c0.8,1,1,2.2,1.3,3.5c0.2,0.8,0.3,1.7,0.4,2.5c0.2-0.4,0.3-0.8,0.5-1.1c0.7-2.3,1.1-4.6,0.8-7c-0.1-1.1-0.5-2.1-1.1-3
		c-0.2-0.2-0.1-0.4,0-0.6c0.3-0.6,0.6-1.1,0.8-1.8c0,0.1,0,0.1,0.1,0.2c0.5,2.2,1.2,4.3,2.2,6.3c0.8,1.4,1.4,1.5,2.6,0.4
		c1.4-1.2,2.6-2.6,3.8-4.1c3.5-4.5,6.3-9.5,8.8-14.7c3-6.3,5.2-12.9,6.5-19.7c0.6-3.1,1-6.2,0.6-9.4c-0.3-2.6-1.2-4.9-2.8-7
		c-1.5-1.9-3.6-2.9-6-3.5c-2.5-0.6-4.8-0.1-6.9,1.4c-1.2,0.9-2.2,2-3.1,3.2c-1.8,2.7-3.1,5.7-4.1,8.7c-1,3.1-1.7,6.3-2.1,9.5
		c-0.3,2.4-0.6,4.8-0.8,7.2c-0.1,1.1-0.2,2.3-0.2,3.4c-0.1,1.9-0.1,3.7,0,5.6c0,1.3,0.2,2.7,0.2,4c-0.3-0.7-0.5-1.4-0.8-2.1
		c-0.2-0.4-0.4-0.9-0.5-1.3c0.1,1.2,0,2.4,0,3.6c0,1.2-0.2,2.3-0.6,3.4c-0.4,1-0.9,1.8-2,2.2c-0.3,0.1-0.5,0.1-0.6-0.3
		c-0.3-0.9-0.3-1.7-0.2-2.6c0.2-1.3,0.8-2.4,1.5-3.5c0.1-0.1,0.2-0.2,0.1-0.3c-0.1-0.1-0.2-0.1-0.3-0.1c-0.9,0-1.7,0.3-2.5,0.6
		c0.3-3.4,0.5-6.8,0.8-10.1c0.3-3.4,0.7-6.9,1.3-10.3c0.8-5.2,2.1-10.3,3.8-15.3c1.3-3.6,2.9-7,5.5-9.8c2.8-3.1,6.3-4.1,10.3-3.6
		c3.3,0.5,6.2,2,8.6,4.3c3.9,3.6,5.5,8.2,5.8,13.4c0,1.3,0,2.6,0,3.9c0,1.2-0.1,2.5-0.3,3.7c-0.5,3.8-1.3,7.5-2.4,11.1
		c-2.8,9-6.6,17.6-11,25.9c-0.7,1.3-1.4,2.5-2.1,3.7c-0.5,0.9-0.4,1.4,0.3,2c0.1,0.1,0.2,0.1,0.3,0.2c1.2,0.9,2.2,2,3.1,3.1
		c1.9,2.5,3.1,5.3,3.8,8.4c0.5,2.3,0.8,4.7,0.6,7c-0.1,1.8-0.3,3.6-0.5,5.4c-0.2,2-0.5,4-0.7,6c-0.3,2.5-0.7,4.9-1,7.4
		c-0.4,3.2-1,6.3-1.5,9.5c-0.5,3-1,6-1.5,9c-0.4,2.1-0.6,4.3-1.1,6.4c-0.9,4.1-2.4,8.1-3.9,12c-0.1-0.1-0.1-0.2-0.2-0.4
		c-0.2-0.6-0.4-1.1-0.7-1.7c-1.9-3.9-4.3-7.4-7.2-10.5c-2.4-2.6-5.2-4.8-8.2-6.7c-3.3-2-6.7-3.5-10.6-3.9c-2.7-0.3-5.3,0.1-7.8,1.2
		c-2.9,1.2-5.3,2.9-7.6,5c-3,2.8-5.6,5.8-7.8,9.3c-1.8,2.8-3.2,5.8-4.1,8.9c-0.4,1.4-0.6,2.8-0.9,4.2c-0.1,0.3-0.2,0.6-0.3,1
		c-0.1-0.1-0.1-0.2-0.2-0.3c-1.3-3-2.6-6-3.7-9c-1-2.5-1.9-5.1-2.5-7.8c-0.7-3-0.8-6.2-1-9.3c-0.1-1.9-0.3-3.9-0.4-5.8
		c-0.1-1.6-0.4-3.3-0.5-4.9c-0.2-2.1-0.3-4.3-0.4-6.5c-0.1-2.5-0.4-5-0.6-7.5c-0.2-2.3-0.4-4.5-0.6-6.8c-0.2-2.5-0.1-4.9,0.4-7.3
		c1-4.4,3-8.3,5.9-11.8c0.8-0.9,1.6-1.8,2.5-2.6c0.6-0.5,0.6-0.9,0.3-1.6c-0.1-0.1-0.1-0.2-0.2-0.4c-3.1-5.4-5.9-10.9-8.4-16.5
		c-3.1-7-5.8-14.1-7.2-21.6c-0.5-2.7-0.9-5.5-1-8.3c0-0.1,0.1-0.2-0.1-0.3c0-0.4,0-0.8,0-1.2c0.1,0,0.1-0.1,0.1-0.2
		c0-0.9,0.1-1.7,0.2-2.6c0.3-2.7,1-5.3,2.2-7.7c2.3-4.6,6.2-7.3,11.1-8.7C33.1,9.2,33.8,9.1,34.5,9z M77,119.5c0.4,0,0.8,0,1.1,0
		c0.4,0,0.8-0.1,1.1-0.1c5.1-0.8,9.4-3,13-6.7c2.4-2.5,3.2-5.4,2.2-8.7c-1.3-4.2-3.9-7.4-7.6-9.7c-2.1-1.3-4.5-1.5-6.8-0.8
		c-1.8,0.6-3.4,1.6-4.7,3c-3.2,3.2-5.2,7-6.2,11.4c-0.7,3.2-0.2,6.3,1.3,9.2c0.7,1.4,1.8,2.2,3.4,2.4
		C74.8,119.6,75.9,119.4,77,119.5z M53.1,119.6c0.3,0,0.5,0,0.7,0c1.7,0,3.2-0.5,4.2-2.1c1-1.7,1.6-3.5,1.8-5.4
		c0.2-2.2-0.3-4.3-0.9-6.4c-1.5-5.1-4.4-9.1-9.2-11.7c-1.6-0.9-3.3-1.3-5.1-0.9c-2.5,0.6-4.4,2-6.2,3.7c-1.9,1.9-3.2,4.1-4.1,6.6
		c-1.1,2.9-0.7,5.6,1.2,8.1c1.1,1.5,2.5,2.7,4,3.7C43.6,118.3,48.3,119.4,53.1,119.6z"/>
	<path class="st60" d="M92.2,151.6c0.1,0.6,0.3,1.3,0.4,1.9c0.8,4.1-0.2,7.9-2.7,11.2c-3.1,4.2-7.2,6.9-12.1,8.5
		c-2.5,0.8-5,1.1-7.6,1.2c-0.1,0-0.3-0.1-0.4,0.1c-2,0-3.9,0-5.9,0c-0.1-0.1-0.2-0.1-0.3-0.1c-3.4-0.1-6.7-0.3-10.1-0.9
		c-2.8-0.5-5.6-1.2-8.2-2.4c-5.6-2.7-8.4-7.2-8.4-13.4c0-0.2,0.1-0.4-0.1-0.6c0.3-1.4,0.5-2.8,0.9-4.2c0.9-3.2,2.3-6.2,4.1-8.9
		c2.2-3.4,4.9-6.5,7.8-9.3c2.2-2.1,4.7-3.8,7.6-5c2.5-1,5.1-1.4,7.8-1.2c3.9,0.4,7.3,1.8,10.6,3.9c3,1.9,5.8,4.1,8.2,6.7
		c2.9,3.2,5.4,6.6,7.2,10.5c0.3,0.5,0.5,1.1,0.7,1.7C92,151.3,92,151.5,92.2,151.6z M83.5,159.8c-0.1,0-0.2,0.1-0.4,0.2
		c-2.5,1.9-5.1,3.6-8,4.9c-4.4,1.9-8.9,2.4-13.6,1.5c-3.9-0.7-7.5-2.2-11-4c-1.5-0.8-3-1.6-4.5-2.4c0,0,0,0,0,0c0,0,0,0,0,0
		c0,0.2,0.2,0.3,0.3,0.5c3.3,4.1,7.5,7.1,12.5,8.8c3.9,1.3,7.9,1.6,12,0.5c4.7-1.3,8.3-4,11.2-7.8C82.7,161.3,83.2,160.6,83.5,159.8
		C83.5,159.8,83.5,159.8,83.5,159.8C83.5,159.8,83.5,159.8,83.5,159.8C83.5,159.8,83.5,159.8,83.5,159.8z M84.8,147.4
		c0.1-0.6-0.1-1.1-0.5-1.6c-0.6-0.9-1.5-1.6-2.4-2.2c-2-1.4-4.6-1.1-6.2,0.5c-1,1-1.3,2.3-1.4,3.6c-0.1,2.4-0.9,4.7-2.2,6.7
		c-0.7,1.1-1.4,2.2-2.2,3.3c-0.5,0.6-0.3,1.2,0.4,1.6c0.5,0.3,1,0.2,1.5,0c3.4-1.5,6.7-3.2,9.6-5.5
		C83.5,152.1,84.7,150.1,84.8,147.4z M46.4,148.3c0,0.9,0.2,1.7,0.7,2.5c1,1.8,2.6,3.1,4.2,4.2c2.2,1.5,4.6,2.7,7,3.9
		c0.5,0.2,1,0.4,1.5,0.5c0.6,0.2,1-0.1,1.4-0.4c0.3-0.2,0.4-0.5,0.2-0.9c-0.2-0.4-0.4-0.7-0.7-1c-0.1-0.1-0.3-0.3-0.3-0.5
		c0-0.3-0.1-0.5-0.3-0.7c-0.2-0.2-0.3-0.4-0.5-0.6c-1.8-2.4-2.6-5.1-2.8-8c-0.2-3.1-2.7-5.1-5.5-4.7
		C48.6,143.2,46.4,145.6,46.4,148.3z"/>
	<path class="st60" d="M110.1,26.8C110.1,26.8,110.2,26.8,110.1,26.8c0.1,1.3,0.1,2.6,0.1,3.9l0,0l0,0
		C110.1,29.4,110.1,28.1,110.1,26.8z"/>
	<path class="st61" d="M48.8,65.2c-0.3,1.2-0.5,2.4-0.8,3.6c-0.5,1.7-1.1,3.4-1.9,5c-0.7,1.3-1.3,1.4-2.4,0.4
		c-2.2-1.9-4-4.1-5.6-6.5c-5.1-7.5-9.1-15.6-11.8-24.3c-1.1-3.7-2-7.5-2.5-11.4c-0.4-3-0.3-6.1,0.7-9c0.6-1.8,1.4-3.4,2.9-4.7
		c2.2-1.9,4.7-2.9,7.6-2.8c2.1,0.1,3.8,1.1,5.3,2.5c1.6,1.4,2.7,3.2,3.7,5.1c2,4,3.3,8.2,4.1,12.6c0.7,3.9,1.1,7.7,1.4,11.6
		c0.1,2.3,0.2,4.6,0.1,7c0,0.4-0.1,0.8,0,1.1c0,0.1-0.1,0.3-0.1,0.4c-0.6,2.2-0.9,4.4-0.9,6.6C48.6,63.4,48.7,64.3,48.8,65.2z"/>
	<path class="st61" d="M79.8,58.8c0-1.3-0.1-2.7-0.2-4c-0.1-1.9-0.1-3.7,0-5.6c0-1.1,0.1-2.3,0.2-3.4c0.2-2.4,0.4-4.8,0.8-7.2
		c0.5-3.2,1.1-6.4,2.1-9.5c1-3.1,2.3-6,4.1-8.7c0.8-1.2,1.9-2.3,3.1-3.2c2.1-1.6,4.3-2,6.9-1.4c2.3,0.6,4.4,1.6,6,3.5
		c1.6,2,2.4,4.4,2.8,7c0.4,3.2,0,6.3-0.6,9.4c-1.3,6.9-3.5,13.4-6.5,19.7c-2.5,5.2-5.3,10.1-8.8,14.7c-1.1,1.5-2.4,2.8-3.8,4.1
		c-1.2,1.1-1.8,1-2.6-0.4c-1.1-2-1.8-4.1-2.2-6.3c0-0.1,0-0.1-0.1-0.2c0.4-1.5,0.3-3.1,0-4.6C80.6,61.4,80.2,60.1,79.8,58.8z"/>
	<path class="st62" d="M79.8,58.8c0.4,1.3,0.8,2.5,1,3.8c0.3,1.5,0.4,3.1,0,4.6c-0.2,0.6-0.4,1.2-0.8,1.8c-0.1,0.2-0.2,0.3,0,0.6
		c0.6,0.9,1,1.9,1.1,3c0.3,2.4-0.1,4.7-0.8,7c-0.1,0.4-0.3,0.8-0.5,1.1c-0.1-0.8-0.3-1.7-0.4-2.5c-0.2-1.2-0.5-2.4-1.3-3.5
		c-0.2-0.3-0.5-0.6-0.8-0.8c0,0.3,0,0.5,0.1,0.7c0,1.9-0.3,3.7-0.8,5.5c-0.6,2-1.3,3.9-2.2,5.8c-0.1,0.1-0.1,0.2-0.2,0.4l0,0
		c0-0.7,0.2-1.3,0.3-2c0.1-1.2,0-2.3-0.3-3.4c-0.5-2.2-1.7-4.1-3-5.8c-0.7-0.9-1.6-1.8-2.4-2.6c0,0,0,0,0,0c0,0,0,0,0,0
		c0.1,0.8,0.3,1.5,0.3,2.3c0,0.8,0,1.6-0.2,2.4c-0.5,3.1-2,5.9-3.9,8.4c-0.1,0.1-0.1,0.2-0.3,0.2c-0.1,0-0.1-0.1,0-0.2
		c0.3-1.3,0.1-2.7-0.2-4c-0.4-2-1.1-3.9-1.9-5.8c-0.1-0.3-0.3-0.3-0.5-0.2c-0.8,0.4-1.3,1.1-1.6,1.9c-0.6,1.5-0.9,3-1.1,4.6
		c-0.3,2.6-0.4,5.2-0.3,7.8c0,0,0,0.1-0.1,0.2c-1.8-4.9-2.7-9.8-2.1-15c-0.8,1.2-1.3,2.5-1.6,3.9c-0.3,1.4-0.4,2.7-0.2,4.1
		c-0.5-0.8-0.8-1.7-1.1-2.5c-0.5-1.4-1-2.8-1.3-4.2c-0.3-1.4-0.5-2.8-0.1-4.2c0-0.2,0-0.3-0.1-0.4c-1.5-0.8-2-2.4-2.6-3.8
		c-0.4-0.9-0.6-2-0.9-3c-0.1-0.9-0.2-1.8-0.2-2.7c0-2.2,0.3-4.4,0.9-6.6c0-0.1,0.1-0.3,0.1-0.4c0.5-1.4,0.9-2.8,1.6-4.3
		c-0.1,3.6,0,7.1,1.1,10.5c0.2-1.6,0.6-3.1,1.1-4.6c0.4-1.3,0.9-2.6,1.5-3.8c0,0.1,0,0.2,0,0.3c0,0-0.1,0.1-0.1,0.1
		c-0.2,1-0.2,2,0,2.9c0.1,0.5,0.1,1,0.4,1.5c0.2,1.1,0.7,2.2,1.3,3.3c0.7-2.1,1.5-4.1,0.8-6.3l0,0c0.6,0.5,1.1,1.1,1.6,1.7
		c0.6,0.9,1.3,1.8,1.8,2.8c0.5,0.9,0.8,1.8,1.2,2.7c0.4-2.3,1.2-4.5,2.3-6.7c0.3,2.6,0.9,5,2.1,7.3c0.3-0.4,0.6-0.8,0.8-1.2
		c1-1.8,1.5-3.7,1.1-5.7c-0.1-0.4-0.3-0.8-0.3-1.2c0,0,0.1,0,0.1,0c1.2,1.9,2.1,4,2.8,6.2c0.2-0.5,0.5-0.8,0.8-1.2
		c0.6-0.6,1.3-1.2,2.1-1.5c0.8-0.3,1.6-0.6,2.5-0.6c0.1,0,0.3-0.1,0.3,0.1c0,0.1-0.1,0.2-0.1,0.3c-0.7,1.1-1.3,2.2-1.5,3.5
		c-0.1,0.9-0.1,1.8,0.2,2.6c0.1,0.4,0.3,0.4,0.6,0.3c1.1-0.4,1.6-1.2,2-2.2c0.4-1.1,0.6-2.2,0.6-3.4c0-1.2,0-2.4,0-3.6
		c0.2,0.4,0.4,0.9,0.5,1.3C79.2,57.5,79.5,58.2,79.8,58.8z"/>
	<path class="st3" d="M77,119.5c-1.1,0-2.1,0.2-3.2,0c-1.6-0.2-2.7-1-3.4-2.4c-1.5-2.9-2-6-1.3-9.2c1-4.4,3-8.2,6.2-11.4
		c1.3-1.3,2.9-2.4,4.7-3c2.4-0.8,4.7-0.6,6.8,0.8c3.7,2.3,6.3,5.5,7.6,9.7c1,3.3,0.2,6.2-2.2,8.7c-3.6,3.7-7.9,5.9-13,6.7
		c-0.4,0.1-0.8,0.1-1.1,0.1C77.7,119.5,77.4,119.5,77,119.5z M78.4,118.8c0.7,0,1.3,0,1.9-0.1c2.6-0.6,4.3-2.3,5.3-4.7
		c0.4-0.9,0.7-1.8,0.6-2.8c-0.1-1.2-1.1-1.8-2.2-1.3c-0.3,0.1-0.5,0.2-0.8,0.4c-0.3,0.2-0.6,0.3-0.9,0.4c-1.1,0.3-2.1-0.1-2.8-1.1
		c-0.7-1-0.7-1.9,0.1-2.8c0.2-0.3,0.5-0.5,0.8-0.8c0.9-1,0.4-2.4-0.9-2.7c-1.4-0.3-2.7-0.2-4,0.3c-2.4,0.9-4.2,2.6-4.8,5.1
		c-0.5,2-0.2,4,0.5,5.9c0.7,1.9,2.1,3.2,4.1,3.8C76.3,118.7,77.4,118.8,78.4,118.8z"/>
	<path class="st3" d="M53.1,119.6c-4.9-0.2-9.6-1.3-13.7-4.3c-1.5-1.1-2.9-2.3-4-3.7c-1.9-2.5-2.3-5.2-1.2-8.1
		c0.9-2.5,2.2-4.7,4.1-6.6c1.8-1.8,3.7-3.2,6.2-3.7c1.8-0.4,3.5,0,5.1,0.9c4.7,2.6,7.7,6.6,9.2,11.7c0.6,2.1,1,4.2,0.9,6.4
		c-0.1,1.9-0.7,3.8-1.8,5.4c-0.9,1.5-2.4,2-4.2,2.1C53.6,119.6,53.4,119.6,53.1,119.6z M42.4,111.1c0,0.2,0,0.6,0.1,1
		c0,0.3,0.1,0.6,0.2,0.8c0.7,2.8,2.4,4.8,5.2,5.6c0.8,0.2,1.7,0.2,2.6,0.3c1.6,0.1,3-0.2,4.3-1.1c2.4-1.6,3.7-3.8,3.4-6.7
		c-0.1-1.2-1.1-2.1-2.4-1.1c-0.2,0.2-0.5,0.3-0.7,0.4c-0.9,0.4-1.7,0.4-2.5-0.2c-1.5-1.2-1.6-2.7-0.2-4c0.1-0.1,0.3-0.2,0.4-0.4
		c0.5-0.6,0.6-1.2,0.1-1.9c-0.3-0.5-0.8-0.8-1.4-0.8c-0.8-0.1-1.6-0.1-2.4,0.1C45.1,103.8,42.3,107.1,42.4,111.1z"/>
	<path class="st62" d="M74.1,86.4c0,0,0,0.1,0,0.1C74.1,86.5,74.1,86.5,74.1,86.4C74.1,86.5,74.1,86.5,74.1,86.4L74.1,86.4z"/>
	<path class="st62" d="M84.8,147.4c-0.1,2.7-1.3,4.7-3.4,6.4c-2.9,2.4-6.2,4.1-9.6,5.5c-0.5,0.2-1,0.3-1.5,0
		c-0.7-0.4-0.8-0.9-0.4-1.6c0.8-1.1,1.5-2.2,2.2-3.3c1.3-2.1,2-4.3,2.2-6.7c0.1-1.3,0.4-2.6,1.4-3.6c1.6-1.6,4.3-1.9,6.2-0.5
		c0.9,0.6,1.7,1.3,2.4,2.2C84.7,146.3,84.9,146.8,84.8,147.4z"/>
	<path class="st62" d="M46.4,148.3c0-2.7,2.2-5.1,4.9-5.5c2.9-0.5,5.3,1.6,5.5,4.7c0.2,2.9,1,5.6,2.8,8c0.2,0.2,0.3,0.4,0.5,0.6
		c0.2,0.2,0.3,0.4,0.3,0.7c0,0.2,0.2,0.4,0.3,0.5c0.3,0.3,0.5,0.7,0.7,1c0.2,0.3,0.1,0.6-0.2,0.9c-0.4,0.3-0.8,0.5-1.4,0.4
		c-0.5-0.1-1-0.3-1.5-0.5c-2.4-1.2-4.8-2.3-7-3.9c-1.6-1.2-3.2-2.5-4.2-4.2C46.7,150,46.4,149.2,46.4,148.3z"/>
	<path class="st3" d="M46.2,160.1c1.5,0.8,2.9,1.7,4.5,2.4c3.5,1.8,7.1,3.2,11,4c4.7,0.9,9.2,0.4,13.6-1.5c2.9-1.3,5.5-3,8-4.9
		c0.1-0.1,0.2-0.2,0.4-0.2l0,0c-0.3,0.8-0.8,1.4-1.3,2.1c-2.9,3.8-6.5,6.6-11.2,7.8c-4,1.1-8,0.9-12-0.5c-5-1.7-9.2-4.6-12.5-8.8
		C46.4,160.4,46.2,160.3,46.2,160.1L46.2,160.1z"/>
	<path class="st3" d="M83.5,159.8C83.5,159.8,83.5,159.8,83.5,159.8C83.5,159.8,83.5,159.8,83.5,159.8
		C83.5,159.8,83.5,159.8,83.5,159.8L83.5,159.8z"/>
	<path class="st3" d="M46.2,160.1C46.2,160.1,46.2,160.1,46.2,160.1C46.2,160.1,46.2,160.1,46.2,160.1L46.2,160.1z"/>
	<path class="st61" d="M68,54.8c0,0.4,0.2,0.8,0.3,1.2c0.3,2-0.1,3.9-1.1,5.7c-0.2,0.4-0.5,0.8-0.8,1.2c-1.2-2.3-1.8-4.7-2.1-7.3
		c-1.1,2.2-1.9,4.4-2.3,6.7c-0.3-0.9-0.7-1.8-1.2-2.7c-0.5-1-1.2-1.9-1.8-2.8c1.2-1.7,2.9-2.7,4.9-2.9c0.1,0,0.2,0,0.3-0.1
		c0.4,0,0.7,0,1.1,0c0.9,0.1,1.7,0.3,2.5,0.7C67.8,54.6,67.9,54.7,68,54.8z"/>
	<path class="st61" d="M64.2,45.7c-2.5-0.5-3.5-3.4-1.9-5.4c1.1-1.4,3.2-1.6,4.6-0.5c1.4,1.1,1.6,3.2,0.5,4.6
		c-0.6,0.7-1.3,1.1-2.2,1.3C64.9,45.8,64.5,45.7,64.2,45.7z"/>
	<path class="st62" d="M64.2,45.7c0.3,0,0.7,0.1,1,0c0,2.4,0,4.8,0,7.2c0,0.3,0,0.7,0,1c-0.4,0-0.7,0-1.1,0
		C64.2,51.2,64.2,48.4,64.2,45.7z"/>
	<path class="st61" d="M71.7,59.9c-0.3,0.4-0.6,0.7-0.8,1.2c-0.7-2.2-1.7-4.3-2.8-6.2c0.9,0.3,1.5,1,2.1,1.7c0.8,0.9,1.2,2,1.5,3.1
		C71.7,59.8,71.7,59.8,71.7,59.9z"/>
	<path class="st63" d="M55.2,58.2c-0.3-0.5-0.3-1-0.4-1.5c-0.2-1-0.2-2,0-2.9c0-0.1,0-0.1,0.1-0.1C55,55.1,55.1,56.6,55.2,58.2z"/>
	<path class="st62" d="M57.3,55.2C57.3,55.2,57.2,55.2,57.3,55.2C57.2,55.1,57.3,55.1,57.3,55.2C57.3,55.1,57.3,55.2,57.3,55.2
		L57.3,55.2z"/>
	<path class="st63" d="M68.6,72.6C68.6,72.6,68.6,72.6,68.6,72.6C68.6,72.6,68.6,72.6,68.6,72.6L68.6,72.6z"/>
	<path class="st62" d="M78.4,118.8c-1.1,0-2.1-0.1-3.2-0.4c-2-0.6-3.3-1.9-4.1-3.8c-0.8-1.9-1-4-0.5-5.9c0.6-2.6,2.4-4.2,4.8-5.1
		c1.3-0.5,2.7-0.6,4-0.3c1.3,0.2,1.8,1.6,0.9,2.7c-0.2,0.3-0.5,0.5-0.8,0.8c-0.7,0.9-0.8,1.9-0.1,2.8c0.7,1.1,1.7,1.4,2.8,1.1
		c0.3-0.1,0.6-0.2,0.9-0.4c0.2-0.1,0.5-0.3,0.8-0.4c1.1-0.4,2,0.1,2.2,1.3c0.1,1-0.2,1.9-0.6,2.8c-1,2.4-2.7,4.1-5.3,4.7
		C79.7,118.8,79.1,118.8,78.4,118.8z"/>
	<path class="st62" d="M42.4,111.1c0-4.1,2.8-7.3,6.6-8c0.8-0.1,1.6-0.2,2.4-0.1c0.6,0.1,1.1,0.3,1.4,0.8c0.4,0.7,0.4,1.3-0.1,1.9
		c-0.1,0.1-0.3,0.3-0.4,0.4c-1.4,1.3-1.3,2.8,0.2,4c0.8,0.6,1.6,0.7,2.5,0.2c0.3-0.1,0.5-0.3,0.7-0.4c1.3-1,2.3-0.1,2.4,1.1
		c0.3,2.9-1,5.1-3.4,6.7c-1.3,0.9-2.7,1.2-4.3,1.1c-0.9-0.1-1.7,0-2.6-0.3c-2.8-0.8-4.4-2.8-5.2-5.6c-0.1-0.3-0.1-0.5-0.2-0.8
		C42.4,111.8,42.4,111.4,42.4,111.1z"/>
</g>
</svg>
