<svg width="1053" height="251" viewBox="0 0 1053 251" fill="none" xmlns="http://www.w3.org/2000/svg">
<path d="M367.848 211.91C352.971 223.781 334.417 230.048 312.899 230.048C291.343 230.048 272.513 223.781 257.623 211.91C240.971 198.477 234.268 182.679 234.268 157.054V30.9498L259.163 27.8278V149.63C259.163 174.038 261.013 180.908 270.68 191.322C280.739 202.378 295.265 208.316 312.597 208.316C329.857 208.316 344.497 202.378 354.492 191.322C364.232 180.908 366.017 174.038 366.017 149.63V30.9498L390.9 27.8278V157.054C390.9 183.31 384.577 198.477 367.848 211.91" fill="#B5D118"/>
<path d="M56.9903 40.7674C71.8538 28.8866 90.3794 22.6204 111.905 22.6204C133.473 22.6204 152.294 28.8866 167.168 40.7674C183.887 54.2354 190.548 70.0207 190.548 95.6221V224.784H165.655V103.046C165.655 78.6199 163.811 71.7741 154.127 61.3783C144.085 50.3441 129.535 44.3971 112.242 44.3971C94.946 44.3971 80.3308 50.3441 70.3174 61.3783C60.6032 71.7741 58.7966 78.6199 58.7966 103.046V224.784H33.8955V95.6221C33.8955 69.3861 40.2715 54.2354 56.9903 40.7674" fill="#B5D118"/>
<path d="M529.187 45.7329C488.809 45.7329 455.736 82.0597 455.736 126.106C455.736 170.512 488.809 206.784 529.187 206.784C569.267 206.784 602.322 170.512 602.322 126.106C602.322 82.0597 569.267 45.7329 529.187 45.7329V45.7329ZM529.187 228.251C470.883 228.251 428.403 185.363 428.403 126.106C428.403 67.1655 470.883 24.2885 529.187 24.2885C587.489 24.2885 629.668 67.1655 629.668 126.106C629.668 185.363 587.489 228.251 529.187 228.251" fill="#B5D118"/>
<path d="M727.293 45.5513H689.399V200.989H727.293C753.753 200.989 768.623 195.932 781.393 183.107C795.928 167.931 805.948 143.517 805.948 122.075C805.948 78.3413 772.567 45.5513 727.293 45.5513ZM805.023 192.939C786.821 213.479 765.896 221.536 731.021 221.536H664.479V24.9744H731.311C789.895 24.9744 832.081 65.7958 832.081 122.352C832.081 147.984 822.391 173.56 805.023 192.939Z" fill="#B5D118"/>
<path d="M924.55 131.601H890.266V200.989H924.55C942.817 200.989 949.749 199.159 956.745 193.514C963.132 188.167 967.37 177.757 967.37 167.333C967.37 144.391 951.884 131.601 924.55 131.601V131.601ZM951.593 52.6732C946.416 47.3478 940.082 45.5513 924.55 45.5513H890.266V109.249H922.764C937.009 109.249 943.386 107.162 950.053 100.626C956.136 94.6801 959.81 85.4201 959.81 75.3018C959.81 65.7958 956.745 57.8063 951.593 52.6732V52.6732ZM939.438 221.536H865.408V24.9744H930.372C949.749 24.9744 960.398 28.2573 970.433 37.1837C980.089 46.1492 986.202 59.5414 986.202 73.2148C986.202 94.3805 973.156 111.345 951.884 118.509C978.608 123.589 993.82 142.052 993.82 169.15C993.82 200.393 971.913 221.536 939.438 221.536" fill="#B5D118"/>
<path d="M1018.28 45.0457C1020.75 45.0457 1022.22 43.8628 1022.22 42.0061V41.9054C1022.22 39.9453 1020.75 38.8632 1018.28 38.8632H1013.35V45.0457H1018.28ZM1009.57 35.5135H1018.44C1021.06 35.5135 1023.11 36.2868 1024.48 37.6267C1025.53 38.6041 1026.1 39.9976 1026.1 41.6973V41.7994C1026.1 44.9462 1024.21 46.8985 1021.49 47.6744L1026.84 55.041H1022.33L1017.5 48.2933H1013.35V55.041H1009.57V35.5135Z" fill="#B5D118"/>
<path d="M1017.11 28.8392C1007.69 28.8392 1000.03 36.3576 1000.03 45.6032C1000.03 54.8396 1007.69 62.3567 1017.11 62.3567C1026.53 62.3567 1034.19 54.8396 1034.19 45.6032C1034.19 36.3576 1026.53 28.8392 1017.11 28.8392V28.8392ZM1017.11 65.2354C1006.08 65.2354 997.104 56.4268 997.104 45.6032C997.104 34.7704 1006.08 25.9619 1017.11 25.9619C1028.14 25.9619 1037.12 34.7704 1037.12 45.6032C1037.12 56.4268 1028.14 65.2354 1017.11 65.2354Z" fill="#B5D118"/>
</svg>
