<?xml version="1.0" standalone="no"?>
<!DOCTYPE svg PUBLIC "-//W3C//DTD SVG 1.1//EN" "http://www.w3.org/Graphics/SVG/1.1/DTD/svg11.dtd" >
<svg xmlns="http://www.w3.org/2000/svg">
<metadata>Generated by IcoMoon</metadata>
<defs>
<font id="mayaicon" horiz-adv-x="1024">
<font-face units-per-em="1024" ascent="960" descent="-64" />
<missing-glyph horiz-adv-x="1024" />
<glyph unicode="&#x20;" horiz-adv-x="512" d="" />
<glyph unicode="&#xe900;" glyph-name="analytics" horiz-adv-x="1067" d="M648.533 341.333l302.933 307.2c17.067 17.067 42.667 17.067 59.733 0s17.067-42.667 0-59.733l-332.8-337.067c-17.067-17.067-42.667-17.067-59.733 0l-145.067 145.067-230.4-234.667c-17.067-17.067-42.667-17.067-59.733 0s-17.067 42.667 0 59.733l260.267 264.533c17.067 17.067 42.667 17.067 59.733 0l145.067-145.067zM981.333 362.667c-25.6 0-42.667 17.067-42.667 42.667v170.667h-170.667c-25.6 0-42.667 17.067-42.667 42.667s17.067 42.667 42.667 42.667h213.333c25.6 0 42.667-17.067 42.667-42.667v-213.333c0-25.6-17.067-42.667-42.667-42.667zM85.333 960v0c25.6 0 42.667-17.067 42.667-42.667v-896c0-25.6-17.067-42.667-42.667-42.667v0c-25.6 0-42.667 17.067-42.667 42.667v896c0 25.6 17.067 42.667 42.667 42.667zM1024 21.333v0c0-25.6-17.067-42.667-42.667-42.667h-896c-25.6 0-42.667 17.067-42.667 42.667v0c0 25.6 17.067 42.667 42.667 42.667h896c25.6 0 42.667-17.067 42.667-42.667z" />
<glyph unicode="&#xe901;" glyph-name="activity" d="M640 21.333c-17.067 0-34.133 12.8-38.4 29.867l-217.6 644.267-89.6-264.533c-4.267-12.8-21.333-25.6-38.4-25.6h-170.667c-25.6 0-42.667 17.067-42.667 42.667s17.067 42.667 42.667 42.667h140.8l119.467 354.133c4.267 17.067 21.333 29.867 38.4 29.867s34.133-12.8 38.4-29.867l217.6-644.267 89.6 264.533c4.267 17.067 21.333 29.867 38.4 29.867h170.667c25.6 0 42.667-17.067 42.667-42.667s-17.067-42.667-42.667-42.667h-140.8l-119.467-354.133c-4.267-21.333-21.333-34.133-38.4-34.133z" />
<glyph unicode="&#xe902;" glyph-name="airplay" d="M853.333 192h-42.667c-25.6 0-42.667 17.067-42.667 42.667s17.067 42.667 42.667 42.667h42.667c25.6 0 42.667 17.067 42.667 42.667v426.667c0 25.6-17.067 42.667-42.667 42.667h-682.667c-25.6 0-42.667-17.067-42.667-42.667v-426.667c0-25.6 17.067-42.667 42.667-42.667h42.667c25.6 0 42.667-17.067 42.667-42.667s-17.067-42.667-42.667-42.667h-42.667c-72.533 0-128 55.467-128 128v426.667c0 72.533 55.467 128 128 128h682.667c72.533 0 128-55.467 128-128v-426.667c0-72.533-55.467-128-128-128zM763.733 46.933c8.533 17.067 4.267 34.133-4.267 46.933l-213.333 256c-17.067 21.333-51.2 21.333-64 0l-213.333-256c-8.533-12.8-12.8-29.867-4.267-46.933 4.267-17.067 17.067-25.6 34.133-25.6h426.667c17.067 0 29.867 8.533 38.4 25.6zM512 251.733l123.733-145.067h-247.467l123.733 145.067z" />
<glyph unicode="&#xe903;" glyph-name="alert-circle" d="M512-21.333c-260.267 0-469.333 209.067-469.333 469.333s209.067 469.333 469.333 469.333c260.267 0 469.333-209.067 469.333-469.333s-209.067-469.333-469.333-469.333zM512 832c-213.333 0-384-170.667-384-384s170.667-384 384-384c213.333 0 384 170.667 384 384s-170.667 384-384 384zM554.667 448v170.667c0 25.6-17.067 42.667-42.667 42.667s-42.667-17.067-42.667-42.667v-170.667c0-25.6 17.067-42.667 42.667-42.667s42.667 17.067 42.667 42.667zM541.867 247.467c4.267 4.267 8.533 8.533 8.533 12.8s4.267 12.8 4.267 17.067c0 4.267 0 12.8-4.267 17.067s-4.267 8.533-8.533 12.8c0 0-4.267 4.267-8.533 4.267s-4.267 4.267-8.533 4.267c-17.067 8.533-34.133 4.267-46.933-8.533-4.267-4.267-8.533-8.533-8.533-12.8s-4.267-8.533-4.267-17.067c0-12.8 4.267-21.333 12.8-29.867s17.067-12.8 29.867-12.8c17.067 0 25.6 4.267 34.133 12.8z" />
<glyph unicode="&#xe904;" glyph-name="alert-octagon" d="M686.933-21.333h-349.867c-12.8 0-21.333 4.267-29.867 12.8l-251.733 251.733c-8.533 4.267-12.8 17.067-12.8 29.867v349.867c0 12.8 4.267 21.333 12.8 29.867l251.733 251.733c4.267 8.533 17.067 12.8 29.867 12.8h354.133c12.8 0 21.333-4.267 29.867-12.8l251.733-251.733c4.267-4.267 8.533-17.067 8.533-29.867v-354.133c0-12.8-4.267-21.333-12.8-29.867l-251.733-251.733c-4.267-4.267-17.067-8.533-29.867-8.533zM354.133 64h320l226.133 226.133v315.733l-230.4 226.133h-315.733l-226.133-226.133v-320l226.133-221.867zM554.667 448v170.667c0 25.6-17.067 42.667-42.667 42.667s-42.667-17.067-42.667-42.667v-170.667c0-25.6 17.067-42.667 42.667-42.667s42.667 17.067 42.667 42.667zM541.867 247.467c4.267 4.267 8.533 8.533 8.533 12.8s4.267 12.8 4.267 17.067c0 4.267 0 12.8-4.267 17.067s-4.267 8.533-8.533 12.8c0 0-4.267 4.267-8.533 4.267s-4.267 4.267-8.533 4.267c-17.067 8.533-34.133 4.267-46.933-8.533-4.267-4.267-8.533-8.533-8.533-12.8s-4.267-8.533-4.267-17.067c0-12.8 4.267-21.333 12.8-29.867s17.067-12.8 29.867-12.8c17.067 0 25.6 4.267 34.133 12.8z" />
<glyph unicode="&#xe905;" glyph-name="alert-triangle" d="M149.333 21.333c-21.333 0-42.667 4.267-64 17.067-59.733 34.133-81.067 115.2-46.933 174.933l362.667 605.867c0 0 0 0 0 0 8.533 17.067 25.6 34.133 42.667 42.667 29.867 17.067 64 21.333 98.133 12.8s59.733-29.867 81.067-59.733l358.4-601.6c12.8-21.333 17.067-42.667 17.067-64 0-34.133-12.8-68.267-38.4-89.6-21.333-25.6-51.2-38.4-85.333-38.4h-725.333zM473.6 772.267l-358.4-601.6c-12.8-21.333-4.267-46.933 17.067-59.733 4.267-4.267 12.8-4.267 17.067-4.267h721.067c12.8 0 21.333 4.267 29.867 12.8s12.8 17.067 12.8 29.867c0 8.533 0 12.8-4.267 21.333l-358.4 601.6c-12.8 21.333-38.4 25.6-59.733 17.067-8.533-4.267-12.8-8.533-17.067-17.067zM554.667 405.333v170.667c0 25.6-17.067 42.667-42.667 42.667s-42.667-17.067-42.667-42.667v-170.667c0-25.6 17.067-42.667 42.667-42.667s42.667 17.067 42.667 42.667zM541.867 204.8c8.533 8.533 12.8 17.067 12.8 29.867 0 4.267 0 12.8-4.267 17.067 0 4.267-4.267 8.533-8.533 12.8 0 0-4.267 4.267-8.533 4.267s-4.267 4.267-8.533 4.267c-4.267 0-4.267 0-8.533 4.267-8.533 0-17.067 0-25.6-4.267-4.267 0-8.533-4.267-12.8-8.533s-8.533-8.533-8.533-12.8c0-4.267-4.267-8.533-4.267-17.067 0-12.8 4.267-21.333 12.8-29.867s17.067-12.8 29.867-12.8c17.067 0 25.6 4.267 34.133 12.8z" />
<glyph unicode="&#xe906;" glyph-name="align-center" d="M768 490.667h-512c-25.6 0-42.667 17.067-42.667 42.667s17.067 42.667 42.667 42.667h512c25.6 0 42.667-17.067 42.667-42.667s-17.067-42.667-42.667-42.667zM938.667 704c0 25.6-17.067 42.667-42.667 42.667h-768c-25.6 0-42.667-17.067-42.667-42.667s17.067-42.667 42.667-42.667h768c25.6 0 42.667 17.067 42.667 42.667zM938.667 362.667c0 25.6-17.067 42.667-42.667 42.667h-768c-25.6 0-42.667-17.067-42.667-42.667s17.067-42.667 42.667-42.667h768c25.6 0 42.667 17.067 42.667 42.667zM810.667 192c0 25.6-17.067 42.667-42.667 42.667h-512c-25.6 0-42.667-17.067-42.667-42.667s17.067-42.667 42.667-42.667h512c25.6 0 42.667 17.067 42.667 42.667z" />
<glyph unicode="&#xe907;" glyph-name="align-justify" d="M896 490.667h-768c-25.6 0-42.667 17.067-42.667 42.667s17.067 42.667 42.667 42.667h768c25.6 0 42.667-17.067 42.667-42.667s-17.067-42.667-42.667-42.667zM938.667 704c0 25.6-17.067 42.667-42.667 42.667h-768c-25.6 0-42.667-17.067-42.667-42.667s17.067-42.667 42.667-42.667h768c25.6 0 42.667 17.067 42.667 42.667zM938.667 362.667c0 25.6-17.067 42.667-42.667 42.667h-768c-25.6 0-42.667-17.067-42.667-42.667s17.067-42.667 42.667-42.667h768c25.6 0 42.667 17.067 42.667 42.667zM938.667 192c0 25.6-17.067 42.667-42.667 42.667h-768c-25.6 0-42.667-17.067-42.667-42.667s17.067-42.667 42.667-42.667h768c25.6 0 42.667 17.067 42.667 42.667z" />
<glyph unicode="&#xe908;" glyph-name="align-left" d="M725.333 490.667h-597.333c-25.6 0-42.667 17.067-42.667 42.667s17.067 42.667 42.667 42.667h597.333c25.6 0 42.667-17.067 42.667-42.667s-17.067-42.667-42.667-42.667zM938.667 704c0 25.6-17.067 42.667-42.667 42.667h-768c-25.6 0-42.667-17.067-42.667-42.667s17.067-42.667 42.667-42.667h768c25.6 0 42.667 17.067 42.667 42.667zM938.667 362.667c0 25.6-17.067 42.667-42.667 42.667h-768c-25.6 0-42.667-17.067-42.667-42.667s17.067-42.667 42.667-42.667h768c25.6 0 42.667 17.067 42.667 42.667zM768 192c0 25.6-17.067 42.667-42.667 42.667h-597.333c-25.6 0-42.667-17.067-42.667-42.667s17.067-42.667 42.667-42.667h597.333c25.6 0 42.667 17.067 42.667 42.667z" />
<glyph unicode="&#xe909;" glyph-name="align-right" d="M896 490.667h-597.333c-25.6 0-42.667 17.067-42.667 42.667s17.067 42.667 42.667 42.667h597.333c25.6 0 42.667-17.067 42.667-42.667s-17.067-42.667-42.667-42.667zM938.667 704c0 25.6-17.067 42.667-42.667 42.667h-768c-25.6 0-42.667-17.067-42.667-42.667s17.067-42.667 42.667-42.667h768c25.6 0 42.667 17.067 42.667 42.667zM938.667 362.667c0 25.6-17.067 42.667-42.667 42.667h-768c-25.6 0-42.667-17.067-42.667-42.667s17.067-42.667 42.667-42.667h768c25.6 0 42.667 17.067 42.667 42.667zM938.667 192c0 25.6-17.067 42.667-42.667 42.667h-597.333c-25.6 0-42.667-17.067-42.667-42.667s17.067-42.667 42.667-42.667h597.333c25.6 0 42.667 17.067 42.667 42.667z" />
<glyph unicode="&#xe90a;" glyph-name="anchor" d="M938.667 490.667h-128c-25.6 0-42.667-17.067-42.667-42.667s17.067-42.667 42.667-42.667h81.067c-21.333-179.2-162.133-320-337.067-337.067v512c72.533 17.067 128 85.333 128 166.4 0 93.867-76.8 170.667-170.667 170.667s-170.667-76.8-170.667-170.667c0-81.067 55.467-145.067 128-166.4v-516.267c-179.2 21.333-320 162.133-337.067 337.067h81.067c25.6 0 42.667 17.067 42.667 42.667s-17.067 42.667-42.667 42.667h-128c-25.6 0-42.667-17.067-42.667-42.667 0-260.267 209.067-469.333 469.333-469.333s469.333 209.067 469.333 469.333c0 29.867-17.067 46.933-42.667 46.933zM426.667 746.667c0 46.933 38.4 85.333 85.333 85.333s85.333-38.4 85.333-85.333c0-46.933-38.4-85.333-85.333-85.333s-85.333 38.4-85.333 85.333z" />
<glyph unicode="&#xe90b;" glyph-name="aperture" d="M891.733 174.933c55.467 76.8 89.6 170.667 89.6 273.067 0 64-12.8 128-38.4 183.467 0 0 0 4.267 0 4.267-64 149.333-204.8 256-375.467 277.333 0 0-4.267 0-4.267 0-17.067 4.267-34.133 4.267-51.2 4.267-153.6 0-290.133-72.533-375.467-187.733 0-4.267-4.267-4.267-4.267-8.533-55.467-76.8-89.6-170.667-89.6-273.067 0-64 12.8-128 38.4-187.733 0 0 0-4.267 0-4.267 64-145.067 204.8-256 371.2-277.333 0 0 4.267 0 4.267 0 17.067 0 34.133-4.267 51.2-4.267 153.6 0 290.133 72.533 375.467 187.733 4.267 4.267 8.533 8.533 8.533 12.8zM584.533 320h-149.333l-72.533 128 72.533 128h149.333l72.533-128-72.533-128zM128 448c0 59.733 12.8 119.467 38.4 170.667l170.667-298.667h-187.733c-12.8 38.4-21.333 81.067-21.333 128zM682.667 576h187.733c12.8-38.4 21.333-81.067 21.333-128 0-59.733-12.8-119.467-38.4-170.667l-170.667 298.667zM832 661.333h-345.6l93.867 162.133c106.667-17.067 196.267-76.8 251.733-162.133zM486.4 832l-170.667-298.667-93.867 162.133c64 76.8 157.867 128 264.533 136.533zM192 234.667h345.6l-93.867-162.133c-106.667 17.067-196.267 76.8-251.733 162.133zM537.6 64l170.667 298.667 93.867-162.133c-64-76.8-157.867-128-264.533-136.533z" />
<glyph unicode="&#xe90c;" glyph-name="arrow-down-circle" d="M712.533 477.867c17.067-17.067 17.067-42.667 0-59.733l-170.667-170.667c-4.267-4.267-8.533-8.533-12.8-8.533-4.267-4.267-12.8-4.267-17.067-4.267 0 0 0 0 0 0s0 0 0 0c-4.267 0-12.8 0-17.067 4.267-4.267 0-8.533 4.267-12.8 8.533l-170.667 170.667c-17.067 17.067-17.067 42.667 0 59.733s42.667 17.067 59.733 0l98.133-98.133v238.933c0 25.6 17.067 42.667 42.667 42.667s42.667-17.067 42.667-42.667v-238.933l98.133 98.133c17.067 17.067 42.667 17.067 59.733 0zM981.333 448c0-260.267-209.067-469.333-469.333-469.333s-469.333 209.067-469.333 469.333c0 260.267 209.067 469.333 469.333 469.333s469.333-209.067 469.333-469.333zM896 448c0 213.333-170.667 384-384 384s-384-170.667-384-384c0-213.333 170.667-384 384-384s384 170.667 384 384z" />
<glyph unicode="&#xe90d;" glyph-name="arrow-down-left" d="M797.867 674.133l-439.467-439.467h281.6c25.6 0 42.667-17.067 42.667-42.667s-17.067-42.667-42.667-42.667h-384c-4.267 0-12.8 0-17.067 4.267-8.533 4.267-17.067 12.8-21.333 21.333-4.267 4.267-4.267 12.8-4.267 17.067v384c0 25.6 17.067 42.667 42.667 42.667s42.667-17.067 42.667-42.667v-281.6l439.467 439.467c17.067 17.067 42.667 17.067 59.733 0s17.067-42.667 0-59.733z" />
<glyph unicode="&#xe90e;" glyph-name="arrow-down-right" d="M810.667 192c0-4.267 0-12.8-4.267-17.067-4.267-8.533-12.8-17.067-21.333-21.333-4.267-4.267-12.8-4.267-17.067-4.267h-384c-25.6 0-42.667 17.067-42.667 42.667s17.067 42.667 42.667 42.667h281.6l-439.467 439.467c-17.067 17.067-17.067 42.667 0 59.733s42.667 17.067 59.733 0l439.467-439.467v281.6c0 25.6 17.067 42.667 42.667 42.667s42.667-17.067 42.667-42.667v-384z" />
<glyph unicode="&#xe90f;" glyph-name="arrow-down" d="M797.867 332.8l-256-256c-4.267-4.267-8.533-8.533-12.8-8.533-4.267-4.267-12.8-4.267-17.067-4.267s-12.8 0-17.067 4.267c-4.267 4.267-8.533 4.267-12.8 8.533l-256 256c-17.067 17.067-17.067 42.667 0 59.733s42.667 17.067 59.733 0l183.467-183.467v580.267c0 25.6 17.067 42.667 42.667 42.667s42.667-17.067 42.667-42.667v-580.267l183.467 183.467c17.067 17.067 42.667 17.067 59.733 0s17.067-42.667 0-59.733z" />
<glyph unicode="&#xe910;" glyph-name="arrow-left-circle" d="M512 917.333c-260.267 0-469.333-209.067-469.333-469.333s209.067-469.333 469.333-469.333c260.267 0 469.333 209.067 469.333 469.333s-209.067 469.333-469.333 469.333zM512 64c-213.333 0-384 170.667-384 384s170.667 384 384 384c213.333 0 384-170.667 384-384s-170.667-384-384-384zM725.333 448c0-25.6-17.067-42.667-42.667-42.667h-238.933l98.133-98.133c17.067-17.067 17.067-42.667 0-59.733-8.533-8.533-17.067-12.8-29.867-12.8s-21.333 4.267-29.867 12.8l-170.667 170.667c-4.267 4.267-8.533 8.533-8.533 12.8-4.267 4.267-4.267 12.8-4.267 17.067 0 0 0 0 0 0 0 4.267 0 12.8 4.267 17.067 0 4.267 4.267 8.533 8.533 12.8l170.667 170.667c17.067 17.067 42.667 17.067 59.733 0s17.067-42.667 0-59.733l-98.133-98.133h238.933c25.6 0 42.667-17.067 42.667-42.667z" />
<glyph unicode="&#xe911;" glyph-name="arrow-left" d="M896 448c0-25.6-17.067-42.667-42.667-42.667h-580.267l183.467-183.467c17.067-17.067 17.067-42.667 0-59.733-8.533-8.533-17.067-12.8-29.867-12.8s-21.333 4.267-29.867 12.8l-256 256c-4.267 4.267-8.533 8.533-8.533 12.8-4.267 8.533-4.267 21.333 0 34.133 4.267 4.267 4.267 8.533 8.533 12.8l256 256c17.067 17.067 42.667 17.067 59.733 0s17.067-42.667 0-59.733l-183.467-183.467h580.267c25.6 0 42.667-17.067 42.667-42.667z" />
<glyph unicode="&#xe912;" glyph-name="arrow-right-circle" d="M512 917.333c-260.267 0-469.333-209.067-469.333-469.333s209.067-469.333 469.333-469.333c260.267 0 469.333 209.067 469.333 469.333s-209.067 469.333-469.333 469.333zM512 64c-213.333 0-384 170.667-384 384s170.667 384 384 384c213.333 0 384-170.667 384-384s-170.667-384-384-384zM721.067 465.067c0-4.267 4.267-8.533 4.267-17.067 0 0 0 0 0 0 0-4.267 0-12.8-4.267-17.067 0-4.267-4.267-8.533-8.533-12.8l-170.667-170.667c-8.533-8.533-17.067-12.8-29.867-12.8s-21.333 4.267-29.867 12.8c-17.067 17.067-17.067 42.667 0 59.733l98.133 98.133h-238.933c-25.6 0-42.667 17.067-42.667 42.667s17.067 42.667 42.667 42.667h238.933l-98.133 98.133c-17.067 17.067-17.067 42.667 0 59.733s42.667 17.067 59.733 0l170.667-170.667c4.267-4.267 8.533-8.533 8.533-12.8z" />
<glyph unicode="&#xe913;" glyph-name="arrow-right" d="M883.2 418.133l-256-256c-8.533-8.533-17.067-12.8-29.867-12.8s-21.333 4.267-29.867 12.8c-17.067 17.067-17.067 42.667 0 59.733l183.467 183.467h-580.267c-25.6 0-42.667 17.067-42.667 42.667s17.067 42.667 42.667 42.667h580.267l-183.467 183.467c-17.067 17.067-17.067 42.667 0 59.733s42.667 17.067 59.733 0l256-256c4.267-4.267 8.533-8.533 8.533-12.8 4.267-8.533 4.267-21.333 0-34.133 0-4.267-4.267-8.533-8.533-12.8z" />
<glyph unicode="&#xe914;" glyph-name="arrow-up-circle" d="M712.533 477.867c17.067-17.067 17.067-42.667 0-59.733s-42.667-17.067-59.733 0l-98.133 98.133v-238.933c0-25.6-17.067-42.667-42.667-42.667s-42.667 17.067-42.667 42.667v238.933l-98.133-98.133c-17.067-17.067-42.667-17.067-59.733 0s-17.067 42.667 0 59.733l170.667 170.667c4.267 4.267 8.533 8.533 12.8 8.533 4.267 4.267 12.8 4.267 17.067 4.267 0 0 0 0 0 0 4.267 0 12.8 0 17.067-4.267 4.267 0 8.533-4.267 12.8-8.533l170.667-170.667zM981.333 448c0-260.267-209.067-469.333-469.333-469.333s-469.333 209.067-469.333 469.333c0 260.267 209.067 469.333 469.333 469.333s469.333-209.067 469.333-469.333zM896 448c0 213.333-170.667 384-384 384s-384-170.667-384-384c0-213.333 170.667-384 384-384s384 170.667 384 384z" />
<glyph unicode="&#xe915;" glyph-name="arrow-up-left" d="M797.867 162.133c-8.533-8.533-17.067-12.8-29.867-12.8s-21.333 4.267-29.867 12.8l-439.467 439.467v-281.6c0-25.6-17.067-42.667-42.667-42.667s-42.667 17.067-42.667 42.667v384c0 4.267 0 12.8 4.267 17.067 4.267 8.533 12.8 17.067 21.333 21.333 4.267 4.267 12.8 4.267 17.067 4.267h384c25.6 0 42.667-17.067 42.667-42.667s-17.067-42.667-42.667-42.667h-281.6l439.467-439.467c17.067-17.067 17.067-42.667 0-59.733z" />
<glyph unicode="&#xe916;" glyph-name="arrow-up-right" d="M810.667 704v-384c0-25.6-17.067-42.667-42.667-42.667s-42.667 17.067-42.667 42.667v281.6l-439.467-439.467c-8.533-8.533-17.067-12.8-29.867-12.8s-21.333 4.267-29.867 12.8c-17.067 17.067-17.067 42.667 0 59.733l439.467 439.467h-281.6c-25.6 0-42.667 17.067-42.667 42.667s17.067 42.667 42.667 42.667h384c4.267 0 12.8 0 17.067-4.267 8.533-4.267 17.067-12.8 21.333-21.333 4.267-4.267 4.267-12.8 4.267-17.067z" />
<glyph unicode="&#xe917;" glyph-name="arrow-up" d="M797.867 503.467c-8.533-8.533-17.067-12.8-29.867-12.8s-21.333 4.267-29.867 12.8l-183.467 183.467v-580.267c0-25.6-17.067-42.667-42.667-42.667s-42.667 17.067-42.667 42.667v580.267l-183.467-183.467c-17.067-17.067-42.667-17.067-59.733 0s-17.067 42.667 0 59.733l256 256c4.267 4.267 8.533 8.533 12.8 8.533 8.533 4.267 21.333 4.267 34.133 0 4.267-4.267 8.533-4.267 12.8-8.533l256-256c17.067-17.067 17.067-42.667 0-59.733z" />
<glyph unicode="&#xe918;" glyph-name="at-sign" d="M512 917.333c-123.733 0-243.2-46.933-332.8-136.533s-136.533-209.067-136.533-332.8c0-260.267 209.067-469.333 469.333-469.333 102.4 0 204.8 34.133 285.867 98.133 17.067 12.8 21.333 42.667 8.533 59.733s-42.667 21.333-59.733 8.533c-68.267-51.2-149.333-81.067-234.667-81.067-213.333 0-384 170.667-384 384 0 102.4 38.4 200.533 110.933 273.067s170.667 110.933 273.067 110.933c213.333 0 384-170.667 384-384v-42.667c0-46.933-38.4-85.333-85.333-85.333s-85.333 38.4-85.333 85.333v42.667c0 119.467-93.867 213.333-213.333 213.333s-213.333-93.867-213.333-213.333c0-119.467 93.867-213.333 213.333-213.333 64 0 119.467 29.867 157.867 72.533 29.867-42.667 81.067-72.533 140.8-72.533 93.867 0 170.667 76.8 170.667 170.667v42.667c0 260.267-209.067 469.333-469.333 469.333zM512 320c-72.533 0-128 55.467-128 128s55.467 128 128 128c72.533 0 128-55.467 128-128s-55.467-128-128-128z" />
<glyph unicode="&#xe919;" glyph-name="award" d="M853.333 619.376c0 187.343-153.6 340.624-341.333 340.624s-341.333-153.281-341.333-340.624c0-110.703 51.2-208.632 132.267-268.241l-46.933-366.17c-4.267-17.031 4.267-34.062 17.067-42.578s29.867-8.516 46.933 0l192 114.96 192-114.96c4.267-4.258 12.8-4.258 21.333-4.258s17.067 4.258 21.333 8.516 21.333 25.547 17.067 42.578l-46.933 361.913c85.333 59.609 136.533 157.538 136.533 268.241zM256 619.376c0 140.507 115.2 255.468 256 255.468s256-114.96 256-255.468c0-140.507-115.2-255.468-256-255.468s-256 114.96-256 255.468zM669.867 61.605l-136.533 80.898c-12.8 8.516-29.867 8.516-42.667 0l-136.533-80.898 29.867 242.694c38.4-17.031 81.067-25.547 128-25.547s89.6 8.516 128 25.547l29.867-242.694z" />
<glyph unicode="&#xe91a;" glyph-name="bar-chart-2" d="M810.667 533.333v-426.667c0-25.6-17.067-42.667-42.667-42.667s-42.667 17.067-42.667 42.667v426.667c0 25.6 17.067 42.667 42.667 42.667s42.667-17.067 42.667-42.667zM512 832c-25.6 0-42.667-17.067-42.667-42.667v-682.667c0-25.6 17.067-42.667 42.667-42.667s42.667 17.067 42.667 42.667v682.667c0 25.6-17.067 42.667-42.667 42.667zM256 405.333c-25.6 0-42.667-17.067-42.667-42.667v-256c0-25.6 17.067-42.667 42.667-42.667s42.667 17.067 42.667 42.667v256c0 25.6-17.067 42.667-42.667 42.667z" />
<glyph unicode="&#xe91b;" glyph-name="bar-chart" d="M554.667 533.333v-426.667c0-25.6-17.067-42.667-42.667-42.667s-42.667 17.067-42.667 42.667v426.667c0 25.6 17.067 42.667 42.667 42.667s42.667-17.067 42.667-42.667zM768 832c-25.6 0-42.667-17.067-42.667-42.667v-682.667c0-25.6 17.067-42.667 42.667-42.667s42.667 17.067 42.667 42.667v682.667c0 25.6-17.067 42.667-42.667 42.667zM256 320c-25.6 0-42.667-17.067-42.667-42.667v-170.667c0-25.6 17.067-42.667 42.667-42.667s42.667 17.067 42.667 42.667v170.667c0 25.6-17.067 42.667-42.667 42.667z" />
<glyph unicode="&#xe91c;" glyph-name="battery-charging" d="M256 192c0-25.6-17.067-42.667-42.667-42.667h-85.333c-72.533 0-128 55.467-128 128v341.333c0 72.533 55.467 128 128 128h136.533c25.6 0 42.667-17.067 42.667-42.667s-17.067-42.667-42.667-42.667h-136.533c-25.6 0-42.667-17.067-42.667-42.667v-341.333c0-25.6 17.067-42.667 42.667-42.667h85.333c25.6 0 42.667-17.067 42.667-42.667zM725.333 746.667h-85.333c-25.6 0-42.667-17.067-42.667-42.667s17.067-42.667 42.667-42.667h85.333c25.6 0 42.667-17.067 42.667-42.667v-341.333c0-25.6-17.067-42.667-42.667-42.667h-136.533c-25.6 0-42.667-17.067-42.667-42.667s17.067-42.667 42.667-42.667h136.533c72.533 0 128 55.467 128 128v341.333c0 72.533-55.467 128-128 128zM981.333 533.333c-25.6 0-42.667-17.067-42.667-42.667v-85.333c0-25.6 17.067-42.667 42.667-42.667s42.667 17.067 42.667 42.667v85.333c0 25.6-17.067 42.667-42.667 42.667zM593.067 469.333c-8.533 12.8-21.333 21.333-38.4 21.333h-174.933l128 187.733c12.8 21.333 8.533 46.933-12.8 59.733s-46.933 8.533-59.733-12.8l-170.667-256c-8.533-12.8-8.533-29.867 0-42.667 4.267-12.8 17.067-21.333 34.133-21.333h174.933l-128-187.733c-12.8-21.333-8.533-46.933 12.8-59.733 8.533-4.267 17.067-8.533 25.6-8.533 12.8 0 25.6 8.533 34.133 17.067l170.667 256c8.533 17.067 12.8 29.867 4.267 46.933z" />
<glyph unicode="&#xe91d;" glyph-name="battery" d="M725.333 746.667h-597.333c-72.533 0-128-55.467-128-128v-341.333c0-72.533 55.467-128 128-128h597.333c72.533 0 128 55.467 128 128v341.333c0 72.533-55.467 128-128 128zM768 277.333c0-25.6-17.067-42.667-42.667-42.667h-597.333c-25.6 0-42.667 17.067-42.667 42.667v341.333c0 25.6 17.067 42.667 42.667 42.667h597.333c25.6 0 42.667-17.067 42.667-42.667v-341.333zM1024 490.667v-85.333c0-25.6-17.067-42.667-42.667-42.667s-42.667 17.067-42.667 42.667v85.333c0 25.6 17.067 42.667 42.667 42.667s42.667-17.067 42.667-42.667z" />
<glyph unicode="&#xe91e;" glyph-name="bell-off" d="M622.933 42.667c-25.6-42.667-68.267-64-110.933-64-21.333 0-42.667 4.267-64 17.067s-34.133 25.6-46.933 46.933c-12.8 21.333-4.267 46.933 17.067 59.733s46.933 4.267 59.733-17.067c4.267-4.267 8.533-12.8 17.067-17.067 21.333-12.8 46.933-4.267 59.733 17.067s38.4 25.6 59.733 17.067c21.333-8.533 21.333-38.4 8.533-59.733zM388.267 797.867c123.733 68.267 277.333 25.6 349.867-98.133 17.067-34.133 29.867-81.067 29.867-123.733v-170.667c0-25.6 17.067-42.667 42.667-42.667s42.667 17.067 42.667 42.667v170.667c0 59.733-17.067 115.2-42.667 166.4-93.867 162.133-302.933 221.867-465.067 128-21.333-8.533-29.867-34.133-17.067-55.467s38.4-25.6 59.733-17.067zM1011.2-51.2c-8.533-8.533-17.067-12.8-29.867-12.8s-21.333 4.267-29.867 12.8l-243.2 243.2h-622.933c-25.6 0-42.667 17.067-42.667 42.667s17.067 42.667 42.667 42.667c46.933 0 85.333 38.4 85.333 85.333v213.333c0 42.667 8.533 85.333 25.6 128l-183.467 183.467c-17.067 17.067-17.067 42.667 0 59.733s42.667 17.067 59.733 0l682.667-682.667c0 0 0 0 0 0l256-256c17.067-17.067 17.067-42.667 0-59.733zM622.933 277.333l-358.4 358.4c-4.267-17.067-8.533-38.4-8.533-59.733v-213.333c0-29.867-8.533-59.733-21.333-85.333h388.267z" />
<glyph unicode="&#xe91f;" glyph-name="bell" d="M622.933 42.667c-25.6-42.667-68.267-64-110.933-64-21.333 0-42.667 4.267-64 17.067s-34.133 25.6-46.933 46.933c-12.8 21.333-4.267 46.933 17.067 59.733s46.933 4.267 59.733-17.067c4.267-4.267 8.533-12.8 17.067-17.067 21.333-12.8 46.933-4.267 59.733 17.067s38.4 25.6 59.733 17.067c21.333-8.533 21.333-38.4 8.533-59.733zM981.333 234.667c0-25.6-17.067-42.667-42.667-42.667h-853.333c-25.6 0-42.667 17.067-42.667 42.667s17.067 42.667 42.667 42.667c46.933 0 85.333 38.4 85.333 85.333v213.333c0 187.733 153.6 341.333 341.333 341.333s341.333-153.6 341.333-341.333v-213.333c0-46.933 38.4-85.333 85.333-85.333 25.6 0 42.667-17.067 42.667-42.667zM789.333 277.333c-12.8 25.6-21.333 55.467-21.333 85.333v213.333c0 140.8-115.2 256-256 256s-256-115.2-256-256v-213.333c0-29.867-8.533-59.733-21.333-85.333h554.667z" />
<glyph unicode="&#xe920;" glyph-name="bluetooth" d="M593.067 447.827l204.8 204.8c17.067 17.067 17.067 42.667 0 59.733l-234.667 234.667c-12.8 12.8-29.867 17.067-46.933 8.533-17.067-4.267-25.6-21.333-25.6-38.4v-366.933l-162.133 162.133c-17.067 17.067-42.667 17.067-59.733 0s-17.067-42.667 0-59.733l204.8-204.8-204.8-204.8c-17.067-17.067-17.067-42.667 0-59.733s42.667-17.067 59.733 0l162.133 162.133v-366.933c0-17.067 8.533-34.133 25.6-38.4 4.267-4.267 12.8-4.267 17.067-4.267 12.8 0 21.333 4.267 29.867 12.8l234.667 234.667c17.067 17.067 17.067 42.667 0 59.733l-204.8 204.8zM576 814.76l132.267-132.267-132.267-132.267v264.533zM576 80.894v264.533l132.267-132.267-132.267-132.267z" />
<glyph unicode="&#xe921;" glyph-name="bold" d="M742.4 465.067c42.667 38.4 68.267 93.867 68.267 153.6 0 119.467-93.867 213.333-213.333 213.333h-341.333c-25.6 0-42.667-17.067-42.667-42.667v-682.667c0-25.6 17.067-42.667 42.667-42.667h384c119.467 0 213.333 93.867 213.333 213.333 0 81.067-46.933 149.333-110.933 187.733zM298.667 746.667h298.667c72.533 0 128-55.467 128-128s-55.467-128-128-128h-298.667v256zM640 149.333h-341.333v256h341.333c72.533 0 128-55.467 128-128s-55.467-128-128-128z" />
<glyph unicode="&#xe922;" glyph-name="book-open" d="M938.667 874.667h-256c-68.267 0-132.267-34.133-170.667-85.333-38.4 51.2-102.4 85.333-170.667 85.333h-256c-25.6 0-42.667-17.067-42.667-42.667v-640c0-25.6 17.067-42.667 42.667-42.667h298.667c46.933 0 85.333-38.4 85.333-85.333 0-25.6 17.067-42.667 42.667-42.667s42.667 17.067 42.667 42.667c0 46.933 38.4 85.333 85.333 85.333h298.667c25.6 0 42.667 17.067 42.667 42.667v640c0 25.6-17.067 42.667-42.667 42.667zM469.333 213.333c-25.6 12.8-55.467 21.333-85.333 21.333h-256v554.667h213.333c72.533 0 128-55.467 128-128v-448zM896 234.667h-256c-29.867 0-59.733-8.533-85.333-21.333v448c0 72.533 55.467 128 128 128h213.333v-554.667z" />
<glyph unicode="&#xe923;" glyph-name="book" d="M853.333 917.333h-576c-81.067 0-149.333-68.267-149.333-149.333v-640c0-81.067 68.267-149.333 149.333-149.333h576c25.6 0 42.667 17.067 42.667 42.667v853.333c0 25.6-17.067 42.667-42.667 42.667zM277.333 832h533.333v-554.667h-533.333c-21.333 0-42.667-4.267-64-17.067v507.733c0 34.133 29.867 64 64 64zM277.333 64c-34.133 0-64 29.867-64 64s29.867 64 64 64h533.333v-128h-533.333z" />
<glyph unicode="&#xe924;" glyph-name="bookmark" d="M725.333 874.667h-426.667c-72.533 0-128-55.467-128-128v-682.667c0-17.067 8.533-29.867 21.333-38.4s29.867-4.267 42.667 4.267l273.067 196.267 273.067-196.267c8.533-4.267 17.067-8.533 25.6-8.533s12.8 0 21.333 4.267c12.8 8.533 21.333 21.333 21.333 38.4v682.667c4.267 72.533-51.2 128-123.733 128zM768 145.067l-230.4 166.4c-8.533 4.267-17.067 8.533-25.6 8.533s-17.067-4.267-25.6-8.533l-230.4-166.4v601.6c0 25.6 17.067 42.667 42.667 42.667h426.667c25.6 0 42.667-17.067 42.667-42.667v-601.6z" />
<glyph unicode="&#xe925;" glyph-name="box" d="M908.8 763.733l-341.333 170.667c0 0 0 0 0 0-34.133 17.067-76.8 17.067-115.2 0l-341.333-170.667c-42.667-21.333-68.267-64-68.267-110.933v-405.333c0-46.933 25.6-93.867 72.533-115.2l341.333-170.667c17.067-8.533 38.4-12.8 55.467-12.8 21.333 0 38.4 4.267 55.467 12.8l341.333 170.667c42.667 21.333 72.533 64 72.533 115.2v405.333c0 46.933-25.6 89.6-72.533 110.933zM494.933 861.867c4.267 4.267 12.8 4.267 17.067 4.267 8.533 0 12.8 0 17.067-4.267l315.733-157.867-332.8-166.4-332.8 166.4 315.733 157.867zM149.333 204.8c-12.8 8.533-21.333 25.6-21.333 38.4v392.533l341.333-170.667v-418.133l-320 157.867zM870.4 204.8l-315.733-157.867v418.133l341.333 170.667v-392.533c0-17.067-8.533-29.867-25.6-38.4z" />
<glyph unicode="&#xe926;" glyph-name="briefcase" d="M853.333 704h-128v42.667c0 72.533-55.467 128-128 128h-170.667c-72.533 0-128-55.467-128-128v-42.667h-128c-72.533 0-128-55.467-128-128v-426.667c0-72.533 55.467-128 128-128h682.667c72.533 0 128 55.467 128 128v426.667c0 72.533-55.467 128-128 128zM384 746.667c0 25.6 17.067 42.667 42.667 42.667h170.667c25.6 0 42.667-17.067 42.667-42.667v-42.667h-256v42.667zM640 618.667v-512h-256v512h256zM128 149.333v426.667c0 25.6 17.067 42.667 42.667 42.667h128v-512h-128c-25.6 0-42.667 17.067-42.667 42.667zM896 149.333c0-25.6-17.067-42.667-42.667-42.667h-128v512h128c25.6 0 42.667-17.067 42.667-42.667v-426.667z" />
<glyph unicode="&#xe927;" glyph-name="calendar" d="M810.667 832h-85.333v42.667c0 25.6-17.067 42.667-42.667 42.667s-42.667-17.067-42.667-42.667v-42.667h-256v42.667c0 25.6-17.067 42.667-42.667 42.667s-42.667-17.067-42.667-42.667v-42.667h-85.333c-72.533 0-128-55.467-128-128v-597.333c0-72.533 55.467-128 128-128h597.333c72.533 0 128 55.467 128 128v597.333c0 72.533-55.467 128-128 128zM213.333 746.667h85.333v-42.667c0-25.6 17.067-42.667 42.667-42.667s42.667 17.067 42.667 42.667v42.667h256v-42.667c0-25.6 17.067-42.667 42.667-42.667s42.667 17.067 42.667 42.667v42.667h85.333c25.6 0 42.667-17.067 42.667-42.667v-128h-682.667v128c0 25.6 17.067 42.667 42.667 42.667zM810.667 64h-597.333c-25.6 0-42.667 17.067-42.667 42.667v384h682.667v-384c0-25.6-17.067-42.667-42.667-42.667z" />
<glyph unicode="&#xe928;" glyph-name="camera-off" d="M925.867 93.867c0 0 0 0 0 0l-640 640c0 0 0 0 0 0l-213.333 213.333c-17.067 17.067-42.667 17.067-59.733 0s-17.067-42.667 0-59.733l140.8-140.8h-25.6c-72.533 0-128-55.467-128-128v-469.333c0-72.533 55.467-128 128-128h750.933l72.533-72.533c8.533-8.533 21.333-12.8 29.867-12.8s21.333 4.267 29.867 12.8c17.067 17.067 17.067 42.667 0 59.733l-85.333 85.333zM405.333 477.867c4.267 4.267 4.267 4.267 8.533 8.533l179.2-179.2c-17.067-12.8-38.4-25.6-59.733-29.867-34.133-8.533-68.267 0-93.867 21.333-29.867 21.333-46.933 46.933-55.467 81.067-4.267 34.133 4.267 68.267 21.333 98.133zM128 106.667c-25.6 0-42.667 17.067-42.667 42.667v469.333c0 25.6 17.067 42.667 42.667 42.667h110.933l115.2-115.2c-8.533-8.533-12.8-12.8-17.067-21.333-34.133-46.933-42.667-102.4-34.133-157.867s42.667-106.667 89.6-136.533c34.133-25.6 76.8-38.4 119.467-38.4 12.8 0 25.6 0 38.4 4.267 38.4 8.533 72.533 25.6 102.4 51.2l140.8-140.8h-665.6zM1024 618.667v-396.8c0-25.6-17.067-42.667-42.667-42.667s-42.667 17.067-42.667 42.667v396.8c0 25.6-17.067 42.667-42.667 42.667h-170.667c-12.8 0-25.6 8.533-34.133 17.067l-72.533 110.933h-234.667c-25.6 0-42.667 17.067-42.667 42.667s17.067 42.667 42.667 42.667h256c12.8 0 25.6-8.533 34.133-17.067l72.533-110.933h149.333c72.533 0 128-55.467 128-128z" />
<glyph unicode="&#xe929;" glyph-name="camera" d="M896 746.667h-149.333l-72.533 110.933c-8.533 8.533-21.333 17.067-34.133 17.067h-256c-12.8 0-25.6-8.533-34.133-17.067l-72.533-110.933h-149.333c-72.533 0-128-55.467-128-128v-469.333c0-72.533 55.467-128 128-128h768c72.533 0 128 55.467 128 128v469.333c0 72.533-55.467 128-128 128zM938.667 149.333c0-25.6-17.067-42.667-42.667-42.667h-768c-25.6 0-42.667 17.067-42.667 42.667v469.333c0 25.6 17.067 42.667 42.667 42.667h170.667c12.8 0 25.6 8.533 34.133 17.067l72.533 110.933h209.067l72.533-110.933c12.8-8.533 25.6-17.067 38.4-17.067h170.667c25.6 0 42.667-17.067 42.667-42.667v-469.333zM512 618.667c-119.467 0-213.333-93.867-213.333-213.333s93.867-213.333 213.333-213.333c119.467 0 213.333 93.867 213.333 213.333s-93.867 213.333-213.333 213.333zM512 277.333c-72.533 0-128 55.467-128 128s55.467 128 128 128c72.533 0 128-55.467 128-128s-55.467-128-128-128z" />
<glyph unicode="&#xe92a;" glyph-name="cast" d="M295.058 115.2c4.267-21.333-12.8-46.933-34.133-51.2-4.267 0-4.267 0-8.533 0-21.333 0-38.4 12.8-42.667 34.133-12.8 68.267-64 119.467-132.267 132.267-21.333 4.267-38.4 29.867-34.133 51.2s25.6 38.4 51.2 34.133c102.4-21.333 179.2-98.133 200.533-200.533zM853.992 832h-682.667c-72.533 0-128-55.467-128-128v-85.333c0-25.6 17.067-42.667 42.667-42.667s42.667 17.067 42.667 42.667v85.333c0 25.6 17.067 42.667 42.667 42.667h682.667c25.6 0 42.667-17.067 42.667-42.667v-512c0-25.6-17.067-42.667-42.667-42.667h-256c-25.6 0-42.667-17.067-42.667-42.667s17.067-42.667 42.667-42.667h256c72.533 0 128 55.467 128 128v512c0 72.533-55.467 128-128 128zM90.258 486.4c-21.333 4.267-42.667-12.8-46.933-38.4-4.267-21.333 12.8-42.667 38.4-46.933 157.867-17.067 285.867-140.8 302.933-302.933 0-17.067 17.067-34.133 38.4-34.133 0 0 4.267 0 4.267 0 21.333 4.267 38.4 25.6 38.4 46.933-21.333 200.533-174.933 354.133-375.467 375.467zM68.925 145.067c-4.267 0-8.533-4.267-12.8-8.533-8.533-8.533-12.8-17.067-12.8-29.867s4.267-21.333 12.8-29.867c8.533-8.533 17.067-12.8 29.867-12.8s21.333 4.267 29.867 12.8c8.533 8.533 12.8 17.067 12.8 29.867s-4.267 21.333-12.8 29.867c-12.8 12.8-29.867 17.067-46.933 8.533z" />
<glyph unicode="&#xe92b;" glyph-name="check-circle" d="M981.333 486.4v-38.4c0-260.267-209.067-469.333-469.333-469.333 0 0 0 0 0 0-260.267 0-469.333 209.067-469.333 469.333s209.067 469.333 469.333 469.333c0 0 0 0 0 0 64 0 132.267-12.8 192-42.667 21.333-8.533 29.867-34.133 21.333-55.467s-34.133-29.867-55.467-21.333c-51.2 21.333-102.4 34.133-157.867 34.133 0 0 0 0 0 0-213.333 0-384-170.667-384-384s170.667-384 384-384c0 0 0 0 0 0 213.333 0 384 170.667 384 384v38.4c0 25.6 17.067 42.667 42.667 42.667s42.667-17.067 42.667-42.667zM1011.2 861.867c-17.067 17.067-42.667 17.067-59.733 0l-439.467-439.467-98.133 98.133c-17.067 17.067-42.667 17.067-59.733 0s-17.067-42.667 0-59.733l128-128c8.533-8.533 21.333-12.8 29.867-12.8s21.333 4.267 29.867 12.8l469.333 469.333c17.067 17.067 17.067 42.667 0 59.733z" />
<glyph unicode="&#xe92c;" glyph-name="check-square" d="M968.533 802.133l-469.333-469.333c-8.533-8.533-17.067-12.8-29.867-12.8s-21.333 4.267-29.867 12.8l-128 128c-17.067 17.067-17.067 42.667 0 59.733s42.667 17.067 59.733 0l98.133-98.133 439.467 439.467c17.067 17.067 42.667 17.067 59.733 0s17.067-42.667 0-59.733zM853.333 490.667c-25.6 0-42.667-17.067-42.667-42.667v-298.667c0-25.6-17.067-42.667-42.667-42.667h-597.333c-25.6 0-42.667 17.067-42.667 42.667v597.333c0 25.6 17.067 42.667 42.667 42.667h469.333c25.6 0 42.667 17.067 42.667 42.667s-17.067 42.667-42.667 42.667h-469.333c-72.533 0-128-55.467-128-128v-597.333c0-72.533 55.467-128 128-128h597.333c72.533 0 128 55.467 128 128v298.667c0 25.6-17.067 42.667-42.667 42.667z" />
<glyph unicode="&#xe92d;" glyph-name="check" d="M883.2 631.467l-469.333-469.333c-8.533-8.533-17.067-12.8-29.867-12.8s-21.333 4.267-29.867 12.8l-213.333 213.333c-17.067 17.067-17.067 42.667 0 59.733s42.667 17.067 59.733 0l183.467-183.467 439.467 439.467c17.067 17.067 42.667 17.067 59.733 0s17.067-42.667 0-59.733z" />
<glyph unicode="&#xe92e;" glyph-name="chevron-down" d="M797.867 546.133l-256-256c-8.533-8.533-17.067-12.8-29.867-12.8s-21.333 4.267-29.867 12.8l-256 256c-17.067 17.067-17.067 42.667 0 59.733s42.667 17.067 59.733 0l226.133-226.133 226.133 226.133c17.067 17.067 42.667 17.067 59.733 0s17.067-42.667 0-59.733z" />
<glyph unicode="&#xe92f;" glyph-name="chevron-left" d="M669.867 221.867c17.067-17.067 17.067-42.667 0-59.733-8.533-8.533-17.067-12.8-29.867-12.8s-21.333 4.267-29.867 12.8l-256 256c-17.067 17.067-17.067 42.667 0 59.733l256 256c17.067 17.067 42.667 17.067 59.733 0s17.067-42.667 0-59.733l-226.133-226.133 226.133-226.133z" />
<glyph unicode="&#xe930;" glyph-name="chevron-right" d="M669.867 418.133l-256-256c-8.533-8.533-17.067-12.8-29.867-12.8s-21.333 4.267-29.867 12.8c-17.067 17.067-17.067 42.667 0 59.733l226.133 226.133-226.133 226.133c-17.067 17.067-17.067 42.667 0 59.733s42.667 17.067 59.733 0l256-256c17.067-17.067 17.067-42.667 0-59.733z" />
<glyph unicode="&#xe931;" glyph-name="chevron-up" d="M797.867 290.133c-8.533-8.533-17.067-12.8-29.867-12.8s-21.333 4.267-29.867 12.8l-226.133 226.133-226.133-226.133c-17.067-17.067-42.667-17.067-59.733 0s-17.067 42.667 0 59.733l256 256c17.067 17.067 42.667 17.067 59.733 0l256-256c17.067-17.067 17.067-42.667 0-59.733z" />
<glyph unicode="&#xe932;" glyph-name="chevrons-down" d="M755.2 435.2c17.067-17.067 17.067-42.667 0-59.733l-213.333-213.333c-8.533-8.533-17.067-12.8-29.867-12.8s-21.333 4.267-29.867 12.8l-213.333 213.333c-17.067 17.067-17.067 42.667 0 59.733s42.667 17.067 59.733 0l183.467-183.467 183.467 183.467c17.067 17.067 42.667 17.067 59.733 0zM482.133 460.8c8.533-8.533 21.333-12.8 29.867-12.8s21.333 4.267 29.867 12.8l213.333 213.333c17.067 17.067 17.067 42.667 0 59.733s-42.667 17.067-59.733 0l-183.467-183.467-183.467 183.467c-17.067 17.067-42.667 17.067-59.733 0s-17.067-42.667 0-59.733l213.333-213.333z" />
<glyph unicode="&#xe933;" glyph-name="chevrons-left" d="M499.2 264.533c17.067-17.067 17.067-42.667 0-59.733-8.533-8.533-17.067-12.8-29.867-12.8s-21.333 4.267-29.867 12.8l-213.333 213.333c-17.067 17.067-17.067 42.667 0 59.733l213.333 213.333c17.067 17.067 42.667 17.067 59.733 0s17.067-42.667 0-59.733l-183.467-183.467 183.467-183.467zM614.4 448l183.467 183.467c17.067 17.067 17.067 42.667 0 59.733s-42.667 17.067-59.733 0l-213.333-213.333c-17.067-17.067-17.067-42.667 0-59.733l213.333-213.333c8.533-8.533 21.333-12.8 29.867-12.8s21.333 4.267 29.867 12.8c17.067 17.067 17.067 42.667 0 59.733l-183.467 183.467z" />
<glyph unicode="&#xe934;" glyph-name="chevrons-right" d="M797.867 418.133l-213.333-213.333c-8.533-8.533-17.067-12.8-29.867-12.8s-21.333 4.267-29.867 12.8c-17.067 17.067-17.067 42.667 0 59.733l183.467 183.467-183.467 183.467c-17.067 17.067-17.067 42.667 0 59.733s42.667 17.067 59.733 0l213.333-213.333c17.067-17.067 17.067-42.667 0-59.733zM499.2 477.867l-213.333 213.333c-17.067 17.067-42.667 17.067-59.733 0s-17.067-42.667 0-59.733l183.467-183.467-183.467-183.467c-17.067-17.067-17.067-42.667 0-59.733 8.533-8.533 17.067-12.8 29.867-12.8s21.333 4.267 29.867 12.8l213.333 213.333c17.067 17.067 17.067 42.667 0 59.733z" />
<glyph unicode="&#xe935;" glyph-name="chevrons-up" d="M268.8 460.8c-17.067 17.067-17.067 42.667 0 59.733l213.333 213.333c17.067 17.067 42.667 17.067 59.733 0l213.333-213.333c17.067-17.067 17.067-42.667 0-59.733-8.533-8.533-17.067-12.8-29.867-12.8s-21.333 4.267-29.867 12.8l-183.467 183.467-183.467-183.467c-17.067-17.067-42.667-17.067-59.733 0zM541.867 435.2c-17.067 17.067-42.667 17.067-59.733 0l-213.333-213.333c-17.067-17.067-17.067-42.667 0-59.733s42.667-17.067 59.733 0l183.467 183.467 183.467-183.467c8.533-8.533 21.333-12.8 29.867-12.8s21.333 4.267 29.867 12.8c17.067 17.067 17.067 42.667 0 59.733l-213.333 213.333z" />
<glyph unicode="&#xe936;" glyph-name="chrome" d="M946.262 631.467c0 4.267 0 4.267 0 0-77.084 170.667-239.817 285.867-432.527 285.867-154.168 0-291.206-72.533-376.855-187.733 0-4.267-4.282-4.267-4.282-8.533-55.672-76.8-89.931-170.667-89.931-273.067 0-238.933 179.863-435.2 411.115-465.067 0 0 4.282 0 4.282 0 17.13 0 34.26-4.267 51.389-4.267 261.229 0 471.069 209.067 471.069 469.333 4.282 64-8.565 128-34.26 183.467zM513.735 832c132.756 0 252.664-68.267 321.183-170.667h-321.183c-89.931 0-162.733-55.467-196.992-128l-94.214 162.133c68.519 85.333 175.58 136.533 291.206 136.533zM642.209 448c0-72.533-55.672-128-128.473-128s-128.473 55.467-128.473 128c0 72.533 55.672 128 128.473 128s128.473-55.467 128.473-128zM128.316 448c0 59.733 12.847 119.467 38.542 170.667l158.45-277.333c0 0 0-4.267 4.282-4.267 38.542-59.733 107.061-102.4 184.145-102.4 8.565 0 17.13 0 25.695 4.267l-98.496-166.4c-175.58 29.867-312.618 187.733-312.618 375.467zM539.43 64l158.45 277.333c0 0 0 4.267 0 4.267 17.13 29.867 25.695 64 25.695 102.4 0 46.933-17.13 93.867-42.824 128h192.71c12.847-38.4 21.412-81.067 21.412-128 4.282-204.8-154.168-371.2-355.443-384z" />
<glyph unicode="&#xe937;" glyph-name="circle" d="M512 917.333c-260.267 0-469.333-209.067-469.333-469.333s209.067-469.333 469.333-469.333c260.267 0 469.333 209.067 469.333 469.333s-209.067 469.333-469.333 469.333zM512 64c-213.333 0-384 170.667-384 384s170.667 384 384 384c213.333 0 384-170.667 384-384s-170.667-384-384-384z" />
<glyph unicode="&#xe938;" glyph-name="clipboard" d="M768 832h-42.667c0 46.933-38.4 85.333-85.333 85.333h-256c-46.933 0-85.333-38.4-85.333-85.333h-42.667c-72.533 0-128-55.467-128-128v-597.333c0-72.533 55.467-128 128-128h512c72.533 0 128 55.467 128 128v597.333c0 72.533-55.467 128-128 128zM384 832h256v-85.333h-256v42.667c0 0 0 0 0 0s0 0 0 0v42.667zM810.667 106.667c0-25.6-17.067-42.667-42.667-42.667h-512c-25.6 0-42.667 17.067-42.667 42.667v597.333c0 25.6 17.067 42.667 42.667 42.667h42.667c0-46.933 38.4-85.333 85.333-85.333h256c46.933 0 85.333 38.4 85.333 85.333h42.667c25.6 0 42.667-17.067 42.667-42.667v-597.333z" />
<glyph unicode="&#xe939;" glyph-name="clock" d="M512 917.333c-260.267 0-469.333-209.067-469.333-469.333s209.067-469.333 469.333-469.333c260.267 0 469.333 209.067 469.333 469.333s-209.067 469.333-469.333 469.333zM512 64c-213.333 0-384 170.667-384 384s170.667 384 384 384c213.333 0 384-170.667 384-384s-170.667-384-384-384zM669.867 349.867c17.067-17.067 17.067-42.667 0-59.733-8.533-8.533-17.067-12.8-29.867-12.8s-21.333 4.267-29.867 12.8l-128 128c-8.533 8.533-12.8 17.067-12.8 29.867v256c0 25.6 17.067 42.667 42.667 42.667s42.667-17.067 42.667-42.667v-238.933l115.2-115.2z" />
<glyph unicode="&#xe93a;" glyph-name="cloud-drizzle" d="M384.447 149.331v-85.333c0-25.6-17.067-42.667-42.667-42.667s-42.667 17.067-42.667 42.667v85.333c0 25.6 17.067 42.667 42.667 42.667s42.667-17.067 42.667-42.667zM341.781 447.997c-25.6 0-42.667-17.067-42.667-42.667v-85.333c0-25.6 17.067-42.667 42.667-42.667s42.667 17.067 42.667 42.667v85.333c0 25.6-17.067 42.667-42.667 42.667zM683.114 191.997c-25.6 0-42.667-17.067-42.667-42.667v-85.333c0-25.6 17.067-42.667 42.667-42.667s42.667 17.067 42.667 42.667v85.333c0 25.6-17.067 42.667-42.667 42.667zM683.114 447.997c-25.6 0-42.667-17.067-42.667-42.667v-85.333c0-25.6 17.067-42.667 42.667-42.667s42.667 17.067 42.667 42.667v85.333c0 25.6-17.067 42.667-42.667 42.667zM512.447 106.664c-25.6 0-42.667-17.067-42.667-42.667v-85.333c0-25.6 17.067-42.667 42.667-42.667s42.667 17.067 42.667 42.667v85.333c0 25.6-17.067 42.667-42.667 42.667zM512.447 362.664c-25.6 0-42.667-17.067-42.667-42.667v-85.333c0-25.6 17.067-42.667 42.667-42.667s42.667 17.067 42.667 42.667v85.333c0 25.6-17.067 42.667-42.667 42.667zM1003.114 550.397c-42.667 93.867-132.267 153.6-234.667 153.6h-21.333c-64 187.733-264.533 294.4-456.533 243.2-209.067-51.2-332.8-260.267-277.333-469.333 21.333-81.067 68.267-153.6 132.267-204.8 17.067-12.8 46.933-12.8 59.733 8.533 12.8 17.067 12.8 46.933-8.533 59.733-51.2 38.4-85.333 98.133-102.4 157.867-42.667 157.867 55.467 324.267 213.333 362.667 157.867 42.667 324.267-55.467 362.667-213.333 4.267-17.067 21.333-34.133 42.667-34.133h55.467c68.267 0 128-38.4 157.867-102.4 17.067-42.667 21.333-89.6 4.267-132.267s-46.933-76.8-89.6-93.867c-21.333-8.533-29.867-34.133-21.333-55.467 8.533-17.067 21.333-25.6 38.4-25.6 4.267 0 12.8 0 17.067 4.267 64 25.6 110.933 76.8 136.533 140.8 21.333 68.267 17.067 136.533-8.533 200.533z" />
<glyph unicode="&#xe93b;" glyph-name="cloud-lightning" d="M819.941 197.431c-4.249 0-4.249 0-8.498 0-21.246 0-38.243 12.857-42.492 34.286s8.498 47.143 33.994 51.429c93.482 17.143 152.971 111.43 131.725 201.431-16.997 81.429-84.984 137.144-165.718 137.144 0 0 0 0 0 0h-55.239c-21.246 0-38.243 12.857-42.492 34.286-42.492 158.573-203.961 257.146-361.181 214.288-76.485-21.429-140.223-68.572-178.466-137.144-42.492-72.858-55.239-150.002-33.994-231.431s72.236-145.716 144.472-188.573c21.246-8.572 29.744-34.286 16.997-55.715s-38.243-30-59.489-17.143c-93.482 51.429-157.22 137.144-186.964 240.003-25.495 98.573-12.748 205.717 42.492 291.432 50.99 90.001 135.974 150.002 233.705 175.716 191.214 51.429 390.926-60.001 454.663-244.288h25.495c0 0 0 0 0 0 118.977 0 225.207-85.715 250.702-205.717 25.495-132.859-63.738-270.003-199.712-300.003zM641.475 278.861h-174.217l127.476 188.574c12.748 21.429 8.498 47.143-12.748 60.001s-46.741 8.572-59.489-12.857l-169.968-257.146c-8.498-12.857-8.498-30 0-42.858 4.249-12.857 16.997-21.429 33.994-21.429h174.217l-127.476-188.574c-12.748-21.429-8.498-47.143 12.748-60.001 8.498-4.286 16.997-8.572 25.495-8.572 12.748 0 25.495 8.572 33.994 17.143l169.968 257.146c8.498 12.857 8.498 30 0 42.858s-16.997 25.715-33.994 25.715z" />
<glyph unicode="&#xe93c;" glyph-name="cloud-off" d="M374.653 793.6c0 21.333 21.22 42.667 46.685 38.4 148.543-12.8 275.866-115.2 326.795-256h21.22c0 0 0 0 0 0 33.953 0 67.906-8.533 97.614-21.333 127.323-55.467 190.984-204.8 135.811-337.067-4.244-12.8-21.22-25.6-38.197-25.6-4.244 0-12.732 0-16.976 4.267-21.22 8.533-29.709 34.133-21.22 55.467 38.197 85.333-4.244 187.733-89.126 221.867-21.22 8.533-42.441 12.8-67.906 12.8h-55.173c-21.22 0-38.197 12.8-42.441 34.133-29.709 123.733-131.567 213.333-258.89 226.133-21.22 4.267-42.441 21.333-38.197 46.933zM1011.268 8.533c16.976-17.067 16.976-42.667 0-59.733-8.488-8.533-16.976-12.8-29.709-12.8s-21.22 4.267-29.709 12.8l-123.079 123.733c-21.22-4.267-38.197-8.533-59.417-8.533h-381.969c0 0-4.244 0-4.244 0-140.055 0-267.378 76.8-335.284 196.267-50.929 89.6-59.417 192-33.953 290.133 25.465 85.333 72.15 153.6 135.811 204.8l-131.567 132.267c-16.976 17.067-16.976 42.667 0 59.733s42.441 17.067 59.417 0l933.701-938.667zM752.378 149.333l-539 541.867c-55.173-38.4-97.614-93.867-114.591-162.133-21.22-76.8-12.732-157.867 25.465-226.133 50.929-98.133 152.787-157.867 263.134-153.6h364.992z" />
<glyph unicode="&#xe93d;" glyph-name="cloud-rain" d="M724.856 405.331v-341.333c0-25.6-17.045-42.667-42.612-42.667s-42.612 17.067-42.612 42.667v341.333c0 25.6 17.045 42.667 42.612 42.667s42.612-17.067 42.612-42.667zM341.345 447.997c-25.567 0-42.612-17.067-42.612-42.667v-341.333c0-25.6 17.045-42.667 42.612-42.667s42.612 17.067 42.612 42.667v341.333c0 25.6-17.045 42.667-42.612 42.667zM511.794 362.664c-25.567 0-42.612-17.067-42.612-42.667v-341.333c0-25.6 17.045-42.667 42.612-42.667s42.612 17.067 42.612 42.667v341.333c0 25.6-17.045 42.667-42.612 42.667zM1001.836 550.397c-42.612 93.867-132.098 153.6-234.368 153.6h-21.306c-63.918 187.733-264.196 294.4-455.952 243.2-208.8-51.2-332.376-260.267-276.98-469.333 21.306-81.067 68.18-153.6 132.098-204.8 17.045-12.8 46.874-12.8 59.657 8.533 12.784 17.067 12.784 46.933-8.522 59.733-51.135 38.4-85.225 98.133-102.27 157.867-42.612 157.867 55.396 324.267 213.062 362.667 157.666 42.667 323.853-55.467 362.205-213.333 4.261-17.067 21.306-34.133 42.612-34.133h55.396c68.18 0 127.837-38.4 157.666-102.4 17.045-42.667 21.306-89.6 4.261-132.267s-46.874-76.8-89.486-93.867c-21.306-8.533-29.829-34.133-21.306-55.467 8.522-17.067 21.306-25.6 38.351-25.6 4.261 0 12.784 0 17.045 4.267 63.918 25.6 110.792 76.8 136.359 140.8 21.306 68.267 17.045 136.533-8.522 200.533z" />
<glyph unicode="&#xe93e;" glyph-name="cloud-snow" d="M1006.811 311.572c-25.585-64.020-72.491-115.236-136.454-140.844-4.264-4.268-12.793-4.268-17.057-4.268-17.057 0-34.113 8.536-38.378 25.608-8.528 21.34 0 46.948 21.321 55.484 42.642 17.072 72.491 51.216 89.548 93.896s17.057 89.628-4.264 132.308c-25.585 64.020-85.284 102.432-153.51 102.432h-55.434c-21.321 0-38.378 12.804-42.642 34.144-42.642 157.916-204.68 256.081-362.455 213.401s-255.851-204.865-213.209-362.781c17.057-64.020 51.17-119.504 102.34-157.916 17.057-12.804 21.321-42.68 8.528-59.752s-42.642-21.34-59.698-8.536c-63.963 51.216-110.869 123.772-132.189 204.865-55.434 204.865 68.227 413.997 272.907 465.213 196.152 51.216 392.304-59.752 456.267-243.277h25.585c102.34 0 191.888-59.752 234.53-153.648 25.585-64.020 29.849-132.308 4.264-196.329zM371.448 307.304c-17.057 17.072-42.642 17.072-59.698 0-4.264-4.268-8.528-8.536-8.528-12.804-4.264-4.268-4.264-12.804-4.264-17.072s0-12.804 4.264-17.072c4.264-4.268 4.264-8.536 8.528-12.804 8.528-8.536 17.057-12.804 29.849-12.804s21.321 4.268 29.849 12.804c4.264 4.268 8.528 8.536 8.528 12.804 4.264 4.268 4.264 12.804 4.264 17.072s0 12.804-4.264 17.072c0 4.268-4.264 8.536-8.528 12.804zM324.542 145.119c-4.264 0-8.528-4.268-12.793-8.536-8.528-8.536-12.793-17.072-12.793-29.876s4.264-21.34 12.793-29.876c8.528-8.536 17.057-12.804 29.849-12.804s21.321 4.268 29.849 12.804c8.528 8.536 12.793 17.072 12.793 29.876s-4.264 21.34-12.793 29.876c-12.793 12.804-29.849 17.072-46.906 8.536zM482.317 221.943c-4.264-4.268-8.528-8.536-8.528-12.804s-4.264-8.536-4.264-17.072c0-12.804 4.264-21.34 12.793-29.876 4.264-4.268 8.528-8.536 12.793-8.536s8.528-4.268 17.057-4.268c12.793 0 21.321 4.268 29.849 12.804s12.793 17.072 12.793 29.876c0 12.804-4.264 21.34-12.793 29.876-17.057 17.072-42.642 17.072-59.698 0zM542.015 51.223c-17.057 17.072-46.906 17.072-59.698 0-4.264-4.268-8.528-8.536-8.528-12.804-4.264-4.268-4.264-12.804-4.264-17.072 0-12.804 4.264-21.34 12.793-29.876s17.057-12.804 29.849-12.804c4.264 0 12.793 0 17.057 4.268s8.528 4.268 12.793 8.536c8.528 8.536 12.793 17.072 12.793 29.876 0 4.268 0 12.804-4.264 17.072 0 4.268-4.264 8.536-8.528 12.804zM712.582 307.304c-17.057 17.072-42.642 17.072-59.698 0-4.264-4.268-8.528-8.536-8.528-12.804s-4.264-12.804-4.264-17.072c0-4.268 0-12.804 4.264-17.072s4.264-8.536 8.528-12.804c8.528-8.536 17.057-12.804 29.849-12.804s21.321 4.268 29.849 12.804c8.528 8.536 12.793 17.072 12.793 29.876 0 4.268 0 12.804-4.264 17.072 0 4.268-4.264 8.536-8.528 12.804zM708.318 140.851c-4.264 0-4.264 4.268-8.528 4.268s-4.264 0-8.528 4.268c-12.793 4.268-29.849 0-38.378-12.804-8.528-8.536-12.793-17.072-12.793-29.876s4.264-21.34 12.793-29.876c8.528-8.536 17.057-12.804 29.849-12.804s21.321 4.268 29.849 12.804c8.528 8.536 12.793 17.072 12.793 29.876s-4.264 21.34-12.793 29.876c0 4.268-4.264 4.268-4.264 4.268z" />
<glyph unicode="&#xe93f;" glyph-name="cloud" d="M768 576h-21.333c-29.867 85.333-89.6 157.867-166.4 204.8-89.6 51.2-192 68.267-290.133 42.667-102.4-29.867-183.467-93.867-238.933-179.2-51.2-89.6-68.267-192-42.667-290.133 42.667-170.667 196.267-290.133 371.2-290.133 0 0 0 0 0 0h384c140.8 0 256 115.2 256 256s-110.933 256-251.733 256zM768 149.333h-384c0 0 0 0 0 0-136.533 0-256 93.867-290.133 221.867-21.333 81.067-8.533 157.867 34.133 230.4s106.667 119.467 183.467 136.533c21.333 4.267 46.933 8.533 72.533 8.533 132.267 0 256-89.6 290.133-226.133 4.267-17.067 21.333-34.133 42.667-34.133h51.2c93.867 0 170.667-76.8 170.667-170.667s-76.8-166.4-170.667-166.4z" />
<glyph unicode="&#xe940;" glyph-name="code" d="M968.533 418.133l-256-256c-8.533-8.533-17.067-12.8-29.867-12.8s-21.333 4.267-29.867 12.8c-17.067 17.067-17.067 42.667 0 59.733l226.133 226.133-226.133 226.133c-17.067 17.067-17.067 42.667 0 59.733s42.667 17.067 59.733 0l256-256c17.067-17.067 17.067-42.667 0-59.733zM371.2 733.867c-17.067 17.067-42.667 17.067-59.733 0l-256-256c-17.067-17.067-17.067-42.667 0-59.733l256-256c8.533-8.533 17.067-12.8 29.867-12.8s21.333 4.267 29.867 12.8c17.067 17.067 17.067 42.667 0 59.733l-226.133 226.133 226.133 226.133c17.067 17.067 17.067 42.667 0 59.733z" />
<glyph unicode="&#xe941;" glyph-name="codepen" d="M981.333 290.133c0 4.267 0 4.267 0 8.533v298.667c0 4.267 0 4.267 0 8.533 0 0 0 0 0 4.267s-4.267 8.533-4.267 12.8c0 0 0 0 0 0s0 0 0 0c-4.267 4.267-4.267 8.533-8.533 8.533 0 0 0 0 0 0l-426.667 277.333c0 0-4.267 0-4.267 0s-4.267 0-4.267 0c-8.533 4.267-21.333 4.267-29.867 0 0 0-4.267 0-4.267 0s-4.267 0-4.267 0l-426.667-277.333c0 0 0 0 0 0-8.533 0-12.8-4.267-17.067-8.533 0 0 0 0 0 0s0 0 0 0c-4.267-8.533-4.267-12.8-8.533-17.067 0 0 0 0 0-4.267s0-4.267 0-8.533v-298.667c0-4.267 0-4.267 0-8.533 0 0 0 0 0-4.267s4.267-8.533 4.267-12.8c0 0 0 0 0 0s0 0 0 0c4.267-4.267 4.267-8.533 8.533-8.533l426.667-277.333c0 0 4.267 0 4.267 0s4.267 0 4.267 0 8.533-4.267 12.8-4.267c4.267 0 8.533 0 12.8 4.267 0 0 4.267 0 4.267 0s4.267 0 4.267 0l426.667 277.333c4.267 4.267 8.533 8.533 12.8 8.533 0 0 0 0 0 0s0 0 0 0c12.8 12.8 12.8 17.067 17.067 21.333 0 0 0 0 0 0zM128 516.267l98.133-68.267-98.133-68.267v136.533zM512 349.867l-140.8 98.133 140.8 98.133 140.8-98.133-140.8-98.133zM554.667 618.667v179.2l307.2-200.533-136.533-98.133-170.667 119.467zM469.333 618.667l-170.667-119.467-136.533 98.133 307.2 200.533v-179.2zM298.667 396.8l170.667-119.467v-174.933l-307.2 200.533 136.533 93.867zM554.667 277.333l170.667 119.467 136.533-93.867-307.2-204.8v179.2zM797.867 448l98.133 68.267v-136.533l-98.133 68.267z" />
<glyph unicode="&#xe942;" glyph-name="command" d="M768 362.667h-85.333v170.667h85.333c93.867 0 170.667 76.8 170.667 170.667s-76.8 170.667-170.667 170.667c-93.867 0-170.667-76.8-170.667-170.667v-85.333h-170.667v85.333c0 93.867-76.8 170.667-170.667 170.667s-170.667-76.8-170.667-170.667c0-93.867 76.8-170.667 170.667-170.667h85.333v-170.667h-85.333c-93.867 0-170.667-76.8-170.667-170.667s76.8-170.667 170.667-170.667c93.867 0 170.667 76.8 170.667 170.667v85.333h170.667v-85.333c0-93.867 76.8-170.667 170.667-170.667s170.667 76.8 170.667 170.667c0 93.867-76.8 170.667-170.667 170.667zM682.667 704c0 46.933 38.4 85.333 85.333 85.333s85.333-38.4 85.333-85.333c0-46.933-38.4-85.333-85.333-85.333h-85.333v85.333zM341.333 192c0-46.933-38.4-85.333-85.333-85.333s-85.333 38.4-85.333 85.333c0 46.933 38.4 85.333 85.333 85.333h85.333v-85.333zM341.333 618.667h-85.333c-46.933 0-85.333 38.4-85.333 85.333s38.4 85.333 85.333 85.333c46.933 0 85.333-38.4 85.333-85.333v-85.333zM597.333 362.667h-170.667v170.667h170.667v-170.667zM768 106.667c-46.933 0-85.333 38.4-85.333 85.333v85.333h85.333c46.933 0 85.333-38.4 85.333-85.333s-38.4-85.333-85.333-85.333z" />
<glyph unicode="&#xe943;" glyph-name="compass" d="M512 917.333c-260.267 0-469.333-209.067-469.333-469.333s209.067-469.333 469.333-469.333c260.267 0 469.333 209.067 469.333 469.333s-209.067 469.333-469.333 469.333zM512 64c-213.333 0-384 170.667-384 384s170.667 384 384 384c213.333 0 384-170.667 384-384s-170.667-384-384-384zM678.4 669.867l-268.8-89.6c-12.8-4.267-25.6-17.067-29.867-29.867l-89.6-273.067c-4.267-17.067 0-34.133 8.533-42.667s17.067-12.8 29.867-12.8c4.267 0 8.533 0 12.8 4.267l273.067 89.6c12.8 4.267 21.333 12.8 25.6 25.6l89.6 273.067c4.267 17.067 0 34.133-8.533 42.667-8.533 12.8-25.6 17.067-42.667 12.8zM567.467 392.533l-170.667-55.467 55.467 170.667 170.667 55.467-55.467-170.667z" />
<glyph unicode="&#xe944;" glyph-name="copy" d="M853.333 618.667h-384c-72.533 0-128-55.467-128-128v-384c0-72.533 55.467-128 128-128h384c72.533 0 128 55.467 128 128v384c0 72.533-55.467 128-128 128zM896 106.667c0-25.6-17.067-42.667-42.667-42.667h-384c-25.6 0-42.667 17.067-42.667 42.667v384c0 25.6 17.067 42.667 42.667 42.667h384c25.6 0 42.667-17.067 42.667-42.667v-384zM256 320c0-25.6-17.067-42.667-42.667-42.667h-42.667c-72.533 0-128 55.467-128 128v384c0 72.533 55.467 128 128 128h384c72.533 0 128-55.467 128-128v-42.667c0-25.6-17.067-42.667-42.667-42.667s-42.667 17.067-42.667 42.667v42.667c0 25.6-17.067 42.667-42.667 42.667h-384c-25.6 0-42.667-17.067-42.667-42.667v-384c0-25.6 17.067-42.667 42.667-42.667h42.667c25.6 0 42.667-17.067 42.667-42.667z" />
<glyph unicode="&#xe945;" glyph-name="corner-down-left" d="M896 789.333v-298.667c0-119.467-93.997-213.333-213.63-213.333h-410.17l140.996-140.8c17.090-17.067 17.090-42.667 0-59.733-8.545-8.533-17.090-12.8-29.908-12.8s-21.363 4.267-29.908 12.8l-213.63 213.333c-4.273 4.267-8.545 8.533-8.545 12.8-4.273 8.533-4.273 21.333 0 34.133 4.273 4.267 4.273 8.533 8.545 12.8l213.63 213.333c17.090 17.067 42.726 17.067 59.816 0s17.090-42.667 0-59.733l-140.996-140.8h410.17c72.634 0 128.178 55.467 128.178 128v298.667c0 25.6 17.090 42.667 42.726 42.667s42.726-17.067 42.726-42.667z" />
<glyph unicode="&#xe946;" glyph-name="corner-down-right" d="M883.2 290.133l-213.333-213.333c-8.533-8.533-17.067-12.8-29.867-12.8s-21.333 4.267-29.867 12.8c-17.067 17.067-17.067 42.667 0 59.733l140.8 140.8h-409.6c-119.467 0-213.333 93.867-213.333 213.333v298.667c0 25.6 17.067 42.667 42.667 42.667s42.667-17.067 42.667-42.667v-298.667c0-72.533 55.467-128 128-128h409.6l-140.8 140.8c-17.067 17.067-17.067 42.667 0 59.733s42.667 17.067 59.733 0l213.333-213.333c4.267-4.267 8.533-8.533 8.533-12.8 4.267-8.533 4.267-21.333 0-34.133 0-4.267-4.267-8.533-8.533-12.8z" />
<glyph unicode="&#xe947;" glyph-name="corner-left-up" d="M896 107.733c0-25.6-17.067-42.667-42.667-42.667h-298.667c-119.467 0-213.333 93.867-213.333 213.333v409.6l-140.8-140.8c-17.067-17.067-42.667-17.067-59.733 0s-17.067 42.667 0 59.733l213.333 213.333c4.267 4.267 8.533 8.533 12.8 8.533 12.8 4.267 21.333 4.267 34.133 0 4.267-4.267 8.533-4.267 12.8-8.533l213.333-213.333c17.067-17.067 17.067-42.667 0-59.733-8.533-8.533-17.067-12.8-29.867-12.8s-21.333 4.267-29.867 12.8l-140.8 140.8v-409.6c0-72.533 55.467-128 128-128h298.667c25.6 0 42.667-17.067 42.667-42.667z" />
<glyph unicode="&#xe948;" glyph-name="corner-right-down" d="M883.2 290.133l-213.333-213.333c-4.267-4.267-8.533-8.533-12.8-8.533-4.267-4.267-12.8-4.267-17.067-4.267s-12.8 0-17.067 4.267c-4.267 4.267-8.533 4.267-12.8 8.533l-213.333 213.333c-17.067 17.067-17.067 42.667 0 59.733s42.667 17.067 59.733 0l140.8-140.8v409.6c0 72.533-55.467 128-128 128h-298.667c-25.6 0-42.667 17.067-42.667 42.667s17.067 42.667 42.667 42.667h298.667c119.467 0 213.333-93.867 213.333-213.333v-409.6l140.8 140.8c17.067 17.067 42.667 17.067 59.733 0s17.067-42.667 0-59.733z" />
<glyph unicode="&#xe949;" glyph-name="corner-right-up" d="M883.2 547.2c-8.533-8.533-17.067-12.8-29.867-12.8s-21.333 4.267-29.867 12.8l-140.8 140.8v-409.6c0-119.467-93.867-213.333-213.333-213.333h-298.667c-25.6 0-42.667 17.067-42.667 42.667s17.067 42.667 42.667 42.667h298.667c72.533 0 128 55.467 128 128v409.6l-140.8-140.8c-17.067-17.067-42.667-17.067-59.733 0s-17.067 42.667 0 59.733l213.333 213.333c4.267 4.267 8.533 8.533 12.8 8.533 8.533 4.267 21.333 4.267 34.133 0 4.267-4.267 8.533-4.267 12.8-8.533l213.333-213.333c17.067-17.067 17.067-42.667 0-59.733z" />
<glyph unicode="&#xe94a;" glyph-name="corner-up-left" d="M894.933 405.333v-298.667c0-25.6-17.067-42.667-42.667-42.667s-42.667 17.067-42.667 42.667v298.667c0 72.533-55.467 128-128 128h-409.6l140.8-140.8c17.067-17.067 17.067-42.667 0-59.733-8.533-8.533-17.067-12.8-29.867-12.8s-21.333 4.267-29.867 12.8l-213.333 213.333c-4.267 4.267-8.533 8.533-8.533 12.8-4.267 12.8-4.267 21.333 0 34.133 4.267 4.267 4.267 8.533 8.533 12.8l213.333 213.333c17.067 17.067 42.667 17.067 59.733 0s17.067-42.667 0-59.733l-140.8-140.8h409.6c119.467 0 213.333-93.867 213.333-213.333z" />
<glyph unicode="&#xe94b;" glyph-name="corner-up-right" d="M883.2 546.133l-213.333-213.333c-8.533-8.533-17.067-12.8-29.867-12.8s-21.333 4.267-29.867 12.8c-17.067 17.067-17.067 42.667 0 59.733l140.8 140.8h-409.6c-72.533 0-128-55.467-128-128v-298.667c0-25.6-17.067-42.667-42.667-42.667s-42.667 17.067-42.667 42.667v298.667c0 119.467 93.867 213.333 213.333 213.333h409.6l-140.8 140.8c-17.067 17.067-17.067 42.667 0 59.733s42.667 17.067 59.733 0l213.333-213.333c4.267-4.267 8.533-8.533 8.533-12.8 4.267-8.533 4.267-21.333 0-34.133 0-4.267-4.267-8.533-8.533-12.8z" />
<glyph unicode="&#xe94c;" glyph-name="cpu" d="M640 618.667h-256c-25.6 0-42.667-17.067-42.667-42.667v-256c0-25.6 17.067-42.667 42.667-42.667h256c25.6 0 42.667 17.067 42.667 42.667v256c0 25.6-17.067 42.667-42.667 42.667zM597.333 362.667h-170.667v170.667h170.667v-170.667zM981.333 405.333h-85.333v128h85.333c25.6 0 42.667 17.067 42.667 42.667s-17.067 42.667-42.667 42.667h-85.333v85.333c0 72.533-55.467 128-128 128h-85.333v85.333c0 25.6-17.067 42.667-42.667 42.667s-42.667-17.067-42.667-42.667v-85.333h-170.667v85.333c0 25.6-17.067 42.667-42.667 42.667s-42.667-17.067-42.667-42.667v-85.333h-85.333c-72.533 0-128-55.467-128-128v-85.333h-85.333c-25.6 0-42.667-17.067-42.667-42.667s17.067-42.667 42.667-42.667h85.333v-128h-85.333c-25.6 0-42.667-17.067-42.667-42.667s17.067-42.667 42.667-42.667h85.333v-128c0-72.533 55.467-128 128-128h85.333v-85.333c0-25.6 17.067-42.667 42.667-42.667s42.667 17.067 42.667 42.667v85.333h170.667v-85.333c0-25.6 17.067-42.667 42.667-42.667s42.667 17.067 42.667 42.667v85.333h85.333c72.533 0 128 55.467 128 128v128h85.333c25.6 0 42.667 17.067 42.667 42.667s-17.067 42.667-42.667 42.667zM810.667 192c0-25.6-17.067-42.667-42.667-42.667h-512c-25.6 0-42.667 17.067-42.667 42.667v512c0 25.6 17.067 42.667 42.667 42.667h512c25.6 0 42.667-17.067 42.667-42.667v-512z" />
<glyph unicode="&#xe94d;" glyph-name="credit-card" d="M896 832h-768c-72.533 0-128-55.467-128-128v-512c0-72.533 55.467-128 128-128h768c72.533 0 128 55.467 128 128v512c0 72.533-55.467 128-128 128zM128 746.667h768c25.6 0 42.667-17.067 42.667-42.667v-128h-853.333v128c0 25.6 17.067 42.667 42.667 42.667zM896 149.333h-768c-25.6 0-42.667 17.067-42.667 42.667v298.667h853.333v-298.667c0-25.6-17.067-42.667-42.667-42.667z" />
<glyph unicode="&#xe94e;" glyph-name="crop" d="M981.333 234.667h-170.667v384c0 72.533-55.467 128-128 128l-379.733-4.267v174.933c0 25.6-17.067 42.667-42.667 42.667 0 0 0 0 0 0-21.333 0-42.667-17.067-42.667-42.667v-174.933h-174.933c-25.6 0-42.667-21.333-42.667-42.667s21.333-42.667 42.667-42.667c0 0 0 0 0 0h174.933l-4.267-379.733c0-72.533 55.467-128 128-128h384v-170.667c0-25.6 17.067-42.667 42.667-42.667s42.667 17.067 42.667 42.667v170.667h170.667c25.6 0 42.667 17.067 42.667 42.667s-17.067 42.667-42.667 42.667zM341.333 234.667c-25.6 0-42.667 17.067-42.667 42.667l4.267 379.733 379.733 4.267c25.6 0 42.667-17.067 42.667-42.667v-384h-384z" />
<glyph unicode="&#xe94f;" glyph-name="crosshair" d="M512 917.333c-260.267 0-469.333-209.067-469.333-469.333s209.067-469.333 469.333-469.333c260.267 0 469.333 209.067 469.333 469.333s-209.067 469.333-469.333 469.333zM554.667 68.267v123.733c0 25.6-17.067 42.667-42.667 42.667s-42.667-17.067-42.667-42.667v-123.733c-179.2 21.333-320 162.133-337.067 337.067h123.733c25.6 0 42.667 17.067 42.667 42.667s-17.067 42.667-42.667 42.667h-123.733c17.067 179.2 157.867 320 337.067 337.067v-123.733c0-25.6 17.067-42.667 42.667-42.667s42.667 17.067 42.667 42.667v123.733c179.2-21.333 320-162.133 337.067-337.067h-123.733c-25.6 0-42.667-17.067-42.667-42.667s17.067-42.667 42.667-42.667h123.733c-17.067-179.2-157.867-320-337.067-337.067z" />
<glyph unicode="&#xe950;" glyph-name="database" d="M512 917.333c-204.8 0-426.667-55.467-426.667-170.667v-597.333c0-115.2 221.867-170.667 426.667-170.667s426.667 55.467 426.667 170.667v597.333c0 115.2-221.867 170.667-426.667 170.667zM853.333 448c0-21.333-106.667-85.333-341.333-85.333s-341.333 64-341.333 85.333v192c81.067-42.667 213.333-64 341.333-64s260.267 21.333 341.333 64v-192zM512 832c221.867 0 341.333-64 341.333-85.333s-119.467-85.333-341.333-85.333c-221.867 0-341.333 64-341.333 85.333s119.467 85.333 341.333 85.333zM512 64c-234.667 0-341.333 64-341.333 85.333v192c81.067-42.667 213.333-64 341.333-64s260.267 21.333 341.333 64v-192c0-21.333-106.667-85.333-341.333-85.333z" />
<glyph unicode="&#xe951;" glyph-name="delete" d="M896.133 832h-554.089c-12.787 0-25.573-4.267-34.098-12.8l-298.356-341.333c-12.787-17.067-12.787-38.4 0-55.467l298.356-341.333c8.524-12.8 21.311-17.067 34.098-17.067h554.089c72.458 0 127.867 55.467 127.867 128v512c0 72.533-55.409 128-127.867 128zM938.755 192c0-25.6-17.049-42.667-42.622-42.667h-532.778l-259.996 298.667 259.996 298.667h532.778c25.573 0 42.622-17.067 42.622-42.667v-512zM798.102 546.133l-98.031-98.133 98.031-98.133c17.049-17.067 17.049-42.667 0-59.733-8.524-8.533-17.049-12.8-29.836-12.8s-21.311 4.267-29.836 12.8l-98.031 98.133-98.031-98.133c-8.524-8.533-17.049-12.8-29.836-12.8s-21.311 4.267-29.836 12.8c-17.049 17.067-17.049 42.667 0 59.733l98.031 98.133-98.031 98.133c-17.049 17.067-17.049 42.667 0 59.733s42.622 17.067 59.671 0l98.031-98.133 98.031 98.133c17.049 17.067 42.622 17.067 59.671 0s17.049-42.667 0-59.733z" />
<glyph unicode="&#xe952;" glyph-name="disc" d="M512 917.333c-260.267 0-469.333-209.067-469.333-469.333s209.067-469.333 469.333-469.333c260.267 0 469.333 209.067 469.333 469.333s-209.067 469.333-469.333 469.333zM512 64c-213.333 0-384 170.667-384 384s170.667 384 384 384c213.333 0 384-170.667 384-384s-170.667-384-384-384zM512 618.667c-93.867 0-170.667-76.8-170.667-170.667s76.8-170.667 170.667-170.667c93.867 0 170.667 76.8 170.667 170.667s-76.8 170.667-170.667 170.667zM512 362.667c-46.933 0-85.333 38.4-85.333 85.333s38.4 85.333 85.333 85.333c46.933 0 85.333-38.4 85.333-85.333s-38.4-85.333-85.333-85.333z" />
<glyph unicode="&#xe953;" glyph-name="dollar-sign" d="M618.667 490.667h-64v213.333h170.667c25.6 0 42.667 17.067 42.667 42.667s-17.067 42.667-42.667 42.667h-170.667v128c0 25.6-17.067 42.667-42.667 42.667s-42.667-17.067-42.667-42.667v-128h-64c-106.667 0-192-85.333-192-192s85.333-192 192-192h64v-213.333h-213.333c-25.6 0-42.667-17.067-42.667-42.667s17.067-42.667 42.667-42.667h213.333v-128c0-25.6 17.067-42.667 42.667-42.667s42.667 17.067 42.667 42.667v128h64c106.667 0 192 85.333 192 192s-85.333 192-192 192zM405.333 490.667c-59.733 0-106.667 46.933-106.667 106.667s46.933 106.667 106.667 106.667h64v-213.333h-64zM618.667 192h-64v213.333h64c59.733 0 106.667-46.933 106.667-106.667s-46.933-106.667-106.667-106.667z" />
<glyph unicode="&#xe954;" glyph-name="download-cloud" d="M708.274 264.531c16.888-17.067 16.888-42.667 0-59.733l-168.881-170.667c-4.222-4.267-8.444-8.533-12.666-8.533-4.222-4.267-12.666-4.267-16.888-4.267s-12.666 0-16.888 4.267c-4.222 4.267-8.444 4.267-12.666 8.533l-168.881 170.667c-16.888 17.067-16.888 42.667 0 59.733s42.22 17.067 59.109 0l97.107-98.133v281.6c0 25.6 16.888 42.667 42.22 42.667s42.22-17.067 42.22-42.667v-281.6l97.107 98.133c16.888 17.067 42.22 17.067 59.109 0zM970.041 511.997c-46.442 64-122.439 106.667-206.88 106.667 0 0 0 0 0 0h-21.11c-63.331 187.733-261.766 294.4-451.758 243.2-101.329-25.6-181.548-85.333-236.434-174.933-50.664-89.6-67.553-192-42.22-290.133 16.888-59.733 42.22-115.2 84.441-157.867 16.888-17.067 42.22-21.333 59.109-4.267s21.11 42.667 4.222 59.733c-29.554 34.133-54.886 76.8-63.331 123.733-21.11 76.8-8.444 157.867 33.776 226.133s105.551 119.467 181.548 136.533c156.215 42.667 320.875-55.467 358.873-213.333 4.222-17.067 21.11-34.133 42.22-34.133h50.664c0 0 0 0 0 0 54.886 0 105.551-25.6 139.327-72.533 25.332-38.4 37.998-81.067 29.554-128s-33.776-85.333-67.553-110.933c-21.11-12.8-25.332-38.4-8.444-59.733 8.444-12.8 21.11-17.067 33.776-17.067 8.444 0 16.888 4.267 25.332 8.533 54.886 38.4 92.885 98.133 105.551 166.4s-12.666 132.267-50.664 192z" />
<glyph unicode="&#xe955;" glyph-name="download" d="M938.667 234.667v-128c0-72.533-55.467-128-128-128h-597.333c-72.533 0-128 55.467-128 128v128c0 25.6 17.067 42.667 42.667 42.667s42.667-17.067 42.667-42.667v-128c0-25.6 17.067-42.667 42.667-42.667h597.333c25.6 0 42.667 17.067 42.667 42.667v128c0 25.6 17.067 42.667 42.667 42.667s42.667-17.067 42.667-42.667zM482.133 247.467c4.267-4.267 8.533-8.533 12.8-8.533 4.267-4.267 12.8-4.267 17.067-4.267s12.8 0 17.067 4.267c4.267 4.267 8.533 4.267 12.8 8.533l170.667 170.667c17.067 17.067 17.067 42.667 0 59.733s-42.667 17.067-59.733 0l-98.133-98.133v494.933c0 25.6-17.067 42.667-42.667 42.667s-42.667-17.067-42.667-42.667v-494.933l-98.133 98.133c-17.067 17.067-42.667 17.067-59.733 0s-17.067-42.667 0-59.733l170.667-170.667z" />
<glyph unicode="&#xe956;" glyph-name="droplet" d="M785.067 665.6l-243.2 238.933c-8.533 8.533-17.067 12.8-29.867 12.8s-21.333-4.267-29.867-12.8l-238.933-238.933c0 0 0 0 0 0-76.8-72.533-115.2-170.667-115.2-273.067s38.4-200.533 110.933-273.067c72.533-72.533 170.667-110.933 273.067-110.933 0 0 0 0 0 0 102.4 0 200.533 38.4 273.067 110.933 149.333 149.333 149.333 392.533 0 546.133zM725.333 179.2c-59.733-55.467-132.267-85.333-213.333-85.333 0 0 0 0 0 0-81.067 0-153.6 29.867-209.067 85.333-59.733 59.733-89.6 132.267-89.6 213.333s29.867 153.6 85.333 209.067c0 0 0 0 0 0l209.067 213.333 213.333-213.333c119.467-115.2 119.467-302.933 4.267-422.4z" />
<glyph unicode="&#xe957;" glyph-name="edit-2" d="M925.867 648.533l-213.333 213.333c-17.067 17.067-42.667 17.067-59.733 0l-554.667-554.667c-8.533-8.533-12.8-17.067-12.8-29.867v-213.333c0-25.6 17.067-42.667 42.667-42.667h213.333c12.8 0 21.333 4.267 29.867 12.8l554.667 554.667c17.067 17.067 17.067 42.667 0 59.733zM324.267 106.667h-153.6v153.6l512 512 153.6-153.6-512-512z" />
<glyph unicode="&#xe958;" glyph-name="edit-3" d="M128 192h170.667c12.8 0 21.333 4.267 29.867 12.8l469.333 469.333c17.067 17.067 17.067 42.667 0 59.733l-170.667 170.667c-17.067 17.067-42.667 17.067-59.733 0l-469.333-469.333c-8.533-8.533-12.8-17.067-12.8-29.867v-170.667c0-25.6 17.067-42.667 42.667-42.667zM170.667 388.267l426.667 426.667 110.933-110.933-426.667-426.667h-110.933v110.933zM938.667 21.333c0-25.6-17.067-42.667-42.667-42.667h-768c-25.6 0-42.667 17.067-42.667 42.667s17.067 42.667 42.667 42.667h768c25.6 0 42.667-17.067 42.667-42.667z" />
<glyph unicode="&#xe959;" glyph-name="edit" d="M896 332.8v-226.133c0-72.533-55.467-128-128-128h-597.333c-72.533 0-128 55.467-128 128v597.333c0 72.533 55.467 128 128 128h226.133c25.6 0 42.667-17.067 42.667-42.667s-17.067-42.667-42.667-42.667h-226.133c-25.6 0-42.667-17.067-42.667-42.667v-597.333c0-25.6 17.067-42.667 42.667-42.667h597.333c25.6 0 42.667 17.067 42.667 42.667v226.133c0 25.6 17.067 42.667 42.667 42.667s42.667-17.067 42.667-42.667zM968.533 674.133l-426.667-426.667c-8.533-8.533-17.067-12.8-29.867-12.8h-170.667c-25.6 0-42.667 17.067-42.667 42.667v170.667c0 12.8 4.267 21.333 12.8 29.867l426.667 426.667c17.067 17.067 42.667 17.067 59.733 0l170.667-170.667c17.067-17.067 17.067-42.667 0-59.733zM878.933 704l-110.933 110.933-384-384v-110.933h110.933l384 384z" />
<glyph unicode="&#xe95a;" glyph-name="external-link" d="M810.667 405.333v-256c0-72.533-55.467-128-128-128h-469.333c-72.533 0-128 55.467-128 128v469.333c0 72.533 55.467 128 128 128h256c25.6 0 42.667-17.067 42.667-42.667s-17.067-42.667-42.667-42.667h-256c-25.6 0-42.667-17.067-42.667-42.667v-469.333c0-25.6 17.067-42.667 42.667-42.667h469.333c25.6 0 42.667 17.067 42.667 42.667v256c0 25.6 17.067 42.667 42.667 42.667s42.667-17.067 42.667-42.667zM934.4 849.067c-4.267 8.533-12.8 17.067-21.333 21.333-4.267 4.267-12.8 4.267-17.067 4.267h-256c-25.6 0-42.667-17.067-42.667-42.667s17.067-42.667 42.667-42.667h153.6l-396.8-396.8c-17.067-17.067-17.067-42.667 0-59.733 8.533-8.533 17.067-12.8 29.867-12.8s21.333 4.267 29.867 12.8l396.8 396.8v-153.6c0-25.6 17.067-42.667 42.667-42.667s42.667 17.067 42.667 42.667v256c0 4.267 0 12.8-4.267 17.067z" />
<glyph unicode="&#xe95b;" glyph-name="eye-off" d="M379.733 768c-4.267 25.6 8.533 46.933 34.133 51.2 29.867 8.533 64 12.8 98.133 12.8 320 0 499.2-349.867 507.733-366.933 4.267-12.8 4.267-25.6 0-38.4-25.6-51.2-59.733-98.133-98.133-145.067-8.533-8.533-21.333-17.067-34.133-17.067-8.533 0-21.333 4.267-25.6 8.533-17.067 17.067-21.333 42.667-4.267 59.733 29.867 34.133 55.467 68.267 76.8 106.667-38.4 68.267-192 298.667-422.4 298.667-25.6 0-55.467-4.267-81.067-8.533-21.333 4.267-42.667 17.067-51.2 38.4zM1011.2-51.2c-8.533-8.533-17.067-12.8-29.867-12.8s-21.333 4.267-29.867 12.8l-192 192c-72.533-51.2-157.867-76.8-247.467-76.8-320 0-499.2 349.867-507.733 366.933-4.267 12.8-4.267 25.6 0 38.4 46.933 89.6 115.2 170.667 192 234.667l-183.467 183.467c-17.067 17.067-17.067 42.667 0 59.733s42.667 17.067 59.733 0l938.667-938.667c17.067-17.067 17.067-42.667 0-59.733zM422.4 443.733c0-21.333 8.533-42.667 25.6-59.733 25.6-21.333 55.467-25.6 85.333-17.067l-106.667 106.667c0-12.8-4.267-21.333-4.267-29.867zM699.733 200.533l-102.4 98.133c-25.6-17.067-59.733-25.6-89.6-25.6-42.667 0-85.333 17.067-115.2 46.933-34.133 29.867-51.2 72.533-55.467 119.467 0 34.133 8.533 68.267 25.6 98.133l-106.667 106.667c-64-55.467-119.467-119.467-166.4-196.267 38.4-68.267 192-298.667 422.4-298.667 64 0 128 17.067 187.733 51.2z" />
<glyph unicode="&#xe95c;" glyph-name="eye" d="M1020.793 465.067c-8.551 17.067-188.125 366.933-508.793 366.933s-500.242-349.867-508.793-366.933c-4.276-12.8-4.276-25.6 0-38.4 8.551-12.8 188.125-362.667 508.793-362.667s500.242 349.867 508.793 366.933c4.276 8.533 4.276 25.6 0 34.133zM512 149.333c-230.881 0-380.526 230.4-423.282 298.667 38.48 68.267 192.401 298.667 423.282 298.667s380.526-230.4 423.282-298.667c-42.756-68.267-192.401-298.667-423.282-298.667zM512 618.667c-94.063 0-171.023-76.8-171.023-170.667s76.96-170.667 171.023-170.667c94.063 0 171.023 76.8 171.023 170.667s-76.96 170.667-171.023 170.667zM512 362.667c-47.031 0-85.511 38.4-85.511 85.333s38.48 85.333 85.511 85.333c47.031 0 85.511-38.4 85.511-85.333s-38.48-85.333-85.511-85.333z" />
<glyph unicode="&#xe95d;" glyph-name="facebook" d="M766.46 661.333c25.523 0 42.538 17.067 42.538 42.667v170.667c0 25.6-17.015 42.667-42.538 42.667h-127.615c-140.376 0-255.23-115.2-255.23-256v-85.333h-85.077c-25.523 0-42.538-17.067-42.538-42.667v-170.667c0-25.6 17.015-42.667 42.538-42.667h85.077v-298.667c0-25.6 17.015-42.667 42.538-42.667h170.153c25.523 0 42.538 17.067 42.538 42.667v298.667h85.077c21.269 0 38.284 12.8 42.538 34.133l42.538 170.667c4.254 12.8 0 25.6-8.508 38.4s-21.269 12.8-34.031 12.8h-127.615v85.333h127.615zM596.306 490.667h114.853l-21.269-85.333h-93.584c-25.523 0-42.538-17.067-42.538-42.667v-298.667h-85.077v298.667c0 25.6-17.015 42.667-42.538 42.667h-85.077v85.333h85.077c25.523 0 42.538 17.067 42.538 42.667v128c0 93.867 76.569 170.667 170.153 170.667h85.077v-85.333h-85.077c-46.792 0-85.077-38.4-85.077-85.333v-128c0-25.6 17.015-42.667 42.538-42.667z" />
<glyph unicode="&#xe95e;" glyph-name="fast-forward" d="M964.267 481.922l-384 298.498c-12.8 8.529-29.867 12.793-46.933 4.264-12.8-8.529-21.333-21.321-21.333-38.378v-596.997c0-17.057 8.533-29.85 25.6-38.378 4.267-4.264 12.8-4.264 17.067-4.264 8.533 0 17.067 4.264 25.6 8.529l384 298.498c8.533 8.529 17.067 21.321 17.067 34.114s-4.267 25.586-17.067 34.114zM597.333 234.595v426.426l273.067-213.213-273.067-213.213zM110.933 780.42c-12.8 8.529-29.867 12.793-42.667 4.264-17.067-8.529-25.6-21.321-25.6-38.378v-596.997c0-17.057 8.533-29.85 25.6-38.378 4.267-4.264 12.8-4.264 17.067-4.264 8.533 0 17.067 4.264 25.6 8.529l384 298.498c8.533 8.529 17.067 21.321 17.067 34.114s-4.267 25.586-17.067 34.114l-384 298.498zM128 234.595v426.426l273.067-213.213-273.067-213.213z" />
<glyph unicode="&#xe95f;" glyph-name="feather" d="M891.733 831.031c-115.2 115.069-307.2 115.069-422.4 0l-285.867-289.804c-8.533-8.524-12.8-17.047-12.8-29.833v-345.208l-115.2-115.069c-17.067-17.047-17.067-42.618 0-59.666 8.533-8.524 17.067-12.785 29.867-12.785s21.333 4.262 29.867 12.785l115.2 115.069h345.6c12.8 0 21.333 4.262 29.867 12.785l285.867 289.804c119.467 115.069 119.467 302.589 0 421.921zM558.933 191.758h-243.2l85.333 85.236h243.2l-85.333-85.236zM832 468.776c0 0 0 0 0 0l-102.4-106.546c0 0 0 0-4.267 0h-238.933l226.133 225.877c17.067 17.047 17.067 42.618 0 59.666s-42.667 17.047-59.733 0l-298.667-298.328c0 0 0 0 0 0l-98.133-98.022v242.924l277.333 277.019c85.333 85.236 217.6 85.236 302.933 0 81.067-85.236 81.067-221.615-4.267-302.589z" />
<glyph unicode="&#xe960;" glyph-name="file-minus" d="M891.733 635.733c-4.267 4.267-4.267 8.533-8.533 12.8l-256 256c-4.267 4.267-8.533 8.533-12.8 8.533-4.267 4.267-12.8 4.267-17.067 4.267h-341.333c-72.533 0-128-55.467-128-128v-682.667c0-72.533 55.467-128 128-128h512c72.533 0 128 55.467 128 128v512c0 4.267 0 12.8-4.267 17.067zM640 772.267l110.933-110.933h-110.933v110.933zM768 64h-512c-25.6 0-42.667 17.067-42.667 42.667v682.667c0 25.6 17.067 42.667 42.667 42.667h298.667v-213.333c0-25.6 17.067-42.667 42.667-42.667h213.333v-469.333c0-25.6-17.067-42.667-42.667-42.667zM682.667 320c0-25.6-17.067-42.667-42.667-42.667h-256c-25.6 0-42.667 17.067-42.667 42.667s17.067 42.667 42.667 42.667h256c25.6 0 42.667-17.067 42.667-42.667z" />
<glyph unicode="&#xe961;" glyph-name="file-plus" d="M891.733 635.733c-4.267 4.267-4.267 8.533-8.533 12.8l-256 256c-4.267 4.267-8.533 8.533-12.8 8.533-4.267 4.267-12.8 4.267-17.067 4.267h-341.333c-72.533 0-128-55.467-128-128v-682.667c0-72.533 55.467-128 128-128h512c72.533 0 128 55.467 128 128v512c0 4.267 0 12.8-4.267 17.067zM640 772.267l110.933-110.933h-110.933v110.933zM768 64h-512c-25.6 0-42.667 17.067-42.667 42.667v682.667c0 25.6 17.067 42.667 42.667 42.667h298.667v-213.333c0-25.6 17.067-42.667 42.667-42.667h213.333v-469.333c0-25.6-17.067-42.667-42.667-42.667zM682.667 320c0-25.6-17.067-42.667-42.667-42.667h-85.333v-85.333c0-25.6-17.067-42.667-42.667-42.667s-42.667 17.067-42.667 42.667v85.333h-85.333c-25.6 0-42.667 17.067-42.667 42.667s17.067 42.667 42.667 42.667h85.333v85.333c0 25.6 17.067 42.667 42.667 42.667s42.667-17.067 42.667-42.667v-85.333h85.333c25.6 0 42.667-17.067 42.667-42.667z" />
<glyph unicode="&#xe962;" glyph-name="file-text" d="M891.733 635.733c-4.267 4.267-4.267 8.533-8.533 12.8l-256 256c-4.267 4.267-8.533 8.533-12.8 8.533-4.267 4.267-12.8 4.267-17.067 4.267h-341.333c-72.533 0-128-55.467-128-128v-682.667c0-72.533 55.467-128 128-128h512c72.533 0 128 55.467 128 128v512c0 4.267 0 12.8-4.267 17.067zM640 772.267l110.933-110.933h-110.933v110.933zM768 64h-512c-25.6 0-42.667 17.067-42.667 42.667v682.667c0 25.6 17.067 42.667 42.667 42.667h298.667v-213.333c0-25.6 17.067-42.667 42.667-42.667h213.333v-469.333c0-25.6-17.067-42.667-42.667-42.667zM725.333 405.333c0-25.6-17.067-42.667-42.667-42.667h-341.333c-25.6 0-42.667 17.067-42.667 42.667s17.067 42.667 42.667 42.667h341.333c25.6 0 42.667-17.067 42.667-42.667zM725.333 234.667c0-25.6-17.067-42.667-42.667-42.667h-341.333c-25.6 0-42.667 17.067-42.667 42.667s17.067 42.667 42.667 42.667h341.333c25.6 0 42.667-17.067 42.667-42.667zM298.667 576c0 25.6 17.067 42.667 42.667 42.667h85.333c25.6 0 42.667-17.067 42.667-42.667s-17.067-42.667-42.667-42.667h-85.333c-25.6 0-42.667 17.067-42.667 42.667z" />
<glyph unicode="&#xe963;" glyph-name="file" d="M891.733 593.067c-4.267 4.267-4.267 8.533-8.533 12.8l-298.667 298.667c-4.267 4.267-8.533 8.533-12.8 8.533-4.267 4.267-12.8 4.267-17.067 4.267h-298.667c-72.533 0-128-55.467-128-128v-682.667c0-72.533 55.467-128 128-128h512c72.533 0 128 55.467 128 128v469.333c0 4.267 0 12.8-4.267 17.067zM597.333 772.267l153.6-153.6h-153.6v153.6zM768 64h-512c-25.6 0-42.667 17.067-42.667 42.667v682.667c0 25.6 17.067 42.667 42.667 42.667h256v-256c0-25.6 17.067-42.667 42.667-42.667h256v-426.667c0-25.6-17.067-42.667-42.667-42.667z" />
<glyph unicode="&#xe964;" glyph-name="film" d="M844.8 917.333h-665.6c-76.8 0-136.533-59.733-136.533-136.533v-665.6c0-76.8 59.733-136.533 136.533-136.533h665.6c76.8 0 136.533 59.733 136.533 136.533v665.6c0 76.8-59.733 136.533-136.533 136.533zM768 618.667h128v-128h-128v128zM682.667 490.667h-341.333v341.333h341.333v-341.333zM256 490.667h-128v128h128v-128zM128 405.333h128v-128h-128v128zM341.333 405.333h341.333v-341.333h-341.333v341.333zM768 405.333h128v-128h-128v128zM896 780.8v-76.8h-128v128h76.8c29.867 0 51.2-21.333 51.2-51.2zM179.2 832h76.8v-128h-128v76.8c0 29.867 21.333 51.2 51.2 51.2zM128 115.2v76.8h128v-128h-76.8c-29.867 0-51.2 21.333-51.2 51.2zM844.8 64h-76.8v128h128v-76.8c0-29.867-21.333-51.2-51.2-51.2z" />
<glyph unicode="&#xe965;" glyph-name="filter" d="M977.451 849.067c-8.533 17.067-21.333 25.6-38.4 25.6h-853.333c-17.067 0-29.867-8.533-38.4-25.6-8.533-12.8-4.267-29.867 4.267-42.667l332.8-392.533v-264.533c0-17.067 8.533-29.867 25.6-38.4l170.667-85.333c4.267-4.267 8.533-4.267 17.067-4.267s17.067 0 21.333 4.267c12.8 8.533 21.333 21.333 21.333 38.4v349.867l332.8 392.533c8.533 12.8 12.8 29.867 4.267 42.667zM563.585 456.533c-4.267-8.533-8.533-17.067-8.533-29.867v-294.4l-85.333 42.667v251.733c0 8.533-4.267 21.333-8.533 25.6l-281.6 337.067h669.867l-285.867-332.8z" />
<glyph unicode="&#xe966;" glyph-name="flag" d="M870.4 870.4c-17.067 8.533-34.133 4.267-46.933-8.533 0 0-38.4-29.867-140.8-29.867-55.467 0-102.4 21.333-153.6 38.4-55.467 25.6-115.2 46.933-187.733 46.933-136.533 0-192-46.933-200.533-55.467s-12.8-17.067-12.8-29.867v-810.667c0-25.6 17.067-42.667 42.667-42.667s42.667 17.067 42.667 42.667v277.333c17.067 8.533 59.733 21.333 128 21.333 55.467 0 102.4-21.333 153.6-38.4 55.467-21.333 115.2-46.933 187.733-46.933 136.533 0 192 46.933 200.533 55.467s12.8 17.067 12.8 29.867v512c0 17.067-8.533 29.867-25.6 38.4zM810.667 341.333c-17.067-8.533-59.733-21.333-128-21.333-55.467 0-102.4 21.333-153.6 38.4-55.467 25.6-115.2 46.933-187.733 46.933-55.467 0-98.133-8.533-128-17.067v422.4c17.067 8.533 59.733 21.333 128 21.333 55.467 0 102.4-21.333 153.6-38.4 55.467-25.6 115.2-46.933 187.733-46.933 55.467 0 98.133 8.533 128 17.067v-422.4z" />
<glyph unicode="&#xe967;" glyph-name="folder-minus" d="M853.333 746.667h-362.667l-72.533 110.933c-8.533 8.533-21.333 17.067-34.133 17.067h-213.333c-72.533 0-128-55.467-128-128v-597.333c0-72.533 55.467-128 128-128h682.667c72.533 0 128 55.467 128 128v469.333c0 72.533-55.467 128-128 128zM896 149.333c0-25.6-17.067-42.667-42.667-42.667h-682.667c-25.6 0-42.667 17.067-42.667 42.667v597.333c0 25.6 17.067 42.667 42.667 42.667h192l72.533-110.933c8.533-8.533 21.333-17.067 34.133-17.067h384c25.6 0 42.667-17.067 42.667-42.667v-469.333zM682.667 362.667c0-25.6-17.067-42.667-42.667-42.667h-256c-25.6 0-42.667 17.067-42.667 42.667s17.067 42.667 42.667 42.667h256c25.6 0 42.667-17.067 42.667-42.667z" />
<glyph unicode="&#xe968;" glyph-name="folder-plus" d="M853.333 746.667h-362.667l-72.533 110.933c-8.533 8.533-21.333 17.067-34.133 17.067h-213.333c-72.533 0-128-55.467-128-128v-597.333c0-72.533 55.467-128 128-128h682.667c72.533 0 128 55.467 128 128v469.333c0 72.533-55.467 128-128 128zM896 149.333c0-25.6-17.067-42.667-42.667-42.667h-682.667c-25.6 0-42.667 17.067-42.667 42.667v597.333c0 25.6 17.067 42.667 42.667 42.667h192l72.533-110.933c8.533-8.533 21.333-17.067 34.133-17.067h384c25.6 0 42.667-17.067 42.667-42.667v-469.333zM682.667 362.667c0-25.6-17.067-42.667-42.667-42.667h-85.333v-85.333c0-25.6-17.067-42.667-42.667-42.667s-42.667 17.067-42.667 42.667v85.333h-85.333c-25.6 0-42.667 17.067-42.667 42.667s17.067 42.667 42.667 42.667h85.333v85.333c0 25.6 17.067 42.667 42.667 42.667s42.667-17.067 42.667-42.667v-85.333h85.333c25.6 0 42.667-17.067 42.667-42.667z" />
<glyph unicode="&#xe969;" glyph-name="folder" d="M853.333 746.667h-362.667l-72.533 110.933c-8.533 8.533-21.333 17.067-34.133 17.067h-213.333c-72.533 0-128-55.467-128-128v-597.333c0-72.533 55.467-128 128-128h682.667c72.533 0 128 55.467 128 128v469.333c0 72.533-55.467 128-128 128zM896 149.333c0-25.6-17.067-42.667-42.667-42.667h-682.667c-25.6 0-42.667 17.067-42.667 42.667v597.333c0 25.6 17.067 42.667 42.667 42.667h192l72.533-110.933c8.533-8.533 21.333-17.067 34.133-17.067h384c25.6 0 42.667-17.067 42.667-42.667v-469.333z" />
<glyph unicode="&#xe96a;" glyph-name="git-branch" d="M938.667 704c0 93.867-76.8 170.667-170.667 170.667s-170.667-76.8-170.667-170.667c0-76.8 55.467-145.067 128-162.133-17.067-157.867-145.067-285.867-302.933-302.933-17.067 59.733-64 106.667-119.467 119.467v473.6c0 25.6-17.067 42.667-42.667 42.667s-46.933-17.067-46.933-42.667v-473.6c-72.533-17.067-128-85.333-128-166.4 0-93.867 76.8-170.667 170.667-170.667 81.067 0 145.067 55.467 166.4 128 204.8 17.067 371.2 183.467 388.267 388.267 72.533 21.333 128 85.333 128 166.4zM256 106.667c-46.933 0-85.333 38.4-85.333 85.333s38.4 85.333 85.333 85.333c46.933 0 85.333-38.4 85.333-85.333s-38.4-85.333-85.333-85.333zM768 618.667c-46.933 0-85.333 38.4-85.333 85.333s38.4 85.333 85.333 85.333c46.933 0 85.333-38.4 85.333-85.333s-38.4-85.333-85.333-85.333z" />
<glyph unicode="&#xe96b;" glyph-name="git-commit" d="M512 234.667c-119.467 0-213.333 93.867-213.333 213.333s93.867 213.333 213.333 213.333c119.467 0 213.333-93.867 213.333-213.333s-93.867-213.333-213.333-213.333zM512 576c-72.533 0-128-55.467-128-128s55.467-128 128-128c72.533 0 128 55.467 128 128s-55.467 128-128 128zM341.333 448c0 25.6-17.067 42.667-42.667 42.667h-256c-25.6 0-42.667-17.067-42.667-42.667s17.067-42.667 42.667-42.667h256c25.6 0 42.667 17.067 42.667 42.667zM1024 448c0 25.6-17.067 42.667-42.667 42.667h-256c-25.6 0-42.667-17.067-42.667-42.667s17.067-42.667 42.667-42.667h256c21.333 0 42.667 17.067 42.667 42.667z" />
<glyph unicode="&#xe96c;" glyph-name="git-merge" d="M768 362.667c-76.8 0-145.067-55.467-162.133-128-157.867 17.067-285.867 145.067-302.933 302.933 72.533 21.333 128 85.333 128 162.133 0 93.867-76.8 170.667-170.667 170.667s-174.933-72.533-174.933-166.4c0-81.067 55.467-145.067 128-166.4v-473.6c0-25.6 17.067-42.667 42.667-42.667s42.667 17.067 42.667 42.667v256c72.533-93.867 179.2-157.867 302.933-170.667 17.067-72.533 85.333-132.267 166.4-132.267 93.867 0 170.667 76.8 170.667 170.667s-76.8 174.933-170.667 174.933zM170.667 704c0 46.933 38.4 85.333 85.333 85.333s85.333-38.4 85.333-85.333c0-46.933-38.4-85.333-85.333-85.333s-85.333 38.4-85.333 85.333zM768 106.667c-46.933 0-85.333 38.4-85.333 85.333s38.4 85.333 85.333 85.333c46.933 0 85.333-38.4 85.333-85.333s-38.4-85.333-85.333-85.333z" />
<glyph unicode="&#xe96d;" glyph-name="git-pull-request" d="M810.667 358.4v260.267c0 72.533-55.467 128-128 128h-128c-25.6 0-42.667-17.067-42.667-42.667s17.067-42.667 42.667-42.667h128c25.6 0 42.667-17.067 42.667-42.667v-260.267c-72.533-17.067-128-85.333-128-166.4 0-93.867 76.8-170.667 170.667-170.667s170.667 76.8 170.667 170.667c0 81.067-55.467 145.067-128 166.4zM768 106.667c-46.933 0-85.333 38.4-85.333 85.333s38.4 85.333 85.333 85.333c46.933 0 85.333-38.4 85.333-85.333s-38.4-85.333-85.333-85.333zM256 874.667c-93.867 0-170.667-76.8-170.667-170.667 0-81.067 55.467-145.067 128-166.4v-473.6c0-25.6 17.067-42.667 42.667-42.667s42.667 17.067 42.667 42.667v473.6c72.533 17.067 128 85.333 128 166.4 0 93.867-76.8 170.667-170.667 170.667zM256 618.667c-46.933 0-85.333 38.4-85.333 85.333s38.4 85.333 85.333 85.333c46.933 0 85.333-38.4 85.333-85.333s-38.4-85.333-85.333-85.333z" />
<glyph unicode="&#xe96e;" glyph-name="github" d="M728.73 221.078c8.71-25.529 13.066-55.314 13.066-80.843v-161.686c0-25.529-17.421-42.549-43.552-42.549s-43.552 17.020-43.552 42.549v165.941c4.355 34.039-8.71 59.569-30.487 80.843-13.066 12.765-17.421 29.784-8.71 42.549 4.355 17.020 21.776 25.529 34.842 29.784 126.302 12.765 243.893 55.314 243.893 255.294 0 46.804-17.421 93.608-52.263 131.902-13.066 12.765-13.066 29.784-8.71 42.549 13.066 34.039 13.066 68.078 4.355 102.118-21.776-4.255-56.618-17.020-113.236-55.314-8.71-8.51-21.776-8.51-34.842-4.255-91.46 25.529-191.63 25.529-283.090 0-13.066-4.255-26.131-4.255-39.197 4.255-52.263 38.294-91.46 51.059-113.236 55.314-8.71-34.039-8.71-68.078 4.355-102.118 4.355-17.020 4.355-34.039-8.71-42.549-34.842-38.294-52.263-85.098-52.263-131.902 0-199.98 117.591-242.529 243.893-255.294 17.421 0 30.487-12.765 34.842-29.784s0-34.039-8.71-42.549c-21.776-21.274-30.487-46.804-30.487-76.588v-38.294c0 0 0-4.255 0-4.255v-123.392c0-25.529-17.421-42.549-43.552-42.549s-43.552 17.020-43.552 42.549v72.333c-130.657-21.274-187.275 51.059-226.472 97.863-17.421 21.274-30.487 38.294-47.908 42.549-21.776 4.255-39.197 29.784-30.487 51.059 4.355 21.274 30.487 38.294 52.263 29.784 43.552-12.765 69.684-42.549 95.815-72.333 34.842-46.804 65.329-80.843 156.789-63.823v4.255c0 25.529 4.355 55.314 13.066 76.588-121.947 25.529-252.604 102.118-252.604 327.627 0 63.823 21.776 123.392 60.973 170.196-17.421 59.569-13.066 114.882 13.066 170.196 4.355 12.765 13.066 21.274 26.131 25.529 17.421 4.255 74.039 12.765 191.63-59.569 95.815 21.274 195.986 21.274 287.446 0 113.236 72.333 174.209 63.823 191.63 59.569 13.066-4.255 21.776-12.765 26.131-25.529 21.776-55.314 26.131-110.627 13.066-165.941 39.197-46.804 60.973-106.372 60.973-170.196 0-242.529-148.078-310.608-252.604-331.882z" />
<glyph unicode="&#xe96f;" glyph-name="gitlab" d="M1020.409 397.867l-157.867 477.867c-4.267 8.533-8.533 17.067-17.067 25.6-21.333 21.333-59.733 21.333-81.067 0-8.533-4.267-12.8-12.8-17.067-25.6l-93.867-290.133h-281.6l-93.867 290.133c-4.267 8.533-8.533 17.067-17.067 25.6-21.333 21.333-59.733 21.333-81.067 0-8.533-4.267-12.8-12.8-17.067-25.6l-157.867-477.867c-12.8-34.133 0-68.267 29.867-89.6l452.267-328.533c8.533-4.267 17.067-8.533 25.6-8.533s17.067 4.267 25.6 8.533l452.267 328.533c29.867 17.067 42.667 55.467 29.867 89.6zM512.676 65.067l-426.667 307.2 132.267 405.333 81.067-247.467c4.267-17.067 21.333-29.867 42.667-29.867h341.333c17.067 0 34.133 12.8 42.667 29.867l81.067 247.467 81.067-247.467 51.2-153.6-426.667-311.467z" />
<glyph unicode="&#xe970;" glyph-name="globe" d="M512 917.333c-260.267 0-469.333-209.067-469.333-469.333s209.067-469.333 469.333-469.333c260.267 0 469.333 209.067 469.333 469.333s-209.067 469.333-469.333 469.333zM891.733 490.667h-170.667c-8.533 119.467-46.933 230.4-115.2 328.533 153.6-38.4 268.8-170.667 285.867-328.533zM388.267 405.333h251.733c-12.8-115.2-55.467-226.133-123.733-315.733-76.8 89.6-119.467 200.533-128 315.733zM388.267 490.667c12.8 115.2 55.467 226.133 123.733 315.733 72.533-93.867 115.2-204.8 123.733-315.733h-247.467zM413.867 819.2c-64-98.133-102.4-209.067-110.933-328.533h-170.667c17.067 157.867 132.267 290.133 281.6 328.533zM132.267 405.333h170.667c8.533-119.467 46.933-230.4 115.2-328.533-153.6 38.4-268.8 170.667-285.867 328.533zM610.133 76.8c64 98.133 102.4 209.067 115.2 328.533h170.667c-21.333-157.867-136.533-290.133-285.867-328.533z" />
<glyph unicode="&#xe971;" glyph-name="grid" d="M426.667 874.667h-298.667c-25.6 0-42.667-17.067-42.667-42.667v-298.667c0-25.6 17.067-42.667 42.667-42.667h298.667c25.6 0 42.667 17.067 42.667 42.667v298.667c0 25.6-17.067 42.667-42.667 42.667zM384 576h-213.333v213.333h213.333v-213.333zM896 874.667h-298.667c-25.6 0-42.667-17.067-42.667-42.667v-298.667c0-25.6 17.067-42.667 42.667-42.667h298.667c25.6 0 42.667 17.067 42.667 42.667v298.667c0 25.6-17.067 42.667-42.667 42.667zM853.333 576h-213.333v213.333h213.333v-213.333zM896 405.333h-298.667c-25.6 0-42.667-17.067-42.667-42.667v-298.667c0-25.6 17.067-42.667 42.667-42.667h298.667c25.6 0 42.667 17.067 42.667 42.667v298.667c0 25.6-17.067 42.667-42.667 42.667zM853.333 106.667h-213.333v213.333h213.333v-213.333zM426.667 405.333h-298.667c-25.6 0-42.667-17.067-42.667-42.667v-298.667c0-25.6 17.067-42.667 42.667-42.667h298.667c25.6 0 42.667 17.067 42.667 42.667v298.667c0 25.6-17.067 42.667-42.667 42.667zM384 106.667h-213.333v213.333h213.333v-213.333z" />
<glyph unicode="&#xe972;" glyph-name="hard-drive" d="M977.067 465.067c0 0 0 0 0 0l-149.333 294.4c-21.333 42.667-64 72.533-115.2 72.533h-405.333c-46.933 0-89.6-25.6-110.933-72.533l-145.067-294.4c0 0 0 0 0 0-8.533-4.267-8.533-8.533-8.533-17.067v-256c0-72.533 55.467-128 128-128h682.667c72.533 0 128 55.467 128 128v256c0 8.533 0 12.8-4.267 17.067zM268.8 721.067c0 0 0 0 0 0 8.533 17.067 25.6 25.6 38.4 25.6h405.333c17.067 0 29.867-8.533 38.4-25.6l115.2-230.4h-712.533l115.2 230.4zM896 192c0-25.6-17.067-42.667-42.667-42.667h-682.667c-25.6 0-42.667 17.067-42.667 42.667v213.333h768v-213.333zM226.133 247.467c-8.533 8.533-12.8 17.067-12.8 29.867 0 4.267 0 12.8 4.267 17.067s4.267 8.533 8.533 12.8c4.267 4.267 8.533 8.533 12.8 8.533 8.533 4.267 21.333 4.267 34.133 0 4.267 0 8.533-4.267 12.8-8.533s8.533-8.533 8.533-12.8c4.267-4.267 4.267-12.8 4.267-17.067 0-12.8-4.267-21.333-12.8-29.867s-17.067-12.8-29.867-12.8c-12.8 0-21.333 4.267-29.867 12.8zM396.8 247.467c-8.533 8.533-12.8 17.067-12.8 29.867 0 4.267 0 12.8 4.267 17.067s4.267 8.533 8.533 12.8c17.067 17.067 42.667 17.067 59.733 0 4.267-4.267 8.533-8.533 8.533-12.8 4.267-4.267 4.267-12.8 4.267-17.067 0-12.8-4.267-21.333-12.8-29.867s-17.067-12.8-29.867-12.8c-12.8 0-21.333 4.267-29.867 12.8z" />
<glyph unicode="&#xe973;" glyph-name="hash" d="M853.333 362.013h-179.2l17.067 170.667h162.133c25.6 0 42.667 17.067 42.667 42.667s-17.067 42.667-42.667 42.667h-149.333l21.333 209.067c4.267 21.333-12.8 42.667-38.4 46.933-21.333 4.267-42.667-12.8-46.933-38.4l-25.6-217.6h-170.667l25.6 209.067c4.267 21.333-12.8 42.667-38.4 46.933-21.333 4.267-42.667-12.8-46.933-38.4l-25.6-217.6h-187.733c-25.6 0-42.667-17.067-42.667-42.667s17.067-42.667 42.667-42.667h179.2l-17.067-170.667h-162.133c-25.6 0-42.667-17.067-42.667-42.667s17.067-42.667 42.667-42.667h149.333l-21.333-209.067c-4.267-21.333 12.8-42.667 38.4-46.933 0 0 4.267 0 4.267 0 21.333 0 38.4 17.067 42.667 38.4l25.6 217.6h170.667l-25.6-209.067c-4.267-21.333 12.8-42.667 38.4-46.933 0 0 4.267 0 4.267 0 21.333 0 38.4 17.067 42.667 38.4l25.6 217.6h187.733c25.6 0 42.667 17.067 42.667 42.667s-17.067 42.667-42.667 42.667zM418.133 362.013l17.067 170.667h170.667l-17.067-170.667h-170.667z" />
<glyph unicode="&#xe974;" glyph-name="headphones" d="M512 874.667c-234.667 0-426.667-192-426.667-426.667v-298.667c0-72.533 55.467-128 128-128h42.667c72.533 0 128 55.467 128 128v128c0 72.533-55.467 128-128 128h-85.333v42.667c0 187.733 153.6 341.333 341.333 341.333s341.333-153.6 341.333-341.333v-42.667h-85.333c-72.533 0-128-55.467-128-128v-128c0-72.533 55.467-128 128-128h42.667c72.533 0 128 55.467 128 128v298.667c0 234.667-192 426.667-426.667 426.667zM256 320c25.6 0 42.667-17.067 42.667-42.667v-128c0-25.6-17.067-42.667-42.667-42.667h-42.667c-25.6 0-42.667 17.067-42.667 42.667v170.667h85.333zM853.333 149.333c0-25.6-17.067-42.667-42.667-42.667h-42.667c-25.6 0-42.667 17.067-42.667 42.667v128c0 25.6 17.067 42.667 42.667 42.667h85.333v-170.667z" />
<glyph unicode="&#xe975;" glyph-name="heart" d="M905.95 794.403c-49.33 50.693-115.104 80.264-184.989 80.264s-139.77-29.571-189.1-80.264c0 0 0 0 0 0l-16.443-16.898-16.443 16.898c-102.772 105.611-271.318 105.611-374.089 0-53.441-50.693-82.217-122.508-82.217-194.323s28.776-143.63 78.107-194.323l361.757-371.749c8.222-8.449 16.443-12.673 28.776-12.673s20.554 4.224 28.776 12.673l361.757 371.749c49.33 50.693 78.107 122.508 78.107 194.323 8.222 71.815-20.554 143.63-73.996 194.323zM848.398 464.898l-332.981-342.178-332.981 342.178c-36.998 38.020-53.441 84.488-53.441 135.182s20.554 97.162 53.441 135.182c32.887 38.020 82.217 54.917 127.437 54.917 49.33 0 94.55-16.898 131.548-54.917l45.22-46.469c16.443-16.898 41.109-16.898 57.552 0l41.109 46.469c0 0 0 0 0 0 36.998 33.795 82.217 54.917 135.659 54.917 0 0 0 0 0 0 49.33 0 94.55-21.122 131.548-54.917 32.887-38.020 53.441-84.488 53.441-135.182s-20.554-97.162-57.552-135.182z" />
<glyph unicode="&#xe976;" glyph-name="help-circle" d="M678.4 533.333c0-110.933-140.8-162.133-157.867-166.4-4.267-4.267-8.533-4.267-12.8-4.267-17.067 0-34.133 12.8-38.4 29.867-8.533 21.333 4.267 46.933 25.6 55.467 25.6 8.533 98.133 42.667 98.133 89.6 0 38.4-21.333 68.267-55.467 81.067-42.667 17.067-93.867-8.533-110.933-51.2-8.533-21.333-34.133-34.133-55.467-25.6-21.333 0-29.867 25.6-25.6 46.933 29.867 89.6 128 136.533 217.6 102.4 68.267-21.333 115.2-85.333 115.2-157.867zM981.333 448c0-260.267-209.067-469.333-469.333-469.333s-469.333 209.067-469.333 469.333c0 260.267 209.067 469.333 469.333 469.333s469.333-209.067 469.333-469.333zM896 448c0 213.333-170.667 384-384 384s-384-170.667-384-384c0-213.333 170.667-384 384-384s384 170.667 384 384zM541.867 264.533c0 0-4.267 4.267-8.533 4.267s-4.267 4.267-8.533 4.267c-4.267 0-4.267 0-8.533 4.267-8.533 0-17.067 0-25.6-4.267-4.267 0-8.533-4.267-12.8-8.533s-8.533-8.533-8.533-12.8c0-4.267-4.267-8.533-4.267-17.067 0-12.8 4.267-21.333 12.8-29.867s17.067-12.8 29.867-12.8c12.8 0 21.333 4.267 29.867 12.8s12.8 17.067 12.8 29.867c0 4.267 0 12.8-4.267 17.067 4.267 4.267 0 8.533-4.267 12.8z" />
<glyph unicode="&#xe977;" glyph-name="home" d="M921.6 609.417l-384 298.328c-17.067 12.785-38.4 12.785-51.2 0l-384-298.328c-12.8-8.524-17.067-21.309-17.067-34.095v-468.801c0-72.451 55.467-127.855 128-127.855h597.333c72.533 0 128 55.404 128 127.855v468.801c0 12.785-4.267 25.571-17.067 34.095zM597.333 63.903h-170.667v340.946h170.667v-340.946zM853.333 106.521c0-25.571-17.067-42.618-42.667-42.618h-128v383.564c0 25.571-17.067 42.618-42.667 42.618h-256c-25.6 0-42.667-17.047-42.667-42.618v-383.564h-128c-25.6 0-42.667 17.047-42.667 42.618v447.491l341.333 264.233 341.333-264.233v-447.491z" />
<glyph unicode="&#xe978;" glyph-name="image" d="M810.667 874.667h-597.333c-72.533 0-128-55.467-128-128v-597.333c0-72.533 55.467-128 128-128h597.333c72.533 0 128 55.467 128 128v597.333c0 72.533-55.467 128-128 128zM170.667 746.667c0 25.6 17.067 42.667 42.667 42.667h597.333c25.6 0 42.667-17.067 42.667-42.667v-324.267l-140.8 140.8c-17.067 17.067-42.667 17.067-59.733 0l-452.267-452.267c-17.067 4.267-29.867 21.333-29.867 38.4v597.333zM810.667 106.667h-494.933l366.933 366.933 170.667-170.667v-153.6c0-25.6-17.067-42.667-42.667-42.667zM362.667 490.667c59.733 0 106.667 46.933 106.667 106.667s-46.933 106.667-106.667 106.667c-59.733 0-106.667-46.933-106.667-106.667s46.933-106.667 106.667-106.667zM362.667 618.667c12.8 0 21.333-8.533 21.333-21.333s-8.533-21.333-21.333-21.333c-12.8 0-21.333 8.533-21.333 21.333s8.533 21.333 21.333 21.333z" />
<glyph unicode="&#xe979;" glyph-name="inbox" d="M977.067 422.4c0 0 0 0 0 0l-149.333 332.8c-17.067 46.933-64 76.8-115.2 76.8 0 0 0 0 0 0h-401.067c0 0 0 0 0 0-51.2 0-98.133-29.867-115.2-76.8l-149.333-332.8c0 0 0 0 0 0-4.267-4.267-4.267-12.8-4.267-17.067v-213.333c0-72.533 55.467-128 128-128h682.667c72.533 0 128 55.467 128 128v213.333c0 4.267 0 12.8-4.267 17.067zM273.067 721.067c0 0 0 0 0 0 4.267 17.067 21.333 25.6 38.4 25.6h401.067c17.067 0 34.133-8.533 38.4-25.6l119.467-273.067h-187.733c-12.8 0-25.6-8.533-34.133-17.067l-72.533-110.933h-123.733l-72.533 110.933c-12.8 8.533-25.6 17.067-38.4 17.067h-192l123.733 273.067zM853.333 149.333h-682.667c-25.6 0-42.667 17.067-42.667 42.667v170.667h192l72.533-110.933c8.533-8.533 21.333-17.067 34.133-17.067h170.667c12.8 0 25.6 8.533 34.133 17.067l72.533 110.933h192v-170.667c0-25.6-17.067-42.667-42.667-42.667z" />
<glyph unicode="&#xe97a;" glyph-name="info" d="M512 917.333c-260.267 0-469.333-209.067-469.333-469.333s209.067-469.333 469.333-469.333c260.267 0 469.333 209.067 469.333 469.333s-209.067 469.333-469.333 469.333zM512 64c-213.333 0-384 170.667-384 384s170.667 384 384 384c213.333 0 384-170.667 384-384s-170.667-384-384-384zM554.667 448v-170.667c0-25.6-17.067-42.667-42.667-42.667s-42.667 17.067-42.667 42.667v170.667c0 25.6 17.067 42.667 42.667 42.667s42.667-17.067 42.667-42.667zM541.867 648.533c8.533-8.533 12.8-17.067 12.8-29.867s-4.267-21.333-12.8-29.867c-8.533-8.533-17.067-12.8-29.867-12.8-4.267 0-4.267 0-8.533 0s-4.267 0-8.533 4.267c-4.267 0-4.267 4.267-8.533 4.267s-4.267 4.267-4.267 4.267c-8.533 8.533-12.8 17.067-12.8 29.867s4.267 21.333 12.8 29.867c0 0 4.267 4.267 4.267 4.267 4.267 0 4.267 4.267 8.533 4.267s4.267 0 8.533 4.267c12.8 0 29.867-4.267 38.4-12.8z" />
<glyph unicode="&#xe97b;" glyph-name="instagram" d="M725.333 917.333h-426.667c-140.8 0-256-115.2-256-256v-426.667c0-140.8 115.2-256 256-256h426.667c140.8 0 256 115.2 256 256v426.667c0 140.8-115.2 256-256 256zM896 234.667c0-93.867-76.8-170.667-170.667-170.667h-426.667c-93.867 0-170.667 76.8-170.667 170.667v426.667c0 93.867 76.8 170.667 170.667 170.667h426.667c93.867 0 170.667-76.8 170.667-170.667v-426.667zM546.133 661.333c-21.333 4.267-42.667 4.267-64 0-115.2-17.067-196.267-128-179.2-243.2 17.067-106.667 106.667-183.467 209.067-183.467 8.533 0 21.333 0 29.867 4.267 55.467 8.533 106.667 38.4 140.8 85.333s46.933 102.4 38.4 157.867c-8.533 93.867-81.067 166.4-174.933 179.2zM618.667 375.467c-21.333-25.6-51.2-46.933-85.333-51.2-68.267-8.533-136.533 38.4-145.067 106.667-12.8 68.267 38.4 136.533 106.667 145.067 4.267 0 12.8 0 17.067 0s12.8 0 17.067 0c55.467-8.533 98.133-51.2 106.667-106.667 8.533-34.133 0-68.267-17.067-93.867zM785.067 699.733c0-4.267 4.267-8.533 4.267-17.067 0-12.8-4.267-21.333-12.8-29.867s-21.333-12.8-29.867-12.8c-8.533 0-21.333 4.267-29.867 12.8s-12.8 21.333-12.8 29.867c0 4.267 0 12.8 4.267 17.067 0 4.267 4.267 8.533 8.533 12.8 17.067 17.067 42.667 17.067 59.733 0 4.267-4.267 8.533-8.533 8.533-12.8z" />
<glyph unicode="&#xe97c;" glyph-name="italic" d="M853.333 789.333c0-25.6-17.067-42.667-42.667-42.667h-140.8l-221.867-597.333h149.333c25.6 0 42.667-17.067 42.667-42.667s-17.067-42.667-42.667-42.667h-384c-25.6 0-42.667 17.067-42.667 42.667s17.067 42.667 42.667 42.667h140.8l226.133 597.333h-153.6c-25.6 0-42.667 17.067-42.667 42.667s17.067 42.667 42.667 42.667h384c25.6 0 42.667-17.067 42.667-42.667z" />
<glyph unicode="&#xe97d;" glyph-name="layers" d="M68.267 623.666l426.667-213.576c4.267-4.272 8.533-4.272 17.067-4.272s12.8 0 17.067 4.272l426.667 213.576c17.067 8.543 25.6 21.358 25.6 38.444s-8.533 29.901-25.6 38.444l-426.667 213.576c-12.8 4.272-25.6 4.272-38.4 0l-426.667-213.576c-12.8-8.543-21.333-21.358-21.333-38.444s8.533-29.901 25.6-38.444zM512 828.699l332.8-166.589-332.8-166.589-332.8 166.589 332.8 166.589zM977.067 252.044c8.533-21.358 0-46.987-17.067-55.53l-426.667-213.576c-8.533-4.272-12.8-4.272-21.333-4.272s-12.8 0-17.067 4.272l-426.667 213.576c-21.333 8.543-29.867 34.172-17.067 55.53 8.533 21.358 34.133 29.901 55.467 17.086l409.6-205.033 409.6 205.033c12.8 12.815 38.4 4.272 51.2-17.086zM977.067 465.62c8.533-21.358 0-46.987-17.067-55.53l-426.667-213.576c-8.533-4.272-12.8-4.272-21.333-4.272s-12.8 0-17.067 4.272l-426.667 213.576c-21.333 8.543-29.867 34.172-17.067 55.53 8.533 21.358 34.133 29.901 55.467 17.086l409.6-205.033 409.6 205.033c12.8 12.815 38.4 4.272 51.2-17.086z" />
</font>
</defs>
</svg>
