<svg xmlns="http://www.w3.org/2000/svg" width="53" height="38" viewBox="0 0 53 38">
  <g fill="#262B3E" fill-rule="evenodd" transform="translate(.575 .2)">
    <g transform="translate(.925)">
      <rect width="14.052" height="3.833" rx=".5"/>
      <rect width="14.052" height="3.833" y="9.583" rx=".5"/>
      <rect width="14.052" height="3.833" y="19.167" rx=".5"/>
    </g>
    <g transform="translate(37.735)">
      <rect width="14.052" height="3.833" rx=".5"/>
      <rect width="14.052" height="3.833" y="9.583" rx=".5"/>
      <rect width="14.052" height="3.833" y="19.167" rx=".5"/>
    </g>
    <g transform="translate(17.85)">
      <rect width="14.847" height="3.833" x=".712" rx=".5"/>
      <rect width="13.417" height="3.833" x="6.933" y="4.792" rx=".5" transform="rotate(-90 13.642 6.708)"/>
      <rect width="11.257" height="3.833" x="-3" y="15.455" rx=".5" transform="rotate(-90 2.628 17.372)"/>
      <rect width="14.847" height="3.833" x=".712" y="9.827" rx=".5" transform="rotate(-180 8.135 11.743)"/>
      <rect width="14.847" height="3.833" x=".712" y="19.167" rx=".5" transform="rotate(-180 8.135 21.083)"/>
    </g>
    <path fill-rule="nonzero" d="M0,30.3577627 L3.30908203,30.3577627 C4.02978876,30.3577627 4.56957828,30.5291477 4.9284668,30.8719229 C5.28735531,31.214698 5.46679688,31.7024861 5.46679688,32.3353018 C5.46679688,32.9856956 5.27124219,33.4939913 4.88012695,33.8602041 C4.48901172,34.2264169 3.89209386,34.4095205 3.08935547,34.4095205 L1.99951172,34.4095205 L1.99951172,36.8001455 L0,36.8001455 L0,30.3577627 Z M1.99951172,33.1043447 L2.48730469,33.1043447 C2.87109567,33.1043447 3.14062422,33.037695 3.29589844,32.9043936 C3.45117265,32.7710921 3.52880859,32.6004395 3.52880859,32.3924307 C3.52880859,32.1902812 3.46142646,32.0188962 3.32666016,31.8782705 C3.19189386,31.7376448 2.93847842,31.667333 2.56640625,31.667333 L1.99951172,31.667333 L1.99951172,33.1043447 Z M6.58740234,30.3577627 L8.58251953,30.3577627 L8.58251953,36.8001455 L6.58740234,36.8001455 L6.58740234,30.3577627 Z M10.0019531,30.3577627 L13.3110352,30.3577627 C14.0317419,30.3577627 14.5715314,30.5291477 14.9304199,30.8719229 C15.2893084,31.214698 15.46875,31.7024861 15.46875,32.3353018 C15.46875,32.9856956 15.2731953,33.4939913 14.8820801,33.8602041 C14.4909648,34.2264169 13.894047,34.4095205 13.0913086,34.4095205 L12.0014648,34.4095205 L12.0014648,36.8001455 L10.0019531,36.8001455 L10.0019531,30.3577627 Z M12.0014648,33.1043447 L12.4892578,33.1043447 C12.8730488,33.1043447 13.1425773,33.037695 13.2978516,32.9043936 C13.4531258,32.7710921 13.5307617,32.6004395 13.5307617,32.3924307 C13.5307617,32.1902812 13.4633796,32.0188962 13.3286133,31.8782705 C13.193847,31.7376448 12.9404315,31.667333 12.5683594,31.667333 L12.0014648,31.667333 L12.0014648,33.1043447 Z M16.5058594,30.3577627 L21.8408203,30.3577627 L21.8408203,31.733251 L18.5009766,31.733251 L18.5009766,32.7571768 L21.5991211,32.7571768 L21.5991211,34.0711416 L18.5009766,34.0711416 L18.5009766,35.3411611 L21.9375,35.3411611 L21.9375,36.8001455 L16.5058594,36.8001455 L16.5058594,30.3577627 Z M23.0097656,30.3577627 L25.0004883,30.3577627 L25.0004883,35.2137197 L28.1074219,35.2137197 L28.1074219,36.8001455 L23.0097656,36.8001455 L23.0097656,30.3577627 Z M29.0917969,30.3577627 L31.0869141,30.3577627 L31.0869141,36.8001455 L29.0917969,36.8001455 L29.0917969,30.3577627 Z M32.5283203,30.3577627 L34.387207,30.3577627 L36.8129883,33.9217276 L36.8129883,30.3577627 L38.6894531,30.3577627 L38.6894531,36.8001455 L36.8129883,36.8001455 L34.4003906,33.2625479 L34.4003906,36.8001455 L32.5283203,36.8001455 L32.5283203,30.3577627 Z M40.0078125,30.3577627 L45.3427734,30.3577627 L45.3427734,31.733251 L42.0029297,31.733251 L42.0029297,32.7571768 L45.1010742,32.7571768 L45.1010742,34.0711416 L42.0029297,34.0711416 L42.0029297,35.3411611 L45.4394531,35.3411611 L45.4394531,36.8001455 L40.0078125,36.8001455 L40.0078125,30.3577627 Z M46.1645508,34.6687979 L48.0585938,34.5501455 C48.0996096,34.8577642 48.1831048,35.0921369 48.309082,35.2532705 C48.5141612,35.514014 48.807127,35.6443838 49.1879883,35.6443838 C49.4721694,35.6443838 49.6911613,35.5777341 49.8449707,35.4444326 C49.9987801,35.3111312 50.0756836,35.1565917 50.0756836,34.9808096 C50.0756836,34.8138166 50.0024421,34.664404 49.855957,34.5325674 C49.7094719,34.4007308 49.3696316,34.2762203 48.8364258,34.1590322 C47.9633745,33.9627422 47.3408222,33.7020026 46.96875,33.3768057 C46.5937481,33.0516087 46.40625,32.6370621 46.40625,32.1331533 C46.40625,31.802097 46.5021963,31.489356 46.6940918,31.1949209 C46.8859873,30.9004858 47.1745586,30.6690428 47.5598145,30.500585 C47.9450703,30.3321271 48.4731412,30.2478994 49.144043,30.2478994 C49.9672893,30.2478994 50.5949685,30.4009741 51.0270996,30.7071279 C51.4592307,31.0132818 51.7163082,31.5003375 51.7983398,32.1683096 L49.921875,32.2781729 C49.8720701,31.9881324 49.7673348,31.777197 49.607666,31.6453604 C49.4479972,31.5135238 49.2275405,31.4476065 48.9462891,31.4476065 C48.7148426,31.4476065 48.5405279,31.4966782 48.4233398,31.5948233 C48.3061518,31.6929683 48.2475586,31.8123518 48.2475586,31.9529776 C48.2475586,32.0555171 48.295898,32.1478014 48.3925781,32.229833 C48.4863286,32.3147944 48.7089826,32.3938952 49.0605469,32.4671377 C49.9306684,32.6546386 50.5539532,32.844334 50.9304199,33.0362295 C51.3068866,33.228125 51.5808097,33.4661597 51.7521973,33.7503408 C51.9235848,34.0345219 52.0092773,34.3523899 52.0092773,34.7039541 C52.0092773,35.1170421 51.8950207,35.4978977 51.6665039,35.8465322 C51.4379871,36.1951668 51.1186544,36.4595684 50.7084961,36.6397451 C50.2983378,36.8199218 49.7812531,36.9100088 49.1572266,36.9100088 C48.061518,36.9100088 47.3027365,36.6990734 46.8808594,36.2771963 C46.4589823,35.8553192 46.2202151,35.3191917 46.1645508,34.6687979 Z"/>
  </g>
</svg>
