<svg xmlns="http://www.w3.org/2000/svg" viewBox="0 0 69.58 42.41">
  <defs>
    <style>
      .cls-1, .cls-2 {
        fill: #21232a;
      }

      .cls-2 {
        stroke: #fff;
        stroke-width: 0.5px;
      }

      .cls-2, .cls-4 {
        stroke-miterlimit: 10;
      }

      .cls-3 {
        fill: #231f20;
      }

      .cls-4 {
        fill: #fff;
        stroke: #231f20;
        stroke-width: 0.1px;
      }
    </style>
  </defs>
  <title>Asset 13</title>
  <g id="Layer_2" data-name="Layer 2">
    <g id="Layer_1-2" data-name="Layer 1">
      <g>
        <rect class="cls-1" x="1.66" y="38.53" width="66.98" height="3.03" transform="translate(70.29 80.08) rotate(180)"/>
        <rect class="cls-2" x="15.94" y="39.04" width="4.25" height="2" rx="1" transform="translate(58.1 21.98) rotate(90)"/>
        <rect class="cls-2" x="31.99" y="39.04" width="4.25" height="2" rx="1" transform="translate(74.16 5.92) rotate(90)"/>
        <rect class="cls-2" x="49.12" y="39.04" width="4.25" height="2" rx="1" transform="translate(91.28 -11.21) rotate(90)"/>
        <rect class="cls-2" x="66.21" y="39.04" width="4.25" height="2" rx="1" transform="translate(108.37 -28.29) rotate(90)"/>
        <rect class="cls-2" x="0.53" y="39.04" width="4.25" height="2" rx="1" transform="translate(42.7 37.38) rotate(90)"/>
        <g>
          <polygon class="cls-3" points="41.95 21.67 34.78 26 43.92 26.29 42.84 21.67 41.95 21.67"/>
          <path class="cls-1" d="M15.63.94a15.85,15.85,0,0,1,5.65,1,12.41,12.41,0,0,1,4.46,2.87c1.24,1.26,19,2.8,19.72,4.63a17.37,17.37,0,0,1,1.16,6.26,11.78,11.78,0,0,1-.08,1.47,2.43,2.43,0,0,1-.29.92,1.17,1.17,0,0,1-.55.48c-.23.09-17.45.14-17.81.14H7.8q.34,5,2.69,7.35a8.36,8.36,0,0,0,6.21,2.35A10.94,10.94,0,0,0,20,28a15.4,15.4,0,0,0,2.41-1c.69-.36,1.29-.68,1.81-1a3,3,0,0,1,1.51-.44,1.66,1.66,0,0,1,.82.19,1.7,1.7,0,0,1,.6.54l2.28,2.85a13,13,0,0,1-2.91,2.55,16,16,0,0,1-3.38,1.65,18.51,18.51,0,0,1-3.58.87,25.49,25.49,0,0,1-3.53.25A17.34,17.34,0,0,1,9.7,33.32,14,14,0,0,1,4.63,30a15.57,15.57,0,0,1-3.39-5.45A21,21,0,0,1,0,17a17.94,17.94,0,0,1,1.08-6.26,14.66,14.66,0,0,1,3.09-5.1A14.45,14.45,0,0,1,9.08,2.21,16.08,16.08,0,0,1,15.63.94Zm.15,5.61a7.22,7.22,0,0,0-5.35,1.93A9.55,9.55,0,0,0,8,14H22.66a9.58,9.58,0,0,0-.41-2.87A6.48,6.48,0,0,0,21,8.74a6,6,0,0,0-2.15-1.6A7.22,7.22,0,0,0,15.78,6.55Z"/>
          <path class="cls-1" d="M54.56.94a15.9,15.9,0,0,1,5.66,1,12.5,12.5,0,0,1,4.46,2.87,13.24,13.24,0,0,1,2.91,4.63,17.41,17.41,0,0,1,1,6.26,11.78,11.78,0,0,1-.08,1.47,2.43,2.43,0,0,1-.29.92,1.22,1.22,0,0,1-.55.48,2.52,2.52,0,0,1-.89.14H46.73C47,22,47.86,24.48,49.43,26a8.36,8.36,0,0,0,6.21,2.35A10.94,10.94,0,0,0,58.92,28a15.81,15.81,0,0,0,2.41-1c.69-.36,1.29-.68,1.81-1a3,3,0,0,1,1.5-.44,1.65,1.65,0,0,1,1.43.73l2.28,2.85a13.28,13.28,0,0,1-2.92,2.55,15.94,15.94,0,0,1-3.37,1.65,18.69,18.69,0,0,1-3.58.87,25.63,25.63,0,0,1-3.54.25,17.41,17.41,0,0,1-6.31-1.12A14.16,14.16,0,0,1,43.56,30a15.86,15.86,0,0,1-3.39-5.45A21.23,21.23,0,0,1,38.94,17,17.94,17.94,0,0,1,40,10.75a15,15,0,0,1,3.09-5.1A14.49,14.49,0,0,1,48,2.21,16.07,16.07,0,0,1,54.56.94Zm.16,5.61a7.25,7.25,0,0,0-5.36,1.93A9.61,9.61,0,0,0,46.89,14H61.6a9.91,9.91,0,0,0-.41-2.87,6.64,6.64,0,0,0-1.27-2.36,6,6,0,0,0-2.15-1.6A7.25,7.25,0,0,0,54.72,6.55Z"/>
          <path class="cls-4" d="M44.15,25.94a6,6,0,0,1,2.67.44,2.17,2.17,0,0,1,1.07,1.32A8.2,8.2,0,0,1,48.16,30a7.61,7.61,0,0,1-.29,2.31,1.93,1.93,0,0,1-1,1.18,5.92,5.92,0,0,1-2.83.55H26.23a3.78,3.78,0,0,1-2.82-1.23A4,4,0,0,1,22.22,30a7,7,0,0,1,1.71-4.54,16.56,16.56,0,0,1,4.13-3.56c1.61-1,3.22-2,4.83-2.91A18.7,18.7,0,0,0,37,15.69a5.59,5.59,0,0,0,1.72-3.88,3.34,3.34,0,0,0-.32-1.16,5.39,5.39,0,0,0-.71-1.23,3.55,3.55,0,0,0-1.21-.89,5.08,5.08,0,0,0-2.28-.41,3.49,3.49,0,0,0-2.53,1.07,3.85,3.85,0,0,0-1.21,2.12l-.18,1v.27a11.38,11.38,0,0,1-.07,1.51,3.25,3.25,0,0,1-.43,1.14c-.46.73-1.64,1.09-3.56,1.09-2.12,0-3.39-.58-3.78-1.73a8.61,8.61,0,0,1-.23-2.33,12.33,12.33,0,0,1,3.4-8.5A11.39,11.39,0,0,1,34.51.05a11.41,11.41,0,0,1,8.91,3.81,12.61,12.61,0,0,1,3.42,8.68,11,11,0,0,1-1.14,4.92A12,12,0,0,1,43,21.2a21.5,21.5,0,0,1-6,4.06l-1.14.46v.22Z"/>
        </g>
      </g>
    </g>
  </g>
</svg>
