<svg width="71" height="45" viewBox="0 0 71 45" fill="none" xmlns="http://www.w3.org/2000/svg">
<path d="M41.9544 22.6301L34.7844 26.9601L43.9244 27.2501L42.8444 22.6301H41.9544Z" fill="#231F20"/>
<path d="M15.6344 1.90016C17.5629 1.88699 19.4776 2.22587 21.2844 2.90016C22.9605 3.52426 24.4819 4.50328 25.7444 5.77016C26.9844 7.03016 44.7444 8.57016 45.4644 10.4002C46.2334 12.3975 46.6267 14.5198 46.6244 16.6602C46.6284 17.1513 46.6017 17.6423 46.5444 18.1302C46.5102 18.4531 46.4115 18.766 46.2544 19.0502C46.1269 19.2647 45.9342 19.4329 45.7044 19.5302C45.4744 19.6202 28.2544 19.6702 27.8944 19.6702H7.80437C8.03104 23.0035 8.92771 25.4535 10.4944 27.0202C11.3141 27.8152 12.288 28.4339 13.3561 28.8381C14.4241 29.2423 15.5636 29.4234 16.7044 29.3702C17.8188 29.4024 18.9317 29.2642 20.0044 28.9602C20.8345 28.6956 21.6408 28.3611 22.4144 27.9602C23.1044 27.6002 23.7044 27.2802 24.2244 26.9602C24.6796 26.6818 25.2009 26.5299 25.7344 26.5202C26.0195 26.512 26.3019 26.5774 26.5544 26.7102C26.7948 26.8394 27.0006 27.0246 27.1544 27.2502L29.4344 30.1002C28.597 31.0906 27.6161 31.9501 26.5244 32.6502C25.4665 33.3311 24.332 33.885 23.1444 34.3002C21.9829 34.7085 20.7837 34.9999 19.5644 35.1702C18.3949 35.3352 17.2154 35.4187 16.0344 35.4202C13.8717 35.4382 11.7248 35.0516 9.70437 34.2802C7.79224 33.5569 6.0617 32.4237 4.63437 30.9602C3.13814 29.3986 1.98361 27.5425 1.24437 25.5102C0.372197 23.0907 -0.0481107 20.5315 0.0043732 17.9602C-0.0108745 15.8259 0.354858 13.706 1.08437 11.7002C1.7541 9.80642 2.80586 8.07051 4.17437 6.60016C5.55353 5.12646 7.22612 3.95803 9.08437 3.17016C11.1549 2.29354 13.3863 1.86089 15.6344 1.90016ZM15.7844 7.51016C14.8084 7.45288 13.831 7.59441 12.9113 7.92617C11.9917 8.25793 11.149 8.773 10.4344 9.44016C9.04937 10.9694 8.19684 12.906 8.00437 14.9602H22.6644C22.6741 13.9882 22.5358 13.0205 22.2544 12.0902C22.01 11.2146 21.5841 10.4003 21.0044 9.70016C20.4175 9.01154 19.6825 8.46456 18.8544 8.10016C17.8864 7.68165 16.8385 7.48026 15.7844 7.51016Z" fill="#21232A"/>
<path d="M54.5644 1.90012C56.4962 1.88685 58.4142 2.22572 60.2244 2.90012C61.8993 3.52675 63.4201 4.50545 64.6844 5.77012C65.966 7.09413 66.9572 8.6711 67.5944 10.4001C68.308 12.408 68.647 14.5298 68.5944 16.6601C68.5984 17.1513 68.5717 17.6423 68.5144 18.1301C68.4802 18.4531 68.3816 18.7659 68.2244 19.0501C68.0944 19.2625 67.9024 19.43 67.6744 19.5301C67.3886 19.6299 67.0871 19.6773 66.7844 19.6701H46.7344C47.0044 22.9601 47.8644 25.4401 49.4344 26.9601C50.2541 27.7552 51.228 28.3739 52.2961 28.7781C53.3642 29.1823 54.5037 29.3633 55.6444 29.3101C56.7491 29.3599 57.855 29.2419 58.9244 28.9601C59.7539 28.6938 60.56 28.3593 61.3344 27.9601C62.0244 27.6001 62.6244 27.2801 63.1444 26.9601C63.5967 26.6835 64.1143 26.5317 64.6444 26.5201C64.9252 26.51 65.2039 26.5717 65.4542 26.6995C65.7044 26.8272 65.9179 27.0168 66.0744 27.2501L68.3544 30.1001C67.511 31.0884 66.5272 31.9475 65.4344 32.6501C64.38 33.3309 63.2488 33.8847 62.0644 34.3001C60.9026 34.7073 59.7035 34.9987 58.4844 35.1701C57.3116 35.3351 56.1288 35.4187 54.9444 35.4201C52.7899 35.4405 50.6503 35.0607 48.6344 34.3001C46.7228 33.5664 44.993 32.4269 43.5644 30.9601C42.0748 29.3935 40.9212 27.5388 40.1744 25.5101C39.3106 23.0887 38.8939 20.5305 38.9444 17.9601C38.9239 15.8304 39.2829 13.714 40.0044 11.7101C40.6827 9.82046 41.7335 8.08619 43.0944 6.61012C44.4734 5.13371 46.1458 3.96197 48.0044 3.17012C50.0779 2.29184 52.3129 1.85916 54.5644 1.90012ZM54.7244 7.51012C53.747 7.45322 52.7681 7.59489 51.8469 7.92659C50.9257 8.2583 50.0812 8.77316 49.3644 9.44012C47.9685 10.9664 47.1023 12.9023 46.8944 14.9601H61.6044C61.6092 13.9885 61.471 13.0215 61.1944 12.0901C60.9359 11.2253 60.5037 10.4223 59.9244 9.73012C59.3375 9.0415 58.6025 8.49453 57.7744 8.13012C56.8146 7.70509 55.774 7.49355 54.7244 7.51012Z" fill="#21232A"/>
<g filter="url(#filter0_d)">
<path d="M44.1543 26.9001C45.0662 26.8415 45.9795 26.992 46.8243 27.3401C47.0823 27.4768 47.3101 27.6642 47.4939 27.891C47.6778 28.1178 47.814 28.3794 47.8943 28.6601C48.0927 29.4101 48.1836 30.1845 48.1643 30.9601C48.1867 31.7404 48.0889 32.5195 47.8743 33.2701C47.798 33.5251 47.6698 33.7616 47.4977 33.9647C47.3256 34.1677 47.1134 34.333 46.8743 34.4501C45.9907 34.8638 45.0186 35.0528 44.0443 35.0001H26.2343C25.7043 35.0042 25.1794 34.8969 24.6935 34.685C24.2077 34.4731 23.7719 34.1614 23.4143 33.7701C22.6619 33.0275 22.2341 32.0172 22.2243 30.9601C22.2349 29.2913 22.8414 27.6812 23.9343 26.4201C25.1049 25.0134 26.5004 23.8104 28.0643 22.8601C29.6743 21.8601 31.2843 20.8601 32.8943 19.9501C34.4133 19.0497 35.797 17.9386 37.0043 16.6501C38.0655 15.6332 38.6834 14.2393 38.7243 12.7701C38.6888 12.3672 38.5804 11.9742 38.4043 11.6101C38.223 11.1706 37.9842 10.757 37.6943 10.3801C37.3591 10.0005 36.9465 9.69706 36.4843 9.4901C35.7661 9.17966 34.9858 9.03934 34.2043 9.0801C33.7322 9.07803 33.2645 9.1718 32.8296 9.35571C32.3948 9.53963 32.0017 9.80988 31.6743 10.1501C31.0517 10.7068 30.627 11.4509 30.4643 12.2701L30.2843 13.2701V13.5401C30.2945 14.0444 30.2711 14.5489 30.2143 15.0501C30.1442 15.4538 29.9983 15.8406 29.7843 16.1901C29.3243 16.9201 28.1443 17.2801 26.2243 17.2801C24.1043 17.2801 22.8343 16.7001 22.4443 15.5501C22.2619 14.7875 22.1846 14.0036 22.2143 13.2201C22.2149 10.0554 23.4322 7.01211 25.6143 4.7201C26.7362 3.48843 28.1146 2.51787 29.6524 1.87685C31.1901 1.23583 32.8498 0.939961 34.5143 1.0101C36.1881 0.952345 37.854 1.26375 39.3939 1.92222C40.9338 2.58068 42.3098 3.57005 43.4243 4.8201C45.6321 7.16982 46.8559 10.2759 46.8443 13.5001C46.8511 15.2063 46.4608 16.8907 45.7043 18.4201C45.0547 19.8296 44.1377 21.0998 43.0043 22.1601C41.2484 23.8431 39.2196 25.2159 37.0043 26.2201L35.8643 26.6801V26.9001H44.1543Z" fill="white"/>
<path d="M44.1543 26.9001C45.0662 26.8415 45.9795 26.992 46.8243 27.3401C47.0823 27.4768 47.3101 27.6642 47.4939 27.891C47.6778 28.1178 47.814 28.3794 47.8943 28.6601C48.0927 29.4101 48.1836 30.1845 48.1643 30.9601C48.1867 31.7404 48.0889 32.5195 47.8743 33.2701C47.798 33.5251 47.6698 33.7616 47.4977 33.9647C47.3256 34.1677 47.1134 34.333 46.8743 34.4501C45.9907 34.8638 45.0186 35.0528 44.0443 35.0001H26.2343C25.7043 35.0042 25.1794 34.8969 24.6935 34.685C24.2077 34.4731 23.7719 34.1614 23.4143 33.7701C22.6619 33.0275 22.2341 32.0172 22.2243 30.9601C22.2349 29.2913 22.8414 27.6812 23.9343 26.4201C25.1049 25.0134 26.5004 23.8104 28.0643 22.8601C29.6743 21.8601 31.2843 20.8601 32.8943 19.9501C34.4133 19.0497 35.797 17.9386 37.0043 16.6501C38.0655 15.6332 38.6834 14.2393 38.7243 12.7701C38.6888 12.3672 38.5804 11.9742 38.4043 11.6101C38.223 11.1706 37.9842 10.757 37.6943 10.3801C37.3591 10.0005 36.9465 9.69706 36.4843 9.4901C35.7661 9.17966 34.9858 9.03934 34.2043 9.0801C33.7322 9.07803 33.2645 9.1718 32.8296 9.35571C32.3948 9.53963 32.0017 9.80988 31.6743 10.1501C31.0517 10.7068 30.627 11.4509 30.4643 12.2701L30.2843 13.2701V13.5401C30.2945 14.0444 30.2711 14.5489 30.2143 15.0501C30.1442 15.4538 29.9983 15.8406 29.7843 16.1901C29.3243 16.9201 28.1443 17.2801 26.2243 17.2801C24.1043 17.2801 22.8343 16.7001 22.4443 15.5501C22.2619 14.7875 22.1846 14.0036 22.2143 13.2201C22.2149 10.0554 23.4322 7.01211 25.6143 4.7201C26.7362 3.48843 28.1146 2.51787 29.6524 1.87685C31.1901 1.23583 32.8498 0.939961 34.5143 1.0101C36.1881 0.952345 37.854 1.26375 39.3939 1.92222C40.9338 2.58068 42.3098 3.57005 43.4243 4.8201C45.6321 7.16982 46.8559 10.2759 46.8443 13.5001C46.8511 15.2063 46.4608 16.8907 45.7043 18.4201C45.0547 19.8296 44.1377 21.0998 43.0043 22.1601C41.2484 23.8431 39.2196 25.2159 37.0043 26.2201L35.8643 26.6801V26.9001H44.1543Z" stroke="#231F20" stroke-width="0.1" stroke-miterlimit="10"/>
</g>
<path d="M2.99998 43.6399L69.98 43.6399V40.6099L2.99998 40.6099V43.6399Z" fill="#21232A"/>
<path d="M20.41 43.26V41.01C20.41 40.4577 19.9623 40.01 19.41 40.01C18.8577 40.01 18.41 40.4577 18.41 41.01V43.26C18.41 43.8123 18.8577 44.26 19.41 44.26C19.9623 44.26 20.41 43.8123 20.41 43.26Z" fill="#21232A" stroke="white" stroke-width="0.5" stroke-miterlimit="10"/>
<path d="M36.47 43.25V41C36.47 40.4477 36.0223 40 35.47 40C34.9177 40 34.47 40.4477 34.47 41V43.25C34.47 43.8023 34.9177 44.25 35.47 44.25C36.0223 44.25 36.47 43.8023 36.47 43.25Z" fill="#21232A" stroke="white" stroke-width="0.5" stroke-miterlimit="10"/>
<path d="M53.59 43.25V41C53.59 40.4477 53.1423 40 52.59 40C52.0377 40 51.59 40.4477 51.59 41V43.25C51.59 43.8023 52.0377 44.25 52.59 44.25C53.1423 44.25 53.59 43.8023 53.59 43.25Z" fill="#21232A" stroke="white" stroke-width="0.5" stroke-miterlimit="10"/>
<path d="M70.6799 43.26V41.01C70.6799 40.4577 70.2322 40.01 69.6799 40.01C69.1276 40.01 68.6799 40.4577 68.6799 41.01V43.26C68.6799 43.8123 69.1276 44.26 69.6799 44.26C70.2322 44.26 70.6799 43.8123 70.6799 43.26Z" fill="#21232A" stroke="white" stroke-width="0.5" stroke-miterlimit="10"/>
<path d="M5.01013 43.25V41C5.01013 40.4477 4.56242 40 4.01013 40C3.45785 40 3.01013 40.4477 3.01013 41V43.25C3.01013 43.8023 3.45785 44.25 4.01013 44.25C4.56242 44.25 5.01013 43.8023 5.01013 43.25Z" fill="#21232A" stroke="white" stroke-width="0.5" stroke-miterlimit="10"/>
<defs>
<filter id="filter0_d" x="18.1581" y="0.949951" width="34.0593" height="42.1087" filterUnits="userSpaceOnUse" color-interpolation-filters="sRGB">
<feFlood flood-opacity="0" result="BackgroundImageFix"/>
<feColorMatrix in="SourceAlpha" type="matrix" values="0 0 0 0 0 0 0 0 0 0 0 0 0 0 0 0 0 0 127 0"/>
<feOffset dy="4"/>
<feGaussianBlur stdDeviation="2"/>
<feColorMatrix type="matrix" values="0 0 0 0 0 0 0 0 0 0 0 0 0 0 0 0 0 0 0.25 0"/>
<feBlend mode="normal" in2="BackgroundImageFix" result="effect1_dropShadow"/>
<feBlend mode="normal" in="SourceGraphic" in2="effect1_dropShadow" result="shape"/>
</filter>
</defs>
</svg>
