<svg width="141" height="37" viewBox="0 0 141 37" fill="none" xmlns="http://www.w3.org/2000/svg">
<rect width="141" height="37" fill="black" fill-opacity="0"/>
<rect width="116.091" height="22.4575" fill="black" fill-opacity="0" transform="translate(24.9094 14.5425)"/>
<path d="M120.28 22.7258C121.036 22.8996 121.68 23.2038 122.191 23.7686C122.636 24.2249 122.858 24.7898 122.858 25.3981C122.88 26.6148 122.88 27.8315 122.858 29.0481C122.836 30.569 121.903 31.6119 120.258 31.9377C119.814 32.0247 119.325 32.0681 118.858 32.0681C114.459 32.0681 110.037 32.0681 105.637 32.0898C105.348 32.0898 105.259 32.0247 105.259 31.7205C105.259 26.1803 105.259 20.64 105.259 15.0998C105.259 14.8174 105.348 14.7305 105.637 14.7305C109.903 14.7305 114.17 14.7305 118.436 14.7305C119.192 14.7305 119.947 14.8174 120.658 15.1215C121.747 15.5778 122.391 16.3817 122.436 17.5332C122.48 18.6412 122.48 19.771 122.391 20.879C122.303 21.9653 121.858 22.4651 120.525 22.6823C120.436 22.6823 120.369 22.704 120.28 22.7258ZM113.281 29.9824C114.903 29.9824 116.547 30.0041 118.169 29.9824C118.614 29.9824 119.058 29.8955 119.481 29.7868C120.014 29.6348 120.325 29.222 120.347 28.6788C120.369 27.6577 120.392 26.6365 120.369 25.6371C120.347 24.855 119.969 24.4422 119.169 24.2683C118.925 24.2032 118.658 24.1597 118.392 24.1597C114.925 24.1597 111.437 24.1597 107.97 24.1597C107.704 24.1597 107.637 24.2466 107.637 24.5073C107.637 26.2237 107.659 27.9401 107.637 29.6565C107.637 29.9606 107.748 30.0258 108.037 30.0258C109.792 29.9606 111.526 29.9824 113.281 29.9824ZM113.125 22.0523C114.836 22.0305 116.525 22.0523 118.236 22.0305C119.325 22.0088 119.969 21.4222 119.969 20.488C119.969 19.8144 119.969 19.1192 119.969 18.4457C119.947 17.6853 119.592 17.1855 118.858 16.99C118.525 16.9031 118.192 16.8379 117.858 16.8379C114.592 16.8162 111.303 16.8379 108.037 16.8162C107.748 16.8162 107.659 16.9031 107.659 17.1855C107.681 18.6847 107.659 20.1838 107.659 21.6612C107.659 22.074 107.659 22.074 108.081 22.074C109.748 22.0523 111.437 22.0523 113.125 22.0523Z" fill="white"/>
<path d="M89.727 24.1814C89.727 24.3335 89.727 24.4422 89.727 24.5508C89.727 25.6154 89.727 26.68 89.727 27.7446C89.727 29.0916 90.5936 29.9389 91.9713 29.9389C95.8821 29.9389 99.8152 29.9389 103.726 29.9389C104.348 29.9389 104.259 29.8737 104.282 30.4821C104.282 30.8949 104.259 31.3077 104.282 31.7422C104.304 32.0247 104.193 32.0898 103.926 32.0898C102.637 32.0681 101.348 32.0898 100.06 32.0898C97.1931 32.0898 94.3267 32.0464 91.438 32.1116C89.3937 32.155 87.5716 30.6342 87.3494 28.744C87.3271 28.5702 87.3271 28.3746 87.3271 28.2008C87.3271 25.0288 87.3271 21.8567 87.3271 18.6847C87.3271 16.4469 89.0604 14.7522 91.3491 14.7522C95.5266 14.7522 99.7041 14.7522 103.904 14.7522C104.193 14.7522 104.304 14.8174 104.304 15.1215C104.282 15.6213 104.282 16.1427 104.304 16.6424C104.304 16.8162 104.237 16.9031 104.059 16.9031C103.97 16.9031 103.882 16.9031 103.77 16.9031C99.8374 16.9031 95.8821 16.9031 91.949 16.9031C90.8158 16.9031 90.0159 17.4897 89.7936 18.5543C89.7492 18.7281 89.7492 18.9237 89.7492 19.0975C89.7492 19.9665 89.7492 20.8573 89.7492 21.7264C89.7492 22.0305 89.8381 22.0957 90.127 22.0957C93.9045 22.0957 97.682 22.0957 101.459 22.0957C101.859 22.0957 101.859 22.0957 101.859 22.4868C101.859 22.9648 101.837 23.421 101.859 23.899C101.882 24.1814 101.793 24.2683 101.504 24.2683C97.9486 24.2683 94.3933 24.2683 90.838 24.2683C90.4603 24.1814 90.1269 24.1814 89.727 24.1814Z" fill="white"/>
<path d="M124.102 29.9606C124.28 29.9606 124.414 29.9606 124.547 29.9606C128.48 29.9606 132.413 29.9606 136.346 29.9606C137.679 29.9606 138.546 29.1785 138.613 27.8749C138.635 27.2666 138.635 26.6582 138.59 26.0499C138.524 24.9853 137.635 24.1814 136.546 24.1814C133.568 24.1814 130.569 24.1814 127.591 24.1814C126.902 24.1814 126.236 24.0728 125.636 23.7252C124.436 23.0734 123.636 22.1392 123.547 20.7704C123.48 19.771 123.458 18.7716 123.591 17.7939C123.836 16.0558 125.502 14.7087 127.369 14.7087C131.413 14.687 135.435 14.7087 139.479 14.687C139.701 14.687 139.79 14.7522 139.79 14.9912C139.768 15.4692 139.768 15.9689 139.79 16.4468C139.79 16.7076 139.701 16.7945 139.435 16.7945C135.657 16.7945 131.88 16.7945 128.102 16.7945C127.324 16.7945 126.658 17.0986 126.213 17.7504C125.725 18.4674 125.725 20.3576 126.258 21.0528C126.702 21.6612 127.324 21.9436 128.102 21.9436C131.035 21.9436 133.991 21.9436 136.924 21.9436C137.657 21.9436 138.324 22.074 138.946 22.4216C140.257 23.182 140.968 24.2901 140.99 25.7892C141.012 26.5931 140.99 27.3969 140.99 28.2008C140.968 30.2865 139.257 32.0246 137.102 32.0246C132.857 32.0464 128.635 32.0246 124.391 32.0246C124.169 32.0246 124.08 31.9812 124.08 31.7422C124.102 31.199 124.102 30.6124 124.102 29.9606Z" fill="white"/>
<path d="M46.7969 37C46.0636 37 45.3748 37 44.6859 37C44.6193 37 44.5526 36.9131 44.5304 36.8479C44.5082 36.761 44.5304 36.6741 44.5304 36.5655C44.5304 30.9601 44.5304 25.333 44.5304 19.7276C44.5304 19.293 44.5304 19.293 44.997 19.293C47.9968 19.293 50.9966 19.293 53.9742 19.293C55.1074 19.293 56.0851 19.6624 56.9073 20.4445C57.5517 21.0746 57.8628 21.835 57.8628 22.7258C57.8628 24.7029 57.885 26.68 57.8628 28.6354C57.8628 30.4821 56.2851 32.0247 54.3075 32.0681C52.4409 32.1116 50.5744 32.0899 48.7301 32.0899C48.219 32.0899 47.6857 32.0899 47.1746 32.0899C46.908 32.0899 46.8413 32.1768 46.8413 32.4158C46.8413 33.828 46.8413 35.2185 46.8413 36.6307C46.7969 36.7393 46.7969 36.8479 46.7969 37ZM46.7969 25.6371C46.7969 27.0059 46.7969 28.3529 46.7969 29.7217C46.7969 29.9389 46.8191 30.0693 47.0858 30.0693C49.2856 30.0693 51.4855 30.091 53.7075 30.0693C54.6852 30.0693 55.5074 29.2437 55.5074 28.3095C55.5296 26.5496 55.5296 24.7898 55.5074 23.03C55.5074 22.7692 55.3963 22.4868 55.263 22.2478C54.8408 21.5091 54.1297 21.2701 53.3075 21.2701C51.2632 21.2701 49.2189 21.2701 47.1524 21.2701C46.8636 21.2701 46.7747 21.357 46.7747 21.6395C46.7969 22.9865 46.7969 24.3118 46.7969 25.6371Z" fill="white"/>
<path d="M66.4621 26.8538C64.7511 26.8538 63.0401 26.8538 61.3069 26.8538C60.9958 26.8538 60.8847 26.9407 60.9069 27.2449C60.9291 27.8315 60.9069 28.3964 60.9069 28.983C60.9069 29.7217 61.3291 30.1562 62.1068 30.1562C63.44 30.1562 64.7733 30.1562 66.1065 30.1562C67.5509 30.1562 68.9952 30.1562 70.4396 30.1562C70.7062 30.1562 70.7729 30.2214 70.7729 30.4821C70.7506 30.9384 70.7506 31.3729 70.7729 31.8291C70.7729 32.0247 70.7062 32.0899 70.5062 32.0899C67.5064 32.0899 64.5066 32.0899 61.5291 32.0681C60.218 32.0681 59.0403 31.1991 58.7515 30.091C58.6848 29.8303 58.6626 29.5696 58.6626 29.3089C58.6626 27.158 58.6626 25.0071 58.6626 22.8344C58.6626 21.0094 60.0625 19.4886 61.929 19.3365C62.4846 19.293 63.0401 19.293 63.5734 19.293C65.2844 19.293 66.9953 19.2713 68.6841 19.3365C70.2396 19.4017 71.6172 20.5966 71.9283 22.0305C71.9728 22.2478 71.9728 22.4868 71.995 22.7258C71.995 23.9642 71.995 25.2026 71.995 26.441C71.995 26.7669 71.8839 26.8321 71.5728 26.8321C69.8618 26.8321 68.173 26.8538 66.4621 26.8538ZM65.2844 24.8333C66.6176 24.8333 67.9731 24.8333 69.3063 24.8333C69.5729 24.8333 69.684 24.7681 69.6618 24.4856C69.6396 24.0511 69.6618 23.6383 69.6618 23.2038C69.6618 22.1826 68.8841 21.3353 67.8397 21.3136C66.151 21.2701 64.44 21.2701 62.7512 21.3136C61.7068 21.3353 60.9291 22.1609 60.9069 23.182C60.8847 23.6166 60.9069 24.0511 60.9069 24.4856C60.9069 24.7463 60.9958 24.8115 61.2624 24.8115C62.5957 24.8332 63.9511 24.8333 65.2844 24.8333Z" fill="white"/>
<path d="M86.3051 27.0494C86.3051 28.6137 86.3051 30.1562 86.3051 31.7205C86.3051 32.003 86.2384 32.0899 85.9496 32.0899C85.4163 32.0681 84.883 32.0681 84.3497 32.0899C84.0608 32.1116 83.9941 32.003 83.9941 31.7422C83.9941 28.9613 83.9941 26.1803 83.9941 23.4211C83.9941 22.1826 83.3275 21.3788 82.0832 21.3353C80.35 21.2701 78.639 21.2701 76.9058 21.3353C75.7503 21.3788 75.0614 22.1826 75.0614 23.3124C75.0614 25.6589 75.0614 27.9836 75.0614 30.33C75.0614 30.808 75.0614 31.286 75.0614 31.764C75.0614 31.9812 75.017 32.0681 74.7726 32.0681C74.1948 32.0464 73.6171 32.0464 73.0171 32.0681C72.8172 32.0681 72.7505 32.003 72.7505 31.8074C72.7505 28.744 72.7505 25.6806 72.7505 22.6172C72.7505 21.0094 74.1282 19.5972 75.8169 19.3365C76.0614 19.293 76.2836 19.2713 76.528 19.2713C78.5279 19.2713 80.5277 19.2496 82.5276 19.2713C83.883 19.2713 84.9719 19.8579 85.7496 20.9442C86.0829 21.4005 86.2384 21.9002 86.2607 22.4651C86.3051 23.9859 86.3051 25.5285 86.3051 27.0494Z" fill="white"/>
<path d="M43.1526 23.3124C43.1526 24.8984 43.1748 26.5062 43.1526 28.0922C43.1304 29.8955 41.8416 31.4381 40.0417 31.8291C39.775 31.8943 39.4862 31.916 39.2195 31.916C39.0195 31.916 38.8418 31.916 38.6418 31.916C36.2197 31.9812 33.7977 31.916 31.3756 31.9378C30.6646 31.9378 29.9757 31.9378 29.2647 31.9378C28.7758 31.9378 28.3092 31.9378 27.8426 31.7857C26.4204 31.3729 25.4649 30.4604 25.0427 29.0482C24.9539 28.744 24.9094 28.4181 24.9094 28.0705C24.9094 27.7011 24.9094 27.31 24.9094 26.9407C24.9094 24.4204 24.9094 21.9002 24.9094 19.3799C24.9094 18.9671 24.9094 18.5543 24.9316 18.1415C24.9761 17.4245 25.2205 16.751 25.6649 16.1644C26.3093 15.2954 27.1759 14.7957 28.2425 14.6218C28.6203 14.5567 29.0202 14.6001 29.4202 14.5784C30.7312 14.5132 32.0423 14.5567 33.3755 14.5567C34.6865 14.5567 36.0198 14.5567 37.3308 14.5567C37.9974 14.5567 38.6418 14.5349 39.3084 14.5567C40.3083 14.5784 41.175 14.926 41.886 15.5778C42.5304 16.1644 42.9526 16.8597 43.0859 17.7287C43.1304 17.9894 43.1526 18.2502 43.1526 18.4891C43.1526 20.1186 43.1526 21.7264 43.1526 23.3124ZM34.1088 29.852C35.4865 29.852 36.8641 29.852 38.2418 29.852C38.5307 29.852 38.8196 29.8303 39.0862 29.8086C39.6639 29.7217 40.1306 29.4827 40.4861 29.0264C40.7083 28.7223 40.8639 28.3964 40.8861 28.027C40.8861 27.8315 40.8861 27.6359 40.8861 27.4404C40.8861 26.9842 40.8861 26.5062 40.8639 26.0499C40.8639 25.7023 40.8416 25.3764 40.8416 25.0288C40.8416 24.6377 40.8194 24.2249 40.8194 23.8338C40.8194 23.4862 40.7972 23.1169 40.7972 22.7692C40.7972 22.3782 40.775 22.0088 40.775 21.6177C40.775 21.2484 40.7528 20.9008 40.7528 20.5314C40.7528 20.0317 40.7528 19.5103 40.7305 19.0106C40.7305 18.7933 40.7083 18.5978 40.6861 18.3805C40.6194 17.9243 40.4194 17.5332 40.0639 17.229C39.6639 16.8597 39.1751 16.6859 38.6196 16.6641C38.5529 16.6641 38.464 16.6859 38.3974 16.6859C38.264 16.6859 38.1307 16.6859 37.9974 16.6859C37.4641 16.6859 36.953 16.6859 36.4197 16.6859C34.1754 16.6859 31.9312 16.6859 29.6646 16.6859C29.4202 16.6859 29.1758 16.7076 28.9536 16.7293C28.4425 16.7945 27.9981 16.99 27.6426 17.3594C27.3093 17.707 27.087 18.1198 27.087 18.6195C27.087 19.0106 27.087 19.4234 27.1093 19.8144C27.1093 20.1838 27.1315 20.5531 27.1315 20.9225C27.1315 21.3136 27.1537 21.7046 27.1537 22.1174C27.1537 22.4868 27.1759 22.8561 27.1759 23.2255C27.1759 23.6166 27.1982 23.9859 27.1982 24.377C27.1982 24.7246 27.2204 25.094 27.2204 25.4416C27.2204 25.8327 27.2426 26.2237 27.2426 26.6148C27.2426 26.9407 27.2426 27.2449 27.2426 27.5708C27.2648 27.8315 27.2648 28.0705 27.3315 28.3095C27.5981 29.3741 28.4647 29.852 29.4202 29.8738C29.4647 29.8738 29.4869 29.8303 29.5313 29.8303C29.7535 29.8303 29.9757 29.8303 30.1757 29.8303C31.5312 29.852 32.82 29.852 34.1088 29.852Z" fill="white"/>
<rect width="20.3764" height="35.9571" fill="black" fill-opacity="0"/>
<path d="M3.55531 0C3.73307 0 3.88862 0 4.06638 0C4.0886 0.0217264 4.11082 0.0217264 4.13304 0.0217264C4.35525 0.0434527 4.55524 0.108632 4.77744 0.173811C5.28852 0.369348 5.66627 0.738696 5.97736 1.17322C6.48843 1.84674 6.82174 2.60716 7.06617 3.38931C7.28838 4.08456 7.44392 4.80153 7.57725 5.5185C7.73279 6.25719 7.84389 6.99589 7.93278 7.73459C7.99944 8.36465 8.04388 8.97299 8.08832 9.60305C7.93278 9.86377 7.84389 10.1462 7.75501 10.4287C7.64391 10.7546 7.55503 11.0804 7.51058 11.4281C7.26616 10.6894 7.24394 9.92895 7.26616 9.1468C7.11061 9.45097 6.99951 9.77686 6.91063 10.081C6.91063 9.99413 6.91063 9.90722 6.91063 9.84204C6.91063 9.34234 6.91063 8.84263 6.88841 8.3212C6.84396 7.47387 6.73286 6.62654 6.57732 5.80094C6.39955 4.84498 6.11068 3.93247 5.66627 3.06342C5.44406 2.65062 5.19964 2.25954 4.8441 1.95537C4.51079 1.6512 4.13304 1.43394 3.66641 1.41221C3.02201 1.39049 2.46649 1.60775 1.97764 2.02055C1.66655 2.28127 1.48878 2.65062 1.33324 3.04169C1.08881 3.67176 1.08881 4.34527 1.1777 4.99706C1.2888 5.84439 1.46656 6.66999 1.73321 7.47387C2.31095 9.36406 3.222 11.1239 4.35525 12.7534C4.71078 13.2748 5.11075 13.7528 5.59961 14.1656C5.84403 14.3829 5.97736 14.3611 6.1329 14.0787C6.33289 13.7311 6.46621 13.3617 6.5551 12.9924C6.62176 12.7316 6.68842 12.4709 6.73286 12.2102C6.79952 12.4275 6.82174 12.6447 6.93285 12.862C7.06617 13.1662 7.17727 13.5138 7.51058 13.6876C7.5328 13.7093 7.55503 13.7311 7.53281 13.7745C7.44392 14.0787 7.48836 14.3829 7.55503 14.687C7.62169 15.0129 7.73279 15.3171 7.84389 15.5995C7.91056 15.7951 7.99944 15.9689 8.08832 16.1427C8.02166 15.8385 8.04388 15.5344 8.13276 15.2519C8.19942 14.9477 8.31053 14.6653 8.48829 14.4046C8.35497 15.5126 8.55496 16.5989 8.95493 17.6635C8.95493 17.6201 8.97715 17.6201 8.97715 17.6201C8.97715 17.0552 8.97715 16.4903 9.04381 15.9254C9.08825 15.5778 9.13269 15.2519 9.28824 14.926C9.37712 14.7522 9.466 14.6001 9.64377 14.5132C9.68821 14.4915 9.73265 14.4915 9.75487 14.5567C9.93264 14.9695 10.0882 15.3823 10.1771 15.8168C10.2437 16.0992 10.2882 16.3817 10.2215 16.6858C10.2215 16.7076 10.1993 16.7293 10.2215 16.7293C10.2437 16.7293 10.2659 16.7076 10.2882 16.6858C10.7104 16.1427 11.0214 15.5344 11.1548 14.8608C11.177 14.687 11.1992 14.5132 11.1992 14.3394C11.1992 14.1656 11.1548 14.0135 11.1326 13.8397C11.3325 14.0135 11.5103 14.1873 11.6658 14.4046C11.9769 14.7957 12.2214 15.2085 12.3325 15.6647C12.3991 15.9037 12.4214 16.1427 12.3991 16.4034C12.3769 16.5555 12.3325 16.6858 12.3325 16.8379C12.3325 16.8379 12.3325 16.8597 12.3102 16.8597V16.8379C12.3325 16.8162 12.3547 16.7945 12.3547 16.751C12.5547 16.3382 12.7102 15.9254 12.8435 15.4909C12.9546 15.0998 13.0213 14.7088 13.0213 14.2959C13.0213 14.2525 13.0213 14.209 12.9991 14.1439C13.088 14.1873 13.1324 14.2525 13.1769 14.3177C13.3546 14.5349 13.3991 14.7957 13.4657 15.0781C13.5102 15.2519 13.5324 15.4474 13.5546 15.6213C13.599 15.5344 13.6213 15.4474 13.6657 15.3823C13.8213 14.8826 13.9101 14.3829 13.8435 13.8614C13.8213 13.6224 13.7324 13.4052 13.599 13.2096C13.5546 13.1662 13.5768 13.1227 13.599 13.0793C13.6657 12.9489 13.7324 12.8403 13.7768 12.6882C13.7768 12.7099 13.7768 12.7099 13.799 12.7316C13.9101 13.2096 14.0657 13.6659 14.2879 14.1004C14.4657 14.4046 14.599 14.4263 14.8656 14.1873C15.1767 13.9266 15.4434 13.6224 15.71 13.2965C16.4877 12.3188 17.1099 11.2325 17.6654 10.1028C18.332 8.734 18.8209 7.30006 19.1098 5.82267C19.2431 5.14915 19.332 4.47563 19.2431 3.78039C19.1764 3.2155 18.9764 2.7158 18.6209 2.25954C18.2876 1.84674 17.821 1.62948 17.2877 1.49912C16.7322 1.36876 16.2211 1.47739 15.7545 1.80329C15.4878 1.99883 15.2656 2.23782 15.0656 2.49853C14.6656 3.08514 14.3768 3.73694 14.1546 4.38873C13.9324 5.06224 13.7768 5.75749 13.6879 6.45273C13.6213 6.97416 13.5546 7.4956 13.5102 8.01703C13.4879 8.25602 13.4657 8.51674 13.4657 8.75573C13.4435 9.16853 13.4435 9.5596 13.4657 9.9724C13.4657 10.2548 13.5102 10.559 13.5102 10.8415C13.4435 10.6894 13.3991 10.5373 13.3324 10.3852C13.288 10.2983 13.2435 10.1897 13.2213 10.1028C13.2435 10.3635 13.2213 10.6242 13.2213 10.8849C13.2213 11.1456 13.1769 11.3846 13.088 11.6236C12.9991 11.8409 12.888 12.0147 12.6436 12.1016C12.5769 12.1233 12.5325 12.1233 12.5102 12.0364C12.4436 11.8409 12.4436 11.6671 12.4658 11.4715C12.5102 11.1891 12.6436 10.9501 12.7991 10.7111C12.8213 10.6894 12.8435 10.6676 12.8213 10.6459C12.7991 10.6242 12.7769 10.6242 12.7547 10.6242C12.5547 10.6242 12.3769 10.6894 12.1991 10.7546C12.2658 10.0159 12.3102 9.27716 12.3769 8.56019C12.4436 7.82149 12.5325 7.06107 12.6658 6.32237C12.8435 5.1926 13.1324 4.08456 13.5102 2.99824C13.799 2.21609 14.1546 1.47739 14.7323 0.869055C15.3545 0.195537 16.1322 -0.0217264 17.021 0.0869055C17.7543 0.195537 18.3987 0.521433 18.932 1.02114C19.7986 1.80329 20.1541 2.8027 20.2208 3.93247C20.2208 4.21491 20.2208 4.49736 20.2208 4.7798C20.2208 5.04052 20.1986 5.32296 20.1541 5.58368C20.043 6.40928 19.8653 7.21315 19.6208 7.9953C18.9987 9.95068 18.1543 11.8191 17.1766 13.6224C17.021 13.9049 16.8655 14.1656 16.7099 14.4263C16.5988 14.6218 16.6211 14.7305 16.7766 14.8608C16.7988 14.8826 16.821 14.8826 16.8433 14.9043C17.1099 15.0998 17.3321 15.3388 17.5321 15.5778C17.9543 16.121 18.2209 16.7293 18.3765 17.4028C18.4876 17.9025 18.5543 18.424 18.5098 18.9237C18.4876 19.3147 18.4432 19.7058 18.3987 20.0969C18.3543 20.5314 18.2876 20.9659 18.2432 21.4005C18.1765 21.9436 18.0876 22.4651 18.021 23.0082C17.9321 23.7035 17.7988 24.377 17.6876 25.0722C17.5765 25.724 17.4654 26.3758 17.3543 27.0276C17.2655 27.4839 17.221 27.9618 17.1099 28.4181C16.9099 29.3089 16.5766 30.1779 16.2433 31.0253C16.2211 31.0035 16.2211 30.9818 16.1989 30.9383C16.1544 30.808 16.11 30.6994 16.0433 30.569C15.6211 29.7217 15.0878 28.9612 14.4434 28.2877C13.9101 27.7228 13.288 27.2449 12.6213 26.8321C11.8881 26.3975 11.1326 26.0716 10.2659 25.9847C9.66599 25.9196 9.08825 26.0065 8.53274 26.2455C7.88834 26.5062 7.35504 26.8755 6.84396 27.3318C6.17734 27.9401 5.59961 28.5919 5.11075 29.3523C4.71078 29.9607 4.39969 30.6124 4.19971 31.286C4.11082 31.5901 4.06638 31.8943 3.99972 32.1985C3.9775 32.2637 3.95528 32.3288 3.93306 32.4157C3.91084 32.394 3.91084 32.3723 3.88862 32.3506C3.59975 31.6988 3.31088 31.047 3.06645 30.3952C2.84424 29.852 2.64426 29.2871 2.51094 28.7005C2.35539 28.0487 2.33317 27.3535 2.28873 26.68C2.26651 26.2672 2.22207 25.8326 2.19985 25.4198C2.17762 25.0722 2.11096 24.7029 2.08874 24.3553C2.0443 23.899 2.02208 23.421 1.99986 22.943C1.97764 22.3999 1.91098 21.8567 1.86654 21.3136C1.82209 20.8139 1.77765 20.3359 1.73321 19.8362C1.68877 19.293 1.71099 18.7716 1.82209 18.2501C2.0443 17.2942 2.48871 16.4469 3.13311 15.6864C3.31088 15.4909 3.48864 15.2954 3.68863 15.1215C3.82195 15.0129 3.82195 14.926 3.75529 14.7739C3.73307 14.7522 3.73307 14.7305 3.71085 14.687C3.02201 13.5138 2.39983 12.3188 1.84432 11.1022C1.15547 9.58133 0.555517 8.03876 0.244427 6.40928C0.133324 5.82267 0.0444413 5.21433 0.0222207 4.60599C0.0222207 4.58426 0.0444413 4.56254 0 4.54081C0 4.4539 0 4.367 0 4.28009C0.0222207 4.28009 0.0222207 4.25837 0.0222207 4.23664C0.0222207 4.0411 0.0444413 3.86729 0.066662 3.67176C0.133324 3.08514 0.288869 2.52026 0.555517 1.99883C1.06659 0.999413 1.9332 0.412801 3.02201 0.108632C3.24422 0.0434527 3.39976 0.0217264 3.55531 0ZM12.9991 24.0076C13.088 24.0076 13.1769 24.0076 13.2435 24.0076C13.3324 24.0076 13.4213 23.9859 13.4879 23.9859C14.6212 23.8121 15.5767 23.3341 16.3766 22.5302C16.9099 21.9871 17.0877 21.357 16.8655 20.64C16.5766 19.7275 15.9989 19.0323 15.1767 18.5326C14.7101 18.2501 14.1768 18.2067 13.6657 18.3588C13.2657 18.4891 12.9102 18.7064 12.6213 19.0106C11.9103 19.7058 11.4659 20.5314 11.2437 21.4874C11.0881 22.1826 11.1992 22.8561 11.5325 23.4862C11.6881 23.7904 11.9325 23.9642 12.288 24.0076C12.5102 24.0294 12.7547 23.9859 12.9991 24.0076ZM7.68835 24.0294C7.75501 24.0294 7.79945 24.0294 7.84389 24.0294C8.22165 24.0294 8.55496 23.9207 8.77716 23.5731C8.99937 23.2038 9.13269 22.8127 9.17713 22.3999C9.22158 21.9219 9.11047 21.4656 8.97715 21.0094C8.64384 19.9014 7.99944 19.0323 6.93285 18.4674C6.57732 18.2719 6.19957 18.185 5.79959 18.2719C5.24408 18.4022 4.82188 18.7064 4.42191 19.0757C3.99972 19.4886 3.71085 19.9665 3.51086 20.5097C3.26644 21.1398 3.35532 21.7264 3.77751 22.2695C4.02194 22.5954 4.33303 22.8561 4.66634 23.0734C5.57739 23.7469 6.62176 23.9859 7.68835 24.0294Z" fill="#563A39"/>
<path d="M16.3767 30.9818C16.3989 31.1122 16.4433 31.2642 16.4655 31.3946C16.6433 32.2854 16.4211 33.111 15.8656 33.828C15.1767 34.7405 14.2657 35.3271 13.1769 35.6747C12.6214 35.8485 12.0658 35.9137 11.4881 35.9354C11.4659 35.9354 11.4214 35.9137 11.3992 35.9571C10.9548 35.9571 10.5326 35.9571 10.0882 35.9571C10.066 35.9354 10.0438 35.9354 10.0215 35.9354C9.26604 35.9137 8.53276 35.8702 7.77726 35.7399C7.15508 35.6312 6.5329 35.4792 5.95516 35.2184C4.71081 34.6318 4.08863 33.6541 4.08863 32.3071C4.08863 32.2637 4.11085 32.2202 4.06641 32.1768C4.13307 31.8726 4.17751 31.5684 4.26639 31.2642C4.46638 30.569 4.77747 29.9172 5.17744 29.3306C5.66629 28.5919 6.26625 27.9184 6.91065 27.31C7.39951 26.8538 7.95502 26.4844 8.59942 26.2237C9.15494 26.0065 9.73268 25.9196 10.3326 25.963C11.1992 26.0499 11.9547 26.3541 12.688 26.8103C13.3546 27.2231 13.9768 27.7011 14.5101 28.266C15.1545 28.9613 15.71 29.6999 16.11 30.5473C16.1767 30.6559 16.2211 30.7863 16.2656 30.9166C16.3322 30.9166 16.3322 30.9601 16.3767 30.9818ZM14.4435 32.7634C14.4212 32.7634 14.399 32.7851 14.3546 32.8068C13.7991 33.2196 13.2213 33.589 12.5769 33.8714C11.5992 34.2842 10.5993 34.3928 9.55491 34.1973C8.6883 34.0452 7.88836 33.7193 7.11064 33.3282C6.77733 33.1544 6.44402 32.9806 6.11071 32.8068C6.11071 32.8503 6.15515 32.872 6.17737 32.9154C6.91065 33.8062 7.84392 34.458 8.95495 34.8274C9.82156 35.1098 10.7104 35.175 11.6214 34.936C12.6658 34.6536 13.4657 34.0669 14.1101 33.2413C14.2657 33.0893 14.3768 32.9372 14.4435 32.7634ZM14.7323 30.0693C14.7545 29.9389 14.7101 29.8303 14.6212 29.7217C14.4879 29.5261 14.2879 29.3741 14.0879 29.2437C13.6435 28.9395 13.0658 29.0047 12.7102 29.3523C12.488 29.5696 12.4214 29.852 12.3992 30.1345C12.3769 30.6559 12.1992 31.1556 11.9103 31.5901C11.7548 31.8291 11.5992 32.0681 11.4214 32.3071C11.3103 32.4375 11.3548 32.5678 11.5103 32.6547C11.6214 32.7199 11.7325 32.6982 11.8436 32.6547C12.5991 32.3288 13.3324 31.9595 13.9768 31.4598C14.4435 31.0904 14.7101 30.6559 14.7323 30.0693ZM6.19959 30.2648C6.19959 30.4604 6.24403 30.6342 6.35514 30.808C6.57734 31.1991 6.93287 31.4815 7.2884 31.7205C7.77726 32.0464 8.31055 32.3071 8.84385 32.5678C8.95495 32.6113 9.06606 32.6547 9.17716 32.6765C9.31048 32.7199 9.39937 32.6547 9.48825 32.5896C9.55491 32.5461 9.57713 32.4809 9.53269 32.394C9.48825 32.3071 9.44381 32.2419 9.37715 32.1768C9.35492 32.155 9.31048 32.1116 9.31048 32.0681C9.31048 32.0029 9.28826 31.9595 9.24382 31.916C9.19938 31.8726 9.17716 31.8291 9.13272 31.7857C8.73275 31.2642 8.55498 30.6776 8.51054 30.0476C8.4661 29.3741 7.91058 28.9395 7.2884 29.0264C6.68844 29.1568 6.19959 29.6782 6.19959 30.2648Z" fill="#AF8070"/>
<path d="M20.354 3.86731C20.354 3.86731 20.3762 3.86731 20.354 3.86731C20.3762 4.14975 20.3762 4.4322 20.3762 4.71464C20.354 4.4322 20.354 4.14975 20.354 3.86731Z" fill="#AF8070"/>
<path d="M6.733 12.2103C6.66634 12.471 6.6219 12.7317 6.55524 12.9924C6.44413 13.3618 6.31081 13.7311 6.13304 14.0787C5.9775 14.3612 5.84418 14.3829 5.59975 14.1656C5.11089 13.7528 4.71092 13.2748 4.35539 12.7534C3.22214 11.1239 2.33331 9.3641 1.73335 7.47391C1.48893 6.67003 1.28894 5.84443 1.17784 4.9971C1.08895 4.34531 1.11117 3.67179 1.33338 3.04173C1.4667 2.65065 1.64447 2.30303 1.97778 2.02059C2.46663 1.60779 3.02215 1.39053 3.66655 1.41225C4.13318 1.43398 4.51094 1.65124 4.84425 1.95541C5.19978 2.25958 5.4442 2.65066 5.66641 3.06346C6.11082 3.93251 6.39969 4.84502 6.57746 5.80098C6.733 6.64831 6.82189 7.47391 6.88855 8.32124C6.91077 8.82094 6.93299 9.32065 6.91077 9.84208C6.91077 9.92899 6.88855 10.0159 6.91077 10.0811C6.91077 10.1028 6.88855 10.1463 6.88855 10.168C6.75522 10.646 6.68856 11.1239 6.68856 11.6019C6.68856 11.8192 6.71078 12.0147 6.733 12.2103Z" fill="#348FC0"/>
<path d="M13.6212 10.8197C13.6212 10.5373 13.5989 10.2331 13.5767 9.95068C13.5545 9.53788 13.5545 9.14681 13.5767 8.734C13.5767 8.49501 13.5989 8.2343 13.6212 7.99531C13.6656 7.47388 13.71 6.95244 13.7989 6.43101C13.91 5.73577 14.0434 5.04052 14.2656 4.36701C14.4878 3.69349 14.7766 3.06342 15.1766 2.47681C15.3544 2.21609 15.5988 1.9771 15.8655 1.78157C16.3321 1.43395 16.8209 1.34704 17.3987 1.4774C17.9098 1.60776 18.3764 1.82502 18.7319 2.23782C19.0875 2.67235 19.2652 3.19378 19.3541 3.75867C19.443 4.45391 19.3541 5.12743 19.2208 5.80095C18.9319 7.30006 18.4431 8.71228 17.7764 10.081C17.2209 11.2108 16.5987 12.2754 15.821 13.2748C15.5766 13.6007 15.2877 13.8832 14.9766 14.1656C14.71 14.4046 14.5767 14.3829 14.3989 14.0787C14.1545 13.6442 13.9989 13.1879 13.91 12.7099C13.91 12.6882 13.91 12.6882 13.8878 12.6665C13.9767 12.3406 13.9545 11.993 13.8878 11.6671C13.7989 11.3846 13.71 11.1022 13.6212 10.8197Z" fill="#348FC0"/>
<path d="M13.6213 10.8197C13.7102 11.1022 13.7991 11.3629 13.8435 11.6453C13.9102 11.9712 13.9324 12.3188 13.8435 12.6447C13.7991 12.7751 13.7546 12.9054 13.6658 13.0358C13.6435 13.0793 13.6213 13.101 13.6658 13.1662C13.7991 13.3617 13.888 13.579 13.9102 13.818C13.9768 14.3394 13.888 14.8391 13.7324 15.3388C13.7102 15.4257 13.6658 15.5126 13.6213 15.5778C13.5991 15.404 13.5547 15.2084 13.5324 15.0346C13.488 14.7739 13.4213 14.5132 13.2436 14.2742C13.1991 14.209 13.1325 14.1439 13.0658 14.1004C13.0658 14.1656 13.0658 14.209 13.088 14.2525C13.088 14.6653 13.0214 15.0564 12.9103 15.4474C12.7769 15.882 12.6214 16.2948 12.4214 16.7076C12.3992 16.7293 12.3992 16.751 12.377 16.7945C12.377 16.6424 12.4214 16.512 12.4436 16.3599C12.4658 16.0992 12.4436 15.8602 12.377 15.6212C12.2659 15.1433 11.9992 14.7305 11.7103 14.3611C11.5548 14.1656 11.3548 13.97 11.177 13.7962C11.1993 13.97 11.2437 14.1221 11.2437 14.2959C11.2437 14.4697 11.2437 14.6436 11.1993 14.8174C11.0882 15.4909 10.7549 16.0992 10.3327 16.6424C10.3104 16.6641 10.3104 16.6858 10.266 16.6858C10.2438 16.6858 10.2438 16.6641 10.266 16.6424C10.3327 16.3599 10.2882 16.0558 10.2216 15.7733C10.1327 15.3388 9.97713 14.926 9.79936 14.5132C9.77714 14.448 9.7327 14.448 9.68826 14.4697C9.51049 14.5567 9.39939 14.7087 9.33273 14.8825C9.1994 15.2084 9.13274 15.5343 9.0883 15.882C9.02164 16.4468 8.99942 17.0117 9.02164 17.5766C9.02164 17.5766 9.02164 17.5983 8.99942 17.6201C8.59945 16.5555 8.39946 15.4909 8.53278 14.3611C8.35502 14.6218 8.24392 14.9043 8.17725 15.2084C8.11059 15.5126 8.08837 15.7951 8.13281 16.0992C8.02171 15.9254 7.95505 15.7299 7.88838 15.5561C7.77728 15.2519 7.66618 14.9477 7.59952 14.6436C7.53285 14.3394 7.48841 14.0352 7.5773 13.7311C7.5773 13.6876 7.5773 13.6659 7.55507 13.6441C7.22176 13.4703 7.11066 13.1227 6.97734 12.8185C6.88845 12.623 6.84401 12.384 6.77735 12.1668C6.75513 11.9712 6.73291 11.7757 6.73291 11.5801C6.73291 11.1022 6.79957 10.6242 6.9329 10.1462C6.9329 10.1245 6.95512 10.081 6.95512 10.0593C7.06622 9.75513 7.1551 9.45096 7.31065 9.12506C7.28843 9.90721 7.31065 10.6676 7.55507 11.4063C7.59952 11.0587 7.6884 10.7328 7.7995 10.4069C7.88838 10.1245 7.99949 9.84203 8.13281 9.58131C8.13281 9.60304 8.13281 9.62477 8.13281 9.64649L8.11059 9.66822C8.06615 9.88548 8.06615 10.1027 8.11059 10.2983C8.13281 10.4069 8.13281 10.5155 8.19947 10.6242C8.24392 10.8632 8.35502 11.1022 8.48834 11.3412C8.64389 10.8849 8.82165 10.4504 8.66611 9.97239C8.79943 10.081 8.91054 10.2114 9.02164 10.3417C9.15496 10.5373 9.31051 10.7328 9.42161 10.9501C9.53271 11.1456 9.59938 11.3411 9.68826 11.5367C9.77714 11.037 9.95491 10.559 10.1993 10.081C10.266 10.6459 10.3993 11.1673 10.666 11.667C10.7326 11.5801 10.7993 11.4932 10.8437 11.4063C11.0659 11.0153 11.177 10.6025 11.0882 10.1679C11.0659 10.081 11.0215 9.99412 11.0215 9.90721H11.0437C11.3104 10.32 11.5104 10.7763 11.6659 11.2542C11.7103 11.1456 11.777 11.0804 11.8437 10.9935C11.977 10.8632 12.1325 10.7328 12.3103 10.6676C12.4881 10.6025 12.6658 10.5373 12.8658 10.5373C12.888 10.5373 12.9325 10.5155 12.9325 10.559C12.9325 10.5807 12.9103 10.6025 12.9103 10.6242C12.7547 10.8632 12.6214 11.1022 12.5769 11.3846C12.5547 11.5801 12.5547 11.7757 12.6214 11.9495C12.6436 12.0364 12.688 12.0364 12.7547 12.0147C12.9991 11.9278 13.1102 11.754 13.1991 11.5367C13.288 11.2977 13.3324 11.0587 13.3324 10.798C13.3324 10.5373 13.3324 10.2766 13.3324 10.0158C13.3769 10.1027 13.4213 10.2114 13.4436 10.2983C13.488 10.5373 13.5547 10.6894 13.6213 10.8197Z" fill="#060707"/>
<path d="M12.9992 24.0077C12.7548 24.0077 12.5326 24.0511 12.2881 24.0077C11.9326 23.9642 11.6882 23.7904 11.5326 23.4862C11.1993 22.8562 11.0882 22.1826 11.2438 21.4874C11.466 20.5314 11.9104 19.7058 12.6214 19.0106C12.9103 18.7281 13.2658 18.4892 13.6658 18.3588C14.1991 18.185 14.7102 18.2284 15.1768 18.5326C15.999 19.0323 16.5767 19.7276 16.8656 20.6401C17.0878 21.357 16.91 21.9871 16.3767 22.5303C15.5768 23.3341 14.6213 23.8121 13.488 23.9859C13.3992 24.0077 13.3103 24.0077 13.2436 24.0077C13.1547 24.0077 13.0881 24.0077 12.9992 24.0077ZM13.3103 23.8556C13.4658 23.8556 13.5991 23.8556 13.7325 23.8338C14.3102 23.7035 14.688 23.3341 14.9102 22.8127C14.999 22.6172 15.0657 22.4216 15.0435 22.2044C15.0213 21.9437 14.7991 21.8133 14.5546 21.9219C14.488 21.9437 14.4435 21.9654 14.3769 22.0088C14.3102 22.0523 14.2435 22.074 14.1769 22.0957C13.9325 22.1609 13.7103 22.074 13.5547 21.8567C13.3992 21.6395 13.3992 21.4439 13.5769 21.2484C13.6214 21.1832 13.688 21.1398 13.7547 21.0746C13.9547 20.8573 13.8436 20.5532 13.5547 20.488C13.2436 20.4228 12.9547 20.4445 12.6659 20.5532C12.1326 20.7487 11.7326 21.118 11.5993 21.6612C11.4882 22.0957 11.5548 22.5303 11.7104 22.9431C11.8659 23.3559 12.177 23.6383 12.6214 23.7687C12.8436 23.8338 13.0881 23.8556 13.3103 23.8556Z" fill="white"/>
<path d="M7.68839 24.0293C6.59958 23.9859 5.55521 23.7469 4.64416 23.0951C4.31085 22.8561 3.99976 22.5954 3.75533 22.2912C3.33314 21.7481 3.24426 21.1615 3.48868 20.5314C3.68867 19.9882 3.97754 19.5103 4.39973 19.0975C4.7997 18.7064 5.2219 18.4022 5.77741 18.2936C6.17738 18.2067 6.55514 18.2936 6.91067 18.4891C7.95504 19.054 8.62166 19.9231 8.95497 21.0311C9.08829 21.4874 9.17717 21.9436 9.15495 22.4216C9.13273 22.8344 8.99941 23.2472 8.75498 23.5948C8.555 23.9207 8.22169 24.0293 7.82171 24.0511C7.79949 24.0293 7.75505 24.0293 7.68839 24.0293ZM5.31078 22.1826C5.31078 22.226 5.31078 22.313 5.333 22.3999C5.333 22.465 5.35522 22.5302 5.37744 22.5737C5.53298 23.182 5.91074 23.6165 6.53291 23.7903C6.71068 23.8338 6.91067 23.8338 7.11065 23.8555C7.46618 23.8773 7.77727 23.8121 8.06614 23.6165C8.59944 23.2689 8.88831 22.7909 8.82164 22.1609C8.79942 21.9002 8.57722 21.7046 8.28835 21.9219C8.24391 21.9653 8.17724 21.9871 8.1328 22.0088C7.93282 22.0957 7.75505 22.0957 7.57729 21.9653C7.24398 21.7046 7.22176 21.3787 7.53284 21.0963C7.55507 21.0745 7.59951 21.0528 7.62173 21.0094C7.73283 20.879 7.75505 20.7487 7.64395 20.5966C7.57729 20.4879 7.46618 20.4228 7.33286 20.4228C7.15509 20.401 6.97733 20.401 6.79956 20.4445C5.91074 20.5966 5.28856 21.3135 5.31078 22.1826Z" fill="white"/>
<path d="M12.3547 16.8162C12.3547 16.8379 12.3547 16.8379 12.3547 16.8162C12.3547 16.8379 12.3547 16.8379 12.3547 16.8162Z" fill="#060707"/>
<path d="M14.7323 30.0693C14.71 30.6559 14.4434 31.0904 13.9767 31.4598C13.3323 31.9812 12.5991 32.3506 11.8436 32.6547C11.7325 32.6982 11.6214 32.7199 11.5103 32.6547C11.3547 32.5678 11.3325 32.4592 11.4214 32.3071C11.5991 32.0681 11.7547 31.8291 11.9102 31.5901C12.1991 31.1339 12.3546 30.6559 12.3991 30.1345C12.4213 29.852 12.488 29.5696 12.7102 29.3523C13.0657 29.0047 13.6657 28.9395 14.0879 29.2437C14.2878 29.374 14.4656 29.5261 14.6211 29.7217C14.71 29.8303 14.7545 29.9389 14.7323 30.0693Z" fill="#060707"/>
<path d="M6.19946 30.2648C6.19946 29.6782 6.68832 29.1568 7.28828 29.0699C7.93267 28.9613 8.46597 29.4175 8.51041 30.091C8.55485 30.7211 8.73262 31.3077 9.13259 31.8291C9.17703 31.8726 9.19925 31.916 9.24369 31.9595C9.28814 32.0029 9.31036 32.0464 9.31036 32.1116C9.31036 32.155 9.3548 32.1985 9.37702 32.2202C9.44368 32.2854 9.48812 32.3723 9.53256 32.4375C9.577 32.5027 9.55478 32.5678 9.48812 32.633C9.39924 32.6982 9.31036 32.7416 9.17703 32.7199C9.06593 32.6982 8.95483 32.6547 8.84372 32.6113C8.31043 32.3506 7.77713 32.1116 7.28828 31.764C6.93274 31.5032 6.57721 31.2208 6.35501 30.8514C6.26613 30.6342 6.19946 30.4604 6.19946 30.2648Z" fill="#060707"/>
<path d="M6.15527 32.8286C6.48858 33.0024 6.79967 33.1979 7.1552 33.35C7.93293 33.7411 8.73287 34.0452 9.59948 34.219C10.6438 34.4146 11.6438 34.3059 12.6215 33.8931C13.2659 33.6107 13.8436 33.2414 14.3991 32.8286C14.4214 32.8068 14.4436 32.7851 14.488 32.7851C14.4214 32.9589 14.3103 33.0893 14.1992 33.2414C13.5548 34.067 12.7548 34.6753 11.7104 34.936C10.8216 35.175 9.93279 35.1315 9.04396 34.8274C7.93293 34.458 6.99966 33.828 6.26638 32.9155C6.19971 32.8937 6.15527 32.872 6.15527 32.8286Z" fill="white"/>
<path d="M10.9991 9.95066C10.9991 10.0376 11.0436 10.1245 11.0658 10.2114C11.1325 10.6459 11.0436 11.0587 10.8214 11.4498C10.7769 11.5367 10.7103 11.6236 10.6436 11.7105C10.3769 11.2108 10.2436 10.6894 10.177 10.1245C9.93254 10.6025 9.75477 11.0804 9.66589 11.5801C9.59923 11.3846 9.51034 11.1891 9.39924 10.9935C9.28814 10.7763 9.13259 10.5807 8.99927 10.3852C9.26592 10.0158 9.64367 9.79858 10.0881 9.75513C10.1103 9.75513 10.1325 9.75512 10.1547 9.7334C10.2436 9.7334 10.3103 9.7334 10.3992 9.7334C10.5992 9.75512 10.7769 9.79858 10.9547 9.88548C10.9547 9.90721 10.9769 9.92894 10.9991 9.95066Z" fill="#348FC0"/>
<path d="M10.1548 7.9736C9.59924 7.86497 9.37703 7.2349 9.73256 6.80038C9.97699 6.49621 10.4436 6.45275 10.7547 6.69174C11.0658 6.93073 11.1102 7.38699 10.8658 7.69116C10.7325 7.84324 10.5769 7.93015 10.377 7.9736C10.3103 7.99533 10.2214 7.9736 10.1548 7.9736Z" fill="#348FC0"/>
<path d="M10.1548 7.97357C10.2215 7.97357 10.3103 7.9953 10.377 7.97357C10.377 8.495 10.377 9.01644 10.377 9.53787C10.377 9.60305 10.377 9.68995 10.377 9.75513C10.2881 9.75513 10.2215 9.75513 10.1326 9.75513C10.1548 9.16852 10.1548 8.56018 10.1548 7.97357Z" fill="#060707"/>
<path d="M11.8214 11.0587C11.7548 11.1456 11.6881 11.2108 11.6437 11.3194C11.4881 10.8415 11.2659 10.3852 11.0215 9.97241C11.2215 10.0376 11.3548 10.1897 11.4881 10.3418C11.6659 10.5373 11.7548 10.7763 11.8214 11.0153C11.8214 11.037 11.8214 11.037 11.8214 11.0587Z" fill="#348FC0"/>
<path d="M8.15493 10.6894C8.08827 10.5807 8.08827 10.4721 8.06605 10.3635C8.0216 10.1462 8.0216 9.92893 8.06605 9.7334C8.06605 9.71167 8.06605 9.71167 8.08827 9.71167C8.11049 10.0158 8.13271 10.3417 8.15493 10.6894Z" fill="#4B3938"/>
<path d="M8.62169 10.0376C8.62169 10.0376 8.59947 10.0376 8.62169 10.0376C8.59947 10.0159 8.62169 10.0159 8.62169 10.0376C8.62169 10.0376 8.62169 10.0159 8.62169 10.0376Z" fill="#060707"/>
<path d="M13.3101 23.8555C13.0657 23.8555 12.8435 23.8338 12.5991 23.7686C12.1547 23.6383 11.8658 23.3558 11.688 22.943C11.5103 22.5302 11.4658 22.074 11.5769 21.6612C11.7103 21.0963 12.1102 20.7487 12.6435 20.5531C12.9324 20.4445 13.2435 20.4228 13.5323 20.488C13.8212 20.5314 13.9323 20.8356 13.7323 21.0746C13.6879 21.1397 13.6212 21.1832 13.5546 21.2484C13.399 21.4439 13.3768 21.6612 13.5323 21.8567C13.6879 22.0957 13.9101 22.1609 14.1545 22.0957C14.2212 22.074 14.2879 22.0523 14.3545 22.0088C14.399 21.9871 14.4656 21.9436 14.5323 21.9219C14.7767 21.835 14.9767 21.9436 15.0211 22.2043C15.0434 22.4216 14.9767 22.6171 14.8878 22.8127C14.6656 23.3341 14.2879 23.7035 13.7101 23.8338C13.599 23.8555 13.4657 23.8555 13.3101 23.8555Z" fill="#060707"/>
<path d="M5.31079 22.1827C5.31079 21.2919 5.93297 20.5966 6.77736 20.4445C6.95512 20.4228 7.13289 20.4011 7.31065 20.4228C7.44398 20.4445 7.55508 20.488 7.62174 20.5966C7.71062 20.7487 7.71062 20.8791 7.59952 21.0094C7.5773 21.0312 7.53286 21.0746 7.51064 21.0963C7.19955 21.3788 7.22177 21.7047 7.55508 21.9654C7.73284 22.0957 7.91061 22.1175 8.1106 22.0088C8.17726 21.9871 8.2217 21.9437 8.26614 21.9219C8.55501 21.7047 8.77721 21.9002 8.79944 22.1609C8.8661 22.791 8.57723 23.269 8.04393 23.6166C7.75506 23.8121 7.44398 23.8773 7.08844 23.8556C6.88846 23.8339 6.71069 23.8556 6.51071 23.7904C5.88853 23.6166 5.533 23.1821 5.35523 22.5737C5.33301 22.5085 5.33301 22.4651 5.31079 22.3999C5.31079 22.3347 5.31079 22.2478 5.31079 22.1827Z" fill="#060707"/>
</svg>
