<?xml version="1.0" encoding="UTF-8"?>
<svg width="274px" height="74px" viewBox="0 0 274 74" version="1.1" xmlns="http://www.w3.org/2000/svg" xmlns:xlink="http://www.w3.org/1999/xlink">
    <!-- Generator: Sketch 51.2 (57519) - http://www.bohemiancoding.com/sketch -->
    <title>litmus-mule copy</title>
    <desc>Created with Sketch.</desc>
    <defs></defs>
    <g id="Page-1" stroke="none" stroke-width="1" fill="none" fill-rule="evenodd">
        <g id="litmus-mule-copy" transform="translate(0.325536, 0.753085)" fill-rule="nonzero">
            <path d="M260.71,72.52 L20,72.5200391 L28.23,69.86 L33.08,0.5 L260.71,0.5 C263.777531,0.494679033 266.720955,1.71089534 268.89003,3.87997038 C271.059105,6.04904543 272.275321,8.99246926 272.27,12.06 L272.27,61 C272.267355,64.0614179 271.047302,66.9961027 268.878803,69.1570978 C266.710305,71.318093 263.771409,72.5279667 260.71,72.52 Z" id="Shape" stroke="#FFFFFF" fill="#FFFFFF"></path>
            <path d="M205.85,32.07 C205.490974,32.0848254 205.131505,32.0545898 204.78,31.98 L201.13,31.98 C201.04,31.98 200.42,32.07 200.42,32.07 C200.117331,32.0887436 199.818269,32.1458677 199.53,32.24 C198.82,32.33 198.2,32.51 197.53,32.6 C194.59,33.13 191.48,33.49 188.64,32.42 L188.64,45.76 C188.483208,46.4731402 188.680621,47.218095 189.17,47.76 C189.806425,48.4585291 190.715367,48.8454681 191.66,48.82 L202.66,48.82 C203.603623,48.8401909 204.510471,48.454143 205.15,47.76 C205.68457,47.2436049 205.888686,46.4733578 205.68,45.76 L205.68,33 C205.802783,32.7058018 205.860765,32.3886102 205.85,32.07 Z" id="Shape" fill="#F05A2B"></path>
            <path d="M208.6,35.27 L208.6,24.42 C208.554102,23.392248 208.738604,22.367239 209.14,21.42 C209.88293,19.8892839 211.438544,18.9209145 213.14,18.93 C213.836967,18.9380122 214.413252,19.4753013 214.47,20.17 C214.563585,20.8758216 214.096943,21.5343539 213.4,21.68 C213.073368,21.7617798 212.735985,21.7921443 212.4,21.77 C211.930424,21.8193516 211.559352,22.1904237 211.51,22.66 C211.432662,23.1291409 211.402511,23.6048489 211.42,24.08 L211.42,45.94 C211.439084,46.8991542 211.3178,47.8559438 211.06,48.78 C210.460739,51.0038549 208.892643,52.8400334 206.79,53.78 C206.321284,54.0077959 205.798612,54.1012537 205.28,54.05 C201.55,54.32 197.9,54.4 194.17,54.32 C192.57,54.32 190.97,54.23 189.37,54.14 C187.14877,54.0150139 185.140546,52.7777372 184.03,50.85 C183.138699,49.4720858 182.675868,47.8608786 182.7,46.22 L182.7,25.13 C182.715146,24.4620665 182.685077,23.7938735 182.61,23.13 C182.557545,22.3668027 181.95281,21.7578097 181.19,21.7 L181,21.7 C180.619107,21.660323 180.270736,21.4674237 180.034973,21.1656464 C179.799209,20.8638691 179.696335,20.4791755 179.75,20.1 C179.812261,19.7317428 180.023228,19.4052965 180.333402,19.1972532 C180.643575,18.9892098 181.025657,18.9178802 181.39,19 C182.257189,19.0601545 183.089469,19.3653237 183.79,19.88 C184.802008,20.7116483 185.39194,21.9501396 185.4,23.26 C185.57,25.26 185.48,27.35 185.48,29.4 C185.48,34.73 185.48,40.07 185.4,45.4 C185.397271,46.2964501 185.484373,47.1909179 185.66,48.07 C186.05341,49.5181418 187.062319,50.7207908 188.42,51.36 C188.923031,51.5801519 189.472581,51.6728884 190.02,51.63 C193.4,51.81 196.78,51.89 200.16,51.81 C201.58,51.72 203.09,51.72 204.51,51.63 C205.830382,51.4993936 207.014007,50.759628 207.71,49.63 C208.311424,48.773181 208.623262,47.7465699 208.6,46.7 C208.69,42.83 208.6,39.09 208.6,35.27 Z" id="Shape" fill="#020202"></path>
            <path d="M197.31,55.36 L194.2,55.36 C193.2,55.36 192.2,55.27 191.26,55.27 C190.64,55.27 190.02,55.18 189.4,55.18 C186.851125,55.0652297 184.536557,53.659149 183.26,51.45 C182.242678,49.9240273 181.715831,48.1236762 181.75,46.29 L181.75,25 C181.764645,24.4650904 181.73454,23.9298929 181.66,23.4 C181.57,22.96 181.57,22.96 181.13,22.87 C181.003977,22.8739557 180.879335,22.8427953 180.77,22.78 C179.912563,22.6210168 179.205074,22.0166729 178.914039,21.1946187 C178.623004,20.3725645 178.792637,19.4576897 179.359039,18.7946187 C179.925441,18.1315477 180.802563,17.8210168 181.66,17.98 C182.679227,18.0813341 183.657931,18.4316068 184.51,19 C185.732987,20.0129355 186.461499,21.5027436 186.51,23.09 C186.629947,24.6269332 186.659998,26.1695614 186.6,27.71 L186.6,45.4 C186.579385,46.1822306 186.670298,46.9634097 186.87,47.72 C187.191557,48.8638746 188.005017,49.8055831 189.09,50.29 C189.421766,50.4521763 189.793432,50.5146996 190.16,50.47 C193.98,50.65 197.27,50.74 200.29,50.65 L201.29,50.65 C202.36,50.65 203.51,50.56 204.58,50.47 C205.60073,50.3814819 206.505703,49.7781669 206.98,48.87 C207.454656,48.1942914 207.703198,47.3856549 207.69,46.56 L207.69,24.42 C207.673249,23.2334447 207.887214,22.0549391 208.32,20.95 C209.180474,19.0279192 211.104404,17.8043156 213.21,17.84 C214.445683,17.8083098 215.494687,18.739301 215.61,19.97 C215.720678,21.1769349 214.921453,22.2796098 213.74,22.55 C213.509907,22.6189086 213.270009,22.6493183 213.03,22.64 L212.76,22.64 L212.76,22.73 C212.684961,23.1118468 212.654756,23.5011485 212.67,23.89 L212.67,45.76 C212.66909,46.8121136 212.520988,47.8589263 212.23,48.87 C211.526133,51.3705022 209.776178,53.4449271 207.43,54.56 C206.849352,54.8429021 206.204179,54.9671065 205.56,54.92 C202.821804,55.2378244 200.066468,55.3847756 197.31,55.36 Z M181.13,20 C180.95,20 180.77,20.09 180.77,20.27 C180.77,20.45 181.04,20.63 181.13,20.63 L181.31,20.63 C182.583099,20.6727607 183.618635,21.6694643 183.71,22.94 C183.774772,23.5878767 183.801484,24.2389949 183.79,24.89 L183.79,46.2 C183.739106,47.6230568 184.145659,49.0249614 184.95,50.2 C185.857955,51.8379719 187.531988,52.9063432 189.4,53.04 C190.02,53.04 190.64,53.13 191.35,53.13 C192.35,53.13 193.35,53.22 194.29,53.22 C197.958875,53.313794 201.630145,53.223681 205.29,52.95 C205.654171,52.9496328 206.015754,52.8888058 206.36,52.77 C208.19457,51.955162 209.564596,50.3574106 210.09,48.42 C210.354148,47.5863447 210.475854,46.7141207 210.45,45.84 L210.45,24 C210.435355,23.4650904 210.46546,22.9298929 210.54,22.4 C210.697248,21.4918629 211.410991,20.7821288 212.32,20.63 L212.67,20.63 C212.854638,20.6443065 213.039982,20.6134159 213.21,20.54 C213.38,20.54 213.47,20.36 213.47,20.18 C213.46524,20.0367079 213.353011,19.9201618 213.21,19.91 C211.939368,19.8310382 210.749636,20.5369463 210.21,21.69 C209.907163,22.5159551 209.75804,23.3903587 209.77,24.27 L209.77,46.38 C209.79602,47.6635493 209.387209,48.9181771 208.61,49.94 C207.73971,51.3362038 206.251493,52.2291341 204.61,52.34 C203.46,52.43 202.3,52.43 201.23,52.52 L200.23,52.52 C196.819168,52.6352339 193.404667,52.5751547 190,52.34 C189.305262,52.3695797 188.615115,52.2142966 188,51.89 C186.422694,51.1071591 185.249572,49.6943272 184.77,48 C184.540238,47.040187 184.422784,46.0569265 184.42,45.07 L184.42,27.35 C184.42,25.84 184.42,24.42 184.33,23 C184.331124,21.9937932 183.870344,21.0427436 183.08,20.42 C182.523563,20.0420752 181.886731,19.7989834 181.22,19.71 C181.22,20 181.13,20 181.13,20 Z" id="Shape" fill="#020202"></path>
            <polygon id="Shape" fill="#020202" points="66.69 17.31 66.69 50.83 87.23 50.83 87.23 54.92 62.42 54.92 62.42 17.31"></polygon>
            <polygon id="Shape" fill="#020202" points="97 54.92 92.74 54.92 92.74 17.31 97 17.31"></polygon>
            <polygon id="Shape" fill="#020202" points="132.93 21.4 119.77 21.4 119.77 54.92 115.51 54.92 115.51 21.4 102.35 21.4 102.35 17.31 132.84 17.31 132.84 21.4"></polygon>
            <polygon id="Shape" fill="#020202" points="174.9 17.31 174.9 54.92 170.63 54.92 170.63 23.8 156.63 41.67 142.54 23.8 142.54 54.92 138.27 54.92 138.27 17.31 143.27 17.31 156.78 35.18 170 17.31"></polygon>
            <path d="M224.79,23.09 C224.12713,23.6016354 223.629744,24.2972798 223.36,25.09 C223.116784,25.8663741 222.998641,26.6765004 223.01,27.49 C223.034556,28.3981357 223.415293,29.260181 224.07,29.89 C224.899657,30.7063886 225.90048,31.3280605 227,31.71 C228.366383,32.2328222 229.766166,32.6637817 231.19,33 C232.7,33.36 234.3,33.8 235.9,34.16 C237.5,34.52 239.1,35.05 240.61,35.49 C242.075743,35.9933744 243.478386,36.6644953 244.79,37.49 C247.309615,38.9097405 248.846028,41.5984634 248.79,44.49 C248.950551,47.6795651 247.477251,50.7316704 244.88,52.59 C242.21,54.45 238.57,55.34 233.94,55.34 C228.7,55.34 224.7,54.28 221.85,52.05 C219.36,50.05 218.03,47.25 217.67,43.61 L222.12,43.61 C222.238084,46.0859749 223.656815,48.3148656 225.85,49.47 C228.347932,50.7513671 231.134926,51.3645746 233.94,51.25 C240.94,51.25 244.53,49.03 244.53,44.58 C244.561984,43.1530328 243.854894,41.8106963 242.66,41.03 C241.195798,40.0444469 239.571718,39.3203781 237.86,38.89 C235.86,38.36 233.86,37.83 231.63,37.29 C229.522587,36.7902647 227.445796,36.1692306 225.41,35.43 C223.612172,34.7317314 221.978011,33.6695267 220.61,32.31 C219.312823,30.9187171 218.637707,29.05944 218.74,27.16 C218.631782,24.2372595 219.961652,21.4467734 222.3,19.69 C224.613333,17.73 228.17,16.75 232.97,16.75 C237.77,16.75 241.41,17.82 244.08,20.04 C246.390589,21.8476573 247.790866,24.5787454 247.91,27.51 L243.55,27.51 C243.19,24.4 241.15,22.35 237.5,21.29 C235.931333,20.8962378 234.316945,20.7146192 232.7,20.75 C231.07593,20.6879996 229.453064,20.9010007 227.9,21.38 C226.767173,21.7543039 225.712936,22.3339649 224.79,23.09 Z" id="Shape" fill="#020202"></path>
            <polygon id="Shape" fill="#F05A2B" points="92.74 17 97 17 97 40.34 92.74 40.34"></polygon>
            <circle id="Oval" fill="#F05A2B" cx="19.83" cy="23.71" r="3.38"></circle>
            <path d="M25.08,48.69 C24.6044012,48.7351229 24.1255988,48.7351229 23.65,48.69 C22.9980781,48.6193011 22.428001,48.2191145 22.14,47.63 C21.4770254,46.4073482 21.288315,44.9831192 21.61,43.63 C22.0226209,41.7835811 22.9440827,40.0896156 24.27,38.74 C24.8152386,38.1304411 25.5284268,37.6955702 26.32,37.49 C27.2943018,37.1036519 28.3982042,37.239285 29.25,37.85 C30.8281263,38.771994 32.0023446,40.2531508 32.54,42 C32.9892386,43.334325 32.5952245,44.8079378 31.54,45.74 C30.065314,47.3023031 28.1194153,48.3384766 26,48.69 C25.83,48.69 25.65,48.78 25.47,48.78 C25.43,48.69 25.25,48.69 25.08,48.69 Z M25.7,48.34 C25.9697996,48.3541335 26.2400847,48.3237265 26.5,48.25 C27.5616871,48.0229013 28.4332997,47.2682584 28.81,46.25 C28.995566,45.8598576 29.0879937,45.4319513 29.08,45 C28.99,44.47 28.63,44.2 28.08,44.47 C27.99,44.55 27.9,44.55 27.72,44.64 C27.54,44.73 27.46,44.73 27.37,44.82 C26.901707,44.9839601 26.382337,44.8011419 26.12,44.38 C25.8602578,44.0038129 25.8602578,43.5061871 26.12,43.13 C26.2168755,42.9916927 26.3390193,42.8729418 26.48,42.78 C26.6615837,42.5864176 26.7160343,42.3058404 26.6200404,42.0583895 C26.5240465,41.8109386 26.2946265,41.6404837 26.03,41.62 C25.4320133,41.500719 24.8120004,41.5634169 24.25,41.8 C23.2170959,42.1248483 22.4214464,42.9544354 22.14,44 C21.9726932,44.8609032 22.0347699,45.7506691 22.32,46.58 C22.6276747,47.364292 23.2874666,47.9573634 24.1,48.18 C24.612826,48.3603671 25.1599173,48.4219148 25.7,48.36 L25.7,48.34 Z" id="Shape" fill="#FFFFFF"></path>
            <path d="M14.76,48.69 C12.61541,48.707878 10.5184258,48.0578129 8.76,46.83 C8.11746122,46.3870907 7.54737469,45.8473638 7.07,45.23 C6.27986034,44.2189867 6.07863104,42.8673334 6.54,41.67 C6.93729099,40.6107795 7.54250381,39.641759 8.32,38.82 C9.06630089,38.071999 9.9874612,37.5220525 11,37.22 C11.7592472,37.0710822 12.546721,37.1987807 13.22,37.58 C15.1945806,38.647109 16.6416787,40.4813057 17.22,42.65 C17.5110732,43.5360525 17.6331889,44.4688805 17.58,45.4 C17.4852597,46.2223177 17.2122441,47.014063 16.78,47.72 C16.3740171,48.2958893 15.7040857,48.6270914 15,48.6 C14.9353949,48.6611128 14.8488588,48.6935638 14.76,48.69 Z M10.05,45.05 L10.05,45.49 C10.0365326,45.6168638 10.0684163,45.7443989 10.14,45.85 C10.3570726,47.0102613 11.2201449,47.9433125 12.36,48.25 C12.7115052,48.3245898 13.0709739,48.3548254 13.43,48.34 C14.0845108,48.4288896 14.7485058,48.2682457 15.29,47.89 C16.2878559,47.2864837 16.8455528,46.1593899 16.72,45 C16.63,44.47 16.18,44.11 15.65,44.55 C15.56,44.64 15.47,44.73 15.38,44.73 C15.0433803,44.9280319 14.6184137,44.8919498 14.32,44.64 C13.69,44.11 13.6,43.49 14.23,42.95 L14.4,42.78 C14.6453772,42.5837239 14.6856335,42.2258898 14.49,41.98 C14.3446814,41.7764661 14.1188029,41.6453109 13.87,41.62 L12.8,41.62 C11.1686242,41.9656187 10.0137909,43.4228083 10.05,45.09 L10.05,45.05 Z" id="Shape" fill="#FFFFFF"></path>
            <path d="M31.83,63.37 C31.8142593,63.0952692 31.7534479,62.8249967 31.65,62.57 C31.56,62.57 31.56,62.48 31.56,62.39 C31.48,62.12 31.39,61.94 31.3,61.68 C30.4739947,60.0278091 29.4204046,58.4995984 28.17,57.14 C27.1263245,55.9975471 25.9240646,55.0108184 24.6,54.21 C23.2157777,53.3029083 21.6422371,52.7248032 20,52.52 C18.8440827,52.4286334 17.6828704,52.6101799 16.61,53.05 C15.3826308,53.5399601 14.2619384,54.2633161 13.31,55.18 C12.0171634,56.3690925 10.8752802,57.7124846 9.91,59.18 C9.1405524,60.4047423 8.52903688,61.7218527 8.09,63.1 C7.91,63.63 7.82,64.25 7.64,64.88 C7.73,64.97 7.64,65.05 7.64,65.14 C7.53448175,67.6416071 8.99349394,69.9457301 11.3,70.92 C12.4296178,71.4556681 13.6328817,71.8196807 14.87,72 C16.3194905,72.2389308 17.7822074,72.3892099 19.25,72.45 C19.25,72.45 19.34,72.36 19.34,72.45 L22.1,72.45 C23.2215208,72.4085931 24.3334706,72.2271874 25.41,71.91 C27.5145739,71.3052902 29.3624868,70.0265064 30.67,68.27 C31.7466407,66.8810645 32.1696487,65.0942203 31.83,63.37 Z M27.28,67 C26.0942578,68.6715704 24.3547096,69.8690598 22.37,70.38 C20.6712026,70.8965073 18.8488468,70.8331822 17.19,70.2 C15.0508755,69.4687596 13.1640442,68.1438155 11.75,66.38 C11.7008174,66.3316782 11.6691479,66.2683391 11.66,66.2 C12.37,66.56 13,66.91 13.66,67.27 C15.1518613,68.0245126 16.7255286,68.6049911 18.35,69 C20.3336358,69.4224853 22.4002972,69.2018079 24.25,68.37 C25.4905355,67.800839 26.6587817,67.0857918 27.73,66.24 C27.82,66.24 27.82,66.15 27.91,66.15 C27.7489379,66.4665251 27.5359912,66.7538341 27.28,67 Z" id="Shape" fill="#AF8070"></path>
            <path d="M28.45,60.79 C28.4385923,61.8869045 27.8986578,62.9109183 27,63.54 C25.7246104,64.5298294 24.3178138,65.3375594 22.82,65.94 C22.6230059,66.0294202 22.3969941,66.0294202 22.2,65.94 C22.0705617,65.8807786 21.9749358,65.7660875 21.9399555,65.6281099 C21.9049753,65.4901322 21.93441,65.3437356 22.02,65.23 C22.38,64.79 22.64,64.23 23.02,63.81 C23.5728888,62.9225986 23.9149842,61.9202591 24.02,60.88 C24.0104316,60.2862793 24.2328682,59.7122493 24.64,59.28 C25.352865,58.5457177 26.505029,58.4680437 27.31,59.1 C27.688588,59.3847785 28.0252215,59.721412 28.31,60.1 C28.3868066,60.3228427 28.4338794,60.5548442 28.45,60.79 Z" id="Shape" fill="#060707"></path>
            <path d="M11.93,60.06 C12.2147785,59.681412 12.551412,59.3447785 12.93,59.06 C13.734971,58.4280437 14.887135,58.5057177 15.6,59.24 C16.0071318,59.6722493 16.2295684,60.2462793 16.22,60.84 C16.3203821,61.8812643 16.6628297,62.8846361 17.22,63.77 C17.57,64.22 17.84,64.77 18.22,65.19 C18.3028681,65.3051901 18.3317308,65.4506476 18.299123,65.5887513 C18.2665152,65.7268549 18.1756394,65.8440408 18.05,65.91 C17.8475596,65.9896875 17.6224404,65.9896875 17.42,65.91 C15.9268505,65.3000808 14.5239094,64.4892683 13.25,63.5 C12.360193,62.8654514 11.8284441,61.8428573 11.82,60.75 C11.8296661,60.5165006 11.8665831,60.2849304 11.93,60.06 Z" id="Shape" fill="#060707"></path>
            <path d="M11.74,66.3 C12.36,66.66 12.98,67.01 13.69,67.37 C15.1647528,68.1778586 16.7576359,68.7481917 18.41,69.06 C20.3827225,69.4324103 22.4215179,69.2132224 24.27,68.43 C25.508604,67.8630447 26.6737952,67.1478121 27.74,66.3 C27.83,66.3 27.83,66.21 27.92,66.21 C27.7596161,66.5160654 27.5826876,66.8131717 27.39,67.1 C26.2098545,68.768337 24.4777431,69.9655838 22.5,70.48 C20.7973703,70.907131 19.0087274,70.8447365 17.34,70.3 C15.1868933,69.6074927 13.2961446,68.2748986 11.92,66.48 C11.83,66.39 11.74,66.39 11.74,66.3 Z" id="Shape" fill="#FFFFFF"></path>
            <path d="M19.47,16.68 C18.9244016,16.6266383 18.4555432,16.2701407 18.2582752,15.758662 C18.0610071,15.2471833 18.1690603,14.6681814 18.5375295,14.2622804 C18.9059986,13.8563795 19.4718792,13.6929845 20,13.84 C20.26,13.93 20.44,14.02 20.62,14.1 C20.9226201,14.3282617 21.1214167,14.6680408 21.172129,15.0436876 C21.2228413,15.4193344 21.1212595,15.7996646 20.89,16.1 C20.6494978,16.4135605 20.2845033,16.6070077 19.89,16.63 C19.83,16.77 19.65,16.68 19.47,16.68 Z" id="Shape" fill="#F05A2B"></path>
            <polygon id="Shape" fill="#060707" points="19.47 16.68 19.92 16.68 19.92 20.24 19.47 20.24"></polygon>
            <path d="M15.65,22.11 C15.56,21.93 15.56,21.66 15.47,21.48 C15.3796417,21.0716049 15.3796417,20.6483951 15.47,20.24 L15.47,20.15 C15.56,20.77 15.56,21.48 15.65,22.11 Z" id="Shape" fill="#4B3938"></path>
            <path d="M25.7,48.34 C25.2458332,48.368967 24.790423,48.3077925 24.36,48.16 C23.5496919,47.937464 22.8929509,47.3437999 22.59,46.56 C22.2202967,45.7570482 22.1562938,44.8467853 22.41,44 C22.6576288,42.9245549 23.4757176,42.071899 24.54,41.78 C25.1114479,41.5832378 25.7207293,41.5216251 26.32,41.6 C26.5748839,41.6373517 26.7895405,41.8098313 26.8809017,42.0506925 C26.9722628,42.2915536 26.9259938,42.5630051 26.76,42.76 L26.41,43.11 C26.2381296,43.2724494 26.1407411,43.4985064 26.1407411,43.735 C26.1407411,43.9714936 26.2381296,44.1975506 26.41,44.36 C26.6550525,44.7962268 27.184796,44.9842003 27.65,44.8 C27.83,44.71 27.92,44.71 28.01,44.62 C28.1,44.53 28.19,44.53 28.37,44.45 C28.5711366,44.3518256 28.8070921,44.3557521 29.004851,44.4605642 C29.2026098,44.5653764 29.338325,44.7584355 29.37,44.98 C29.409851,45.410066 29.3192496,45.8421648 29.11,46.22 C28.7282566,47.2386267 27.8537553,47.9925071 26.79,48.22 C26.4412139,48.345398 26.0677126,48.3865174 25.7,48.34 Z" id="Shape" fill="#060707"></path>
            <path d="M10.05,45.05 C9.98272378,43.3414994 11.2019236,41.8518432 12.89,41.58 C13.2409676,41.4898299 13.6090324,41.4898299 13.96,41.58 C14.2079975,41.6077721 14.4329431,41.7383857 14.58,41.94 C14.7756335,42.1858898 14.7353772,42.5437239 14.49,42.74 L14.32,42.91 C14.0384714,43.1066656 13.877552,43.4340355 13.8937903,43.7770691 C13.9100286,44.1201027 14.1011527,44.4308078 14.4,44.6 C14.702752,44.8508057 15.1296066,44.8867093 15.47,44.69 C15.56,44.6 15.65,44.6 15.74,44.51 C16.27,44.07 16.74,44.43 16.81,44.96 C16.90172,46.124061 16.3540961,47.2461155 15.38,47.89 C14.8385058,48.2682457 14.1745108,48.4288896 13.52,48.34 C13.1609649,48.3552508 12.801443,48.3250107 12.45,48.25 C11.3088384,47.945477 10.444813,47.0113955 10.23,45.85 C10.23,45.76 10.14,45.58 10.14,45.49 C10.1190602,45.341625 10.0890033,45.1946802 10.05,45.05 Z" id="Shape" fill="#060707"></path>
            <path d="M39.48,8.5 C39.477138,6.3155473 38.5811305,4.22727178 37,2.72 C35.9817513,1.71959767 34.6721761,1.06831162 33.26,0.86 C31.611943,0.508285767 29.9036768,1.08794463 28.81,2.37 C27.7017401,3.59666136 26.8817411,5.05557633 26.41,6.64 C25.6617596,8.80893704 25.0964513,11.0367201 24.72,13.3 C24.4504179,14.7707858 24.2734033,16.2570401 24.19,17.75 C24.01,19.17 23.92,20.68 23.83,22.11 C23.92,22.11 23.92,22.02 24.01,22.02 L23.92,22.02 L21,24.42 L16.47,23.8 L15.94,22.73 C15.76,21.57 15.58,20.24 15.58,19.8 L15.31,16.06 C15.1654154,14.5634332 14.9282949,13.0772558 14.6,11.61 C14.25,10.37 13.98,8.95 13.54,7.61 C13.0624002,6.02752439 12.3403498,4.52943845 11.4,3.17 C10.8496057,2.25075486 10.003427,1.54560596 9,1.17 C8.62612417,0.929506692 8.18278029,0.820430022 7.74,0.86 L6.67,0.86 C6.4,0.94 6.05,0.94 5.78,1 C3.71725474,1.5079357 1.97458667,2.88238312 1,4.77 C0.490354417,5.83682287 0.152842244,6.97761401 0,8.15 L0,9.84 C0.09,9.84 0,9.93 0,9.93 C0.0126634649,11.126117 0.160264,12.316985 0.44,13.48 C1.11658468,16.7031669 2.16353512,19.837307 3.56,22.82 C4.64749341,25.2750776 5.86248194,27.6716758 7.2,30 C7.2,30.09 7.29,30.09 7.29,30.18 C7.47,30.45 7.38,30.62 7.2,30.89 C6.82452477,31.2558361 6.47059645,31.6431539 6.14,32.05 C4.89948225,33.5139297 4.01623934,35.2461813 3.56,37.11 C3.33633489,38.164531 3.24562895,39.2429239 3.29,40.32 L3.56,43.25 C3.65,44.32 3.73,45.38 3.82,46.54 C3.91,47.54 3.91,48.41 4,49.39 L4.27,51.52 C4.36,52.32 4.36,53.21 4.45,54.01 C4.50263193,55.3520056 4.64966195,56.6886421 4.89,58.01 C5.13482387,59.1514346 5.50716085,60.2617367 6,61.32 C6.53,62.65 7.06,63.9 7.6,65.23 C7.60665612,65.2990802 7.6387295,65.363227 7.69,65.41 C7.69801013,65.2724162 7.7147101,65.1354765 7.74,65 C7.91,64.37 8,63.75 8.18,63.22 C8.61747053,61.8349325 9.22902719,60.5110131 10,59.28 C10.9553535,57.8108592 12.0908469,56.4670801 13.38,55.28 C14.3230847,54.3569971 15.4418496,53.6326903 16.67,53.15 C17.7230198,52.713901 18.8631293,52.5290184 20,52.61 C21.6508725,52.8047017 23.2331605,53.383504 24.62,54.3 C25.9413353,55.1004693 27.1403399,56.0872905 28.18,57.23 C29.4240279,58.5866401 30.4709593,60.1115916 31.29,61.76 C31.3650159,62.0053554 31.4551893,62.2458177 31.56,62.48 C31.56,62.57 31.56,62.57 31.65,62.65 C32.3845154,60.995253 32.9474581,59.2695655 33.33,57.5 C33.51,56.61 33.69,55.63 33.78,54.74 C33.96,53.41 34.22,52.16 34.4,50.83 C34.58,49.5 34.85,48.07 35.02,46.74 C35.2,45.67 35.29,44.6 35.47,43.54 C35.5459748,42.6876752 35.6661364,41.8398681 35.83,41 C35.92,40.2 36.01,39.49 36.1,38.69 C36.1857296,37.6819061 36.0943509,36.6665866 35.83,35.69 C35.5932241,34.3351772 35.0111594,33.0642786 34.14,32 C33.7455444,31.5073397 33.2996918,31.0581348 32.81,30.66 L32.72,30.57 C32.37,30.31 32.37,30.13 32.54,29.69 C32.8746034,29.1751974 33.1720261,28.637163 33.43,28.08 C35.3412515,24.4865629 36.950137,20.7403013 38.24,16.88 C38.7214832,15.311015 39.07596,13.7058371 39.3,12.08 C39.3748209,11.5501347 39.404927,11.0149136 39.39,10.48 L39.48,8.48 L39.48,8.5 Z M17.61,45.5 C17.5167049,46.3195191 17.2435302,47.1083113 16.81,47.81 C16.4075489,48.3911312 15.7363756,48.7267179 15.03,48.7 L14.76,48.7 C12.61541,48.717878 10.5184258,48.0678129 8.76,46.84 C8.11746122,46.3970907 7.54737469,45.8573638 7.07,45.24 C6.27986034,44.2289867 6.07863104,42.8773334 6.54,41.68 C6.93729099,40.6207795 7.54250381,39.651759 8.32,38.83 C9.04059587,38.047607 9.97084355,37.4887642 11,37.22 C11.7592472,37.0710822 12.546721,37.1987807 13.22,37.58 C15.1712849,38.6745943 16.6095269,40.497566 17.22,42.65 C17.5214488,43.5651137 17.6536078,44.5275018 17.61,45.49 L17.61,45.5 Z M32.63,41.95 C33.0775806,43.2812841 32.6835136,44.751154 31.63,45.68 C30.1341478,47.2484224 28.161876,48.2785038 26.02,48.61 C25.85,48.61 25.67,48.7 25.49,48.7 L25,48.7 C24.5244012,48.7451229 24.0455988,48.7451229 23.57,48.7 C22.9180781,48.6293011 22.348001,48.2291145 22.06,47.64 C21.3970254,46.4173482 21.208315,44.9931192 21.53,43.64 C21.9442131,41.7891004 22.8692444,40.0914775 24.2,38.74 C24.7323139,38.1414654 25.4271921,37.7106409 26.2,37.5 C27.1776525,37.1137776 28.2844196,37.2493001 29.14,37.86 C30.8313026,38.6609031 32.1008142,40.1450313 32.63,41.94 L32.63,41.95 Z" id="Shape" fill="#563A39"></path>
            <path d="M12.89,25.13 C12.8,25.66 12.63,26.2 12.54,26.64 C12.3706881,27.3998678 12.0694612,28.1241663 11.65,28.78 C11.29,29.31 11.11,29.4 10.58,28.95 C9.63936522,28.1317432 8.82993561,27.1739181 8.18,26.11 C5.89838518,22.9643565 4.18269498,19.444992 3.11,15.71 C2.5759329,14.0868285 2.22049787,12.4102482 2.05,10.71 C1.81186559,9.40226791 1.93282494,8.05443508 2.4,6.81 C2.62406146,6.04072904 3.05670472,5.34849982 3.65,4.81 C4.54817854,4.06099155 5.68049665,3.65052623 6.85,3.65 C7.72147057,3.69338901 8.54530844,4.06072797 9.16,4.68 C9.8168772,5.32261437 10.3581272,6.0735987 10.76,6.9 C11.6160828,8.61304931 12.2158211,10.4425881 12.54,12.33 C12.8,14.02 13.07,15.71 13.16,17.39 C13.25,18.39 13.25,19.44 13.25,20.39 L13.25,21.1 C12.986915,22.043478 12.8655883,23.0208327 12.89,24 C12.804807,24.3718495 12.804807,24.7581505 12.89,25.13 Z" id="Shape" fill="#F05A2B"></path>
            <path d="M26.5,24.6 C26.41,24.24 26.32,22.29 26.23,21.93 C26.14,21.57 26.14,21.13 26.14,20.68 L26.14,18.28 C26.14,17.75 26.23,17.28 26.23,16.86 C26.32,15.79 26.41,14.73 26.59,13.75 C26.7427943,12.3592899 27.0410942,10.9884511 27.48,9.66 C27.9001429,8.31463916 28.495236,7.03031388 29.25,5.84 C29.6238235,5.29995754 30.0753627,4.81809108 30.59,4.41 C31.4029268,3.72922094 32.5009893,3.49686642 33.52,3.79 C34.5193215,4.00455127 35.4235575,4.53377471 36.1,5.3 C36.7869444,6.15635754 37.1921353,7.20426499 37.26,8.3 C37.3926094,9.67227057 37.3014219,11.0569705 36.99,12.4 C36.4546576,15.3878279 35.4949505,18.2837864 34.14,21 C33.0947405,23.2332243 31.8141573,25.3485332 30.32,27.31 C29.8334684,27.9158684 29.2983635,28.481073 28.72,29 C28.19,29.45 27.92,29.45 27.65,28.83 C27.1837701,27.9637272 26.8468649,27.0338688 26.65,26.07 C26.76,26.11 26.68,25.66 26.5,24.6 Z" id="Shape" fill="#F05A2B"></path>
            <path d="M26.32,22.37 C26.5229126,22.9171705 26.6703199,23.4833489 26.76,24.06 C26.9007293,24.7192399 26.9007293,25.4007601 26.76,26.06 C26.6860457,26.3433841 26.5679328,26.6133565 26.41,26.86 C26.3679703,26.8921667 26.3433199,26.9420737 26.3433199,26.995 C26.3433199,27.0479263 26.3679703,27.0978333 26.41,27.13 C26.6884698,27.5182911 26.841958,27.9822441 26.85,28.46 C26.9103827,29.4727935 26.7919061,30.4883069 26.5,31.46 C26.41,31.64 26.41,31.82 26.32,32 C26.23,31.64 26.23,31.29 26.14,30.93 C26.0962665,30.3894343 25.9137085,29.8693162 25.61,29.42 C25.539439,29.2590682 25.4109318,29.130561 25.25,29.06 L25.25,29.33 C25.2613592,30.1434996 25.1432157,30.9536259 24.9,31.73 C24.6568292,32.5934267 24.3215709,33.4282199 23.9,34.22 C23.9,34.31 23.81,34.31 23.81,34.4 C23.81,34.13 23.9,33.86 23.9,33.51 C23.9807611,33.0013641 23.9255613,32.4804163 23.74,32 C23.4950489,31.0783716 23.0398013,30.2260659 22.41,29.51 C22.0760871,29.1029482 21.7188191,28.7156296 21.34,28.35 C21.34,28.71 21.43,28.97 21.43,29.35 C21.4448254,29.7090261 21.4145898,30.0684948 21.34,30.42 C21.044972,31.7224677 20.468109,32.9444616 19.65,34 L19.56,34.09 L19.56,34 C19.7126052,33.4416553 19.6810426,32.8489788 19.47,32.31 C19.3033037,31.4511393 19.0347392,30.6152325 18.67,29.82 C18.58,29.73 18.58,29.73 18.5,29.73 C18.1942753,29.9292376 17.9460442,30.2050499 17.78,30.53 C17.5508409,31.1758059 17.4030358,31.847647 17.34,32.53 C17.1903494,33.6501001 17.1301591,34.7803412 17.16,35.91 L17.16,36 C16.3421058,33.9406705 16.036683,31.7134863 16.27,29.51 C15.9447903,30.0319005 15.7050996,30.602432 15.56,31.2 C15.393462,31.7853413 15.3626808,32.4009658 15.47,33 L14.94,31.93 C14.6724861,31.3144241 14.4907883,30.6650224 14.4,30 C14.2454018,29.41936 14.2181122,28.8121675 14.32,28.22 C14.32,28.13 14.32,28.13 14.23,28.04 C13.6686512,27.6232411 13.2608252,27.0325966 13.07,26.36 C12.9187164,25.9538106 12.8016423,25.535689 12.72,25.11 C12.72,24.75 12.63,24.31 12.63,23.95 C12.6215544,22.9973652 12.7460886,22.0482121 13,21.13 L13,21 C13.2031899,20.3644653 13.4401944,19.7402421 13.71,19.13 C13.5824916,20.6581081 13.7349909,22.1966569 14.16,23.67 C14.2529322,22.992637 14.4000712,22.3238238 14.6,21.67 C14.7661949,21.1004614 14.9699753,20.5425708 15.21,20 L15.21,20.27 C15.1196417,20.6783951 15.1196417,21.1016049 15.21,21.51 C15.2241627,21.729223 15.2819595,21.9434107 15.38,22.14 C15.5050803,22.632434 15.6862659,23.108885 15.92,23.56 C16.3437689,22.7055506 16.4670768,21.7331798 16.27,20.8 C16.54,20.98 16.72,21.34 16.98,21.51 C17.25,21.87 17.52,22.32 17.78,22.67 C18.04,23.02 18.14,23.47 18.32,23.83 C18.5302332,22.8123524 18.8661415,21.8247818 19.32,20.89 C19.4193107,22.0007628 19.717379,23.0846475 20.2,24.09 C20.3521356,23.93744 20.4742539,23.7576547 20.56,23.56 C21.0276701,22.7939667 21.1850637,21.878222 21,21 C21,20.82 20.92,20.64 20.92,20.47 C21.4046939,21.3216194 21.8193916,22.2112129 22.16,23.13 C22.25,22.96 22.43,22.78 22.52,22.6 C22.7538919,22.315297 23.0618861,22.1007392 23.41,21.98 C23.7367628,21.8068001 24.100197,21.7142272 24.47,21.71 L24.65,21.71 C24.65,21.8 24.65,21.8 24.56,21.8 C24.2639985,22.2618437 24.0539524,22.7734076 23.94,23.31 C23.8159955,23.7043227 23.83728,24.1300136 24,24.51 C24.09,24.69 24.09,24.69 24.26,24.6 C24.6885581,24.4127588 25.0137397,24.0473862 25.15,23.6 C25.3254848,23.1469902 25.4169783,22.6658021 25.42,22.18 L25.42,20.68 L25.69,21.22 C26.05,21.75 26.14,22.11 26.32,22.37 Z" id="Shape" fill="#060707"></path>
            <path d="M0.09,40.07 C0.415463773,39.1836826 1.27668249,38.6095368 2.22,38.65 C2.49487651,38.6221617 2.73451729,38.4509897 2.85,38.2 C3.30185414,36.8626609 4.5905875,35.9912317 6,36.07 L31.83,36.07 C32.6342093,36.0403119 33.4392157,36.1006874 34.23,36.25 C35.2033437,36.4459194 35.9906305,37.1602381 36.28,38.11 C36.46,38.56 36.63,38.74 37.08,38.65 C38.0513426,38.4925987 38.9928662,39.0651469 39.3,40 L39.3,43.65 C38.77,44.98 37.7,45.16 36.46,45.07 L36.19,47.2 C35.7032807,50.1904257 33.6257849,52.6780544 30.77,53.69 C27.56,54.76 24.19,53.34 22.23,50.31 C21.7164222,49.4817097 21.1200271,48.7077363 20.45,48 C19.74,47.2 19.3,47.2 18.58,48 C17.9701498,48.706907 17.4056865,49.4517313 16.89,50.23 C15.7305032,52.1802077 13.7893909,53.5386221 11.56,53.96 C8.76430249,54.4037886 5.97168262,53.1469132 4.45,50.76 C3.26783114,49.1003084 2.64442482,47.1075096 2.67,45.07 C1.59106913,45.3243823 0.489841528,44.7438902 0.09,43.71 L0.09,40.07 Z M19.65,37.31 L6,37.31 C5.45491703,37.2565015 4.91452747,37.4499598 4.52724364,37.8372436 C4.13995981,38.2245275 3.9465015,38.764917 4,39.31 L4,44.11 C3.99658326,45.1526647 4.08694725,46.193524 4.27,47.22 C4.86488974,50.3075274 7.52680687,52.5659977 10.67,52.65 C12.98,52.65 14.67,51.4 16.01,49.44 C16.7050779,48.4347801 17.4774148,47.4852404 18.32,46.6 C18.6518155,46.1785377 19.1585935,45.9325318 19.695,45.9325318 C20.2314065,45.9325318 20.7381845,46.1785377 21.07,46.6 C21.9639585,47.4984593 22.7708889,48.479499 23.48,49.53 C24.7729139,51.7206483 27.2810586,52.8892609 29.79,52.47 C32.8161254,51.7748241 35.0226845,49.169293 35.21,46.07 C35.39,43.93 35.3,41.71 35.3,39.57 C35.3,37.88 34.68,37.17 32.99,37.17 C28.54,37.31 24.1,37.31 19.65,37.31 Z" id="Shape" fill="#000000"></path>
            <path d="M19.65,37.31 L33,37.31 C34.69,37.31 35.31,37.93 35.31,39.71 C35.31,41.85 35.4,44.07 35.22,46.2 C35.036974,49.3030863 32.8295048,51.9137648 29.8,52.61 C27.2952723,52.9798652 24.8106341,51.8240366 23.48,49.67 C22.780016,48.615517 21.9759884,47.6339334 21.08,46.74 C20.7481845,46.3185377 20.2414065,46.0725318 19.705,46.0725318 C19.1685935,46.0725318 18.6618155,46.3185377 18.33,46.74 C17.4381002,47.5859472 16.655373,48.5400009 16,49.58 C14.8664652,51.4718828 12.8628563,52.6725473 10.66,52.78 C7.54074615,52.6430406 4.90879475,50.4141067 4.26,47.36 C4.03625654,46.3393816 3.948828,45.2936017 4,44.25 C3.91,42.65 4,41.05 4,39.45 C3.9270548,38.8870857 4.11945195,38.3221891 4.52082052,37.9208205 C4.92218909,37.519452 5.48708575,37.3270548 6.05,37.4 L17,37.4 C17.8878259,37.3235322 18.77904,37.2934912 19.67,37.31 L19.65,37.31 Z" id="Shape" fill="#F05A2B" opacity="0.27"></path>
        </g>
    </g>
</svg>