<svg id="Layer_1" data-name="Layer 1" xmlns="http://www.w3.org/2000/svg" viewBox="0 0 256.25 48.53"><title>logo suffix</title><path d="M58,.84,71,31.45H67.67L58,8.22,48.13,31.45H44.81Z" fill="#f1a750"/><path d="M79.49,17l-1.94-2.92,6.24-9.63,3.53,0Zm-.71,1.09V31.45H75.59V18.13L64.86.86h3.69Z" fill="#f1a750"/><path d="M96.53.85l13,30.61h-3.32L96.53,8.22,86.71,31.46H83.38Z" fill="#f1a750"/><polygon points="85.83 0.85 83.97 3.91 87.73 3.91 89.59 0.85 85.83 0.85" fill="#f1a750"/><path d="M43.94,15.59A19.21,19.21,0,0,0,43.1,12a17.76,17.76,0,0,0-4.87-7.53,21.62,21.62,0,0,0-4.69-3.23.63.63,0,0,0-.55,0l-2,.91a31.67,31.67,0,0,0-3.72,2.1C26,5.14,24.7,6.12,23.41,7.09l-1.07.81a.42.42,0,0,1-.62,0c-.45-.38-.93-.73-1.39-1.09A42.91,42.91,0,0,0,12.78,2c-.56-.27-1.12-.52-1.68-.77a.58.58,0,0,0-.62,0l-.29.17c-.66.38-1.34.74-2,1.17A21.55,21.55,0,0,0,5,5.29,17.59,17.59,0,0,0,2,9.55a19,19,0,0,0-2,8.32,22.42,22.42,0,0,0,.14,2.72c.08.82.17,1.64.33,2.46a14.3,14.3,0,0,0,1.72,4.6C3,28.94,3.72,30.21,4.5,31.49h5.55c-.11-.33-.23-.66-.34-1-.66-1.88-1.32-3.76-1.81-5.7-.27-1.1-.5-2.2-.66-3.32-.1-.68-.17-1.36-.22-2a8.69,8.69,0,0,1,0-1.14c.06-.69.12-1.39.19-2.08a10.46,10.46,0,0,1,.39-2.08,6.12,6.12,0,0,1,5.27-4.41,3.71,3.71,0,0,1,2.76.76,5,5,0,0,1,1.35,1.75,12.88,12.88,0,0,1,1,3,22,22,0,0,1,.46,4.2c0,1,0,2,0,3s-.05,2.07-.08,3.11-.06,4.68-.21,5.7c0,.24,0,.25.21.25h7.57c.07,0,.11,0,.1-.11a.34.34,0,0,0,0-.1c-.07-.59-.1-3.81-.14-4.41-.06-1.09-.12-2.18-.15-3.26,0-1.37-.05-2.74,0-4.1a27.14,27.14,0,0,1,.41-3.92,12.77,12.77,0,0,1,.76-2.72,6.34,6.34,0,0,1,1.46-2.25,3.79,3.79,0,0,1,2.61-1.07,4.63,4.63,0,0,1,1.53.25,6.12,6.12,0,0,1,3.06,2.1,7.21,7.21,0,0,1,1.34,3.36c.14.93.19,1.87.27,2.81a7.51,7.51,0,0,1,0,1.16q-.09,1.32-.3,2.64a38.08,38.08,0,0,1-1.2,4.93c-.49,1.58-1.05,3.14-1.6,4.71h5.59c.68-1.11,1.36-2.22,2-3.34a15.85,15.85,0,0,0,2-5,26.75,26.75,0,0,0,.5-4.08A20,20,0,0,0,43.94,15.59Z" fill="#f1a750"/><path d="M126.94,2.86a11.63,11.63,0,0,0-3.88,1,12.49,12.49,0,0,0-4,2.83,13.19,13.19,0,0,0-2.58,4.12,13.34,13.34,0,0,0-.93,4.94,13.07,13.07,0,0,0,3.51,9A12.25,12.25,0,0,0,123,27.56a12,12,0,0,0,3.9,1v2.7a16.09,16.09,0,0,1-5-1.13,15.41,15.41,0,0,1-5-3.28,15.81,15.81,0,0,1-3.35-4.94,15.27,15.27,0,0,1-1.23-6.14,15.11,15.11,0,0,1,1.25-6.11A15.79,15.79,0,0,1,122,1.31,15.48,15.48,0,0,1,126.94.13Zm1.61,25.73a12.56,12.56,0,0,0,4.67-1,11.87,11.87,0,0,0,3.94-2.74,12.27,12.27,0,0,0,2.54-4.08,13.67,13.67,0,0,0,.9-5,14.25,14.25,0,0,0-.9-5.13,12.26,12.26,0,0,0-2.52-4.12,11.54,11.54,0,0,0-3.92-2.74,12.77,12.77,0,0,0-4.71-1V.09a16.4,16.4,0,0,1,5.77,1.18,15,15,0,0,1,8.26,8.26,15.91,15.91,0,0,1,1.18,6.16,15.9,15.9,0,0,1-1.2,6.23,15.43,15.43,0,0,1-3.32,5,14.82,14.82,0,0,1-4.94,3.26,16.6,16.6,0,0,1-5.75,1.16Z" fill="#fff"/><path d="M147.08,0l22.38,24.38V1h3.17V32.44L150.24,8V31.36h-3.16Z" fill="#fff"/><path d="M177.21,1.05h3.17V28.72H194v2.7H177.21Z" fill="#fff"/><path d="M198.61,1.07h3.17V31.44h-3.17Z" fill="#fff"/><path d="M206.33.09l22.39,24.38V1.09h3.17V32.54L209.5,8.12V31.46h-3.17Z" fill="#fff"/><path d="M236.48,28.72h18.71v2.7H236.5Zm0-27.67h18.69V3.76H236.5Zm0,13.43h17.94V17.2H236.5Z" fill="#fff"/><path d="M230.3,40.14a2,2,0,0,1,.79,1.65,2,2,0,0,1-.44,1.31,2.15,2.15,0,0,1-1.19.71,2.32,2.32,0,0,1,1.47.75,2.25,2.25,0,0,1,.53,1.52,2.13,2.13,0,0,1-.86,1.8,3.89,3.89,0,0,1-2.4.65h-3.9v-9h3.84A3.57,3.57,0,0,1,230.3,40.14ZM229.36,43a1.19,1.19,0,0,0,.46-1,1.15,1.15,0,0,0-.46-1,2,2,0,0,0-1.29-.33h-2.54v2.68h2.54A2.09,2.09,0,0,0,229.36,43Zm.28,4a1.23,1.23,0,0,0,.56-1.09,1.21,1.21,0,0,0-.56-1.07,2.82,2.82,0,0,0-1.57-.38h-2.54V47.4h2.54A2.59,2.59,0,0,0,229.64,47Z" fill="#f1a750"/><path d="M233.44,39.55h6.24v1.11h-5v2.78h4.48v1.11h-4.48v2.87h5.16v1.11h-6.39Z" fill="#f1a750"/><path d="M240.67,39.55h7v1.13h-2.9v7.85h-1.24V40.68h-2.88Z" fill="#f1a750"/><path d="M254.92,48.53,254,46.35h-4.74l-.94,2.18H247l4-9h1.28l4,9Zm-5.2-3.3h3.77l-1.9-4.36Z" fill="#f1a750"/></svg>