<?xml version="1.0" encoding="utf-8"?>
<!-- Generator: Adobe Illustrator 22.0.0, SVG Export Plug-In . SVG Version: 6.00 Build 0)  -->
<svg version="1.1" id="Layer_1" xmlns="http://www.w3.org/2000/svg" xmlns:xlink="http://www.w3.org/1999/xlink" x="0px" y="0px"
	 viewBox="0 0 175.8 31.4" style="enable-background:new 0 0 175.8 31.4;" xml:space="preserve">
<style type="text/css">
	.st0{fill:#FFFFFF;}
	.st1{fill:#333333;}
	.st2{fill:#EAEAEA;}
	.st3{opacity:0.44;}
	.st4{fill:none;stroke:#C6C6C6;stroke-miterlimit:10;stroke-dasharray:8;}
	.st5{opacity:0.75;}
	.st6{fill:#663399;}
	.st7{opacity:0.29;}
	.st8{clip-path:url(#SVGID_2_);fill:#FFFFFF;}
	.st9{opacity:0.78;clip-path:url(#SVGID_2_);}
	.st10{fill:none;stroke:#663399;stroke-width:1.5;stroke-miterlimit:10;}
	.st11{fill:#7B7B7C;}
	.st12{fill:#F1F1F1;}
	.st13{fill:#1C1C1C;}
	.st14{fill:#8C8CF8;}
	.st15{opacity:0.31;fill:#8C8CF8;}
	.st16{fill:#D3D3D3;}
	.st17{fill:#8D8DF9;}
	.st18{fill:#FFFFFF;stroke:#663399;stroke-width:4;stroke-miterlimit:10;}
	.st19{fill:#DBDBDB;}
	.st20{fill:none;stroke:#BFBFC1;stroke-width:2;stroke-miterlimit:10;}
	.st21{fill:none;stroke:#FFFFFF;stroke-width:6;stroke-miterlimit:10;}
	.st22{opacity:0.39;}
	.st23{fill:none;stroke:#8C8CF8;stroke-miterlimit:10;stroke-dasharray:3;}
	.st24{fill:#C6C6C4;stroke:#FFFFFF;stroke-width:3;stroke-miterlimit:10;}
	.st25{fill:#C4C4C6;}
	.st26{fill:#FAFBFD;}
	.st27{fill:#848484;}
	.st28{fill:#FFFFFF;stroke:#DBDBDB;stroke-width:10;stroke-miterlimit:10;}
	.st29{fill:none;stroke:#8C8CF8;stroke-miterlimit:10;stroke-dasharray:3.014,3.014;}
	.st30{fill:#262626;}
	.st31{fill:#F15A29;}
	.st32{fill:#F05A2B;}
	.st33{fill:none;stroke:#C6C6C4;stroke-width:2;stroke-miterlimit:10;}
	.st34{fill:#8C8CF8;stroke:#FCFCFC;stroke-width:2;stroke-miterlimit:10;}
	.st35{fill:none;stroke:#989898;stroke-width:0.5;stroke-miterlimit:10;}
	.st36{fill:none;stroke:#8C8CF8;stroke-width:2;stroke-miterlimit:10;}
	.st37{fill:none;stroke:#663399;stroke-miterlimit:10;}
	.st38{opacity:0.34;}
	.st39{fill:#E5E5E5;}
	.st40{fill:none;stroke:#8C8CF8;stroke-miterlimit:10;}
	.st41{fill:#3B3B56;}
	.st42{fill:none;stroke:#7B7B7C;stroke-width:0.5;stroke-miterlimit:10;}
	.st43{fill:#493636;}
	.st44{fill:#B27F6F;}
	.st45{fill:#B18070;}
	.st46{fill:url(#SVGID_3_);}
	.st47{fill:url(#SVGID_4_);}
	.st48{fill:#050505;}
	.st49{fill:url(#SVGID_5_);}
	.st50{fill:url(#SVGID_6_);}
	.st51{fill:url(#SVGID_7_);}
	.st52{fill:#4B3838;}
	.st53{fill:#895B3B;}
	.st54{fill:#75431B;}
	.st55{fill:#020202;}
	.st56{fill:#FEFEFE;}
	.st57{fill:#E4BCAD;}
	.st58{opacity:0.34;fill:#348FC0;enable-background:new    ;}
	.st59{opacity:0.34;fill:none;stroke:#348FC0;stroke-width:0.1361;stroke-miterlimit:10;enable-background:new    ;}
	.st60{fill:none;}
	.st61{fill:#A0D4F9;}
	.st62{opacity:0.3;fill:#33415C;enable-background:new    ;}
	.st63{opacity:0.31;clip-path:url(#SVGID_9_);fill:#E8E4D9;}
	.st64{opacity:0.2;}
	.st65{opacity:0.24;clip-path:url(#SVGID_11_);fill:#FFFFFF;enable-background:new    ;}
	.st66{fill:#060707;}
	.st67{opacity:0.28;}
	.st68{opacity:0.11;fill:none;stroke:#4D4D4D;stroke-miterlimit:10;}
	.st69{opacity:8.000000e-02;fill:none;stroke:#4D4D4D;stroke-miterlimit:10;}
	.st70{opacity:0.88;fill:#4D4D4D;}
	.st71{fill:#912626;}
	.st72{fill:#C6302B;}
	.st73{fill:#621B1C;}
	.st74{fill:#9A2928;}
	.st75{fill:#151F34;}
	.st76{fill:#348540;}
	.st77{fill:#7DBC42;}
	.st78{fill:url(#SVGID_12_);}
	.st79{fill:url(#SVGID_13_);}
	.st80{fill:url(#SVGID_14_);}
	.st81{fill:url(#SVGID_15_);}
	.st82{fill:url(#SVGID_16_);}
	.st83{opacity:0.34;fill:none;stroke:#348FC0;stroke-width:0.1652;stroke-miterlimit:10;enable-background:new    ;}
	.st84{clip-path:url(#SVGID_22_);fill:#E8E4D9;}
	.st85{opacity:0.24;clip-path:url(#SVGID_24_);fill:#FFFFFF;enable-background:new    ;}
	.st86{fill:url(#SVGID_25_);}
	.st87{fill:url(#SVGID_26_);}
	.st88{fill:url(#SVGID_27_);}
	.st89{fill:url(#SVGID_28_);}
	.st90{fill:url(#SVGID_29_);}
	.st91{fill:none;stroke:#D1D1D1;stroke-miterlimit:10;}
	.st92{fill:#EFEFEF;}
	.st93{fill:url(#SVGID_30_);}
	.st94{fill:url(#SVGID_31_);}
	.st95{fill:url(#SVGID_32_);}
	.st96{fill:url(#SVGID_33_);}
	.st97{fill:url(#SVGID_34_);}
	.st98{fill:#F7F7F7;}
	.st99{fill:url(#SVGID_35_);}
	.st100{fill:url(#SVGID_36_);}
	.st101{fill:url(#SVGID_37_);}
	.st102{fill:url(#SVGID_38_);}
	.st103{fill:url(#SVGID_39_);}
	.st104{fill:url(#SVGID_40_);}
	.st105{fill:url(#SVGID_41_);}
	.st106{fill:url(#SVGID_42_);}
	.st107{fill:url(#SVGID_43_);}
	.st108{fill:url(#SVGID_44_);}
	.st109{fill:url(#SVGID_45_);}
	.st110{fill:url(#SVGID_46_);}
	.st111{fill:url(#SVGID_47_);}
	.st112{fill:url(#SVGID_48_);}
	.st113{fill:url(#SVGID_49_);}
	.st114{fill:#ADADAD;stroke:#FFFFFF;stroke-width:0.1;stroke-miterlimit:10;}
	.st115{fill:#7F7F7F;stroke:#FFFFFF;stroke-width:0.1;stroke-miterlimit:10;}
	.st116{fill:#7F7F7F;stroke:#ADADAD;stroke-width:0.1;stroke-miterlimit:10;}
	.st117{fill:#7F7F7F;}
	.st118{fill:url(#SVGID_50_);}
	.st119{fill:url(#SVGID_51_);}
	.st120{fill:url(#SVGID_52_);}
	.st121{fill:url(#SVGID_53_);}
	.st122{fill:url(#SVGID_54_);}
	.st123{fill:url(#SVGID_55_);}
	.st124{fill:url(#SVGID_56_);}
	.st125{fill:url(#SVGID_57_);}
	.st126{fill:url(#SVGID_58_);}
	.st127{fill:url(#SVGID_59_);}
	.st128{fill:url(#SVGID_62_);}
	.st129{fill:url(#SVGID_63_);}
	.st130{fill:url(#SVGID_64_);}
	.st131{fill:url(#SVGID_65_);}
	.st132{fill:url(#SVGID_66_);}
	.st133{fill:url(#SVGID_69_);}
	.st134{fill:url(#SVGID_70_);}
	.st135{fill:url(#SVGID_71_);}
	.st136{fill:url(#SVGID_72_);}
	.st137{fill:url(#SVGID_73_);}
	.st138{fill:url(#SVGID_74_);}
	.st139{fill:url(#SVGID_75_);}
	.st140{fill:url(#SVGID_76_);}
	.st141{fill:url(#SVGID_77_);}
	.st142{fill:url(#SVGID_78_);}
	.st143{fill:url(#SVGID_79_);}
	.st144{fill:url(#SVGID_80_);}
	.st145{fill:url(#SVGID_81_);}
	.st146{fill:url(#SVGID_82_);}
	.st147{fill:url(#SVGID_83_);}
	.st148{fill:url(#SVGID_84_);}
	.st149{fill:url(#SVGID_85_);}
	.st150{fill:url(#SVGID_86_);}
	.st151{fill:url(#SVGID_87_);}
	.st152{fill:url(#SVGID_88_);}
	.st153{fill:url(#SVGID_89_);}
	.st154{fill:url(#SVGID_90_);}
	.st155{fill:url(#SVGID_91_);}
	.st156{fill:url(#SVGID_92_);}
	.st157{fill:url(#SVGID_93_);}
	.st158{fill:url(#SVGID_94_);}
	.st159{fill:url(#SVGID_95_);}
	.st160{fill:url(#SVGID_96_);}
	.st161{fill:url(#SVGID_97_);}
	.st162{fill:url(#SVGID_98_);}
	.st163{fill:url(#SVGID_99_);}
	.st164{fill:url(#SVGID_100_);}
	.st165{fill:url(#SVGID_101_);}
	.st166{fill:url(#SVGID_102_);}
	.st167{fill:url(#SVGID_103_);}
	.st168{fill:url(#SVGID_104_);}
	.st169{fill:url(#SVGID_105_);}
	.st170{fill:url(#SVGID_106_);}
	.st171{fill:url(#SVGID_107_);}
	.st172{fill:url(#SVGID_108_);}
	.st173{fill:url(#SVGID_109_);}
	.st174{fill:url(#SVGID_110_);}
	.st175{fill:url(#SVGID_111_);}
	.st176{fill:url(#SVGID_112_);}
	.st177{fill:url(#SVGID_113_);}
	.st178{fill:none;stroke:#8C8CF8;stroke-width:0.5;stroke-miterlimit:10;}
	.st179{fill:none;stroke:#D1D1D1;stroke-width:0.75;stroke-miterlimit:10;}
	.st180{fill:#D1D1D1;}
	.st181{fill:none;stroke:#D1D1D1;stroke-width:0.75;stroke-miterlimit:10;stroke-dasharray:3;}
	.st182{fill:none;stroke:#939393;stroke-miterlimit:10;}
	.st183{fill:#CCCCCC;stroke:#CCCCCC;stroke-width:0.5;stroke-miterlimit:10;}
	.st184{fill:#CCCCCC;stroke:#FFFFFF;stroke-width:0.1;stroke-miterlimit:10;}
	.st185{fill:#CCCCCC;stroke:#FFFFFF;stroke-width:0.25;stroke-miterlimit:10;}
	.st186{fill:#D1D1D1;stroke:#D1D1D1;stroke-width:0.75;stroke-miterlimit:10;}
	.st187{fill:#CCCCCC;}
	.st188{fill:#FFFFFF;stroke:#D1D1D1;stroke-width:3;stroke-miterlimit:10;}
	.st189{fill:#D1D1D1;stroke:#D1D1D1;stroke-width:0.25;stroke-miterlimit:10;}
	.st190{fill:url(#SVGID_116_);}
	.st191{fill:url(#SVGID_117_);}
	.st192{fill:url(#SVGID_118_);}
	.st193{fill:url(#SVGID_119_);}
	.st194{fill:url(#SVGID_120_);}
	.st195{opacity:0.31;clip-path:url(#SVGID_122_);fill:#E8E4D9;}
	.st196{opacity:0.24;clip-path:url(#SVGID_124_);fill:#FFFFFF;enable-background:new    ;}
	.st197{fill:url(#SVGID_125_);}
	.st198{fill:url(#SVGID_126_);}
	.st199{fill:url(#SVGID_127_);}
	.st200{fill:url(#SVGID_128_);}
	.st201{fill:url(#SVGID_129_);}
	.st202{opacity:0.31;clip-path:url(#SVGID_131_);fill:#E8E4D9;}
	.st203{opacity:0.24;clip-path:url(#SVGID_133_);fill:#FFFFFF;enable-background:new    ;}
	.st204{fill:#989898;}
	.st205{fill:#8790B5;}
	.st206{fill:#ADADAD;}
	.st207{fill:#303030;}
	.st208{fill:#E1E1E1;}
	.st209{fill:#26283E;}
	.st210{fill:#B5D118;}
	.st211{fill:#563A39;}
	.st212{fill:#AF8070;}
	.st213{fill:#348FC0;}
	.st214{fill:#4B3938;}
</style>
<g>
	<path class="st0" d="M50.6,2.7l11.1,25.9h-2.8L50.6,9l-8.3,19.7h-2.8L50.6,2.7z"/>
	<path class="st0" d="M68.9,16.5L67.2,14l5-7.7l3,0L68.9,16.5z M68.3,17.4v11.3h-2.7V17.4L56.5,2.8h3.1L68.3,17.4z"/>
	<path class="st0" d="M83.3,2.8l11.1,25.9h-2.8L83.3,9L75,28.7h-2.8L83.3,2.8z"/>
	<polygon class="st0" points="74.3,2.8 72.7,5.3 75.9,5.3 77.5,2.8 	"/>
	<path class="st0" d="M38.8,15.2c-0.1-1-0.4-2.1-0.7-3.1c-0.8-2.5-2.2-4.6-4.1-6.4c-1.2-1.1-2.5-2-4-2.7c-0.2-0.1-0.3-0.1-0.5,0
		c-0.6,0.3-1.1,0.5-1.6,0.8c-1.1,0.5-2.1,1.1-3.2,1.8c-1.1,0.8-2.2,1.6-3.3,2.4c-0.3,0.2-0.6,0.5-0.9,0.7c-0.2,0.2-0.3,0.2-0.5,0
		c-0.4-0.3-0.8-0.6-1.2-0.9c-2-1.6-4.1-3-6.4-4.1c-0.5-0.2-0.9-0.4-1.4-0.7c-0.2-0.1-0.4-0.1-0.5,0c-0.1,0.1-0.2,0.1-0.2,0.1
		C9.6,3.6,9,3.9,8.5,4.2c-1,0.7-1.9,1.4-2.7,2.3c-1,1.1-1.9,2.3-2.6,3.6c-1.1,2.2-1.6,4.6-1.7,7.1c0,0.8,0,1.5,0.1,2.3
		c0.1,0.7,0.1,1.4,0.3,2.1c0.3,1.4,0.7,2.7,1.5,3.9c0.6,1.1,1.3,2.2,2,3.2h4.7c-0.1-0.3-0.2-0.6-0.3-0.8c-0.6-1.6-1.1-3.2-1.5-4.8
		c-0.2-0.9-0.4-1.9-0.6-2.8c-0.1-0.6-0.1-1.1-0.2-1.7c0-0.3-0.1-0.6,0-1c0-0.6,0.1-1.2,0.2-1.8C7.7,15.2,7.8,14.6,8,14
		c0.3-0.9,0.8-1.8,1.5-2.4c0.8-0.7,1.8-1.2,3-1.3c0.9-0.1,1.6,0.1,2.3,0.6c0.5,0.4,0.9,0.9,1.1,1.5c0.4,0.8,0.6,1.6,0.8,2.5
		c0.3,1.2,0.4,2.4,0.4,3.6c0,0.9,0,1.7,0,2.6c0,0.9,0,1.8-0.1,2.6c0,0.9,0,4-0.2,4.8c0,0.2,0,0.2,0.2,0.2c2.1,0,4.2,0,6.3,0
		c0,0,0.1,0,0.1,0c0.1,0,0.1,0,0.1-0.1c0,0,0-0.1,0-0.1c-0.1-0.5-0.1-3.2-0.1-3.7c-0.1-0.9-0.1-1.8-0.1-2.8c0-1.2,0-2.3,0-3.5
		c0-1.1,0.1-2.2,0.3-3.3c0.1-0.8,0.3-1.6,0.6-2.3c0.3-0.7,0.7-1.4,1.2-1.9c0.6-0.6,1.4-0.9,2.2-0.9c0.4,0,0.9,0.1,1.3,0.2
		c1,0.3,1.9,0.9,2.6,1.8c0.6,0.8,1,1.8,1.1,2.9c0.1,0.8,0.2,1.6,0.2,2.4c0,0.3,0,0.7,0,1c0,0.8-0.1,1.5-0.3,2.2
		c-0.2,1.4-0.6,2.8-1,4.2c-0.4,1.3-0.9,2.7-1.4,4h4.7c0.6-0.9,1.2-1.9,1.7-2.8c0.8-1.3,1.4-2.7,1.7-4.3c0.2-1.1,0.4-2.3,0.4-3.5
		C38.9,17.2,38.9,16.2,38.8,15.2z"/>
	<path class="st0" d="M98.4,2.9h7.2c0.5,0,1,0,1.7,0.1c0.7,0,1.3,0.1,1.9,0.2c1.4,0.3,2.7,0.7,3.9,1.4c1.2,0.7,2.3,1.5,3.2,2.6
		c0.9,1.1,1.6,2.3,2.1,3.7c0.5,1.4,0.8,2.9,0.8,4.6c0,1.6-0.2,3-0.7,4.4c-0.5,1.3-1.1,2.5-2,3.6c-0.8,1.1-1.8,2-3,2.7
		c-1.1,0.7-2.4,1.3-3.7,1.6c-0.6,0.2-1.2,0.3-1.9,0.3c-0.7,0-1.4,0.1-2.2,0.1h-7.2V2.9z M105.5,26c0.7,0,1.4,0,2-0.1
		c0.6,0,1.2-0.1,1.7-0.3c1.1-0.3,2.1-0.7,2.9-1.3c0.9-0.6,1.7-1.4,2.3-2.2c0.6-0.9,1.1-1.8,1.5-2.9c0.4-1.1,0.5-2.3,0.5-3.5
		c0-1.4-0.2-2.6-0.6-3.8c-0.4-1.1-0.9-2.1-1.6-3c-0.7-0.9-1.5-1.6-2.4-2.2c-0.9-0.6-2-1-3.1-1.3c-0.5-0.1-1-0.2-1.7-0.2
		c-0.6,0-1.2-0.1-1.7-0.1H101V26H105.5z"/>
	<path class="st0" d="M130.1,1.8l11.3,26.6h-2.9l-8.4-20.2l-8.5,20.2h-2.9L130.1,1.8z"/>
	<path class="st0" d="M144.9,5.2h-6.8V2.9h16.2v2.3h-6.7v23.1h-2.6V5.2z"/>
	<path class="st0" d="M162.8,1.8l11.3,26.6h-2.9l-8.4-20.2l-8.5,20.2h-2.9L162.8,1.8z"/>
</g>
</svg>
