<svg width="349" height="36" viewBox="0 0 349 36" fill="none" xmlns="http://www.w3.org/2000/svg">
<rect width="347.857" height="35.0597" fill="black" fill-opacity="0" transform="translate(0.510925 0.593628)"/>
<rect width="226.64" height="35.0597" fill="black" fill-opacity="0" transform="translate(0.510925 0.593628)"/>
<path d="M65.6194 1.64543L80.3124 34.514H76.5473L65.6194 9.53388L54.5996 34.514H50.8345L65.6194 1.64543Z" fill="#8D8DF9"/>
<path d="M89.8629 19L87.6589 15.8446L94.2708 6.0279H98.2195L89.8629 19ZM89.0364 20.1395V34.4263H85.3631V20.1395L73.3332 1.64543H77.5575L89.0364 20.1395Z" fill="#8D8DF9"/>
<path d="M109.056 1.64543L123.749 34.514H119.892L108.964 9.53388L97.8522 34.514H94.179L109.056 1.64543Z" fill="#8D8DF9"/>
<path d="M96.9339 1.64543L94.9136 4.9761H99.1379L101.25 1.64543H96.9339Z" fill="#8D8DF9"/>
<path d="M50.0081 17.51C49.8244 16.1076 49.4571 14.8805 48.9979 13.6534C47.8959 10.5856 46.0593 7.78088 43.488 5.58965C41.9269 4.18726 40.1821 3.04782 38.1618 2.08367C37.9781 1.99602 37.7027 1.99602 37.519 2.08367L35.315 3.04782C33.8457 3.66137 32.4683 4.45021 31.0908 5.23906C29.5297 6.2032 28.1522 7.25499 26.6829 8.30679L25.4891 9.18328C25.3054 9.35858 25.0299 9.35858 24.8463 9.18328C24.2953 8.74503 23.8361 8.48207 23.2851 8.04382C20.622 6.02789 17.7752 4.36255 14.8366 2.87251L13 1.99602C12.8163 1.90837 12.5408 1.90837 12.3572 1.99602C12.2653 2.08367 12.1735 2.08368 11.9899 2.17133C11.2552 2.60958 10.4287 2.87252 9.7859 3.39842C8.50026 4.27491 7.21462 5.1514 6.11264 6.37849C4.827 7.78088 3.54136 9.18328 2.71488 10.9363C1.24558 13.6534 0.510925 16.7211 0.510925 19.8765C0.510925 20.8406 0.510925 21.8924 0.602757 22.8566C0.694588 23.7331 0.78642 24.6095 0.970082 25.486C1.33741 27.239 1.98023 28.8167 2.99037 30.3944C3.90869 31.7968 4.73517 33.1116 5.65349 34.5139H11.898L11.5307 33.4621C10.796 31.4462 10.0614 29.4303 9.5104 27.3267C9.14308 26.1872 8.95942 25.0478 8.77575 23.7331C8.68392 23.0319 8.59209 22.243 8.59209 21.5418C8.59209 21.1036 8.59209 20.8406 8.59209 20.4024C8.59209 19.7012 8.68392 18.9124 8.77575 18.2112C8.77575 17.51 8.86758 16.6335 9.14308 15.9323C9.5104 14.7928 10.2451 13.741 11.1634 12.8645C12.2653 11.9004 13.551 11.3745 15.1121 11.1992C16.2141 11.1116 17.3161 11.3745 18.0507 12.0757C18.6935 12.6016 19.2445 13.2152 19.6119 14.004C20.1629 15.0558 20.5302 16.1076 20.7138 17.1594C21.0812 18.6494 21.2648 20.2271 21.2648 21.7171C21.2648 22.7689 21.2648 23.8207 21.2648 24.9602C21.2648 26.012 21.2648 27.1514 21.2648 28.2908C21.2648 29.4303 21.2648 33.3745 21.0812 34.4263C21.0812 34.6016 21.0812 34.6016 21.2648 34.6016H29.7133C29.8052 34.6016 29.8052 34.6016 29.8052 34.5139V34.4263C29.7133 33.8127 29.7133 30.3068 29.7133 29.6932C29.6215 28.5538 29.6215 27.4143 29.5297 26.1873C29.5297 24.6972 29.5297 23.2072 29.5297 21.8048C29.5297 20.4024 29.6215 19 29.897 17.5976C30.0806 16.6335 30.3561 15.5817 30.6316 14.7928C30.999 13.8287 31.5499 13.1275 32.1928 12.3386C32.9274 11.6374 34.0294 11.1992 35.1314 11.1992C35.7742 11.1992 36.3252 11.2868 36.968 11.5498C38.2536 11.988 39.5393 12.6892 40.3658 13.741C41.2841 14.7928 41.8351 16.0199 41.9269 17.3347C42.0187 18.2988 42.1106 19.3506 42.2942 20.4024C42.2942 20.8406 42.2942 21.2789 42.2942 21.6295C42.2942 22.5936 42.1106 23.5578 41.9269 24.4343C41.5596 26.1873 41.0086 28.0279 40.4576 29.6932C39.9066 31.3586 39.2638 33.0239 38.7128 34.7769H44.8655C45.6002 33.6374 46.4266 32.3227 47.1613 31.1833C48.2633 29.5179 48.9061 27.6773 49.3652 25.8367C49.7326 24.3466 49.8244 22.8566 49.9162 21.4542C50.0999 19.9642 50.0999 18.6494 50.0081 17.51Z" fill="#8D8DF9"/>
<path d="M143.033 3.74901C141.472 3.83666 140.095 4.27492 138.717 4.80081C137.064 5.50201 135.503 6.5538 134.309 7.86854C133.116 9.09563 132.105 10.5857 131.463 12.251C130.82 13.9163 130.361 15.757 130.452 17.51C130.452 19.263 130.82 21.1036 131.463 22.7689C132.105 24.3466 133.116 25.8367 134.309 27.0638C135.503 28.2908 137.064 29.3426 138.717 30.1315C140.187 30.745 141.564 31.0956 143.125 31.1833V33.988C141.289 33.9004 139.36 33.4622 137.615 32.761C135.503 31.8845 133.667 30.745 132.014 29.1673C130.452 27.6773 129.167 25.9243 128.248 23.9084C127.33 21.8048 126.779 19.6135 126.779 17.247C126.779 15.0558 127.238 12.6892 128.248 10.761C129.993 6.72909 133.391 3.48605 137.615 1.82071C139.36 1.11952 141.289 0.681277 143.125 0.593628L143.033 3.74901ZM144.962 31.3586C146.707 31.3586 148.635 30.9203 150.288 30.3068C151.941 29.6932 153.502 28.6414 154.696 27.3267C155.89 26.0996 156.9 24.6096 157.543 23.0319C158.185 21.3665 158.553 19.5259 158.553 17.6853C158.553 15.757 158.185 14.004 157.543 12.251C156.9 10.5857 155.982 9.09563 154.696 7.86854C153.502 6.64145 151.941 5.67729 150.288 4.88844C148.635 4.2749 146.798 3.83667 144.962 3.83667V0.856592C147.166 0.856592 149.37 1.29483 151.482 2.08368C153.594 2.96017 155.431 4.09962 157.084 5.67731C158.645 7.16735 159.93 9.00798 160.757 10.9363C161.675 13.0399 162.042 15.2311 162.042 17.5976C162.042 19.8765 161.583 22.1554 160.757 24.259C159.838 26.2749 158.645 28.0279 156.992 29.5179C155.431 31.008 153.502 32.2351 151.482 33.0239C149.37 33.7251 147.258 34.1633 144.962 34.251V31.3586Z" fill="#663399"/>
<path d="M165.716 0.768936L190.786 26.8884V1.82071H194.275V35.6534L169.113 9.44622V34.5139H165.624L165.716 0.768936Z" fill="#663399"/>
<path d="M199.418 1.82071H202.907V31.5339H218.243V34.3386H199.418V1.82071Z" fill="#663399"/>
<path d="M223.478 1.90837H227.151V34.4263H223.478V1.90837Z" fill="#663399"/>
<path d="M232.202 0.856598L257.272 26.9761V1.90837H260.761V35.5657L235.599 9.35857V34.4263H232.11L232.202 0.856598Z" fill="#663399"/>
<path d="M265.996 31.5339H287.025V34.3386H266.087L265.996 31.5339ZM265.996 1.82071H286.933V4.6255H265.996V1.82071ZM265.996 16.1952H286.199V19.1753H266.087L265.996 16.1952Z" fill="#663399"/>
<path d="M300.708 20.3147H294.371V33.8127H300.891C301.718 33.8127 302.361 33.7251 303.004 33.5498C303.646 33.3745 304.197 33.1116 304.657 32.8486C305.116 32.498 305.483 32.1474 305.667 31.7092C305.942 31.2709 306.034 30.745 306.034 30.1315C306.034 29.6932 305.942 29.255 305.85 28.9044C305.759 28.5538 305.483 28.2032 305.299 27.9402C305.024 27.6773 304.748 27.502 304.381 27.3267C304.014 27.1514 303.646 26.9761 303.279 26.8008C303.555 26.7131 303.83 26.5378 304.014 26.3625C304.289 26.1872 304.473 26.012 304.657 25.749C304.84 25.4861 305.024 25.2231 305.116 24.8725C305.208 24.5219 305.299 24.1713 305.299 23.7331C305.299 22.6813 304.84 21.8048 304.014 21.1912C303.279 20.6653 302.085 20.3147 300.708 20.3147ZM300.157 26.0119H296.759V22.4183H300.341C301.167 22.4183 301.718 22.5936 302.177 22.8566C302.636 23.1195 302.82 23.5578 302.82 24.1713C302.82 24.7848 302.544 25.3108 302.085 25.5737C301.626 25.9243 300.983 26.0119 300.157 26.0119ZM300.891 31.7968H296.759V28.0279H300.708C301.718 28.0279 302.453 28.2032 302.912 28.5538C303.371 28.9044 303.646 29.3426 303.646 29.8685C303.646 30.4821 303.371 30.9203 302.912 31.2709C302.453 31.6215 301.81 31.7968 300.891 31.7968ZM319.441 20.3147H308.973V33.8127H319.533V31.7092H311.452V28.1155H318.523V26.0119H311.452V22.506H319.441V20.3147ZM328.441 22.5936H332.941V20.4024H321.462V22.5936H325.961V33.9004H328.441V22.5936V22.5936ZM342.032 20.2271H339.736L333.492 33.8127H336.063L337.532 30.5697H344.236L345.705 33.8127H348.368L342.032 20.2271ZM343.226 28.4661H338.359L340.746 23.0319L343.226 28.4661Z" fill="#8D8DF9"/>
</svg>
