<?xml version="1.0" encoding="utf-8"?>
<!-- Generator: Adobe Illustrator 22.0.0, SVG Export Plug-In . SVG Version: 6.00 Build 0)  -->
<svg version="1.1" id="Layer_1" xmlns="http://www.w3.org/2000/svg" xmlns:xlink="http://www.w3.org/1999/xlink" x="0px" y="0px"
	 viewBox="0 0 160.5 41" style="enable-background:new 0 0 160.5 41;" xml:space="preserve">
<style type="text/css">
	.st0{fill:#FFFFFF;}
	.st1{fill:#333333;}
	.st2{fill:#EAEAEA;}
	.st3{opacity:0.44;}
	.st4{fill:none;stroke:#C6C6C6;stroke-miterlimit:10;stroke-dasharray:8;}
	.st5{opacity:0.75;}
	.st6{fill:#663399;}
	.st7{opacity:0.29;}
	.st8{clip-path:url(#SVGID_2_);fill:#FFFFFF;}
	.st9{opacity:0.78;clip-path:url(#SVGID_2_);}
	.st10{fill:none;stroke:#663399;stroke-width:1.5;stroke-miterlimit:10;}
	.st11{fill:#7B7B7C;}
	.st12{fill:#F1F1F1;}
	.st13{fill:#1C1C1C;}
	.st14{fill:#8C8CF8;}
	.st15{opacity:0.31;fill:#8C8CF8;}
	.st16{fill:#D3D3D3;}
	.st17{fill:#8D8DF9;}
	.st18{fill:#FFFFFF;stroke:#663399;stroke-width:4;stroke-miterlimit:10;}
	.st19{fill:#DBDBDB;}
	.st20{fill:none;stroke:#BFBFC1;stroke-width:2;stroke-miterlimit:10;}
	.st21{fill:none;stroke:#FFFFFF;stroke-width:6;stroke-miterlimit:10;}
	.st22{opacity:0.39;}
	.st23{fill:none;stroke:#8C8CF8;stroke-miterlimit:10;stroke-dasharray:3;}
	.st24{fill:#C6C6C4;stroke:#FFFFFF;stroke-width:3;stroke-miterlimit:10;}
	.st25{fill:#C4C4C6;}
	.st26{fill:#FAFBFD;}
	.st27{fill:#848484;}
	.st28{fill:#FFFFFF;stroke:#DBDBDB;stroke-width:10;stroke-miterlimit:10;}
	.st29{fill:none;stroke:#8C8CF8;stroke-miterlimit:10;stroke-dasharray:3.014,3.014;}
	.st30{fill:#262626;}
	.st31{fill:#F15A29;}
	.st32{fill:#F05A2B;}
	.st33{fill:none;stroke:#C6C6C4;stroke-width:2;stroke-miterlimit:10;}
	.st34{fill:#8C8CF8;stroke:#FCFCFC;stroke-width:2;stroke-miterlimit:10;}
	.st35{fill:none;stroke:#989898;stroke-width:0.5;stroke-miterlimit:10;}
	.st36{fill:none;stroke:#8C8CF8;stroke-width:2;stroke-miterlimit:10;}
	.st37{fill:none;stroke:#663399;stroke-miterlimit:10;}
	.st38{opacity:0.34;}
	.st39{fill:#E5E5E5;}
	.st40{fill:none;stroke:#8C8CF8;stroke-miterlimit:10;}
	.st41{fill:#3B3B56;}
	.st42{fill:none;stroke:#7B7B7C;stroke-width:0.5;stroke-miterlimit:10;}
	.st43{fill:#493636;}
	.st44{fill:#B27F6F;}
	.st45{fill:#B18070;}
	.st46{fill:url(#SVGID_3_);}
	.st47{fill:url(#SVGID_4_);}
	.st48{fill:#050505;}
	.st49{fill:url(#SVGID_5_);}
	.st50{fill:url(#SVGID_6_);}
	.st51{fill:url(#SVGID_7_);}
	.st52{fill:#4B3838;}
	.st53{fill:#895B3B;}
	.st54{fill:#75431B;}
	.st55{fill:#020202;}
	.st56{fill:#FEFEFE;}
	.st57{fill:#E4BCAD;}
	.st58{opacity:0.34;fill:#348FC0;enable-background:new    ;}
	.st59{opacity:0.34;fill:none;stroke:#348FC0;stroke-width:0.1361;stroke-miterlimit:10;enable-background:new    ;}
	.st60{fill:none;}
	.st61{fill:#A0D4F9;}
	.st62{opacity:0.3;fill:#33415C;enable-background:new    ;}
	.st63{opacity:0.31;clip-path:url(#SVGID_9_);fill:#E8E4D9;}
	.st64{opacity:0.2;}
	.st65{opacity:0.24;clip-path:url(#SVGID_11_);fill:#FFFFFF;enable-background:new    ;}
	.st66{fill:#060707;}
	.st67{opacity:0.28;}
	.st68{opacity:0.11;fill:none;stroke:#4D4D4D;stroke-miterlimit:10;}
	.st69{opacity:8.000000e-02;fill:none;stroke:#4D4D4D;stroke-miterlimit:10;}
	.st70{opacity:0.88;fill:#4D4D4D;}
	.st71{fill:#912626;}
	.st72{fill:#C6302B;}
	.st73{fill:#621B1C;}
	.st74{fill:#9A2928;}
	.st75{fill:#151F34;}
	.st76{fill:#348540;}
	.st77{fill:#7DBC42;}
	.st78{fill:url(#SVGID_12_);}
	.st79{fill:url(#SVGID_13_);}
	.st80{fill:url(#SVGID_14_);}
	.st81{fill:url(#SVGID_15_);}
	.st82{fill:url(#SVGID_16_);}
	.st83{opacity:0.34;fill:none;stroke:#348FC0;stroke-width:0.1652;stroke-miterlimit:10;enable-background:new    ;}
	.st84{clip-path:url(#SVGID_22_);fill:#E8E4D9;}
	.st85{opacity:0.24;clip-path:url(#SVGID_24_);fill:#FFFFFF;enable-background:new    ;}
	.st86{fill:url(#SVGID_25_);}
	.st87{fill:url(#SVGID_26_);}
	.st88{fill:url(#SVGID_27_);}
	.st89{fill:url(#SVGID_28_);}
	.st90{fill:url(#SVGID_29_);}
	.st91{fill:none;stroke:#D1D1D1;stroke-miterlimit:10;}
	.st92{fill:#EFEFEF;}
	.st93{fill:url(#SVGID_30_);}
	.st94{fill:url(#SVGID_31_);}
	.st95{fill:url(#SVGID_32_);}
	.st96{fill:url(#SVGID_33_);}
	.st97{fill:url(#SVGID_34_);}
	.st98{fill:#F7F7F7;}
	.st99{fill:url(#SVGID_35_);}
	.st100{fill:url(#SVGID_36_);}
	.st101{fill:url(#SVGID_37_);}
	.st102{fill:url(#SVGID_38_);}
	.st103{fill:url(#SVGID_39_);}
	.st104{fill:url(#SVGID_40_);}
	.st105{fill:url(#SVGID_41_);}
	.st106{fill:url(#SVGID_42_);}
	.st107{fill:url(#SVGID_43_);}
	.st108{fill:url(#SVGID_44_);}
	.st109{fill:url(#SVGID_45_);}
	.st110{fill:url(#SVGID_46_);}
	.st111{fill:url(#SVGID_47_);}
	.st112{fill:url(#SVGID_48_);}
	.st113{fill:url(#SVGID_49_);}
	.st114{fill:#ADADAD;stroke:#FFFFFF;stroke-width:0.1;stroke-miterlimit:10;}
	.st115{fill:#7F7F7F;stroke:#FFFFFF;stroke-width:0.1;stroke-miterlimit:10;}
	.st116{fill:#7F7F7F;stroke:#ADADAD;stroke-width:0.1;stroke-miterlimit:10;}
	.st117{fill:#7F7F7F;}
	.st118{fill:url(#SVGID_50_);}
	.st119{fill:url(#SVGID_51_);}
	.st120{fill:url(#SVGID_52_);}
	.st121{fill:url(#SVGID_53_);}
	.st122{fill:url(#SVGID_54_);}
	.st123{fill:url(#SVGID_55_);}
	.st124{fill:url(#SVGID_56_);}
	.st125{fill:url(#SVGID_57_);}
	.st126{fill:url(#SVGID_58_);}
	.st127{fill:url(#SVGID_59_);}
	.st128{fill:url(#SVGID_62_);}
	.st129{fill:url(#SVGID_63_);}
	.st130{fill:url(#SVGID_64_);}
	.st131{fill:url(#SVGID_65_);}
	.st132{fill:url(#SVGID_66_);}
	.st133{fill:url(#SVGID_69_);}
	.st134{fill:url(#SVGID_70_);}
	.st135{fill:url(#SVGID_71_);}
	.st136{fill:url(#SVGID_72_);}
	.st137{fill:url(#SVGID_73_);}
	.st138{fill:url(#SVGID_74_);}
	.st139{fill:url(#SVGID_75_);}
	.st140{fill:url(#SVGID_76_);}
	.st141{fill:url(#SVGID_77_);}
	.st142{fill:url(#SVGID_78_);}
	.st143{fill:url(#SVGID_79_);}
	.st144{fill:url(#SVGID_80_);}
	.st145{fill:url(#SVGID_81_);}
	.st146{fill:url(#SVGID_82_);}
	.st147{fill:url(#SVGID_83_);}
	.st148{fill:url(#SVGID_84_);}
	.st149{fill:url(#SVGID_85_);}
	.st150{fill:url(#SVGID_86_);}
	.st151{fill:url(#SVGID_87_);}
	.st152{fill:url(#SVGID_88_);}
	.st153{fill:url(#SVGID_89_);}
	.st154{fill:url(#SVGID_90_);}
	.st155{fill:url(#SVGID_91_);}
	.st156{fill:url(#SVGID_92_);}
	.st157{fill:url(#SVGID_93_);}
	.st158{fill:url(#SVGID_94_);}
	.st159{fill:url(#SVGID_95_);}
	.st160{fill:url(#SVGID_96_);}
	.st161{fill:url(#SVGID_97_);}
	.st162{fill:url(#SVGID_98_);}
	.st163{fill:url(#SVGID_99_);}
	.st164{fill:url(#SVGID_100_);}
	.st165{fill:url(#SVGID_101_);}
	.st166{fill:url(#SVGID_102_);}
	.st167{fill:url(#SVGID_103_);}
	.st168{fill:url(#SVGID_104_);}
	.st169{fill:url(#SVGID_105_);}
	.st170{fill:url(#SVGID_106_);}
	.st171{fill:url(#SVGID_107_);}
	.st172{fill:url(#SVGID_108_);}
	.st173{fill:url(#SVGID_109_);}
	.st174{fill:url(#SVGID_110_);}
	.st175{fill:url(#SVGID_111_);}
	.st176{fill:url(#SVGID_112_);}
	.st177{fill:url(#SVGID_113_);}
	.st178{fill:none;stroke:#8C8CF8;stroke-width:0.5;stroke-miterlimit:10;}
	.st179{fill:none;stroke:#D1D1D1;stroke-width:0.75;stroke-miterlimit:10;}
	.st180{fill:#D1D1D1;}
	.st181{fill:none;stroke:#D1D1D1;stroke-width:0.75;stroke-miterlimit:10;stroke-dasharray:3;}
	.st182{fill:none;stroke:#939393;stroke-miterlimit:10;}
	.st183{fill:#CCCCCC;stroke:#CCCCCC;stroke-width:0.5;stroke-miterlimit:10;}
	.st184{fill:#CCCCCC;stroke:#FFFFFF;stroke-width:0.1;stroke-miterlimit:10;}
	.st185{fill:#CCCCCC;stroke:#FFFFFF;stroke-width:0.25;stroke-miterlimit:10;}
	.st186{fill:#D1D1D1;stroke:#D1D1D1;stroke-width:0.75;stroke-miterlimit:10;}
	.st187{fill:#CCCCCC;}
	.st188{fill:#FFFFFF;stroke:#D1D1D1;stroke-width:3;stroke-miterlimit:10;}
	.st189{fill:#D1D1D1;stroke:#D1D1D1;stroke-width:0.25;stroke-miterlimit:10;}
	.st190{fill:url(#SVGID_116_);}
	.st191{fill:url(#SVGID_117_);}
	.st192{fill:url(#SVGID_118_);}
	.st193{fill:url(#SVGID_119_);}
	.st194{fill:url(#SVGID_120_);}
	.st195{opacity:0.31;clip-path:url(#SVGID_122_);fill:#E8E4D9;}
	.st196{opacity:0.24;clip-path:url(#SVGID_124_);fill:#FFFFFF;enable-background:new    ;}
	.st197{fill:url(#SVGID_125_);}
	.st198{fill:url(#SVGID_126_);}
	.st199{fill:url(#SVGID_127_);}
	.st200{fill:url(#SVGID_128_);}
	.st201{fill:url(#SVGID_129_);}
	.st202{opacity:0.31;clip-path:url(#SVGID_131_);fill:#E8E4D9;}
	.st203{opacity:0.24;clip-path:url(#SVGID_133_);fill:#FFFFFF;enable-background:new    ;}
	.st204{fill:#989898;}
	.st205{fill:#8790B5;}
	.st206{fill:#ADADAD;}
	.st207{fill:#303030;}
	.st208{fill:#E1E1E1;}
	.st209{fill:#26283E;}
	.st210{fill:#B5D118;}
	.st211{fill:#563A39;}
	.st212{fill:#AF8070;}
	.st213{fill:#348FC0;}
	.st214{fill:#4B3938;}
</style>
<path class="st0" d="M137.7,18.6c0.8,0.2,1.5,0.5,2,1.1c0.4,0.5,0.7,1.1,0.7,1.7c0,1.3,0,2.6,0,3.9c0,1.6-1,2.7-2.7,3.1
	c-0.5,0.1-1,0.1-1.4,0.1c-4.6,0-9.2,0-13.8,0c-0.3,0-0.4-0.1-0.4-0.4c0-5.9,0-11.8,0-17.7c0-0.3,0.1-0.4,0.4-0.4c4.4,0,8.9,0,13.3,0
	c0.8,0,1.6,0.1,2.3,0.4c1.1,0.5,1.8,1.3,1.8,2.6c0.1,1.2,0,2.4,0,3.6c-0.1,1.2-0.6,1.7-1.9,1.9C137.9,18.6,137.8,18.6,137.7,18.6z
	 M130.4,26.3c1.7,0,3.4,0,5.1,0c0.5,0,0.9-0.1,1.4-0.2c0.6-0.2,0.9-0.6,0.9-1.2c0-1.1,0-2.2,0-3.2c0-0.8-0.4-1.3-1.3-1.5
	c-0.3-0.1-0.5-0.1-0.8-0.1c-3.6,0-7.2,0-10.8,0c-0.3,0-0.3,0.1-0.3,0.4c0,1.8,0,3.7,0,5.5c0,0.3,0.1,0.4,0.4,0.4
	C126.8,26.3,128.6,26.3,130.4,26.3L130.4,26.3z M130.3,17.9L130.3,17.9c1.8,0,3.5,0,5.3,0c1.1,0,1.8-0.6,1.8-1.6c0-0.7,0-1.4,0-2.2
	c0-0.8-0.4-1.3-1.2-1.6c-0.3-0.1-0.7-0.2-1-0.2c-3.4,0-6.8,0-10.2,0c-0.3,0-0.4,0.1-0.4,0.4c0,1.6,0,3.2,0,4.8c0,0.4,0,0.4,0.4,0.4
	L130.3,17.9z"/>
<path class="st0" d="M105.9,20.2v0.4c0,1.1,0,2.3,0,3.4c0,1.4,0.9,2.3,2.3,2.3c4.1,0,8.2,0,12.2,0c0.6,0,0.6-0.1,0.6,0.6
	c0,0.4,0,0.9,0,1.3c0,0.3-0.1,0.4-0.4,0.4c-1.3,0-2.7,0-4,0c-3,0-6-0.1-9,0c-2.1,0-4-1.6-4.3-3.6c0-0.2,0-0.4,0-0.6
	c0-3.4,0-6.8,0-10.1c0-2.4,1.8-4.2,4.2-4.2c4.4,0,8.7,0,13.1,0c0.3,0,0.4,0.1,0.4,0.4c0,0.5,0,1.1,0,1.6c0,0.2-0.1,0.3-0.3,0.3
	c-0.1,0-0.2,0-0.3,0c-4.1,0-8.2,0-12.3,0c-1.2,0-2,0.6-2.3,1.7c0,0.2,0,0.4,0,0.6c0,0.9,0,1.9,0,2.8c0,0.3,0.1,0.4,0.4,0.4
	c3.9,0,7.9,0,11.8,0c0.4,0,0.4,0,0.4,0.4c0,0.5,0,1,0,1.5c0,0.3-0.1,0.4-0.4,0.4c-3.7,0-7.4,0-11.1,0L105.9,20.2z"/>
<path class="st0" d="M141.7,26.3h0.5c4.1,0,8.2,0,12.3,0c1.4,0,2.3-0.8,2.4-2.2c0-0.6,0-1.3,0-1.9c-0.1-1.1-1-2-2.1-2
	c-3.1,0-6.2,0-9.3,0c-0.7,0-1.4-0.1-2-0.5c-1.2-0.7-2.1-1.7-2.2-3.1c-0.1-1.1-0.1-2.1,0-3.2c0.3-1.9,2-3.3,3.9-3.3
	c4.2,0,8.4,0,12.6,0c0.2,0,0.3,0.1,0.3,0.3c0,0.5,0,1,0,1.6c0,0.3-0.1,0.4-0.4,0.4c-3.9,0-7.9,0-11.8,0c-0.8,0-1.5,0.3-2,1
	c-0.5,0.8-0.5,2.8,0,3.5c0.5,0.7,1.1,1,1.9,1c3.1,0,6.1,0,9.2,0c0.8,0,1.5,0.1,2.1,0.5c1.4,0.8,2.1,2,2.1,3.6c0,0.9,0,1.7,0,2.6
	c0,2.2-1.8,4.1-4,4.1c-4.4,0-8.8,0-13.2,0c-0.2,0-0.3,0-0.3-0.3C141.7,27.6,141.7,27,141.7,26.3z"/>
<path class="st0" d="M61.3,33.8c-0.8,0-1.5,0-2.2,0c-0.1,0-0.1-0.1-0.2-0.2c0-0.1,0-0.2,0-0.3c0-6,0-11.9,0-17.9
	c0-0.5,0-0.5,0.5-0.5c3.1,0,6.2,0,9.3,0c1.2,0,2.2,0.4,3,1.2c0.7,0.7,1,1.5,1,2.4c0,2.1,0,4.2,0,6.3c0,2-1.6,3.6-3.7,3.6
	c-1.9,0-3.9,0-5.8,0c-0.5,0-1.1,0-1.6,0c-0.3,0-0.4,0.1-0.4,0.4c0,1.5,0,3,0,4.5L61.3,33.8z M61.3,21.7c0,1.4,0,2.9,0,4.3
	c0,0.2,0,0.4,0.3,0.4c2.3,0,4.6,0,6.9,0c1,0,1.9-0.9,1.9-1.9c0-1.9,0-3.7,0-5.6c0-0.3-0.1-0.6-0.2-0.8c-0.4-0.8-1.2-1-2-1
	c-2.1,0-4.3,0-6.4,0c-0.3,0-0.4,0.1-0.4,0.4C61.3,18.9,61.3,20.3,61.3,21.7L61.3,21.7z"/>
<path class="st0" d="M81.7,23c-1.8,0-3.6,0-5.4,0c-0.3,0-0.4,0.1-0.4,0.4c0,0.6,0,1.2,0,1.8c0,0.8,0.4,1.2,1.2,1.2
	c1.4,0,2.8,0,4.2,0c1.5,0,3,0,4.5,0c0.3,0,0.4,0.1,0.3,0.3c0,0.5,0,1,0,1.4c0,0.2-0.1,0.3-0.3,0.3c-3.1,0-6.2,0-9.3,0
	c-1.4,0-2.6-0.9-2.9-2.1c-0.1-0.3-0.1-0.6-0.1-0.8c0-2.3,0-4.6,0-6.9c0-1.9,1.5-3.6,3.4-3.7c0.6-0.1,1.1-0.1,1.7,0
	c1.8,0,3.6,0,5.3,0.1c1.6,0.1,3,1.4,3.4,2.9c0,0.2,0.1,0.5,0.1,0.7c0,1.3,0,2.6,0,4c0,0.3-0.1,0.4-0.4,0.4C85.3,23,83.5,23,81.7,23z
	 M80.5,20.8c1.4,0,2.8,0,4.2,0c0.3,0,0.4-0.1,0.4-0.4c0-0.5,0-0.9,0-1.4c0-1.1-0.8-2-1.9-2c-1.8,0-3.5,0-5.3,0c-1.1,0-1.9,0.9-1.9,2
	c0,0.5,0,0.9,0,1.4c0,0.3,0.1,0.3,0.4,0.3C77.7,20.8,79.1,20.8,80.5,20.8z"/>
<path class="st0" d="M102.4,23.2c0,1.7,0,3.3,0,5c0,0.3-0.1,0.4-0.4,0.4c-0.6,0-1.1,0-1.7,0c-0.3,0-0.4-0.1-0.4-0.4c0-3,0-5.9,0-8.9
	c0-1.3-0.7-2.2-2-2.2c-1.8-0.1-3.6-0.1-5.4,0c-1.2,0.1-1.9,0.9-1.9,2.1c0,2.5,0,5,0,7.5c0,0.5,0,1,0,1.5c0,0.2-0.1,0.3-0.3,0.3
	c-0.6,0-1.2,0-1.8,0c-0.2,0-0.3-0.1-0.3-0.3c0-3.3,0-6.5,0-9.8c0-1.7,1.4-3.2,3.2-3.5c0.2,0,0.5-0.1,0.7-0.1c2.1,0,4.2,0,6.2,0
	c1.4,0,2.5,0.6,3.4,1.8c0.3,0.5,0.5,1,0.5,1.6C102.4,20,102.4,21.6,102.4,23.2L102.4,23.2z"/>
<path class="st0" d="M57.5,19.2c0,1.7,0,3.4,0,5.1c0,1.9-1.4,3.6-3.2,4c-0.3,0.1-0.6,0.1-0.9,0.1c-0.2,0-0.4,0-0.6,0
	c-2.5,0.1-5,0-7.6,0c-0.7,0-1.5,0-2.2,0c-0.5,0-1,0-1.5-0.2c-1.5-0.4-2.5-1.4-2.9-2.9c-0.1-0.3-0.1-0.7-0.1-1c0-0.4,0-0.8,0-1.2
	c0-2.7,0-5.4,0-8c0-0.4,0-0.9,0-1.3c0-0.8,0.3-1.5,0.8-2.1c0.6-0.9,1.6-1.5,2.7-1.7c0.4-0.1,0.8,0,1.2-0.1c1.4-0.1,2.7,0,4.1,0
	c1.4,0,2.7,0,4.1,0c0.7,0,1.4,0,2.1,0c1,0,2,0.4,2.7,1.1c0.7,0.6,1.1,1.4,1.3,2.3c0,0.3,0.1,0.5,0.1,0.8
	C57.5,15.8,57.5,17.5,57.5,19.2L57.5,19.2z M48.1,26.2L48.1,26.2c1.4,0,2.9,0,4.3,0c0.3,0,0.6,0,0.9-0.1c0.6-0.1,1.1-0.4,1.5-0.8
	c0.2-0.3,0.4-0.7,0.4-1.1c0-0.2,0-0.4,0-0.6c0-0.5,0-1,0-1.5c0-0.4,0-0.7,0-1.1l0-1.3l0-1.1l0-1.2c0-0.4,0-0.8,0-1.2
	c0-0.5,0-1.1,0-1.6c0-0.2,0-0.4-0.1-0.7c-0.1-0.5-0.3-0.9-0.6-1.2c-0.4-0.4-0.9-0.6-1.5-0.6c-0.1,0-0.2,0-0.2,0c-0.1,0-0.3,0-0.4,0
	c-0.5,0-1.1,0-1.6,0c-2.3,0-4.7,0-7,0c-0.3,0-0.5,0-0.7,0.1c-0.5,0.1-1,0.3-1.4,0.7c-0.3,0.4-0.6,0.8-0.6,1.3c0,0.4,0,0.9,0,1.3
	l0,1.2l0,1.3l0,1.2l0,1.2l0,1.1c0,0.4,0,0.8,0,1.2c0,0.3,0,0.7,0,1c0,0.3,0,0.5,0.1,0.8c0.3,1.1,1.2,1.6,2.2,1.7c0,0,0.1,0,0.1,0
	c0.2,0,0.5,0,0.7,0H48.1z"/>
<g>
	<path class="st211" d="M7,1h0.5c0,0,0,0,0.1,0c0.2,0,0.5,0.1,0.7,0.2c0.5,0.2,0.9,0.6,1.3,1.1c0.5,0.7,0.9,1.5,1.2,2.4
		C11,5.5,11.1,6.2,11.3,7c0.2,0.8,0.3,1.6,0.4,2.4c0.1,0.7,0.1,1.3,0.2,2c-0.2,0.3-0.3,0.6-0.4,0.9c-0.1,0.3-0.2,0.7-0.3,1.1
		c-0.3-0.8-0.3-1.6-0.2-2.5c-0.2,0.3-0.3,0.7-0.4,1c0-0.1,0-0.2,0-0.3c0-0.5,0-1.1,0-1.6c-0.1-0.9-0.2-1.8-0.3-2.7c-0.2-1-0.5-2-1-3
		C9,3.9,8.8,3.5,8.4,3.1C8,2.8,7.6,2.6,7.2,2.6c-0.7,0-1.3,0.2-1.8,0.7C5,3.5,4.8,3.9,4.7,4.3C4.4,5,4.4,5.7,4.5,6.4
		c0.1,0.9,0.3,1.8,0.6,2.7c0.6,2.1,1.6,3.9,2.8,5.7c0.4,0.6,0.8,1.1,1.3,1.5c0.3,0.2,0.4,0.2,0.6-0.1c0.2-0.4,0.4-0.8,0.5-1.2
		c0.1-0.3,0.1-0.6,0.2-0.8c0.1,0.2,0.1,0.5,0.2,0.7c0.2,0.3,0.3,0.7,0.6,0.9c0,0,0,0.1,0,0.1c-0.1,0.3,0,0.7,0,1
		c0.1,0.3,0.2,0.7,0.3,1c0.1,0.2,0.2,0.4,0.3,0.6c-0.1-0.3,0-0.7,0-1c0.1-0.3,0.2-0.6,0.4-0.9c-0.1,1.2,0.1,2.4,0.5,3.5
		c0,0,0,0,0-0.1c0-0.6,0-1.2,0.1-1.8c0-0.4,0.1-0.7,0.3-1.1c0.1-0.2,0.2-0.4,0.4-0.5c0.1,0,0.1,0,0.1,0c0.2,0.4,0.4,0.9,0.4,1.4
		c0.1,0.3,0.1,0.6,0,0.9c0,0,0,0,0,0.1c0,0,0,0,0.1,0c0.4-0.6,0.8-1.2,0.9-2c0-0.2,0-0.4,0-0.6c0-0.2-0.1-0.4-0.1-0.5l0,0
		c0.2,0.2,0.4,0.4,0.6,0.6c0.3,0.4,0.6,0.9,0.7,1.4c0.1,0.3,0.1,0.5,0.1,0.8c0,0.2-0.1,0.3-0.1,0.5c0,0,0,0,0,0l0,0l0,0
		c0,0,0-0.1,0.1-0.1c0.2-0.4,0.4-0.9,0.5-1.4c0.1-0.4,0.2-0.8,0.2-1.3c0-0.1,0-0.1,0-0.2c0.1,0,0.1,0.1,0.2,0.2
		c0.2,0.2,0.2,0.5,0.3,0.8c0,0.2,0.1,0.4,0.1,0.6c0-0.1,0.1-0.2,0.1-0.3c0.2-0.5,0.3-1.1,0.2-1.7c0-0.3-0.1-0.5-0.3-0.7
		c0-0.1,0-0.1,0-0.1c0.1-0.1,0.1-0.3,0.2-0.4c0,0,0,0,0,0c0.1,0.5,0.3,1,0.5,1.5c0.2,0.3,0.3,0.3,0.6,0.1c0.3-0.3,0.6-0.6,0.9-1
		c0.8-1.1,1.5-2.2,2.1-3.4c0.7-1.5,1.2-3,1.5-4.6c0.1-0.7,0.2-1.5,0.1-2.2c-0.1-0.6-0.3-1.2-0.6-1.6c-0.4-0.5-0.8-0.7-1.4-0.8
		c-0.6-0.1-1.1,0-1.6,0.3c-0.3,0.2-0.5,0.5-0.7,0.8c-0.4,0.6-0.7,1.3-1,2.1C18.1,6.5,18,7.2,17.9,8c-0.1,0.6-0.1,1.1-0.2,1.7
		c0,0.3,0,0.5,0,0.8c0,0.4,0,0.9,0,1.3c0,0.3,0.1,0.6,0,0.9c-0.1-0.2-0.1-0.3-0.2-0.5c0-0.1-0.1-0.2-0.1-0.3c0,0.3,0,0.6,0,0.8
		c0,0.3,0,0.5-0.1,0.8c-0.1,0.2-0.2,0.4-0.5,0.5c-0.1,0-0.1,0-0.1-0.1c-0.1-0.2-0.1-0.4,0-0.6c0.1-0.3,0.2-0.6,0.3-0.8
		c0,0,0,0,0-0.1c0,0-0.1,0-0.1,0c-0.2,0-0.4,0.1-0.6,0.1c0.1-0.8,0.1-1.6,0.2-2.4c0.1-0.8,0.2-1.6,0.3-2.4c0.2-1.2,0.5-2.4,0.9-3.6
		C18,3.4,18.4,2.6,19,1.9c0.7-0.7,1.5-1,2.4-0.8c0.8,0.1,1.5,0.5,2,1c0.9,0.8,1.3,1.9,1.4,3.1c0,0.3,0,0.6,0,0.9
		c0,0.3,0,0.6-0.1,0.9c-0.1,0.9-0.3,1.8-0.6,2.6c-0.6,2.1-1.6,4.1-2.6,6.1c-0.2,0.3-0.3,0.6-0.5,0.9c-0.1,0.2-0.1,0.3,0.1,0.5
		c0,0,0,0,0.1,0c0.3,0.2,0.5,0.5,0.7,0.7c0.5,0.6,0.7,1.2,0.9,2c0.1,0.5,0.2,1.1,0.1,1.7c0,0.4-0.1,0.8-0.1,1.3
		c-0.1,0.5-0.1,0.9-0.2,1.4c-0.1,0.6-0.2,1.2-0.2,1.7c-0.1,0.7-0.2,1.5-0.4,2.2c-0.1,0.7-0.2,1.4-0.3,2.1c-0.1,0.5-0.1,1-0.3,1.5
		c-0.2,1-0.6,1.9-0.9,2.8c0,0,0-0.1,0-0.1c-0.1-0.1-0.1-0.3-0.2-0.4c-0.4-0.9-1-1.7-1.7-2.5c-0.6-0.6-1.2-1.1-1.9-1.6
		c-0.8-0.5-1.6-0.8-2.5-0.9c-0.6-0.1-1.2,0-1.8,0.3c-0.7,0.3-1.3,0.7-1.8,1.2c-0.7,0.7-1.3,1.4-1.8,2.2c-0.4,0.7-0.7,1.4-1,2.1
		c-0.1,0.3-0.1,0.7-0.2,1c0,0.1,0,0.1-0.1,0.2c0,0,0-0.1,0-0.1c-0.3-0.7-0.6-1.4-0.9-2.1c-0.2-0.6-0.5-1.2-0.6-1.8
		c-0.2-0.7-0.2-1.4-0.2-2.2c0-0.5-0.1-0.9-0.1-1.4c0-0.4-0.1-0.8-0.1-1.1c-0.1-0.5-0.1-1-0.1-1.5c0-0.6-0.1-1.2-0.1-1.8
		c0-0.5-0.1-1.1-0.1-1.6c0-0.6,0-1.2,0.1-1.7c0.2-1,0.7-1.9,1.4-2.8c0.2-0.2,0.4-0.4,0.6-0.6c0.1-0.1,0.1-0.2,0.1-0.4
		c0,0,0-0.1,0-0.1c-0.7-1.3-1.4-2.6-2-3.9C4.6,11.4,4,9.7,3.6,7.9C3.5,7.3,3.4,6.6,3.4,6c0,0,0,0,0-0.1V5.6c0,0,0,0,0,0
		c0-0.2,0-0.4,0-0.6C3.5,4.4,3.7,3.8,4,3.2c0.5-1.1,1.5-1.7,2.6-2C6.7,1.1,6.9,1.1,7,1z M17,27c0.1,0,0.2,0,0.3,0c0.1,0,0.2,0,0.3,0
		c1.2-0.2,2.2-0.7,3-1.6c0.6-0.6,0.7-1.3,0.5-2c-0.3-1-0.9-1.7-1.8-2.3c-0.5-0.3-1-0.4-1.6-0.2c-0.4,0.1-0.8,0.4-1.1,0.7
		c-0.7,0.7-1.2,1.7-1.4,2.7c-0.2,0.8,0,1.5,0.3,2.2c0.2,0.3,0.4,0.5,0.8,0.6C16.5,27,16.8,27,17,27z M11.4,27c0.1,0,0.1,0,0.2,0
		c0.4,0,0.8-0.1,1-0.5c0.2-0.4,0.4-0.8,0.4-1.3c0-0.5-0.1-1-0.2-1.5c-0.3-1.2-1-2.1-2.2-2.8c-0.4-0.2-0.8-0.3-1.2-0.2
		c-0.6,0.1-1,0.5-1.5,0.9c-0.4,0.4-0.7,1-1,1.6c-0.3,0.7-0.2,1.3,0.3,1.9c0.3,0.3,0.6,0.6,0.9,0.9C9.2,26.7,10.3,27,11.4,27L11.4,27
		z"/>
	<path class="st212" d="M20.6,34.5c0,0.2,0.1,0.3,0.1,0.5c0.2,1,0,1.9-0.6,2.6c-0.7,1-1.7,1.6-2.9,2c-0.6,0.2-1.2,0.3-1.8,0.3
		c0,0-0.1,0-0.1,0H14c0,0,0,0-0.1,0c-0.8,0-1.6-0.1-2.4-0.2c-0.7-0.1-1.3-0.3-1.9-0.6c-1.3-0.6-2-1.7-2-3.2c0,0,0-0.1,0-0.1
		c0.1-0.3,0.1-0.7,0.2-1c0.2-0.7,0.5-1.5,1-2.1c0.5-0.8,1.1-1.5,1.8-2.2c0.5-0.5,1.1-0.9,1.8-1.2c0.6-0.2,1.2-0.3,1.8-0.3
		c0.9,0.1,1.7,0.4,2.5,0.9c0.7,0.4,1.4,1,1.9,1.6c0.7,0.7,1.3,1.6,1.7,2.5C20.4,34.2,20.5,34.3,20.6,34.5
		C20.6,34.5,20.6,34.5,20.6,34.5z M18.5,36.5C18.5,36.5,18.5,36.5,18.5,36.5c-0.7,0.5-1.3,0.9-2,1.2c-1,0.5-2.1,0.6-3.2,0.4
		c-0.9-0.2-1.8-0.5-2.6-0.9c-0.4-0.2-0.7-0.4-1-0.6l0,0l0,0c0,0.1,0,0.1,0.1,0.1c0.8,1,1.8,1.7,2.9,2.1c0.9,0.3,1.9,0.4,2.8,0.1
		c1.1-0.3,2-0.9,2.6-1.8C18.3,36.8,18.5,36.7,18.5,36.5C18.5,36.5,18.5,36.5,18.5,36.5C18.6,36.5,18.5,36.5,18.5,36.5L18.5,36.5z
		 M18.9,33.6c0-0.1,0-0.3-0.1-0.4c-0.1-0.2-0.3-0.4-0.6-0.5c-0.5-0.3-1.1-0.3-1.5,0.1c-0.2,0.2-0.3,0.5-0.3,0.8
		c0,0.6-0.2,1.1-0.5,1.6c-0.2,0.3-0.3,0.5-0.5,0.8c-0.1,0.1-0.1,0.3,0.1,0.4c0.1,0.1,0.2,0,0.3,0c0.8-0.3,1.6-0.7,2.3-1.3
		C18.6,34.7,18.8,34.2,18.9,33.6L18.9,33.6z M9.8,33.8c0,0.2,0.1,0.4,0.2,0.6c0.2,0.4,0.6,0.7,1,1c0.5,0.4,1.1,0.6,1.6,0.9
		c0.1,0.1,0.2,0.1,0.3,0.1c0.1,0,0.2,0,0.3-0.1c0.1,0,0.1-0.1,0.1-0.2c0-0.1-0.1-0.2-0.2-0.2c0,0-0.1-0.1-0.1-0.1
		c0-0.1,0-0.1-0.1-0.2c0,0-0.1-0.1-0.1-0.1c-0.4-0.6-0.6-1.2-0.7-1.9c0-0.7-0.6-1.2-1.3-1.1C10.4,32.6,9.8,33.1,9.8,33.8L9.8,33.8z"
		/>
	<path class="st212" d="M24.8,5.2L24.8,5.2l0,0.9l0,0h0C24.8,5.8,24.8,5.5,24.8,5.2z"/>
	<path class="st213" d="M10.4,14.2c-0.1,0.3-0.1,0.6-0.2,0.8c-0.1,0.4-0.3,0.8-0.5,1.2c-0.2,0.3-0.3,0.3-0.6,0.1
		c-0.5-0.4-0.9-1-1.3-1.5c-1.2-1.8-2.1-3.7-2.8-5.7C4.8,8.2,4.6,7.3,4.5,6.4C4.4,5.7,4.4,5,4.7,4.3C4.8,3.9,5,3.5,5.4,3.2
		c0.5-0.4,1.1-0.7,1.8-0.7c0.5,0,0.9,0.3,1.2,0.6C8.8,3.5,9,3.9,9.2,4.3c0.5,0.9,0.8,1.9,1,3c0.2,0.9,0.3,1.8,0.3,2.7
		c0,0.5,0,1.1,0,1.6c0,0.1,0,0.2,0,0.3c0,0,0,0.1,0,0.1c-0.1,0.5-0.2,1-0.2,1.6C10.3,13.8,10.4,14,10.4,14.2z"/>
	<path class="st213" d="M17.7,12.7c0-0.3,0-0.6,0-0.9c0-0.4,0-0.9,0-1.3c0-0.3,0-0.5,0-0.8c0-0.6,0.1-1.1,0.2-1.7
		c0.1-0.8,0.3-1.5,0.5-2.2c0.2-0.7,0.5-1.4,1-2.1C19.5,3.4,19.8,3.2,20,3c0.5-0.4,1-0.5,1.6-0.3c0.6,0.1,1,0.4,1.4,0.8
		c0.4,0.5,0.6,1,0.6,1.6c0.1,0.7,0,1.5-0.1,2.2c-0.3,1.6-0.8,3.2-1.5,4.6c-0.6,1.2-1.3,2.4-2.1,3.4c-0.3,0.3-0.6,0.7-0.9,1
		c-0.3,0.3-0.4,0.2-0.6-0.1c-0.3-0.5-0.4-1-0.5-1.5c0,0,0,0,0,0c0.1-0.4,0.1-0.7,0-1.1C17.9,13.3,17.8,13,17.7,12.7z"/>
	<path class="st66" d="M17.7,12.7c0.1,0.3,0.2,0.6,0.2,0.9c0.1,0.4,0.1,0.7,0,1.1c0,0.1-0.1,0.3-0.2,0.4c0,0,0,0.1,0,0.1
		c0.1,0.2,0.2,0.5,0.3,0.7c0.1,0.6,0,1.1-0.2,1.7c0,0.1-0.1,0.2-0.1,0.3c0-0.2-0.1-0.4-0.1-0.6c-0.1-0.3-0.1-0.6-0.3-0.8
		c-0.1-0.1-0.1-0.1-0.2-0.2c0,0.1,0,0.1,0,0.2c0,0.4-0.1,0.9-0.2,1.3c-0.1,0.5-0.3,0.9-0.5,1.4c0,0,0,0.1-0.1,0.1l0,0
		c0-0.2,0-0.3,0.1-0.5c0-0.3,0-0.5-0.1-0.8c-0.1-0.5-0.4-1-0.7-1.4c-0.2-0.2-0.4-0.4-0.6-0.6l0,0l0,0c0,0.2,0.1,0.4,0.1,0.5
		c0,0.2,0,0.4,0,0.6c-0.1,0.7-0.5,1.4-0.9,2c0,0,0,0.1-0.1,0c0,0,0,0,0-0.1c0.1-0.3,0-0.6,0-0.9c-0.1-0.5-0.3-0.9-0.4-1.4
		c0-0.1-0.1-0.1-0.1,0c-0.2,0.1-0.3,0.3-0.4,0.5c-0.2,0.3-0.2,0.7-0.3,1.1c-0.1,0.6-0.1,1.2-0.1,1.8c0,0,0,0,0,0.1
		c-0.4-1.2-0.6-2.3-0.5-3.5c-0.2,0.3-0.3,0.6-0.4,0.9c-0.1,0.3-0.1,0.6,0,1c-0.1-0.2-0.2-0.4-0.3-0.6c-0.1-0.3-0.2-0.7-0.3-1
		c-0.1-0.3-0.1-0.7,0-1c0,0,0-0.1,0-0.1c-0.4-0.2-0.5-0.6-0.6-0.9c-0.1-0.2-0.1-0.5-0.2-0.7c0-0.2-0.1-0.4-0.1-0.6
		c0-0.5,0.1-1,0.2-1.6c0,0,0-0.1,0-0.1c0.1-0.3,0.2-0.7,0.4-1c0,0.8,0,1.7,0.2,2.5c0-0.4,0.1-0.7,0.3-1.1c0.1-0.3,0.2-0.6,0.4-0.9
		c0,0,0,0.1,0,0.1c0,0,0,0,0,0c0,0.2,0,0.5,0,0.7c0,0.1,0,0.2,0.1,0.4c0.1,0.3,0.2,0.5,0.3,0.8c0.2-0.5,0.3-1,0.2-1.5l0,0
		c0.1,0.1,0.2,0.3,0.4,0.4c0.1,0.2,0.3,0.4,0.4,0.6c0.1,0.2,0.2,0.4,0.3,0.6c0.1-0.5,0.3-1.1,0.6-1.6c0.1,0.6,0.2,1.2,0.5,1.7
		c0.1-0.1,0.1-0.2,0.2-0.3c0.2-0.4,0.3-0.9,0.3-1.3c0-0.1-0.1-0.2-0.1-0.3l0,0c0.3,0.5,0.5,0.9,0.7,1.5c0.1-0.1,0.1-0.2,0.2-0.3
		c0.1-0.2,0.3-0.3,0.5-0.4c0.2-0.1,0.4-0.1,0.6-0.1c0,0,0.1,0,0.1,0c0,0,0,0,0,0.1c-0.2,0.3-0.3,0.5-0.3,0.8c0,0.2,0,0.4,0,0.6
		c0,0.1,0.1,0.1,0.1,0.1c0.3-0.1,0.4-0.3,0.5-0.5c0.1-0.3,0.1-0.5,0.1-0.8c0-0.3,0-0.6,0-0.8c0,0.1,0.1,0.2,0.1,0.3
		C17.6,12.4,17.6,12.6,17.7,12.7z"/>
	<path class="st0" d="M17,27c-0.3,0-0.5,0-0.8,0c-0.4,0-0.6-0.2-0.8-0.6c-0.3-0.7-0.5-1.4-0.3-2.2c0.2-1,0.7-1.9,1.4-2.7
		c0.3-0.3,0.7-0.6,1.1-0.7c0.6-0.2,1.1-0.1,1.6,0.2c0.9,0.5,1.5,1.3,1.8,2.3c0.2,0.8,0,1.5-0.5,2c-0.8,0.9-1.9,1.4-3,1.6
		c-0.1,0-0.2,0-0.3,0C17.2,27,17.1,27,17,27z M17.4,26.8c0.2,0,0.3,0,0.5,0c0.6-0.1,1-0.5,1.2-1.1c0.1-0.2,0.2-0.4,0.1-0.7
		c0-0.3-0.3-0.4-0.5-0.3c-0.1,0-0.1,0.1-0.2,0.1c-0.1,0-0.1,0.1-0.2,0.1c-0.3,0.1-0.5,0-0.7-0.3c-0.2-0.2-0.2-0.4,0-0.7
		c0.1-0.1,0.1-0.1,0.2-0.2c0.2-0.2,0.1-0.6-0.2-0.6c-0.3-0.1-0.6,0-1,0.1c-0.6,0.2-1,0.6-1.1,1.2c-0.1,0.5-0.1,0.9,0.1,1.4
		c0.2,0.4,0.5,0.7,1,0.9C16.9,26.8,17.1,26.8,17.4,26.8L17.4,26.8z"/>
	<path class="st0" d="M11.4,27c-1.1,0-2.2-0.3-3.2-1c-0.3-0.3-0.7-0.5-0.9-0.9c-0.4-0.6-0.5-1.2-0.3-1.9c0.2-0.6,0.5-1.1,1-1.6
		c0.4-0.4,0.9-0.7,1.5-0.9c0.4-0.1,0.8,0,1.2,0.2c1.1,0.6,1.8,1.5,2.2,2.8c0.1,0.5,0.2,1,0.2,1.5c0,0.5-0.2,0.9-0.4,1.3
		c-0.2,0.4-0.6,0.5-1,0.5C11.5,27,11.5,27,11.4,27z M8.9,25c0,0.1,0,0.1,0,0.2c0,0.1,0,0.1,0,0.2c0.2,0.7,0.6,1.1,1.2,1.3
		c0.2,0.1,0.4,0,0.6,0.1c0.4,0,0.7,0,1-0.2c0.6-0.4,0.9-0.9,0.8-1.6c0-0.3-0.3-0.5-0.6-0.3c-0.1,0-0.1,0.1-0.2,0.1
		c-0.2,0.1-0.4,0.1-0.6-0.1c-0.4-0.3-0.4-0.6,0-0.9c0,0,0.1-0.1,0.1-0.1c0.1-0.1,0.1-0.3,0-0.4c-0.1-0.1-0.2-0.2-0.3-0.2
		c-0.2,0-0.4,0-0.6,0C9.5,23.3,8.9,24.1,8.9,25L8.9,25z"/>
	<path class="st66" d="M16.3,19.2L16.3,19.2L16.3,19.2C16.3,19.2,16.3,19.2,16.3,19.2L16.3,19.2z"/>
	<path class="st66" d="M18.9,33.6c0,0.6-0.3,1.1-0.8,1.5c-0.7,0.6-1.5,1-2.3,1.3c-0.1,0-0.2,0.1-0.3,0c-0.2-0.1-0.2-0.2-0.1-0.4
		c0.2-0.3,0.4-0.5,0.5-0.8c0.3-0.5,0.5-1,0.5-1.6c0-0.3,0.1-0.6,0.3-0.8c0.4-0.4,1-0.4,1.5-0.1c0.2,0.1,0.4,0.3,0.6,0.5
		C18.8,33.3,18.9,33.4,18.9,33.6z"/>
	<path class="st66" d="M9.8,33.8c0-0.6,0.5-1.2,1.1-1.3c0.7-0.1,1.3,0.4,1.3,1.1c0,0.7,0.2,1.3,0.7,1.9c0,0,0.1,0.1,0.1,0.1
		s0.1,0.1,0.1,0.2c0,0,0,0.1,0.1,0.1c0.1,0.1,0.1,0.2,0.2,0.2c0,0.1,0,0.2-0.1,0.2c-0.1,0.1-0.2,0.1-0.3,0.1c-0.1,0-0.2-0.1-0.3-0.1
		c-0.6-0.3-1.1-0.6-1.6-0.9c-0.4-0.3-0.7-0.6-1-1C9.9,34.2,9.8,34,9.8,33.8z"/>
	<path class="st0" d="M9.8,36.5c0.3,0.2,0.7,0.4,1,0.6c0.8,0.4,1.7,0.8,2.6,0.9c1.1,0.2,2.2,0.1,3.2-0.4c0.7-0.3,1.3-0.7,1.9-1.2
		c0,0,0,0,0.1-0.1l0,0c-0.1,0.2-0.2,0.3-0.3,0.5c-0.7,0.9-1.5,1.5-2.6,1.8c-0.9,0.3-1.9,0.2-2.8-0.1c-1.2-0.4-2.2-1.1-2.9-2.1
		C9.8,36.6,9.8,36.6,9.8,36.5L9.8,36.5z"/>
	<path class="st0" d="M18.5,36.5L18.5,36.5C18.6,36.5,18.6,36.5,18.5,36.5C18.6,36.5,18.5,36.5,18.5,36.5L18.5,36.5z"/>
	<path class="st0" d="M9.8,36.5L9.8,36.5L9.8,36.5L9.8,36.5z"/>
	<path class="st213" d="M14.9,11.8c0,0.1,0,0.2,0.1,0.3c0.1,0.5,0,0.9-0.3,1.3c-0.1,0.1-0.1,0.2-0.2,0.3c-0.3-0.5-0.4-1.1-0.5-1.7
		c-0.3,0.5-0.4,1-0.6,1.6c-0.1-0.2-0.2-0.4-0.3-0.6c-0.1-0.2-0.3-0.4-0.4-0.6c0.3-0.4,0.7-0.6,1.2-0.7c0,0,0.1,0,0.1,0
		c0.1,0,0.2,0,0.3,0C14.5,11.6,14.6,11.7,14.9,11.8C14.9,11.8,14.9,11.8,14.9,11.8z"/>
	<path class="st213" d="M14,9.7c-0.4-0.1-0.7-0.5-0.6-0.9c0.1-0.4,0.5-0.7,0.9-0.6c0.1,0,0.2,0.1,0.3,0.2C15,8.5,15,9,14.8,9.4
		c-0.1,0.2-0.3,0.3-0.5,0.3C14.2,9.7,14.1,9.7,14,9.7z"/>
	<path class="st66" d="M14,9.7c0.1,0,0.2,0,0.2,0c0,0.6,0,1.1,0,1.7c0,0.1,0,0.2,0,0.2c-0.1,0-0.2,0-0.3,0L14,9.7z"/>
	<path class="st213" d="M15.8,13c-0.1,0.1-0.1,0.2-0.2,0.3c-0.2-0.5-0.4-1-0.7-1.5c0.2,0.1,0.4,0.2,0.5,0.4
		C15.6,12.4,15.7,12.7,15.8,13C15.8,13,15.8,13,15.8,13z"/>
	<path class="st214" d="M11.9,12.6c-0.1-0.1-0.1-0.2-0.1-0.4c0-0.2,0-0.5,0-0.7c0,0,0,0,0,0C11.8,11.9,11.9,12.2,11.9,12.6z"/>
	<path class="st66" d="M12.4,11.9L12.4,11.9L12.4,11.9L12.4,11.9L12.4,11.9z"/>
	<path class="st214" d="M15,16L15,16L15,16L15,16z"/>
	<path class="st66" d="M17.4,26.8c-0.3,0-0.5,0-0.7-0.1c-0.5-0.1-0.8-0.4-1-0.9c-0.2-0.5-0.2-0.9-0.1-1.4c0.1-0.6,0.6-1,1.1-1.2
		c0.3-0.1,0.6-0.1,1-0.1c0.3,0.1,0.4,0.4,0.2,0.6c-0.1,0.1-0.1,0.1-0.2,0.2c-0.2,0.2-0.2,0.4,0,0.7c0.2,0.2,0.4,0.3,0.7,0.3
		c0.1,0,0.1-0.1,0.2-0.1c0.1,0,0.1-0.1,0.2-0.1c0.3-0.1,0.5,0,0.5,0.3c0,0.2-0.1,0.5-0.1,0.7c-0.2,0.6-0.6,1-1.2,1.1
		C17.7,26.8,17.5,26.8,17.4,26.8z"/>
	<path class="st66" d="M8.9,25c0-1,0.6-1.7,1.6-1.9c0.2,0,0.4,0,0.6,0c0.1,0,0.3,0.1,0.3,0.2c0.1,0.2,0.1,0.3,0,0.4
		c0,0-0.1,0.1-0.1,0.1c-0.3,0.3-0.3,0.7,0,0.9c0.2,0.1,0.4,0.2,0.6,0.1c0.1,0,0.1-0.1,0.2-0.1c0.3-0.2,0.5,0,0.6,0.3
		c0.1,0.7-0.2,1.2-0.8,1.6c-0.3,0.2-0.6,0.3-1,0.2c-0.2,0-0.4,0-0.6-0.1c-0.7-0.2-1-0.7-1.2-1.3c0-0.1,0-0.1,0-0.2
		C8.9,25.2,8.9,25.1,8.9,25z"/>
</g>
</svg>
