<svg width="87" height="18" viewBox="0 0 87 18" fill="none" xmlns="http://www.w3.org/2000/svg">
<path d="M71.0983 6.31583C71.6422 6.43346 72.1382 6.71171 72.5221 7.11453C72.8374 7.45413 73.0113 7.90125 73.0083 8.36467V11.1428C73.0083 12.2887 72.3138 13.0874 71.0636 13.3305C70.7206 13.3995 70.3717 13.4344 70.0218 13.4347H60.229C60.0207 13.4347 59.9512 13.3652 59.9512 13.1569V0.586005C59.9512 0.377648 60.0207 0.308196 60.229 0.308196H69.7093C70.2697 0.290651 70.8271 0.397383 71.3414 0.620731C72.1124 0.891835 72.6369 1.6096 72.661 2.42649C72.7015 3.27141 72.6899 4.11802 72.6263 4.9615C72.5568 5.79493 72.2443 6.14219 71.2372 6.31583H71.0983ZM65.9241 11.8373H69.5357C69.8637 11.8251 70.1896 11.7786 70.508 11.6984C70.8873 11.6034 71.1481 11.2556 71.1331 10.865C71.1678 10.101 71.1678 9.337 71.1331 8.57303C71.1331 7.98268 70.8205 7.67015 70.2302 7.53124C70.0475 7.49104 69.8615 7.46779 69.6746 7.46179H61.9654C61.757 7.46179 61.7223 7.53124 61.7223 7.70487V11.5942C61.7223 11.8373 61.7917 11.872 62.0001 11.872C63.3544 11.8026 64.6393 11.8373 65.9241 11.8373ZM65.82 5.82966C67.0701 5.79493 68.355 5.82966 69.6051 5.79493C70.4038 5.79493 70.89 5.34349 70.89 4.61424V3.05156C70.9188 2.52793 70.5673 2.05926 70.0566 1.94033C69.8082 1.86935 69.5509 1.83427 69.2926 1.83615H62.0348C61.8264 1.83615 61.757 1.9056 61.757 2.11396V5.51712C61.757 5.82966 61.757 5.82966 62.0695 5.82966H65.82Z" fill="#F15A29"/>
<path d="M48.4916 7.42709V10.1357C48.4615 10.5864 48.6275 11.028 48.9468 11.3473C49.2662 11.6667 49.7078 11.8326 50.1584 11.8026H58.8747C59.3262 11.8026 59.2914 11.7679 59.2914 12.2193V13.1569C59.2914 13.3653 59.222 13.4 59.0136 13.4H56.1313C54.013 13.4 51.8948 13.3653 49.7417 13.4C48.2356 13.4488 46.934 12.3567 46.7205 10.865C46.7205 10.7261 46.6858 10.5872 46.6858 10.4483V3.22522C46.6676 2.42772 46.9764 1.65746 47.5404 1.09339C48.1045 0.529325 48.8748 0.22054 49.6723 0.23877H58.9442C59.1525 0.23877 59.2567 0.273497 59.222 0.51658C59.1872 0.898568 59.222 1.28056 59.222 1.66254C59.222 1.80145 59.1872 1.8709 59.0483 1.8709H50.089C49.3153 1.81827 48.6264 2.3574 48.4916 3.12104C48.4628 3.25798 48.4511 3.39795 48.4569 3.53776V5.51715C48.4569 5.76023 48.5263 5.79496 48.7347 5.79496H57.1384C57.4509 5.79496 57.4509 5.79496 57.4509 6.1075V7.18401C57.4509 7.39236 57.3815 7.46182 57.1731 7.46182H49.2556L48.4916 7.42709Z" fill="#F15A29"/>
<path d="M73.9459 11.8026H83.0094C83.4432 11.8379 83.8716 11.6883 84.1891 11.3906C84.5066 11.093 84.6836 10.675 84.6762 10.2399C84.711 9.78844 84.6762 9.30228 84.6762 8.85084C84.623 8.04711 83.9538 7.42347 83.1483 7.42706H76.5156C76.0079 7.436 75.5062 7.31655 75.0571 7.0798C74.1889 6.59364 73.5639 5.86439 73.4944 4.85733C73.4189 4.10611 73.4305 3.34867 73.5291 2.60012C73.7631 1.25041 74.9374 0.266909 76.3072 0.27347H85.2666C85.4402 0.27347 85.5097 0.342922 85.5097 0.516553V1.62779C85.5097 1.83615 85.4402 1.87087 85.2319 1.87087H76.8281C76.2648 1.83319 75.728 2.11501 75.4391 2.60012C75.0918 3.12102 75.0918 4.57952 75.4738 5.10041C75.7847 5.53926 76.2903 5.79858 76.8281 5.79493H83.3566C83.8802 5.78112 84.3973 5.91339 84.8499 6.17692C85.7895 6.69093 86.375 7.67559 86.3778 8.74666V10.5871C86.3723 12.1824 85.0906 13.4796 83.4956 13.5041H74.0848C73.9111 13.5041 73.8417 13.4694 73.8417 13.2958C73.9258 12.8027 73.9607 12.3025 73.9459 11.8026Z" fill="#F15A29"/>
<path d="M16.7171 17.1504H15.1545C15.1197 17.1504 15.0503 17.081 15.0156 17.0115C14.9808 16.9421 15.0156 16.8726 15.0156 16.8031V4.05864C15.0156 3.71138 15.0156 3.71138 15.3628 3.71138H22.0302C22.8367 3.6925 23.6154 4.00649 24.1833 4.57953C24.65 5.03398 24.9023 5.66488 24.8778 6.31584V10.7955C24.8388 12.2309 23.6744 13.38 22.2386 13.4C20.8496 13.4347 19.4952 13.4 18.1062 13.4H16.9602C16.7519 13.4 16.7171 13.4694 16.7171 13.6431V17.1504ZM16.7171 8.53831V11.6289C16.7171 11.8026 16.7171 11.9068 16.9255 11.9068H21.8219C22.546 11.8956 23.1303 11.3113 23.1415 10.5872V6.59365C23.1373 6.3849 23.0774 6.18107 22.9679 6.0033C22.6553 5.44769 22.1344 5.27405 21.5094 5.27405H16.9602C16.7519 5.27405 16.6824 5.34351 16.6824 5.55186C16.7171 6.5242 16.7171 7.53126 16.7171 8.53831Z" fill="#F15A29"/>
<path d="M31.2674 9.44121H27.4475C27.2044 9.44121 27.135 9.51066 27.135 9.75374V11.0733C27.1148 11.3184 27.2034 11.56 27.3773 11.7339C27.5512 11.9078 27.7928 11.9964 28.0379 11.9762H34.1844C34.3928 11.9762 34.4275 12.0457 34.4275 12.2193V13.2264C34.4357 13.2838 34.4165 13.3417 34.3755 13.3827C34.3344 13.4237 34.2765 13.443 34.2191 13.4347H27.5517C26.613 13.4469 25.7787 12.8388 25.5029 11.9415C25.4626 11.7471 25.4394 11.5496 25.4334 11.3511V6.45475C25.4206 5.07151 26.4846 3.91627 27.8642 3.81556C28.281 3.78084 28.6629 3.78084 29.0797 3.78084C30.3298 3.78084 31.6147 3.74611 32.8648 3.81556C34.0201 3.91444 34.9838 4.73853 35.2609 5.86441C35.2897 6.03646 35.3014 6.21095 35.2956 6.3853V9.19812C35.2956 9.44121 35.2262 9.51066 34.9831 9.47593C33.7677 9.44121 32.5175 9.44121 31.2674 9.44121ZM30.3992 7.94798H33.3857C33.5941 7.94798 33.6635 7.91325 33.6635 7.7049V6.73256C33.6728 6.36413 33.5354 6.0071 33.2814 5.74006C33.0273 5.47303 32.6776 5.31789 32.3092 5.30879C31.059 5.27406 29.8089 5.27406 28.5588 5.30879C28.1903 5.31789 27.8406 5.47303 27.5866 5.74006C27.3326 6.0071 27.1951 6.36413 27.2044 6.73256V7.73962C27.2044 7.94798 27.2739 7.98271 27.4475 7.98271C28.4199 7.91325 29.3922 7.94798 30.3992 7.94798Z" fill="#F15A29"/>
<path d="M45.9566 9.61484V13.1569C45.9566 13.3653 45.8871 13.4347 45.6788 13.4347H44.4981C44.2897 13.4347 44.255 13.3653 44.255 13.1569V6.83674C44.255 5.89914 43.7688 5.30879 42.8312 5.27406C41.5464 5.20461 40.2615 5.23934 39.0113 5.27406C38.1432 5.30879 37.657 5.89913 37.657 6.76729V13.1569C37.657 13.3305 37.6223 13.4 37.4487 13.4H36.1638C35.9902 13.4 35.9554 13.3305 35.9554 13.1916V6.2464C36.0074 4.98469 36.9604 3.94374 38.2126 3.78084C38.3847 3.75201 38.5592 3.74038 38.7335 3.74611H43.1785C44.1356 3.73749 45.0341 4.20628 45.5746 4.99625C45.8186 5.32889 45.9522 5.72968 45.9566 6.14222V9.61484Z" fill="#F15A29"/>
<path d="M14.0085 6.76728V10.3788C13.9993 11.7381 13.046 12.9081 11.7166 13.1916C11.5105 13.2319 11.3014 13.2551 11.0915 13.2611H10.6748C8.86901 13.2958 7.09797 13.2611 5.29221 13.2958H3.72954C3.37899 13.3146 3.02764 13.2794 2.68775 13.1916C1.66387 12.9314 0.864378 12.1319 0.604179 11.1081C0.535576 10.871 0.500509 10.6256 0.5 10.3788V2.84322C0.526506 2.30003 0.720606 1.77839 1.05562 1.35C1.50649 0.71443 2.19548 0.288504 2.96556 0.169306C3.25399 0.140404 3.54389 0.128808 3.83371 0.13458C4.80605 0.0998535 5.77838 0.13458 6.75071 0.0998535H11.1262C12.5141 0.128519 13.6901 1.13025 13.939 2.49596C13.9738 2.70432 13.9738 2.87795 14.0085 3.08631V6.76728ZM7.30633 11.7331H10.3622C10.5712 11.7389 10.7803 11.7273 10.9873 11.6984C11.4007 11.6523 11.7772 11.439 12.0291 11.1081C12.2028 10.8877 12.3111 10.623 12.3416 10.3441V3.53775C12.3474 3.37492 12.3357 3.21194 12.3069 3.05158C12.2646 2.71767 12.1045 2.40983 11.8555 2.18342C11.5635 1.9113 11.178 1.76206 10.779 1.76671C10.7095 1.76671 10.6748 1.80144 10.6053 1.80144H4.14625C3.9719 1.7957 3.79741 1.80733 3.62536 1.83616C3.2508 1.86721 2.9026 2.04132 2.65302 2.32233C2.39733 2.58287 2.24864 2.92982 2.23631 3.29466V10.0315C2.24231 10.2185 2.26556 10.4045 2.30576 10.5872C2.48247 11.3004 3.13409 11.7927 3.86844 11.7679C3.89476 11.7642 3.91916 11.752 3.93789 11.7331H7.30633Z" fill="#F15A29"/>
</svg>
