<svg width="260" height="346" viewBox="0 0 260 346" fill="none" xmlns="http://www.w3.org/2000/svg">
<path opacity="0.201172" fill-rule="evenodd" clip-rule="evenodd" d="M0.652283 81.6912C27.4152 56.7192 51.3233 56.7192 72.3767 81.6912C103.957 119.149 94.3024 233.965 146.86 228.161C181.898 224.292 219.321 197.947 259.13 149.127V345.196H0.652283" fill="#FFB78A"/>
<path opacity="0.305199" fill-rule="evenodd" clip-rule="evenodd" d="M-1.5 238.761C25.2629 228.674 49.171 228.674 70.2244 238.761C101.805 253.891 92.1502 300.268 144.707 297.923C179.746 296.36 217.169 285.719 256.977 266V345.196H-1.5" fill="#FFB78A"/>
<path opacity="0.400623" fill-rule="evenodd" clip-rule="evenodd" d="M-1.5 187.127L256.977 238.256L256.265 345.196L-1.5 247.447V187.127Z" fill="#FFB78A"/>
<path opacity="0.578055" fill-rule="evenodd" clip-rule="evenodd" d="M0.652283 -6.10352e-05C109.419 178.65 195.341 249.931 258.417 213.843L259.13 284.902C177.59 274.557 119.352 237.311 84.4169 173.165C49.4817 109.019 21.5601 51.2976 0.652283 -6.10352e-05Z" fill="#FFB78A"/>
<path opacity="0.327427" fill-rule="evenodd" clip-rule="evenodd" d="M0.652283 71.1959C120.203 238.196 197.254 318.863 231.807 313.196L0.652283 345.196C91.3343 325.791 119.256 285.581 84.4169 224.565C49.578 163.55 21.6564 112.427 0.652283 71.1959Z" fill="#FFB78A"/>
<path opacity="0.651739" fill-rule="evenodd" clip-rule="evenodd" d="M258.417 197.472C200.955 245.788 141.15 263.508 79.0025 250.63C45.7583 240.279 19.6415 219.51 0.652283 188.323C21.1197 246.619 49.4989 281.488 85.7898 292.929C157.646 317.36 215.339 309.722 258.87 270.014" fill="#FFB78A"/>
<path opacity="0.509975" fill-rule="evenodd" clip-rule="evenodd" d="M0.416931 49.2975L258.87 272.732L258.417 345.196L0.416931 49.2975Z" fill="#FFB78A"/>
</svg>
