<svg width="314" height="90" viewBox="0 0 314 90" fill="none" xmlns="http://www.w3.org/2000/svg">
<path d="M195 59L265 59V57L195 57V59Z" fill="#21232A"/>
<path d="M30.5183 55.266C30.489 55.7318 30.5862 56.1708 30.7313 56.6144C32.7271 62.7292 34.7064 68.8486 36.7022 74.9634C37.6503 77.8687 38.6639 80.7528 39.4786 83.7002C39.5617 84.0022 39.742 84.2773 39.8778 84.564C39.8626 84.9807 39.9691 85.3506 40.2945 85.6339C40.2278 86.5165 40.9523 87.2633 40.7276 88.1716C39.6542 87.4037 39.0256 86.2426 38.225 85.2465C35.2027 81.4879 32.2518 77.6708 29.2881 73.8643C26.9986 70.924 24.7383 67.9602 22.4487 65.0211C20.4834 62.4974 18.4819 60.0019 16.5154 57.4794C13.5505 53.674 10.6019 49.8558 7.64402 46.0446C6.94171 45.1398 6.2277 44.2432 5.51953 43.343C11.9176 43.3442 18.3156 43.3688 24.7125 43.3267C25.8608 43.3196 26.7481 43.4203 26.8979 44.7898C26.9154 44.9548 27.0477 45.1058 27.1273 45.2639C27.1285 45.4371 27.1577 45.5986 27.3263 45.6946C27.3755 46.0013 27.386 46.322 27.482 46.6135C27.9888 48.1504 28.5167 49.6791 29.0376 51.2113C29.0376 51.3869 29.0727 51.5449 29.2378 51.6444C29.3291 52.7353 29.8581 53.7068 30.0852 54.7591C30.1449 55.0295 30.2222 55.2262 30.5183 55.266Z" fill="#FB6D26"/>
<path d="M40.7274 88.1729C41.1629 88.1974 41.1535 88.5006 41.1313 88.8131C40.8574 88.6867 40.7111 88.4807 40.7274 88.1729Z" fill="#FB6D26"/>
<path d="M29.0387 51.2137C28.5178 49.6815 27.9899 48.1528 27.4831 46.6159C27.3871 46.3245 27.3777 46.0037 27.3274 45.6971C28.3329 45.6655 28.9673 46.1337 29.1932 47.1157C29.247 47.351 29.3266 47.7595 29.226 47.8251C27.9361 48.6491 29.6977 49.383 29.2822 50.1883C29.1803 50.385 29.4308 50.5407 29.6942 50.4704C29.9728 50.3955 30.0781 50.5524 30.0957 50.8005C30.2022 52.2929 30.7722 53.7409 30.5182 55.2684C30.2221 55.2286 30.1448 55.0308 30.0875 54.7627C29.8592 53.7104 29.3313 52.7389 29.24 51.648C29.5783 51.3132 29.3173 51.2594 29.0387 51.2137Z" fill="#E2442B"/>
<path d="M40.2945 85.6353C39.969 85.3508 39.8625 84.9821 39.8777 84.5654C40.1376 84.6251 40.4255 84.2377 40.6374 84.5408C40.964 85.0102 40.2816 85.2268 40.2945 85.6353Z" fill="#E2442B"/>
<path d="M29.0387 51.2136C29.3173 51.2592 29.5783 51.3143 29.2389 51.6467C29.0738 51.5472 29.0387 51.388 29.0387 51.2136Z" fill="#E24329"/>
<path fill-rule="evenodd" clip-rule="evenodd" d="M283.912 28.1922L283.272 22.888L282.633 17.5825L280.415 19.833L278.199 22.0836L279.947 24.6556L281.694 27.2277L282.804 27.7107L283.912 28.1922Z" fill="white"/>
<path fill-rule="evenodd" clip-rule="evenodd" d="M291.284 23.6915C291.284 23.8106 291.304 23.931 291.333 24.0501C291.363 24.1692 291.403 24.2896 291.442 24.4087C291.522 25.0068 291.502 25.5843 291.393 26.1523C291.284 26.7202 291.084 27.2786 290.805 27.837C290.765 27.9561 290.686 28.0765 290.596 28.1956C290.505 28.3147 290.407 28.4351 290.326 28.5542C289.968 27.8767 289.71 27.1787 289.519 26.4616C289.329 25.7444 289.21 25.0068 289.131 24.2485C288.812 24.8863 288.533 25.5446 288.305 26.2111C288.077 26.8776 287.896 27.5564 287.777 28.2339C287.698 27.9547 287.598 27.696 287.479 27.436C287.36 27.1773 287.221 26.9173 287.061 26.6381C286.901 26.3589 286.721 26.0797 286.542 25.8005C286.363 25.5213 286.184 25.2421 286.024 24.963C286.382 24.4443 286.801 24.046 287.268 23.7572C287.736 23.4684 288.254 23.2892 288.812 23.2098C288.852 23.2098 288.873 23.2098 288.892 23.2002C288.912 23.1906 288.931 23.1701 288.971 23.1304C289.09 23.1304 289.19 23.1304 289.29 23.1304C289.39 23.1304 289.489 23.1304 289.608 23.1304C289.887 23.1701 290.127 23.2098 290.355 23.27C290.583 23.3302 290.804 23.4096 291.042 23.5287C291.121 23.5287 291.161 23.5492 291.191 23.5779C291.223 23.6121 291.243 23.6518 291.284 23.6915Z" fill="#348DBE"/>
<path fill-rule="evenodd" clip-rule="evenodd" d="M286.473 18.3756C285.836 18.2565 285.377 17.8172 285.189 17.2793C285 16.7415 285.079 16.1037 285.517 15.585C285.796 15.2264 286.214 15.0266 286.652 14.9869C287.09 14.9473 287.548 15.0663 287.906 15.3455C288.264 15.6247 288.483 16.0435 288.534 16.4814C288.584 16.9194 288.464 17.3779 288.145 17.7365C287.985 17.9363 287.806 18.0759 287.618 18.1744C287.429 18.2729 287.229 18.3345 287.029 18.3742C286.95 18.4139 286.85 18.4139 286.75 18.4043C286.651 18.3948 286.552 18.3756 286.473 18.3756Z" fill="#348DBE"/>
<path fill-rule="evenodd" clip-rule="evenodd" d="M288.654 19.5459C288.814 19.5459 288.993 19.5664 289.172 19.576C289.351 19.5856 289.53 19.5856 289.69 19.5459C289.69 20.2234 289.69 20.9008 289.69 21.5783C289.69 22.2557 289.69 22.9332 289.69 23.6107C289.69 23.69 289.69 23.7899 289.69 23.8899C289.69 23.9898 289.69 24.0897 289.69 24.169C289.491 24.169 289.312 24.169 289.132 24.169C288.953 24.169 288.774 24.169 288.574 24.169C288.614 23.4122 288.635 22.6348 288.644 21.8575C288.654 21.0815 288.654 20.3041 288.654 19.5459Z" fill="#080909"/>
<path fill-rule="evenodd" clip-rule="evenodd" d="M293.115 26.5614C292.996 26.6804 292.875 26.8009 292.766 26.9295C292.657 27.0595 292.557 27.1991 292.477 27.3579C292.199 26.6407 291.88 25.9222 291.522 25.2256C291.163 24.5276 290.765 23.8502 290.326 23.2124C290.685 23.3315 290.964 23.4916 291.212 23.6805C291.461 23.8693 291.68 24.0897 291.92 24.3278C292.238 24.6467 292.477 24.9861 292.657 25.3337C292.836 25.6827 292.955 26.0413 293.035 26.3999C293.075 26.4396 293.096 26.4601 293.105 26.4792C293.115 26.5025 293.115 26.5217 293.115 26.5614Z" fill="#348DBE"/>
<path d="M77.2922 43.3386C78.0694 44.8087 78.3749 46.4451 78.9098 48.0007C79.893 50.8603 80.7557 53.7609 81.7144 56.6298C82.3523 58.5366 82.069 59.7844 80.4385 60.9853C75.4345 64.6713 70.406 68.3233 65.3821 71.9812C62.0649 74.3971 58.7359 76.7979 55.4175 79.2138C50.9707 82.4515 46.5251 85.6914 42.0876 88.942C41.582 89.3119 41.1922 89.3575 40.6409 88.9513C34.9919 84.782 29.3337 80.6278 23.6543 76.5005C19.5774 73.538 15.4595 70.6327 11.3709 67.6865C8.21048 65.4087 5.05827 63.1215 1.92245 60.8097C0.651266 59.8721 0.376195 58.5237 0.819821 57.1062C1.98215 53.3886 3.23109 49.698 4.44726 45.998C4.775 44.9984 4.9775 43.9566 5.4539 43.0061C5.47614 43.1173 5.49721 43.2297 5.51945 43.3432C6.22762 44.2434 6.94046 45.14 7.64395 46.0448C10.6018 49.856 13.5492 53.6742 16.5153 57.4796C18.4818 60.0021 20.4822 62.4988 22.4487 65.0213C24.7394 67.9604 26.9985 70.9242 29.288 73.8645C32.2518 77.671 35.2026 81.4881 38.2249 85.2467C39.0256 86.2428 39.653 87.4039 40.7275 88.1718C40.7123 88.4796 40.8574 88.6856 41.1313 88.8121C41.294 89.0672 41.4239 88.8226 41.5668 88.7828C42.5383 87.6521 43.4805 86.5026 44.3912 85.3169C46.0592 83.1456 47.7963 81.0258 49.4525 78.8416C51.6192 75.9855 53.8935 73.2114 56.0987 70.3846C59.581 65.9202 63.0165 61.4196 66.5304 56.981C68.0977 55.0004 69.644 53.0012 71.2148 51.023C73.2433 48.4654 75.1958 45.8458 77.2922 43.3386Z" fill="#FAA227"/>
<path d="M5.52063 43.3443C5.49839 43.2319 5.47732 43.1196 5.45508 43.0084C6.51323 39.7145 7.56669 36.4195 8.63187 33.1269C10.4134 27.6172 12.2137 22.1123 13.9823 16.598C14.5196 14.9241 14.9304 14.3833 15.8938 14.4114C17.2492 14.4512 17.4389 15.5457 17.7549 16.516C20.5653 25.1463 23.3827 33.773 26.1686 42.4114C26.3559 42.992 26.5993 43.1851 27.194 43.1851C36.6412 43.1711 46.0896 43.1734 55.5369 43.184C56.0707 43.1851 56.3211 43.0341 56.5014 42.4734C59.3376 33.6665 62.2124 24.8712 65.0626 16.0689C65.3552 15.1664 65.7181 14.3962 66.8254 14.4173C67.8074 14.436 68.182 15.088 68.4559 15.9378C71.0837 24.0706 73.7385 32.194 76.3815 40.322C76.6858 41.2585 76.9574 42.2054 77.2442 43.1477C76.8942 43.3642 76.5044 43.3525 76.1134 43.3513C74.2851 43.3478 72.4556 43.349 70.6272 43.349C66.5222 43.349 62.4149 43.4239 58.3134 43.3022C57.1253 43.2671 56.1701 43.2085 55.6106 44.4224C55.263 44.4048 54.8369 44.5055 54.6309 44.1625C54.2224 43.4813 53.5927 43.5655 52.9629 43.5655C44.8068 43.5679 36.6506 43.5667 28.4944 43.5679C28.2123 43.5679 27.929 43.5737 27.6469 43.5737C27.2946 43.5726 27.1389 43.7552 27.1378 44.0981C27.1366 44.4411 27.2923 44.6026 27.6446 44.6295C28.0683 44.6623 28.5295 44.5125 29.1358 44.8906C28.3247 45.0427 27.7277 45.1539 27.1296 45.2663C27.05 45.1083 26.9189 44.9561 26.9002 44.7922C26.7492 43.4227 25.8631 43.3221 24.7148 43.3291C18.3156 43.3701 11.9187 43.3455 5.52063 43.3443Z" fill="#E2442B"/>
<path d="M55.6083 44.4212C56.169 43.2062 57.1241 43.2647 58.311 43.301C62.4125 43.4228 66.5199 43.3478 70.6249 43.3478C72.4532 43.3478 74.2827 43.3455 76.1111 43.3502C76.502 43.3514 76.8918 43.3631 77.2418 43.1465C77.3015 43.1992 77.3167 43.2636 77.2898 43.3385C75.1946 45.8457 73.241 48.4654 71.2113 51.0229C69.6416 53.0011 68.0954 55.0004 66.5269 56.9809C63.013 61.4195 59.5775 65.9213 56.0952 70.3845C53.89 73.2113 51.6156 75.9854 49.449 78.8415C47.7927 81.0257 46.0557 83.1455 44.3877 85.3168C43.477 86.5025 42.5348 87.6508 41.5632 88.7827C41.9319 87.1077 42.5067 85.4877 42.9679 83.8396C44.0986 79.799 45.399 75.7981 46.8212 71.85C48.337 67.6408 49.3167 63.2549 51.0971 59.1346C51.5396 58.1116 51.961 57.0417 52.1377 55.952C52.3191 54.8341 52.7312 53.8064 53.0425 52.7424C53.8607 49.9578 54.7491 47.1942 55.6083 44.4212Z" fill="#FB6D27"/>
<path d="M55.6083 44.4212C54.7492 47.1942 53.8607 49.9578 53.046 52.7436C52.7347 53.8076 52.3227 54.8353 52.1412 55.9532C51.9645 57.0429 51.5431 58.1128 51.1006 59.1358C49.3203 63.256 48.3417 67.642 46.8247 71.8511C45.4026 75.7993 44.1021 79.8001 42.9714 83.8408C42.5102 85.4877 41.9355 87.1088 41.5668 88.7839C41.424 88.8237 41.294 89.0683 41.1313 88.8131C41.1547 88.5006 41.1629 88.1974 40.7275 88.1729C40.9522 87.2634 40.2265 86.5166 40.2944 85.6352C40.2815 85.2267 40.9651 85.0101 40.6374 84.5407C40.4255 84.2376 40.1376 84.625 39.8777 84.5653C39.7419 84.2774 39.5628 84.0023 39.4786 83.7015C38.6639 80.7541 37.6502 77.8699 36.7021 74.9647C34.7064 68.8499 32.7258 62.7305 30.7313 56.6157C30.5861 56.172 30.489 55.7331 30.5182 55.2672C30.7722 53.7409 30.2022 52.2918 30.0957 50.7994C30.0781 50.5512 29.9728 50.3944 29.6942 50.4693C29.4308 50.5395 29.1803 50.385 29.2822 50.1872C29.6965 49.3819 27.9349 48.6491 29.226 47.8239C29.3267 47.7595 29.2471 47.351 29.1932 47.1146C28.9673 46.1313 28.3329 45.6643 27.3274 45.6959C27.1589 45.5987 27.1296 45.4384 27.1284 45.2651C27.7254 45.1528 28.3235 45.0416 29.1347 44.8894C28.5284 44.5102 28.0672 44.6612 27.6434 44.6284C27.2911 44.6015 27.1366 44.4399 27.1366 44.097C27.1378 43.754 27.2935 43.5714 27.6458 43.5726C27.9279 43.5726 28.2111 43.5667 28.4932 43.5667C36.6494 43.5667 44.8056 43.5679 52.9618 43.5644C53.5915 43.5644 54.2201 43.4801 54.6298 44.1613C54.8346 44.5043 55.2607 44.4036 55.6083 44.4212Z" fill="#E24329"/>
<path fill-rule="evenodd" clip-rule="evenodd" d="M273.561 30.8166L283.483 30.0601L293.405 29.305L294.862 25.4874L296.321 21.6683L297.17 15.7438L298.021 9.81802L300.492 6.07954L302.962 2.34106H305.352H307.74L306.04 21.073L304.339 39.8036L306.04 44.7355L307.74 49.666L306.121 62.0748L304.501 74.4822L304.257 75.5158L304.015 76.5508L297.818 78.6576L291.623 80.7658L286.52 79.2939L281.417 77.8233L278.34 78.1019L275.261 78.3804L274.613 78.1019L273.965 77.8233L272.71 66.5683L271.454 55.3133V47.7967V40.2815L274.249 38.0136L277.044 35.747L275.302 33.2811L273.561 30.8166Z" fill="white"/>
<path d="M273.238 0.0461815C273.581 0.0901423 273.573 0.104023 273.786 0.137122C273.998 0.17022 274.103 0.186782 274.363 0.263896C274.449 0.295413 274.49 0.295413 274.658 0.358089C274.983 0.4376 275.09 0.502748 275.35 0.571968C275.61 0.641188 275.868 0.719909 276.147 0.79863C276.785 1.03615 277.322 1.37139 277.801 1.77721C278.279 2.18303 278.696 2.65671 279.096 3.17111C279.733 3.9624 280.251 4.81204 280.679 5.70104C281.107 6.59004 281.447 7.51976 281.726 8.46849C282.005 9.29913 282.244 10.1488 282.453 10.9984C282.662 11.8481 282.842 12.6977 283 13.5283C283.2 14.3983 283.358 15.2873 283.498 16.1763C283.637 17.0653 283.756 17.9557 283.877 18.8244C283.956 19.5749 284.016 20.3065 284.076 21.038C284.137 21.7696 284.195 22.5012 284.276 23.2517C284.076 23.568 283.937 23.8842 283.818 24.2099C283.699 24.5357 283.599 24.8723 283.479 25.2279C283.36 25.6229 283.239 26.0192 283.14 26.4141C283.04 26.8091 282.961 27.2054 282.921 27.6004C282.642 26.7304 282.483 25.8414 282.403 24.932C282.323 24.0226 282.323 23.0943 282.363 22.1456C282.163 22.5012 282.005 22.8771 281.865 23.2531C281.726 23.629 281.607 24.0036 281.486 24.3606C281.486 24.2425 281.486 24.1434 281.486 24.0539C281.486 23.9643 281.486 23.8856 281.486 23.8068C281.486 23.2137 281.486 22.6206 281.477 22.018C281.467 21.4154 281.447 20.8019 281.407 20.1694C281.367 19.142 281.267 18.1335 281.128 17.1359C280.988 16.1383 280.809 15.1489 280.61 14.1608C280.41 13.0139 280.131 11.9078 279.763 10.8206C279.395 9.73345 278.937 8.66665 278.379 7.59848C278.1 7.12345 277.821 6.64976 277.502 6.20458C277.184 5.7594 276.826 5.34544 276.387 4.98848C275.989 4.63288 275.55 4.31664 275.072 4.08862C274.594 3.86196 274.077 3.72352 273.519 3.72352C272.721 3.68416 271.986 3.80224 271.298 4.04926C270.611 4.29628 269.974 4.67224 269.376 5.14592C268.978 5.46216 268.679 5.83812 268.43 6.25344C268.181 6.66876 267.981 7.12345 267.783 7.59713C267.504 8.34769 267.365 9.11861 267.315 9.90039C267.266 10.6808 267.306 11.4721 267.385 12.262C267.504 13.2895 267.683 14.2979 267.913 15.286C268.141 16.2741 268.42 17.2431 268.739 18.1919C269.456 20.4449 270.372 22.6192 271.448 24.7243C272.523 26.8295 273.758 28.8653 275.113 30.8415C275.551 31.474 276.009 32.0671 276.507 32.6304C277.005 33.1936 277.542 33.727 278.14 34.2414C278.419 34.5183 278.658 34.6364 278.867 34.597C279.077 34.5577 279.256 34.3595 279.414 34.0039C279.654 33.5696 279.852 33.1339 280.022 32.6996C280.191 32.2653 280.331 31.8296 280.45 31.3953C280.529 31.079 280.61 30.7628 280.678 30.4465C280.748 30.1303 280.808 29.8141 280.848 29.4978C280.927 29.7747 280.987 30.0312 281.057 30.2891C281.127 30.5456 281.206 30.8035 281.326 31.0804C281.486 31.436 281.624 31.8309 281.834 32.1879C282.043 32.5435 282.322 32.8597 282.759 33.0579C282.799 33.0973 282.82 33.1176 282.829 33.1475C282.839 33.1773 282.839 33.2167 282.839 33.2954C282.72 33.651 282.699 34.0066 282.729 34.3731C282.759 34.7382 282.839 35.1141 282.918 35.5091C282.997 35.9041 283.097 36.28 283.216 36.6451C283.335 37.0102 283.475 37.3672 283.635 37.7228C283.714 37.9603 283.814 38.1775 283.914 38.3851C284.014 38.5928 284.113 38.791 284.193 38.9878C284.113 38.6322 284.093 38.2766 284.113 37.921C284.134 37.5654 284.193 37.2097 284.273 36.8541C284.354 36.4985 284.453 36.1429 284.592 35.7968C284.732 35.4507 284.911 35.1155 285.15 34.7993C284.99 36.1036 285.031 37.4079 285.229 38.7027C285.429 39.9976 285.787 41.2815 286.265 42.5478C286.304 42.5085 286.325 42.4881 286.334 42.4786C286.344 42.4691 286.344 42.4691 286.344 42.4691C286.344 41.7973 286.344 41.1254 286.364 40.4536C286.385 39.7818 286.425 39.1099 286.504 38.4381C286.544 38.0037 286.604 37.6074 286.693 37.222C286.782 36.8365 286.902 36.4605 287.061 36.0656C287.179 35.8674 287.279 35.6706 287.409 35.5023C287.539 35.334 287.698 35.1956 287.937 35.1169C287.977 35.0775 288.037 35.0571 288.086 35.068C288.135 35.0789 288.176 35.1169 288.176 35.1969C288.376 35.672 288.574 36.166 288.754 36.6696C288.933 37.1731 289.093 37.6875 289.212 38.2019C289.291 38.5575 289.351 38.8941 289.372 39.2293C289.392 39.5646 289.372 39.9012 289.292 40.2568C289.292 40.2962 289.272 40.3165 289.262 40.326C289.253 40.3355 289.253 40.3355 289.292 40.3355C289.332 40.3355 289.353 40.3152 289.372 40.2962C289.392 40.2758 289.411 40.2568 289.451 40.2568C289.969 39.6243 290.407 38.9321 290.765 38.2005C291.124 37.469 291.403 36.6981 291.602 35.9081C291.642 35.71 291.662 35.4928 291.672 35.2757C291.682 35.0585 291.682 34.8413 291.682 34.6432C291.682 34.445 291.661 34.2482 291.632 34.0501C291.602 33.8519 291.563 33.6551 291.523 33.4569C291.762 33.6551 292.002 33.8723 292.22 34.0989C292.439 34.3256 292.639 34.5631 292.798 34.8006C293.195 35.2757 293.535 35.7493 293.803 36.2434C294.072 36.7374 294.27 37.2518 294.391 37.8042C294.47 38.0811 294.53 38.358 294.56 38.6444C294.59 38.9308 294.59 39.228 294.551 39.5442C294.511 39.7424 294.471 39.9202 294.441 40.0871C294.411 40.2541 294.392 40.4129 294.392 40.5717C294.392 40.5717 294.392 40.592 294.383 40.611C294.373 40.6314 294.352 40.6504 294.313 40.6504V40.611V40.5717C294.352 40.5323 294.373 40.512 294.383 40.4821C294.392 40.4522 294.392 40.4129 294.392 40.3342C294.631 39.8591 294.85 39.3651 295.05 38.8615C295.25 38.358 295.429 37.8436 295.587 37.3292C295.706 36.8542 295.806 36.3805 295.876 35.9054C295.946 35.4304 295.985 34.9567 295.985 34.4817C295.985 34.4423 295.985 34.3826 295.976 34.3134C295.966 34.2441 295.946 34.1654 295.906 34.0867C296.025 34.1261 296.106 34.1858 296.164 34.255C296.223 34.3242 296.264 34.4029 296.304 34.4817C296.504 34.7585 296.643 35.0354 296.753 35.3313C296.862 35.6272 296.941 35.9434 297.022 36.3004C297.062 36.4985 297.101 36.7157 297.141 36.9329C297.181 37.15 297.22 37.3672 297.26 37.5654C297.3 37.4473 297.339 37.3482 297.379 37.2586C297.419 37.169 297.458 37.0903 297.498 37.0116C297.698 36.4185 297.837 35.8253 297.907 35.2227C297.977 34.6201 297.977 34.0066 297.897 33.3741C297.858 33.0973 297.797 32.8204 297.708 32.5544C297.618 32.287 297.499 32.0305 297.341 31.7929C297.301 31.7536 297.28 31.6939 297.28 31.6341C297.28 31.5744 297.301 31.5161 297.341 31.4753C297.42 31.3165 297.501 31.1795 297.569 31.0302C297.639 30.8822 297.699 30.7234 297.739 30.5266C297.739 30.566 297.739 30.5863 297.748 30.5958C297.758 30.6053 297.778 30.6053 297.818 30.6053C297.937 31.1591 298.097 31.7129 298.297 32.2558C298.496 32.7987 298.734 33.3334 299.013 33.8465C299.213 34.2021 299.411 34.4002 299.641 34.4396C299.869 34.4789 300.129 34.3609 300.448 34.084C300.846 33.7677 301.204 33.4311 301.543 33.0755C301.882 32.7199 302.201 32.344 302.52 31.949C303.476 30.7628 304.332 29.5372 305.118 28.2627C305.904 26.9883 306.622 25.6636 307.299 24.2805C308.097 22.66 308.793 20.9797 309.381 19.2695C309.969 17.5594 310.446 15.8207 310.804 14.0807C310.964 13.2895 311.103 12.4792 311.172 11.6594C311.242 10.8396 311.242 10.009 311.123 9.17833C311.044 8.50649 310.884 7.87401 310.635 7.27139C310.386 6.66876 310.047 6.09464 309.609 5.54224C309.211 5.0672 308.713 4.6926 308.155 4.39536C307.597 4.09948 306.981 3.88096 306.343 3.72352C305.666 3.56472 305.009 3.54572 304.382 3.6638C303.755 3.78188 303.157 4.03976 302.6 4.43472C302.282 4.67224 301.984 4.92876 301.705 5.20564C301.426 5.48252 301.167 5.7784 300.928 6.09465C300.449 6.80585 300.032 7.53741 299.663 8.28933C299.295 9.03989 298.976 9.81081 298.697 10.6021C298.418 11.3934 298.179 12.2037 297.99 13.0234C297.801 13.8432 297.662 14.6739 297.581 15.5045C297.502 16.137 297.421 16.7695 297.353 17.3924C297.283 18.0154 297.223 18.6276 297.183 19.2207C297.144 19.4976 297.123 19.7934 297.114 20.0907C297.104 20.3866 297.104 20.6838 297.104 20.9607C297.064 21.4357 297.044 21.9094 297.044 22.3939C297.044 22.8785 297.064 23.3725 297.104 23.8869C297.104 24.2425 297.125 24.5981 297.144 24.9442C297.164 25.2903 297.183 25.6256 297.183 25.9418C297.104 25.7436 297.044 25.5658 296.984 25.388C296.924 25.2102 296.865 25.0324 296.784 24.8343C296.744 24.7162 296.684 24.5968 296.635 24.4787C296.586 24.3606 296.545 24.2412 296.545 24.1231C296.584 24.4393 296.584 24.7556 296.575 25.0718C296.565 25.388 296.545 25.7043 296.545 26.0205C296.545 26.3368 296.524 26.6327 296.475 26.9204C296.426 27.2081 296.345 27.4837 296.226 27.7605C296.107 28.0374 295.987 28.2749 295.817 28.4622C295.648 28.6495 295.429 28.788 295.11 28.8681C295.031 28.9074 294.971 28.9278 294.921 28.9074C294.872 28.8871 294.831 28.8287 294.791 28.7093C294.712 28.4717 294.672 28.2546 294.662 28.0374C294.651 27.8202 294.671 27.6031 294.711 27.3656C294.75 27.01 294.85 26.6937 294.99 26.3965C295.129 26.1006 295.308 25.8237 295.508 25.5468C295.548 25.5075 295.568 25.4871 295.578 25.4681C295.587 25.4491 295.587 25.4288 295.587 25.3894C295.548 25.35 295.527 25.3297 295.508 25.3202C295.488 25.3107 295.468 25.3107 295.429 25.3107C295.189 25.3107 294.95 25.35 294.722 25.4098C294.493 25.4695 294.273 25.5482 294.075 25.6269C294.154 24.7569 294.214 23.8679 294.274 22.9884C294.335 22.1089 294.393 21.2389 294.474 20.4096C294.553 19.5396 294.653 18.6506 294.772 17.7508C294.891 16.8509 295.031 15.9415 295.191 15.0335C295.39 13.6899 295.669 12.3448 296.017 11.0215C296.364 9.69816 296.784 8.39248 297.261 7.12752C297.62 6.17879 298.018 5.26943 298.496 4.41979C298.975 3.57015 299.531 2.77887 300.208 2.06766C300.965 1.27638 301.822 0.742983 302.758 0.4376C303.693 0.13086 304.709 0.0521391 305.785 0.17022C306.662 0.288302 307.498 0.54618 308.285 0.920783C309.072 1.29674 309.809 1.79078 310.486 2.38391C311.561 3.33263 312.298 4.39943 312.786 5.56667C313.274 6.73256 313.514 7.99752 313.593 9.34256C313.593 9.69816 313.593 10.0348 313.593 10.37C313.593 10.7052 313.593 11.0418 313.593 11.3974C313.593 11.7137 313.572 12.0299 313.544 12.3462C313.515 12.6624 313.474 12.9787 313.434 13.2949C313.315 14.283 313.136 15.2521 312.916 16.2103C312.697 17.1685 312.437 18.1172 312.16 19.0659C311.403 21.3977 310.506 23.6915 309.501 25.935C308.496 28.1786 307.38 30.3719 306.185 32.5069C305.985 32.8625 305.787 33.1787 305.597 33.4854C305.407 33.7922 305.229 34.0881 305.069 34.4043C304.95 34.6418 304.89 34.8196 304.909 34.9771C304.929 35.1359 305.028 35.2729 305.227 35.4317C305.267 35.4711 305.288 35.4915 305.307 35.501C305.327 35.5105 305.346 35.5105 305.386 35.5105C305.705 35.748 306.003 36.0045 306.282 36.2719C306.561 36.5393 306.819 36.8148 307.059 37.0917C307.577 37.7242 307.994 38.4164 308.333 39.1479C308.672 39.8795 308.931 40.6504 309.131 41.4403C309.25 42.0334 309.349 42.6456 309.41 43.259C309.47 43.8712 309.489 44.4846 309.449 45.0778C309.41 45.5528 309.37 46.0265 309.33 46.4907C309.291 46.9549 309.251 47.4095 309.211 47.8452C309.172 48.3596 309.111 48.8727 309.042 49.3871C308.972 49.9015 308.893 50.4145 308.813 50.9289C308.734 51.5614 308.634 52.1939 308.534 52.8358C308.434 53.4778 308.335 54.1307 308.255 54.8025C308.136 55.6331 307.997 56.4434 307.857 57.2537C307.718 58.064 307.578 58.8743 307.459 59.7049C307.34 60.4962 307.201 61.2658 307.061 62.0367C306.922 62.8076 306.782 63.5785 306.663 64.3685C306.544 64.9222 306.464 65.476 306.384 66.0284C306.305 66.5821 306.224 67.1359 306.105 67.6883C305.866 68.7551 305.547 69.8029 305.18 70.8412C304.812 71.8795 304.393 72.907 303.954 73.9344C303.915 73.895 303.894 73.8747 303.884 73.8448C303.875 73.815 303.875 73.7756 303.875 73.6969C303.835 73.5381 303.775 73.401 303.705 73.2626C303.636 73.1241 303.556 72.9857 303.477 72.8282C302.959 71.8008 302.382 70.8317 301.735 69.9223C301.088 69.013 300.37 68.1633 299.574 67.3721C298.937 66.7002 298.239 66.0677 297.492 65.4841C296.746 64.9005 295.948 64.3671 295.113 63.8934C294.236 63.379 293.32 62.9243 292.364 62.5687C291.408 62.2131 290.412 61.9566 289.377 61.8372C288.661 61.7585 287.943 61.7774 287.236 61.886C286.529 61.9946 285.831 62.1928 285.154 62.4696C284.357 62.7859 283.64 63.1619 282.963 63.5962C282.286 64.0305 281.649 64.5245 281.012 65.0783C280.214 65.7895 279.458 66.5414 278.751 67.3408C278.044 68.1403 277.386 68.9913 276.79 69.9006C276.311 70.6118 275.874 71.3638 275.495 72.1347C275.116 72.9056 274.797 73.6955 274.559 74.4868C274.44 74.8424 274.36 75.198 274.29 75.5645C274.22 75.9296 274.16 76.3055 274.081 76.7005C274.041 76.7792 274.021 76.8593 274.001 76.9475C273.982 77.0357 273.962 77.1348 273.922 77.2542C273.883 77.2149 273.862 77.1945 273.852 77.1755C273.843 77.1552 273.843 77.1362 273.843 77.0968C273.485 76.3055 273.126 75.536 272.787 74.765C272.448 73.9941 272.129 73.2232 271.852 72.4333C271.573 71.8008 271.314 71.148 271.084 70.4761C270.856 69.8043 270.656 69.1121 270.496 68.4009C270.297 67.6096 270.198 66.7993 270.128 65.989C270.059 65.1787 270.019 64.3685 269.94 63.5772C269.9 63.1021 269.86 62.5891 269.821 62.0747C269.781 61.5603 269.741 61.0472 269.702 60.5722C269.662 60.1379 269.602 59.7022 269.553 59.2774C269.504 58.8526 269.462 58.4372 269.462 58.0423C269.423 57.4885 269.383 56.9348 269.344 56.3715C269.304 55.8082 269.264 55.2355 269.225 54.6424C269.185 54.0099 269.125 53.357 269.065 52.7055C269.004 52.0527 268.946 51.4012 268.905 50.7687C268.865 50.1756 268.805 49.5825 268.745 48.9894C268.684 48.3963 268.626 47.8031 268.584 47.21C268.545 46.5775 268.524 45.9451 268.554 45.3126C268.584 44.6801 268.664 44.0476 268.824 43.4151C269.103 42.2682 269.501 41.2014 270.029 40.193C270.557 39.1846 271.214 38.2358 272.01 37.3265C272.21 37.089 272.429 36.8514 272.657 36.6248C272.886 36.3981 273.125 36.1796 273.364 35.9828C273.524 35.8647 273.604 35.7453 273.623 35.6068C273.643 35.4684 273.602 35.311 273.523 35.1128C273.483 35.0734 273.463 35.0531 273.453 35.0232C273.444 34.9933 273.444 34.954 273.444 34.8753C272.607 33.4922 271.811 32.0685 271.053 30.6352C270.297 29.2019 269.579 27.7592 268.902 26.3368C268.065 24.518 267.288 22.6803 266.622 20.8127C265.955 18.9452 265.397 17.0477 264.999 15.1109C264.88 14.3997 264.759 13.6871 264.66 12.9759C264.56 12.2647 264.48 11.5522 264.441 10.841C264.441 10.8016 264.441 10.7819 264.441 10.7629C264.441 10.7439 264.431 10.6573 264.431 10.37C264.431 10.0827 264.441 10.1054 264.441 10.0389C264.441 9.97233 264.441 9.97233 264.441 9.97233C264.441 9.73481 264.461 9.51765 264.48 9.30048C264.501 9.08332 264.52 8.86616 264.52 8.62864C264.599 7.91744 264.739 7.22524 264.939 6.5534C265.138 5.88156 265.397 5.22872 265.715 4.59623C266.353 3.40999 267.19 2.46127 268.204 1.72021C269.219 0.979145 270.416 0.445744 271.77 0.0901423C272.142 0.0334457 272.32 0 272.553 0C272.787 0 272.919 -3.72529e-09 273.238 0.0461815ZM296.222 57.726C296.341 57.726 296.441 57.726 296.531 57.726C296.621 57.726 296.701 57.726 296.78 57.726C296.899 57.726 296.999 57.7057 297.089 57.6867C297.179 57.6677 297.259 57.6473 297.338 57.6473C298.731 57.4492 300.006 57.0542 301.171 56.4706C302.336 55.887 303.392 55.116 304.348 54.1673C304.985 53.5348 305.423 52.8426 305.632 52.0921C305.841 51.3415 305.821 50.5312 305.542 49.6612C305.184 48.5537 304.646 47.586 303.949 46.7458C303.251 45.9057 302.395 45.1945 301.4 44.6014C300.842 44.2458 300.225 44.0476 299.597 43.9892C298.969 43.9295 298.332 44.0096 297.734 44.2064C297.256 44.3652 296.799 44.5824 296.37 44.8484C295.942 45.1158 295.544 45.432 295.184 45.7876C294.307 46.6183 293.611 47.5276 293.063 48.5157C292.514 49.5038 292.116 50.5719 291.837 51.7175C291.638 52.5481 291.619 53.3584 291.747 54.1483C291.877 54.9396 292.156 55.7092 292.554 56.4611C292.754 56.8167 292.992 57.0936 293.291 57.3012C293.589 57.5089 293.949 57.6473 294.387 57.726C294.705 57.7654 295.003 57.7464 295.303 57.726C295.602 57.7057 295.903 57.6853 296.222 57.726ZM283.237 57.8048C283.316 57.8048 283.376 57.8048 283.436 57.8048C283.497 57.8048 283.555 57.8048 283.636 57.8048C284.115 57.8048 284.552 57.745 284.941 57.5781C285.329 57.4112 285.668 57.1329 285.946 56.6986C286.225 56.2643 286.444 55.8096 286.604 55.3441C286.764 54.8799 286.862 54.4048 286.902 53.9311C286.942 53.3774 286.902 52.8236 286.812 52.2712C286.721 51.7175 286.583 51.1637 286.423 50.6113C286.025 49.307 285.428 48.1207 284.6 47.0933C283.774 46.0659 282.718 45.1958 281.404 44.524C280.967 44.2865 280.528 44.1087 280.069 44.0205C279.611 43.9309 279.134 43.9309 278.616 44.0503C277.939 44.2091 277.341 44.4656 276.793 44.7914C276.246 45.1171 275.747 45.5134 275.269 45.9478C274.751 46.4228 274.313 46.9562 273.945 47.529C273.578 48.1017 273.278 48.7152 273.039 49.3477C272.76 50.0983 272.66 50.8298 272.76 51.5315C272.86 52.2332 273.158 52.9051 273.676 53.5375C273.955 53.9325 274.293 54.2881 274.662 54.6043C275.03 54.9206 275.429 55.1975 275.827 55.435C276.943 56.2656 278.137 56.818 279.383 57.1845C280.629 57.551 281.923 57.726 283.237 57.8048Z" fill="#563C39"/>
<path d="M303.862 75.5493C303.901 75.7121 303.94 75.8944 303.979 76.0656C304.018 76.2381 304.057 76.3995 304.096 76.522C304.291 77.6157 304.271 78.6704 304.037 79.6737C303.802 80.677 303.353 81.6288 302.689 82.5207C301.869 83.6562 300.931 84.5676 299.878 85.3065C298.824 86.0454 297.652 86.6131 296.364 87.0598C295.7 87.2629 295.055 87.4049 294.401 87.505C293.747 87.6066 293.083 87.6678 292.38 87.7082C292.341 87.7082 292.303 87.6873 292.264 87.6873C292.225 87.6873 292.186 87.7082 292.147 87.7889C291.639 87.7889 291.132 87.7889 290.624 87.7889C290.116 87.7889 289.609 87.7889 289.101 87.7889C289.062 87.7485 289.042 87.7277 289.023 87.7179C289.003 87.7082 288.984 87.7082 288.945 87.7082C288.047 87.6678 287.169 87.6275 286.3 87.5565C285.431 87.4856 284.572 87.384 283.713 87.2226C282.971 87.1015 282.249 86.9387 281.535 86.7258C280.822 86.5129 280.12 86.2499 279.417 85.9257C277.972 85.1965 276.879 84.2434 276.147 83.0578C275.415 81.8723 275.044 80.4543 275.044 78.7915C275.044 78.7512 275.064 78.6899 275.064 78.6287C275.064 78.5675 275.044 78.5076 274.966 78.4659C275.044 78.1013 275.103 77.7368 275.171 77.361C275.239 76.9867 275.317 76.6013 275.435 76.1964C275.67 75.3448 275.962 74.514 276.313 73.7237C276.665 72.9333 277.075 72.1833 277.543 71.4945C278.129 70.6026 278.772 69.7315 279.456 68.9008C280.14 68.07 280.862 67.2797 281.604 66.5505C282.19 65.9828 282.794 65.4763 283.449 65.031C284.103 64.5857 284.805 64.2003 285.587 63.8761C286.251 63.5922 286.914 63.4099 287.589 63.3083C288.262 63.2068 288.945 63.1873 289.648 63.2276C290.663 63.3487 291.62 63.5922 292.537 63.947C293.454 64.3019 294.334 64.768 295.193 65.3357C295.975 65.8228 296.735 66.3696 297.458 66.9666C298.18 67.5649 298.864 68.2134 299.489 68.9022C300.23 69.7537 300.934 70.6248 301.568 71.546C302.202 72.4685 302.77 73.4412 303.237 74.4946C303.315 74.6156 303.374 74.7576 303.433 74.9106C303.492 75.0637 303.55 75.2251 303.629 75.3865C303.668 75.3865 303.688 75.4074 303.717 75.4366C303.744 75.4686 303.783 75.509 303.862 75.5493ZM299.332 79.8463C299.293 79.8463 299.273 79.8671 299.243 79.8866C299.214 79.9075 299.175 79.927 299.097 79.927C298.434 80.414 297.77 80.8996 297.086 81.3449C296.403 81.7902 295.7 82.1965 294.959 82.5207C293.826 83.0077 292.674 83.3319 291.493 83.4725C290.312 83.6144 289.101 83.5741 287.851 83.3306C286.837 83.1274 285.86 82.8435 284.913 82.4901C283.966 82.1353 283.048 81.7095 282.149 81.2238C281.759 81.0207 281.368 80.798 280.978 80.5754C280.587 80.3528 280.196 80.1301 279.806 79.927C279.806 79.9673 279.826 80.0077 279.854 80.048C279.884 80.0884 279.922 80.1287 279.961 80.1691C280.821 81.2628 281.797 82.216 282.889 83.0063C283.983 83.7967 285.193 84.4243 286.521 84.8709C287.536 85.2355 288.571 85.4582 289.616 85.5096C290.66 85.5597 291.715 85.4387 292.769 85.1145C293.98 84.7499 295.054 84.2225 296.02 83.5337C296.987 82.8449 297.846 81.9933 298.627 80.9803C298.743 80.8175 298.88 80.6561 299.008 80.4738C299.136 80.2915 299.254 80.0898 299.332 79.8463ZM299.957 73.2798C299.996 73.117 299.977 72.9764 299.927 72.8345C299.879 72.6926 299.8 72.5507 299.722 72.3892C299.565 72.1457 299.371 71.9231 299.156 71.7311C298.942 71.539 298.707 71.3762 298.473 71.2552C297.964 70.8906 297.36 70.7487 296.783 70.7988C296.207 70.8489 295.661 71.0924 295.27 71.4973C294.996 71.7812 294.82 72.0845 294.713 72.4087C294.606 72.7329 294.567 73.078 294.567 73.4426C294.528 74.091 294.41 74.7186 294.216 75.3169C294.021 75.9153 293.747 76.4816 293.395 77.009C293.2 77.2929 293.024 77.5767 292.839 77.8703C292.654 78.1639 292.458 78.4687 292.224 78.7929C292.107 78.9557 292.067 79.1171 292.107 79.2688C292.147 79.4205 292.264 79.5624 292.458 79.6848C292.575 79.7655 292.712 79.7864 292.848 79.7767C292.985 79.7669 293.122 79.7266 293.238 79.6848C294.137 79.2799 295.015 78.8541 295.854 78.3782C296.693 77.9023 297.494 77.375 298.237 76.7669C298.784 76.2799 299.213 75.7734 299.506 75.207C299.801 74.6379 299.957 74.0103 299.957 73.2798ZM279.963 73.7668C279.963 74.0103 279.983 74.233 280.04 74.4459C280.099 74.6588 280.197 74.8619 280.353 75.0637C280.626 75.5507 280.957 75.9556 281.329 76.3202C281.7 76.6848 282.11 77.009 282.54 77.3332C283.125 77.7381 283.73 78.1027 284.345 78.4478C284.961 78.7929 285.586 79.1171 286.21 79.4413C286.327 79.4817 286.464 79.5429 286.601 79.593C286.737 79.6431 286.874 79.6848 286.991 79.6848C287.148 79.7252 287.283 79.7057 287.401 79.6542C287.518 79.6041 287.615 79.522 287.693 79.4413C287.771 79.401 287.83 79.3398 287.85 79.259C287.87 79.1783 287.85 79.0768 287.772 78.9557C287.733 78.8346 287.674 78.7331 287.606 78.6412C287.538 78.5494 287.46 78.4687 287.382 78.388C287.343 78.3476 287.304 78.3073 287.275 78.2669C287.245 78.2266 287.227 78.1862 287.227 78.1459C287.227 78.0651 287.207 78.0039 287.178 77.9427C287.149 77.8815 287.11 77.8216 287.071 77.7395C287.032 77.6992 286.993 77.638 286.954 77.5767C286.916 77.5155 286.877 77.4557 286.838 77.4139C286.369 76.7655 286.037 76.0767 285.803 75.3573C285.568 74.6379 285.431 73.8879 285.354 73.1184C285.315 72.3071 284.964 71.6183 284.437 71.1633C283.91 70.7069 283.207 70.4843 282.464 70.6067C281.762 70.8099 281.137 71.2343 280.688 71.7923C280.236 72.3475 279.963 73.0377 279.963 73.7668Z" fill="#AD8070"/>
<path fill-rule="evenodd" clip-rule="evenodd" d="M281.503 29.905C281.422 30.2298 281.34 30.5545 281.259 30.8793C281.179 31.204 281.096 31.5288 281.016 31.8535C280.853 32.2996 280.691 32.747 280.509 33.193C280.326 33.639 280.123 34.0864 279.881 34.5324C279.678 34.8976 279.495 35.0802 279.282 35.1108C279.069 35.1415 278.825 35.0188 278.501 34.7763C277.852 34.2885 277.264 33.7407 276.727 33.1526C276.189 32.5644 275.703 31.9344 275.257 31.2849C273.755 29.2959 272.438 27.2248 271.292 25.0741C270.146 22.9221 269.173 20.6893 268.363 18.3756C268.038 17.4013 267.754 16.4061 267.51 15.3914C267.267 14.3768 267.065 13.3412 266.902 12.2861C266.781 11.4735 266.739 10.6623 266.8 9.86088C266.861 9.05944 267.023 8.26777 267.307 7.49561C267.47 7.00778 267.672 6.56177 267.946 6.14642C268.22 5.72967 268.564 5.34498 269.011 4.97981C269.66 4.49198 270.35 4.10729 271.09 3.85362C271.831 3.59995 272.622 3.47869 273.473 3.51911C274.081 3.55953 274.629 3.7017 275.135 3.92471C275.642 4.14771 276.109 4.45296 276.554 4.81813C277 5.1833 277.386 5.6098 277.741 6.06697C278.096 6.52413 278.42 7.01057 278.745 7.4984C279.313 8.5535 279.799 9.65041 280.194 10.7766C280.59 11.9028 280.893 13.0596 281.096 14.2374C281.3 15.2925 281.461 16.3072 281.594 17.3232C281.726 18.3393 281.826 19.3526 281.908 20.4091C281.949 21.0182 281.969 21.6273 281.979 22.2461C281.989 22.865 281.989 23.495 281.989 24.1445C281.989 24.2657 281.968 24.3675 281.958 24.4595C281.949 24.5515 281.949 24.6323 281.989 24.7131C281.989 24.7536 281.968 24.794 281.949 24.8344C281.928 24.8748 281.908 24.9152 281.908 24.9557C281.745 25.5243 281.624 26.1125 281.543 26.7007C281.463 27.2889 281.422 27.8784 281.422 28.4457C281.422 28.6896 281.443 28.9335 281.463 29.1761C281.484 29.4186 281.503 29.6625 281.503 29.905Z" fill="#348DBE"/>
<path fill-rule="evenodd" clip-rule="evenodd" d="M297.341 26.4439C297.341 26.0791 297.321 25.7143 297.302 25.3592C297.283 25.0042 297.264 24.6602 297.264 24.3358C297.226 23.8485 297.206 23.3626 297.206 22.8655C297.206 22.3684 297.226 21.8616 297.264 21.3339C297.264 21.0498 297.284 20.7463 297.302 20.4414C297.322 20.1378 297.341 19.8329 297.341 19.5489C297.379 18.9 297.438 18.272 297.514 17.6427C297.591 17.0147 297.688 16.3854 297.803 15.7365C297.919 14.8844 298.074 14.0337 298.267 13.1913C298.46 12.3503 298.691 11.5191 298.961 10.7073C299.232 9.89556 299.54 9.10609 299.897 8.33471C300.253 7.56473 300.659 6.81424 301.122 6.08325C301.354 5.75883 301.605 5.45529 301.875 5.17125C302.145 4.8872 302.434 4.62405 302.743 4.38038C303.322 3.9752 303.901 3.71065 304.509 3.58951C305.117 3.46838 305.753 3.48787 306.449 3.65078C307.067 3.81369 307.646 4.01558 308.186 4.30937C308.727 4.60316 309.228 4.98885 309.691 5.51655C310.116 6.04426 310.444 6.63184 310.685 7.2598C310.926 7.88776 311.081 8.55749 311.158 9.24671C311.274 10.0988 311.274 10.9301 311.206 11.7613C311.138 12.5926 311.003 13.4238 310.85 14.2759C310.502 16.1013 310.039 17.885 309.46 19.6296C308.881 21.3729 308.186 23.0771 307.375 24.7396C306.719 26.1181 306.005 27.4561 305.223 28.7538C304.442 30.0515 303.592 31.3088 302.666 32.5257C302.357 32.9309 302.029 33.2957 301.692 33.6508C301.354 34.0058 301.007 34.3497 300.66 34.7159C300.351 35 300.119 35.142 299.907 35.1114C299.695 35.0807 299.502 34.8789 299.27 34.4723C298.961 33.9446 298.729 33.3974 298.547 32.8404C298.364 32.2835 298.229 31.7154 298.112 31.1473C298.112 31.1069 298.112 31.086 298.103 31.0763C298.093 31.0665 298.074 31.0665 298.035 31.0665C298.15 30.6614 298.19 30.2548 298.18 29.8496C298.17 29.4444 298.112 29.0379 298.035 28.6327C297.92 28.2275 297.803 27.8418 297.688 27.477C297.573 27.1122 297.457 26.7683 297.341 26.4439Z" fill="#348DBE"/>
<path fill-rule="evenodd" clip-rule="evenodd" d="M297.591 26.4673C297.712 26.8262 297.814 27.1659 297.907 27.5042C297.999 27.8439 298.08 28.1823 298.161 28.5412C298.242 28.9398 298.304 29.359 298.313 29.7781C298.323 30.1973 298.283 30.6165 298.161 31.0151C298.12 31.1754 298.059 31.3343 297.988 31.4945C297.916 31.6548 297.835 31.8137 297.754 31.974C297.714 32.0137 297.693 32.0534 297.693 32.1041C297.693 32.1548 297.714 32.2137 297.754 32.2931C297.918 32.5329 298.059 32.7918 298.161 33.0616C298.263 33.3315 298.324 33.6095 298.324 33.889C298.406 34.5273 298.386 35.1657 298.304 35.7944C298.222 36.4232 298.08 37.041 297.916 37.6396C297.876 37.7588 297.835 37.8588 297.795 37.9492C297.754 38.0396 297.714 38.119 297.673 38.1985C297.633 37.9985 297.592 37.7793 297.552 37.5505C297.511 37.3218 297.47 37.0821 297.43 36.8423C297.389 36.5232 297.328 36.204 297.216 35.8848C297.104 35.5657 296.941 35.2465 296.697 34.9273C296.657 34.8479 296.595 34.7671 296.524 34.6986C296.453 34.6301 296.372 34.5684 296.291 34.5287C296.291 34.6082 296.291 34.6684 296.3 34.7287C296.31 34.789 296.331 34.8479 296.372 34.9287C296.372 35.4479 296.331 35.9465 296.26 36.4355C296.189 36.9245 296.087 37.4026 295.965 37.882C295.801 38.4409 295.618 38.9587 295.416 39.4683C295.213 39.9779 294.988 40.4751 294.743 40.9943C294.703 41.034 294.682 41.0546 294.672 41.0847C294.662 41.1148 294.662 41.1546 294.662 41.234C294.662 41.034 294.683 40.8546 294.713 40.6751C294.743 40.4957 294.784 40.3162 294.824 40.1162C294.865 39.7971 294.865 39.4779 294.834 39.1683C294.803 38.8587 294.742 38.5601 294.661 38.2807C294.539 37.682 294.295 37.1232 294 36.6054C293.705 36.0862 293.358 35.6081 293.032 35.1684C292.828 34.9287 292.605 34.689 292.381 34.4506C292.157 34.2109 291.934 33.9712 291.73 33.7328C291.77 33.9328 291.811 34.1315 291.842 34.341C291.872 34.5506 291.892 34.7698 291.892 35.0095C291.892 35.2492 291.892 35.4684 291.882 35.678C291.872 35.8876 291.851 36.0876 291.811 36.2862C291.689 37.1245 291.404 37.9218 291.027 38.6807C290.651 39.4382 290.182 40.1573 289.693 40.8354C289.653 40.8751 289.632 40.8957 289.612 40.9053C289.591 40.9148 289.571 40.9148 289.531 40.9148C289.49 40.9148 289.469 40.8943 289.469 40.8751C289.469 40.8546 289.49 40.8354 289.531 40.8354C289.612 40.4765 289.633 40.1176 289.612 39.7587C289.591 39.3998 289.531 39.0409 289.448 38.682C289.327 38.1231 289.184 37.6053 289.011 37.0958C288.838 36.5876 288.635 36.0889 288.39 35.5698C288.35 35.4903 288.309 35.4506 288.269 35.4396C288.228 35.4301 288.188 35.4492 288.147 35.489C287.943 35.6081 287.76 35.7478 287.608 35.9177C287.455 36.0876 287.332 36.2862 287.251 36.5259C287.088 36.9245 286.966 37.3245 286.875 37.7327C286.783 38.1423 286.723 38.5601 286.682 38.9998C286.601 39.7176 286.54 40.4162 286.509 41.1148C286.478 41.8135 286.478 42.5107 286.519 43.2299C286.519 43.2299 286.519 43.2504 286.509 43.2696C286.499 43.2888 286.478 43.3093 286.438 43.3093C285.948 41.9929 285.582 40.6765 285.379 39.3395C285.177 38.0026 285.135 36.6465 285.298 35.2506C285.094 35.5698 284.911 35.9095 284.759 36.2574C284.607 36.6054 284.484 36.9656 284.402 37.3245C284.321 37.6834 284.26 38.0423 284.239 38.4122C284.218 38.782 284.239 39.1601 284.32 39.5587C284.198 39.3587 284.096 39.1395 284.004 38.9108C283.912 38.682 283.831 38.4423 283.75 38.2026C283.628 37.8437 283.485 37.4642 283.353 37.0848C283.22 36.7054 283.098 36.3273 283.017 35.967C282.936 35.6081 282.875 35.2287 282.854 34.8492C282.833 34.4698 282.854 34.0917 282.935 33.7315C282.935 33.6917 282.935 33.652 282.925 33.6123C282.915 33.5726 282.894 33.5328 282.854 33.4931C282.447 33.2931 282.162 32.9739 281.938 32.6055C281.714 32.237 281.551 31.8178 281.389 31.4178C281.267 31.1781 281.185 30.8987 281.113 30.6192C281.042 30.3398 280.981 30.0603 280.9 29.8206C280.859 29.5809 280.838 29.3412 280.828 29.1028C280.818 28.8631 280.818 28.6234 280.818 28.385C280.818 27.7864 280.859 27.1878 280.94 26.5892C281.021 25.9906 281.144 25.3919 281.306 24.7933C281.306 24.7536 281.327 24.7139 281.347 24.6742C281.368 24.6344 281.387 24.5947 281.387 24.555C281.509 24.1961 281.632 23.8166 281.775 23.4276C281.917 23.0386 282.079 22.64 282.283 22.24C282.243 23.1975 282.243 24.155 282.324 25.1029C282.405 26.0508 282.569 26.9878 282.854 27.9056C282.894 27.4672 282.975 27.0481 283.077 26.6385C283.179 26.2289 283.301 25.8303 283.424 25.4317C283.546 25.0728 283.669 24.7139 283.8 24.3646C283.933 24.0153 284.075 23.6769 284.237 23.3577C284.237 23.3975 284.237 23.418 284.237 23.4372C284.237 23.4577 284.237 23.4769 284.237 23.5166L284.197 23.5564L284.156 23.5961C284.116 23.8755 284.095 24.155 284.095 24.4235C284.095 24.692 284.116 24.9522 284.156 25.1919C284.197 25.3111 284.218 25.4508 284.249 25.5906C284.279 25.7303 284.32 25.87 284.401 25.9892C284.442 26.2686 284.544 26.5673 284.676 26.8672C284.809 27.1659 284.971 27.4659 285.135 27.7453C285.339 27.1864 285.542 26.6275 285.644 26.0591C285.746 25.4906 285.746 24.9125 285.542 24.3139C285.705 24.4331 285.846 24.5728 285.989 24.7235C286.132 24.8728 286.274 25.033 286.436 25.1919C286.6 25.4317 286.783 25.6714 286.955 25.9207C287.128 26.17 287.29 26.4289 287.413 26.7083C287.535 26.9481 287.637 27.1878 287.739 27.4261C287.841 27.6659 287.943 27.9056 288.065 28.1439C288.186 27.5056 288.35 26.907 288.564 26.3179C288.778 25.7289 289.042 25.1509 289.367 24.5522C289.448 25.27 289.571 25.9481 289.755 26.5974C289.938 27.2453 290.182 27.8645 290.508 28.4631C290.589 28.3439 290.672 28.2439 290.741 28.1439C290.813 28.0439 290.874 27.9439 290.915 27.8248C291.2 27.3453 291.404 26.8467 291.505 26.3289C291.607 25.8097 291.607 25.2714 291.484 24.7125C291.443 24.5933 291.403 24.4933 291.372 24.3933C291.341 24.2933 291.322 24.1933 291.322 24.0742H291.362H291.403C291.728 24.5933 292.013 25.1317 292.268 25.6906C292.522 26.2495 292.746 26.8275 292.95 27.4261C292.99 27.307 293.052 27.207 293.123 27.107C293.195 27.007 293.276 26.907 293.357 26.7878C293.52 26.6275 293.703 26.4686 293.896 26.3289C294.089 26.1892 294.293 26.07 294.497 25.9892C294.701 25.9084 294.925 25.8289 295.158 25.77C295.392 25.7111 295.637 25.67 295.881 25.67C295.922 25.67 295.962 25.6495 295.993 25.6495C296.024 25.6495 296.043 25.67 296.043 25.7495C296.043 25.7892 296.022 25.8097 296.003 25.8289C295.982 25.8495 295.962 25.8686 295.962 25.9084C295.758 26.1878 295.575 26.4864 295.432 26.8056C295.29 27.1248 295.188 27.4645 295.147 27.8234C295.107 28.0631 295.086 28.3028 295.097 28.5412C295.107 28.7809 295.147 29.0206 295.23 29.259C295.27 29.3781 295.311 29.4384 295.363 29.459C295.414 29.4795 295.474 29.459 295.555 29.4192C295.841 29.3001 296.064 29.1398 296.247 28.9398C296.43 28.7398 296.573 28.5015 296.695 28.222C296.816 27.9426 296.899 27.6439 296.949 27.3344C296.999 27.0248 297.02 26.7056 297.02 26.3864C297.02 26.0673 297.02 25.7481 297.02 25.4289C297.02 25.1098 297.02 24.7906 297.02 24.4714C297.061 24.5906 297.122 24.7111 297.173 24.8303C297.223 24.9495 297.265 25.07 297.265 25.1892C297.265 25.4687 297.305 25.7084 297.367 25.918C297.429 26.1275 297.51 26.307 297.591 26.4673Z" fill="#080909"/>
<path d="M296.63 58.49C296.368 58.49 296.105 58.5108 295.842 58.5206C295.579 58.5303 295.317 58.5303 295.054 58.49C294.642 58.4497 294.303 58.3079 294.022 58.0854C293.741 57.863 293.516 57.5585 293.328 57.1943C292.953 56.4254 292.708 55.6358 292.596 54.8252C292.484 54.0147 292.502 53.1847 292.653 52.3353C292.915 51.1605 293.29 50.0872 293.796 49.0959C294.303 48.1047 294.94 47.1927 295.729 46.3418C296.066 46.0179 296.423 45.6939 296.807 45.4103C297.192 45.1267 297.604 44.8834 298.054 44.7221C298.654 44.5192 299.235 44.4385 299.798 44.4997C300.361 44.5609 300.905 44.7625 301.43 45.1267C302.368 45.7343 303.156 46.4628 303.785 47.3136C304.414 48.1644 304.883 49.1363 305.183 50.229C305.446 51.0798 305.464 51.889 305.268 52.6592C305.072 53.4294 304.658 54.1579 304.058 54.8461C303.158 55.8179 302.183 56.5867 301.113 57.1748C300.044 57.7615 298.881 58.1674 297.606 58.4094C297.494 58.4497 297.4 58.4705 297.314 58.4803C297.229 58.49 297.155 58.49 297.08 58.49C297.005 58.49 296.929 58.49 296.855 58.49C296.78 58.49 296.705 58.49 296.63 58.49ZM297.305 58.0854C297.494 58.0854 297.662 58.0854 297.821 58.0757C297.98 58.066 298.13 58.0451 298.281 58.0048C298.918 57.8421 299.462 57.539 299.904 57.1136C300.344 56.6882 300.682 56.1418 300.907 55.494C301.019 55.2507 301.113 55.0074 301.17 54.7655C301.227 54.5222 301.245 54.2789 301.207 54.037C301.17 53.713 301.039 53.4697 300.842 53.3488C300.644 53.2278 300.382 53.2278 300.082 53.3891C300.007 53.4294 299.95 53.4503 299.893 53.4808C299.837 53.5114 299.781 53.5518 299.705 53.6324C299.631 53.6727 299.555 53.713 299.48 53.7533C299.405 53.7937 299.329 53.834 299.255 53.8743C298.992 53.9549 298.729 53.9355 298.485 53.834C298.242 53.7325 298.017 53.5504 297.828 53.3071C297.64 53.0234 297.548 52.7801 297.557 52.548C297.566 52.3158 297.679 52.092 297.903 51.8501C297.941 51.7694 297.997 51.7083 298.063 51.6471C298.129 51.5859 298.203 51.5261 298.278 51.4441C298.503 51.1605 298.559 50.8365 298.475 50.5641C298.391 50.2916 298.166 50.0677 297.828 49.9871C297.491 49.9065 297.153 49.8856 296.816 49.9162C296.478 49.9468 296.141 50.0274 295.803 50.1484C295.203 50.3917 294.678 50.7351 294.265 51.1813C293.853 51.6276 293.553 52.174 293.402 52.8219C293.29 53.3488 293.271 53.8743 293.317 54.3915C293.364 54.9087 293.477 55.4133 293.626 55.8999C293.815 56.3865 294.077 56.8105 294.415 57.1553C294.752 57.5001 295.166 57.7629 295.653 57.9242C295.953 57.9645 296.234 58.0048 296.507 58.0354C296.78 58.066 297.043 58.0854 297.305 58.0854Z" fill="white"/>
<path d="M283.089 58.447C281.791 58.4068 280.493 58.2448 279.245 57.8931C277.997 57.5401 276.801 56.9959 275.706 56.1887C275.301 55.9062 274.915 55.6043 274.56 55.2817C274.205 54.9591 273.88 54.6157 273.596 54.2529C273.068 53.6077 272.765 52.9223 272.663 52.2064C272.562 51.4906 272.663 50.7442 272.947 49.9785C273.191 49.3333 273.495 48.7282 273.86 48.1536C274.224 47.5789 274.651 47.0348 275.137 46.51C275.624 46.0254 276.11 45.6031 276.648 45.2694C277.185 44.9371 277.773 44.6947 278.462 44.5743C278.95 44.4538 279.415 44.4538 279.872 44.5438C280.328 44.6338 280.774 44.8166 281.22 45.0575C282.477 45.7429 283.512 46.6097 284.332 47.6385C285.154 48.6673 285.763 49.8567 286.168 51.1873C286.331 51.7523 286.472 52.2964 286.563 52.8503C286.655 53.4041 286.696 53.9691 286.655 54.5742C286.615 55.0588 286.513 55.5628 286.352 56.046C286.189 56.5307 285.966 56.9931 285.682 57.3974C285.438 57.8004 285.114 58.0635 284.729 58.2338C284.344 58.4055 283.898 58.4858 283.41 58.5259C283.41 58.4858 283.37 58.465 283.309 58.4553C283.25 58.447 283.169 58.447 283.089 58.447ZM277.409 54.0106C277.409 54.0508 277.409 54.1311 277.419 54.2225C277.429 54.3139 277.45 54.4135 277.49 54.4952C277.49 54.5755 277.511 54.6572 277.531 54.7265C277.551 54.7971 277.571 54.858 277.571 54.8982C277.774 55.6237 278.099 56.2496 278.554 56.7439C279.01 57.2382 279.599 57.601 280.328 57.8031C280.532 57.8433 280.755 57.8641 280.987 57.8835C281.22 57.9028 281.463 57.9236 281.707 57.9638C282.153 58.0039 282.56 57.9845 282.934 57.8931C283.309 57.8018 283.654 57.6411 283.979 57.3988C284.628 56.9959 285.115 56.4919 285.428 55.9062C285.743 55.3219 285.885 54.6559 285.845 53.9303C285.804 53.6077 285.662 53.3252 285.44 53.1937C285.217 53.0621 284.912 53.0829 284.547 53.3654C284.506 53.4055 284.445 53.4457 284.374 53.4858C284.303 53.526 284.222 53.5661 284.142 53.6063C283.898 53.7268 283.675 53.7877 283.452 53.778C283.229 53.7683 283.007 53.6866 282.763 53.526C282.358 53.2034 282.135 52.8406 282.114 52.4778C282.093 52.115 282.277 51.7523 282.682 51.4296C282.722 51.3895 282.763 51.3687 282.803 51.3383C282.844 51.3078 282.884 51.2676 282.924 51.1873C283.046 51.0253 283.128 50.8647 283.147 50.7027C283.168 50.5407 283.126 50.3801 283.005 50.2181C282.924 50.0976 282.823 49.9965 282.702 49.9259C282.58 49.8553 282.438 49.8151 282.275 49.8151C282.072 49.775 281.849 49.7542 281.626 49.7653C281.404 49.775 281.181 49.8151 280.977 49.8968C279.883 50.0588 278.969 50.5629 278.341 51.2884C277.713 52.014 277.369 52.9611 277.409 54.0106Z" fill="white"/>
<path fill-rule="evenodd" clip-rule="evenodd" d="M299.528 72.8605C299.494 73.6293 299.338 74.2771 299.07 74.854C298.801 75.4309 298.421 75.937 297.937 76.4235C297.28 77.0713 296.571 77.6385 295.826 78.1445C295.081 78.6506 294.303 79.0954 293.509 79.5013C293.405 79.5417 293.284 79.582 293.163 79.5931C293.042 79.6028 292.921 79.5834 292.817 79.5013C292.644 79.3804 292.559 79.2581 292.532 79.1163C292.506 78.9745 292.541 78.8132 292.611 78.6102C292.784 78.2863 292.956 77.9833 293.13 77.6788C293.303 77.3758 293.475 77.0713 293.649 76.7474C293.96 76.1802 294.185 75.5727 294.35 74.9458C294.514 74.3188 294.618 73.671 294.687 73.0232C294.721 72.659 294.774 72.2947 294.869 71.95C294.964 71.6052 295.103 71.2813 295.309 70.9991C295.69 70.5543 296.192 70.2901 296.701 70.2401C297.211 70.19 297.731 70.3513 298.146 70.7558C298.354 70.9185 298.544 71.1006 298.725 71.3022C298.907 71.5051 299.081 71.7276 299.253 71.9708C299.356 72.1335 299.443 72.2739 299.495 72.4157C299.547 72.5575 299.563 72.6993 299.528 72.8605Z" fill="#080909"/>
<path fill-rule="evenodd" clip-rule="evenodd" d="M279.648 73.346C279.648 72.6162 279.948 71.9059 280.431 71.3488C280.913 70.7917 281.575 70.385 282.297 70.2638C283.059 70.1426 283.762 70.3655 284.294 70.8321C284.825 71.2987 285.187 72.009 285.266 72.8599C285.306 73.6719 285.447 74.4421 285.698 75.1817C285.949 75.9227 286.31 76.6316 286.792 77.321C286.832 77.3614 286.872 77.4227 286.912 77.4839C286.952 77.5452 286.992 77.6051 287.032 77.6469C287.072 77.6873 287.112 77.7486 287.142 77.8196C287.172 77.8906 287.192 77.9714 287.192 78.0522C287.192 78.0926 287.212 78.1539 287.241 78.204C287.272 78.2542 287.312 78.2959 287.352 78.2959C287.431 78.3767 287.492 78.4784 287.553 78.5801C287.613 78.6817 287.673 78.7834 287.754 78.8642C287.835 78.945 287.855 79.0271 287.834 79.1079C287.813 79.1887 287.754 79.2709 287.673 79.3517C287.553 79.4324 287.452 79.4937 287.342 79.5341C287.232 79.5745 287.112 79.5954 286.951 79.5954C286.831 79.555 286.69 79.5146 286.55 79.4742C286.409 79.4338 286.268 79.3934 286.148 79.353C285.506 79.0285 284.864 78.704 284.232 78.3489C283.599 77.9937 282.977 77.6079 282.375 77.1622C281.934 76.8377 281.513 76.4923 281.131 76.1079C280.749 75.7221 280.409 75.2959 280.128 74.8098C279.966 74.5661 279.846 74.3224 279.766 74.08C279.687 73.8377 279.648 73.5898 279.648 73.346Z" fill="#080909"/>
<path fill-rule="evenodd" clip-rule="evenodd" d="M278.477 79.678C278.884 79.8829 279.292 80.1271 279.708 80.3628C280.124 80.5986 280.551 80.8231 281 80.9859C281.976 81.4771 282.973 81.9261 283.999 82.3037C285.026 82.6812 286.084 82.9885 287.182 83.192C288.484 83.4376 289.785 83.4979 291.067 83.366C292.348 83.2327 293.609 82.9057 294.829 82.3752C295.643 82.0075 296.416 81.5992 297.157 81.1487C297.899 80.6982 298.611 80.2084 299.302 79.6766C299.343 79.6359 299.364 79.6148 299.395 79.605C299.425 79.5952 299.466 79.5952 299.547 79.5952C299.466 79.8001 299.343 80.0036 299.212 80.1986C299.079 80.3923 298.936 80.5761 298.815 80.7403C298.001 81.8027 297.086 82.7233 296.048 83.4586C295.011 84.194 293.852 84.7455 292.55 85.0725C291.411 85.3588 290.292 85.4808 289.175 85.4401C288.056 85.3994 286.938 85.1946 285.799 84.8269C284.376 84.3357 283.075 83.7028 281.904 82.8959C280.736 82.0889 279.698 81.108 278.803 79.9222C278.722 79.8815 278.639 79.8408 278.579 79.8001C278.518 79.7594 278.477 79.7187 278.477 79.678Z" fill="white"/>
<path fill-rule="evenodd" clip-rule="evenodd" d="M296.705 57.3555C296.42 57.3555 296.153 57.3347 295.885 57.2943C295.618 57.2539 295.35 57.1927 295.064 57.1119C294.529 56.949 294.102 56.7068 293.754 56.3824C293.407 56.0581 293.14 55.653 292.925 55.1657C292.711 54.6785 292.586 54.1522 292.542 53.6246C292.498 53.097 292.534 52.5708 292.64 52.0835C292.783 51.3944 293.104 50.8473 293.54 50.4116C293.977 49.9758 294.529 49.6515 295.135 49.4078C295.456 49.2867 295.812 49.2046 296.17 49.1753C296.526 49.1447 296.884 49.1656 297.204 49.2464C297.525 49.2867 297.757 49.49 297.856 49.7531C297.954 50.0162 297.918 50.3406 297.704 50.6246C297.668 50.7053 297.597 50.7666 297.517 50.8278C297.436 50.8891 297.348 50.9489 297.275 51.0311C297.097 51.2747 296.99 51.5183 296.972 51.7605C296.953 52.0042 297.026 52.2478 297.203 52.49C297.382 52.774 297.595 52.9564 297.836 53.0469C298.077 53.1388 298.344 53.1388 298.63 53.0566C298.701 53.0163 298.773 52.9954 298.852 52.9647C298.933 52.9341 299.021 52.8937 299.129 52.813C299.165 52.7726 299.236 52.7323 299.316 52.6919C299.397 52.6515 299.485 52.6111 299.558 52.5708C299.843 52.4497 300.11 52.4691 300.315 52.5916C300.52 52.7128 300.663 52.9369 300.699 53.2195C300.734 53.4631 300.717 53.7067 300.663 53.949C300.609 54.1926 300.52 54.4362 300.413 54.6785C300.164 55.2868 299.807 55.8144 299.343 56.2293C298.879 56.6455 298.309 56.949 297.632 57.1105C297.525 57.2316 297.382 57.2929 297.222 57.3235C297.061 57.3555 296.882 57.3555 296.705 57.3555Z" fill="#080909"/>
<path fill-rule="evenodd" clip-rule="evenodd" d="M277.307 53.4114C277.307 52.3494 277.716 51.4094 278.413 50.6841C279.109 49.9588 280.092 49.4481 281.24 49.2433C281.486 49.2026 281.732 49.1815 281.977 49.1717C282.223 49.1619 282.469 49.1619 282.714 49.1619C282.879 49.2026 283.042 49.2433 283.185 49.305C283.329 49.3667 283.451 49.4481 283.534 49.5702C283.657 49.7343 283.719 49.897 283.709 50.0612C283.699 50.2253 283.616 50.3881 283.453 50.5522C283.412 50.5929 283.371 50.6336 283.33 50.6743C283.29 50.715 283.249 50.7556 283.208 50.7963C282.799 51.1232 282.593 51.4908 282.603 51.8485C282.613 52.2063 282.838 52.5528 283.29 52.839C283.536 53.0031 283.782 53.0845 284.027 53.0943C284.273 53.1042 284.519 53.0438 284.764 52.9204C284.845 52.8797 284.928 52.839 284.999 52.7983C285.07 52.7576 285.132 52.7169 285.173 52.6763C285.582 52.4307 285.931 52.4111 286.187 52.5332C286.443 52.6552 286.608 52.9218 286.649 53.2487C286.73 53.9838 286.587 54.6376 286.239 55.2198C285.892 55.802 285.338 56.3127 284.601 56.763C284.191 57.0085 283.78 57.1713 283.361 57.2639C282.941 57.3565 282.512 57.3761 282.06 57.3354C281.773 57.2947 281.527 57.2947 281.282 57.2849C281.036 57.2751 280.79 57.254 280.504 57.1727C279.684 56.9678 279.029 56.6003 278.517 56.0994C278.005 55.5986 277.636 54.9659 277.39 54.2293C277.349 54.1479 277.328 54.0862 277.318 54.0245C277.308 53.9628 277.308 53.9024 277.308 53.8197C277.308 53.779 277.308 53.7172 277.308 53.6457C277.307 53.5741 277.307 53.4928 277.307 53.4114Z" fill="#080909"/>
<path d="M85 59L157 59V57L85 57V59Z" fill="#21232A"/>
<path d="M176.057 38.6272C165.391 38.6272 156.743 47.2748 156.743 57.9408C156.743 68.608 165.391 77.2544 176.057 77.2544C186.724 77.2544 195.371 68.6092 195.371 57.9408C195.371 47.2748 186.724 38.6272 176.057 38.6272ZM176.057 73.633C167.39 73.633 160.365 66.6077 160.365 57.9408C160.365 49.2739 167.39 42.2486 176.057 42.2486C184.724 42.2486 191.749 49.2739 191.749 57.9408C191.749 66.6077 184.724 73.633 176.057 73.633ZM176.058 47.0974C174.675 47.0974 173.628 47.8193 173.628 48.9853V59.6802C173.628 60.8474 174.675 61.5669 176.058 61.5669C177.408 61.5669 178.488 60.8173 178.488 59.6802V48.9853C178.488 47.847 177.408 47.0974 176.058 47.0974ZM176.058 63.9763C174.729 63.9763 173.648 65.0579 173.648 66.388C173.648 67.7158 174.729 68.7974 176.058 68.7974C177.387 68.7974 178.468 67.7158 178.468 66.388C178.467 65.0578 177.387 63.9763 176.058 63.9763Z" fill="#E2574C"/>
<path d="M102.41 59.26V57.01C102.41 56.4577 101.962 56.01 101.41 56.01C100.858 56.01 100.41 56.4577 100.41 57.01V59.26C100.41 59.8123 100.858 60.26 101.41 60.26C101.962 60.26 102.41 59.8123 102.41 59.26Z" fill="#21232A" stroke="white" stroke-width="0.5" stroke-miterlimit="10"/>
<path d="M118.47 59.25V57C118.47 56.4477 118.022 56 117.47 56C116.918 56 116.47 56.4477 116.47 57V59.25C116.47 59.8023 116.918 60.25 117.47 60.25C118.022 60.25 118.47 59.8023 118.47 59.25Z" fill="#21232A" stroke="white" stroke-width="0.5" stroke-miterlimit="10"/>
<path d="M135.59 59.25V57C135.59 56.4477 135.142 56 134.59 56C134.038 56 133.59 56.4477 133.59 57V59.25C133.59 59.8023 134.038 60.25 134.59 60.25C135.142 60.25 135.59 59.8023 135.59 59.25Z" fill="#21232A" stroke="white" stroke-width="0.5" stroke-miterlimit="10"/>
<path d="M152.68 59.26V57.01C152.68 56.4577 152.232 56.01 151.68 56.01C151.128 56.01 150.68 56.4577 150.68 57.01V59.26C150.68 59.8123 151.128 60.26 151.68 60.26C152.232 60.26 152.68 59.8123 152.68 59.26Z" fill="#21232A" stroke="white" stroke-width="0.5" stroke-miterlimit="10"/>
<path d="M87.01 59.25V57C87.01 56.4477 86.5623 56 86.01 56C85.4577 56 85.01 56.4477 85.01 57V59.25C85.01 59.8023 85.4577 60.25 86.01 60.25C86.5623 60.25 87.01 59.8023 87.01 59.25Z" fill="#21232A" stroke="white" stroke-width="0.5" stroke-miterlimit="10"/>
<path d="M215.41 59.26V57.01C215.41 56.4577 214.962 56.01 214.41 56.01C213.858 56.01 213.41 56.4577 213.41 57.01V59.26C213.41 59.8123 213.858 60.26 214.41 60.26C214.962 60.26 215.41 59.8123 215.41 59.26Z" fill="#21232A" stroke="white" stroke-width="0.5" stroke-miterlimit="10"/>
<path d="M231.47 59.25V57C231.47 56.4477 231.022 56 230.47 56C229.918 56 229.47 56.4477 229.47 57V59.25C229.47 59.8023 229.918 60.25 230.47 60.25C231.022 60.25 231.47 59.8023 231.47 59.25Z" fill="#21232A" stroke="white" stroke-width="0.5" stroke-miterlimit="10"/>
<path d="M248.59 59.25V57C248.59 56.4477 248.142 56 247.59 56C247.038 56 246.59 56.4477 246.59 57V59.25C246.59 59.8023 247.038 60.25 247.59 60.25C248.142 60.25 248.59 59.8023 248.59 59.25Z" fill="#21232A" stroke="white" stroke-width="0.5" stroke-miterlimit="10"/>
<path d="M265.68 59.26V57.01C265.68 56.4577 265.232 56.01 264.68 56.01C264.128 56.01 263.68 56.4577 263.68 57.01V59.26C263.68 59.8123 264.128 60.26 264.68 60.26C265.232 60.26 265.68 59.8123 265.68 59.26Z" fill="#21232A" stroke="white" stroke-width="0.5" stroke-miterlimit="10"/>
<path d="M200.01 59.25V57C200.01 56.4477 199.562 56 199.01 56C198.458 56 198.01 56.4477 198.01 57V59.25C198.01 59.8023 198.458 60.25 199.01 60.25C199.562 60.25 200.01 59.8023 200.01 59.25Z" fill="#21232A" stroke="white" stroke-width="0.5" stroke-miterlimit="10"/>
</svg>
