<?xml version="1.0" encoding="UTF-8"?>
<svg width="15px" height="15px" viewBox="0 0 15 15" version="1.1" xmlns="http://www.w3.org/2000/svg" xmlns:xlink="http://www.w3.org/1999/xlink">
    <!-- Generator: Sketch 51.2 (57519) - http://www.bohemiancoding.com/sketch -->
    <title>Home-icon Copy 3</title>
    <desc>Created with Sketch.</desc>
    <defs></defs>
    <g id="Page-1" stroke="none" stroke-width="1" fill="none" fill-rule="evenodd">
        <path d="M8.34797625,0.663015594 L14.3479762,5.63601559 C14.2039762,5.63601559 14.3479762,5.92601559 14.3479762,6.63601559 L14.3479762,13.5990156 C14.3479762,14.1513003 13.900261,14.5990156 13.3479762,14.5990156 L10.3479762,14.5990156 C9.84663097,14.4920073 9.4549845,14.1003609 9.34797625,13.5990156 L9.34797625,10.6150156 C9.50797625,9.64301559 9.05397625,9.19501559 8.34797625,9.62001559 L6.34797625,9.62001559 C5.62397625,9.19501559 5.16997625,9.64301559 5.34797625,10.6150156 L5.34797625,13.5990156 C5.22987139,14.0942441 4.84320472,14.4809107 4.34797625,14.5990156 L1.34797625,14.5990156 C0.7956915,14.5990156 0.34797625,14.1513003 0.34797625,13.5990156 L0.34797625,6.63601559 C0.34797625,5.93101559 0.49197625,5.63601559 0.34797625,5.63601559 L6.34797625,0.663015594 C7.01199691,0.579015509 7.68395559,0.579015509 8.34797625,0.663015594" id="Home-icon-Copy-3" fill="#7F8FA4"></path>
    </g>
</svg>