<svg width="29" height="23" viewBox="0 0 29 23" fill="none" xmlns="http://www.w3.org/2000/svg">
<path d="M25.1779 0.887817H4.092C2.20974 0.887817 0.679688 2.41787 0.679688 4.30013V18.7115C0.679688 20.5938 2.20974 22.1238 4.092 22.1238H25.1721C27.0544 22.1238 28.5844 20.5938 28.5844 18.7115V4.30591C28.5902 2.42365 27.0602 0.887817 25.1779 0.887817ZM27.0313 18.7115C27.0313 19.7335 26.1999 20.5649 25.1779 20.5649H4.092C3.07004 20.5649 2.23861 19.7335 2.23861 18.7115V4.30591C2.23861 3.28394 3.07004 2.45252 4.092 2.45252H25.1721C26.1941 2.45252 27.0255 3.28394 27.0255 4.30591V18.7115H27.0313Z" fill="#7C7C7C"/>
<path d="M18.2782 11.3269L25.1028 5.20667C25.4204 4.91798 25.4492 4.42721 25.1606 4.10388C24.8719 3.78632 24.3811 3.75745 24.0578 4.04614L14.6465 12.4932L12.8104 10.8534C12.8046 10.8477 12.7989 10.8419 12.7989 10.8361C12.7584 10.7957 12.718 10.7611 12.6718 10.7264L5.20054 4.04037C4.8772 3.75168 4.38643 3.78055 4.09774 4.10388C3.80905 4.42721 3.83792 4.91798 4.16125 5.20667L11.0667 11.3789L4.19012 17.8166C3.87834 18.1111 3.86101 18.6019 4.15548 18.9194C4.31137 19.0811 4.51923 19.1677 4.72708 19.1677C4.91762 19.1677 5.10815 19.0984 5.25827 18.9599L12.2388 12.4297L14.1326 14.1214C14.2827 14.2542 14.4675 14.3177 14.6522 14.3177C14.837 14.3177 15.0275 14.2484 15.1719 14.1156L17.1177 12.372L24.0578 18.9656C24.2079 19.11 24.4042 19.1793 24.5947 19.1793C24.8026 19.1793 25.0047 19.0984 25.1606 18.9368C25.455 18.625 25.4435 18.1284 25.1317 17.834L18.2782 11.3269Z" fill="#7C7C7C"/>
</svg>
