<svg width="64" height="78" viewBox="0 0 64 78" fill="none" xmlns="http://www.w3.org/2000/svg">
<path d="M28.8643 24.7132H24.5053V22.1392H28.178C28.8028 22.1392 29.3093 21.6327 29.3093 21.0079C29.3093 20.3831 28.8028 19.8766 28.178 19.8766H24.5053V17.3024H28.8643C29.4891 17.3024 29.9957 16.7959 29.9957 16.1711C29.9957 15.5463 29.4891 15.0398 28.8643 15.0398H23.374C22.7492 15.0398 22.2427 15.5463 22.2427 16.1711V25.8445C22.2427 26.4693 22.7492 26.9758 23.374 26.9758H28.8643C29.4891 26.9758 29.9957 26.4693 29.9957 25.8445C29.9957 25.2197 29.4891 24.7132 28.8643 24.7132Z" fill="#E39500"/>
<path d="M19.0356 15.0399C18.4108 15.0399 17.9043 15.5464 17.9043 16.1712V21.5595L14.5292 15.6128C14.2758 15.1662 13.7535 14.9465 13.2565 15.0775C12.7599 15.2086 12.4141 15.6578 12.4141 16.1712V25.8446C12.4141 26.4694 12.9206 26.9759 13.5454 26.9759C14.1702 26.9759 14.6767 26.4694 14.6767 25.8446V20.4564L18.0518 26.403C18.2562 26.7632 18.6359 26.9761 19.0356 26.9759C19.1314 26.9759 19.2284 26.9637 19.3244 26.9384C19.821 26.8073 20.1669 26.3581 20.1669 25.8446V16.1712C20.1669 15.5464 19.6604 15.0399 19.0356 15.0399Z" fill="#E39500"/>
<path d="M41.0361 15.0648C40.4246 14.9349 39.8241 15.3247 39.6941 15.9357L38.7418 20.4101L37.7895 15.9357C37.6784 15.4135 37.2171 15.04 36.683 15.04C36.149 15.04 35.6876 15.4135 35.5765 15.9357L34.6241 20.4103L33.6718 15.9357C33.5418 15.3247 32.9412 14.9349 32.3298 15.0648C31.7187 15.1948 31.3288 15.7957 31.4588 16.4068L33.5177 26.0802C33.6287 26.6024 34.09 26.9759 34.6241 26.9759C35.1582 26.9759 35.6195 26.6024 35.7305 26.0802L36.683 21.6056L37.6352 26.0802C37.7464 26.6024 38.2077 26.9759 38.7418 26.9759C39.2759 26.9759 39.7372 26.6024 39.8482 26.0802L41.9071 16.4068C42.0371 15.7956 41.6472 15.1948 41.0361 15.0648Z" fill="#E39500"/>
<path d="M47.4654 19.9458C45.7401 19.3124 45.4618 18.9382 45.4618 18.2871C45.4616 17.8224 46.1517 17.3024 47.0755 17.3024C47.9992 17.3024 48.6893 17.8224 48.6893 18.2871C48.6893 18.9119 49.1959 19.4184 49.8206 19.4184C50.4454 19.4184 50.952 18.9119 50.952 18.2871C50.952 16.4965 49.2131 15.0398 47.0755 15.0398C44.9379 15.0398 43.199 16.4966 43.199 18.2871C43.199 20.7899 45.3815 21.5912 46.6857 22.0698C48.4109 22.703 48.6893 23.0774 48.6893 23.7285C48.6893 24.1934 47.9992 24.7132 47.0755 24.7132C46.1517 24.7132 45.4616 24.1932 45.4616 23.7285C45.4616 23.1037 44.9551 22.5971 44.3303 22.5971C43.7055 22.5971 43.199 23.1037 43.199 23.7285C43.199 25.5191 44.9379 26.9758 47.0755 26.9758C49.2131 26.9758 50.952 25.519 50.952 23.7285C50.952 21.2255 48.7694 20.4244 47.4654 19.9458Z" fill="#E39500"/>
<path d="M61.6046 26.568L56.9976 22.8825V2.87025C56.9978 1.57965 55.9477 0.529785 54.6573 0.529785H8.70864C7.41803 0.529785 6.36817 1.57965 6.36817 2.87025V22.8825L1.76115 26.568C0.846744 27.2996 0.322266 28.3906 0.322266 29.5618V73.0022C0.322266 75.6263 2.45698 77.761 5.08104 77.761H58.2846C60.9086 77.761 63.0434 75.6263 63.0434 73.0022C63.0434 73.0022 63.0434 29.8101 63.0434 29.5618C63.0435 28.3908 62.519 27.2996 61.6046 26.568ZM8.63081 2.87025C8.63081 2.82726 8.66565 2.79242 8.70864 2.79242H54.6571C54.7001 2.79242 54.735 2.82726 54.735 2.87025V29.472C54.735 30.0968 55.2415 30.6033 55.8663 30.6033C56.4911 30.6033 56.9976 30.0968 56.9976 29.472V25.78L60.1911 28.3348C60.5658 28.6347 60.7807 29.0818 60.7807 29.5618C60.7809 29.9814 60.6175 30.376 60.3208 30.6729L50.4001 40.5935C50.2304 40.492 50.0326 40.4324 49.8205 40.4324H34.1013C33.4765 40.4324 32.9699 40.9389 32.9699 41.5637C32.9699 42.1885 33.4765 42.695 34.1013 42.695H48.2984L45.7243 45.269H34.1011C33.4763 45.269 32.9698 45.7755 32.9698 46.4003C32.9698 47.0251 33.4763 47.5316 34.1011 47.5316H43.4616L38.9379 52.0554L37.6129 50.7304C34.3431 47.4604 29.0226 47.4604 25.7528 50.7304L24.4278 52.0554L19.904 47.5316H29.2645C29.8893 47.5316 30.3958 47.0251 30.3958 46.4003C30.3958 45.7755 29.8893 45.269 29.2645 45.269H17.6414L15.0672 42.695H29.2644C29.8891 42.695 30.3957 42.1885 30.3957 41.5637C30.3957 40.9389 29.8891 40.4324 29.2644 40.4324H13.5454C13.3333 40.4324 13.1354 40.4918 12.9659 40.5935L8.63081 36.2584V2.87025ZM3.17469 28.3348L6.36817 25.78V33.9958L3.04512 30.6727C2.74841 30.376 2.5849 29.9814 2.5849 29.5616C2.58505 29.0818 2.79985 28.6347 3.17469 28.3348ZM58.2847 76.0817H5.08119C4.81148 76.0817 4.55218 76.0373 4.30872 75.9578L20.6431 59.6234C21.0849 59.1816 21.0849 58.4653 20.6431 58.0236C20.2013 57.5818 19.485 57.5818 19.0433 58.0236L2.70874 74.358C2.62925 74.1144 2.5849 73.8552 2.5849 73.5855V33.9958L22.8279 54.2388L22.4187 54.648C21.9769 55.0899 21.9769 55.8062 22.4187 56.2479C22.8605 56.6897 23.5769 56.6897 24.0185 56.2479L27.3526 52.9138C28.5092 51.7572 30.0471 51.1201 31.6828 51.1201C33.3185 51.1201 34.8564 51.7572 36.013 52.9138L59.0572 75.958C58.8137 76.0373 58.5544 76.0817 58.2847 76.0817Z" fill="#7F8FA4"/>
<path d="M49.8205 8.99402H13.5454C12.9206 8.99402 12.4141 9.50055 12.4141 10.1253C12.4141 10.7501 12.9206 11.2567 13.5454 11.2567H49.8204C50.4452 11.2567 50.9517 10.7501 50.9517 10.1253C50.9517 9.50055 50.4453 8.99402 49.8205 8.99402Z" fill="black"/>
<path d="M49.8205 30.759H13.5454C12.9206 30.759 12.4141 31.2656 12.4141 31.8904C12.4141 32.5151 12.9206 33.0217 13.5454 33.0217H49.8204C50.4452 33.0217 50.9517 32.5151 50.9517 31.8904C50.9517 31.2656 50.4453 30.759 49.8205 30.759Z" fill="black"/>
<path d="M29.2646 35.5958H13.5454C12.9206 35.5958 12.4141 36.1023 12.4141 36.7271C12.4141 37.3519 12.9206 37.8585 13.5454 37.8585H29.2645C29.8893 37.8585 30.3958 37.3519 30.3958 36.7271C30.3958 36.1023 29.8894 35.5958 29.2646 35.5958Z" fill="black"/>
<path d="M49.8206 35.5958H34.1013C33.4765 35.5958 32.97 36.1023 32.97 36.7271C32.97 37.3519 33.4765 37.8585 34.1013 37.8585H49.8204C50.4452 37.8585 50.9517 37.3519 50.9517 36.7271C50.9517 36.1023 50.4453 35.5958 49.8206 35.5958Z" fill="black"/>
<path fill-rule="evenodd" clip-rule="evenodd" d="M1.88281 31.9153L25.098 55.1605L4.38067 75.7439L1.88281 73.7706V31.9153Z" fill="#7F8FA4"/>
</svg>
