<?xml version="1.0" encoding="UTF-8"?>
<svg width="15px" height="17px" viewBox="0 0 15 17" version="1.1" xmlns="http://www.w3.org/2000/svg" xmlns:xlink="http://www.w3.org/1999/xlink">
    <!-- Generator: Sketch 51.2 (57519) - http://www.bohemiancoding.com/sketch -->
    <title>Analytics-icon Copy 2</title>
    <desc>Created with Sketch.</desc>
    <defs></defs>
    <g id="Page-1" stroke="none" stroke-width="1" fill="none" fill-rule="evenodd">
        <path d="M1.13613779,15.9133437 C0.944586942,15.7217929 0.844986456,15.4569161 0.862868395,15.1866131 L0.862868395,13.1866131 C0.844986456,12.9163101 0.944586942,12.6514333 1.13613779,12.4598825 C1.32768864,12.2683316 1.59256543,12.1687312 1.8628684,12.1866131 L3.8628684,12.1866131 C4.13325961,12.1683949 4.39833687,12.2678867 4.58996582,12.4595157 C4.78159478,12.6511446 4.88108662,12.9162219 4.8628684,13.1866131 L4.8628684,15.1866131 C4.88108662,15.4570043 4.78159478,15.7220816 4.58996582,15.9137105 C4.39833687,16.1053395 4.13325961,16.2048313 3.8628684,16.1866131 L1.8628684,16.1866131 C1.59256543,16.204495 1.32768864,16.1048946 1.13613779,15.9133437 Z M5.8628684,15.1866131 L5.8628684,1.1866131 C5.87092222,0.63769896 6.31395426,0.194666922 6.8628684,0.186613098 L8.8628684,0.186613098 C9.41178253,0.194666922 9.85481457,0.63769896 9.8628684,1.1866131 L9.8628684,15.1866131 C9.85481457,15.7355272 9.41178253,16.1785593 8.8628684,16.1866131 L6.8628684,16.1866131 C6.31395426,16.1785593 5.87092222,15.7355272 5.8628684,15.1866131 Z M10.8628684,15.1866131 L10.8628684,6.1866131 C10.8755441,5.63966482 11.3159201,5.19928878 11.8628684,5.1866131 L13.8628684,5.1866131 C14.4098167,5.19928878 14.8501927,5.63966482 14.8628684,6.1866131 L14.8628684,15.1866131 C14.8506988,15.7337778 14.4100331,16.1744435 13.8628684,16.1866131 L11.8628684,16.1866131 C11.3157037,16.1744435 10.875038,15.7337778 10.8628684,15.1866131 Z" id="Analytics-icon-Copy-2" fill="#7F8FA4"></path>
    </g>
</svg>