<?xml version="1.0" encoding="UTF-8"?>
<svg width="17px" height="17px" viewBox="0 0 17 17" version="1.1" xmlns="http://www.w3.org/2000/svg" xmlns:xlink="http://www.w3.org/1999/xlink">
    <!-- Generator: Sketch 51.2 (57519) - http://www.bohemiancoding.com/sketch -->
    <title>Jobs-icon Copy 2</title>
    <desc>Created with Sketch.</desc>
    <defs></defs>
    <g id="Page-1" stroke="none" stroke-width="1" fill="none" fill-rule="evenodd">
        <path d="M9.25213685,13.6000322 L13.8251369,13.6000322 C14.6225175,13.6026902 15.3881508,13.2877934 15.9529246,12.7248959 C16.5176984,12.1619985 16.8351413,11.3974173 16.8351369,10.6000322 L16.8351369,3.60003222 C16.8351413,2.80264711 16.5176984,2.03806598 15.9529246,1.4751685 C15.3881508,0.912271022 14.6225175,0.597374271 13.8251369,0.600032221 L3.84513685,0.600032221 C3.04775617,0.597374271 2.28212289,0.912271022 1.71734909,1.4751685 C1.15257529,2.03806598 0.835132421,2.80264711 0.835136851,3.60003222 L0.835136851,10.6000322 C0.835132421,11.3974173 1.15257529,12.1619985 1.71734909,12.7248959 C2.28212289,13.2877934 3.04775617,13.6026902 3.84513685,13.6000322 L4.83513685,13.6000322 L4.83513685,15.5910322 C4.8327358,15.8578046 4.93703172,16.1144768 5.12482897,16.3039642 C5.31262622,16.4934516 5.56835362,16.600043 5.83513685,16.6000322 L4.83513685,16.6000322 C5.47875475,16.5686087 6.10138844,16.3610642 6.63513685,16.0000322 L9.03513685,14.2000322 C9.32213685,13.9850322 9.38813685,13.7610322 9.25213685,13.6000322 Z M11.7711369,7.60003222 L5.89913685,7.60003222 C5.63516524,7.81847634 5.24685697,7.79408569 5.01229437,7.54432734 C4.77773178,7.29456899 4.77773178,6.90549545 5.01229437,6.6557371 C5.24685697,6.40597875 5.63516524,6.3815881 5.89913685,6.60003222 L11.7721369,6.60003222 C12.0361085,6.3815881 12.4244167,6.40597875 12.6589793,6.6557371 C12.8935419,6.90549545 12.8935419,7.29456899 12.6589793,7.54432734 C12.4244167,7.79408569 12.0361085,7.81847634 11.7721369,7.60003222 L11.7721369,7.60003222 L11.7711369,7.60003222 Z M10.0351369,9.60003222 L5.63513685,9.60003222 C5.40137665,9.71372334 5.12004098,9.65027461 4.95770779,9.44725382 C4.79537461,9.24423303 4.79537461,8.95583141 4.95770779,8.75281062 C5.12004098,8.54978983 5.40137665,8.4863411 5.63513685,8.60003222 L10.0351369,8.60003222 C10.2688971,8.4863411 10.5502327,8.54978983 10.7125659,8.75281062 C10.8748991,8.95583141 10.8748991,9.24423303 10.7125659,9.44725382 C10.5502327,9.65027461 10.2688971,9.71372334 10.0351369,9.60003222 L10.0351369,9.60003222 L10.0351369,9.60003222 Z M12.0091369,5.60003222 L5.65913685,5.60003222 C5.4218344,5.72388137 5.13016546,5.66386972 4.96103362,5.45639565 C4.79190179,5.24892158 4.79190179,4.95114286 4.96103362,4.74366879 C5.13016546,4.53619472 5.4218344,4.47618307 5.65913685,4.60003222 L12.0111369,4.60003222 C12.2484393,4.47618307 12.5401082,4.53619472 12.7092401,4.74366879 C12.8783719,4.95114286 12.8783719,5.24892158 12.7092401,5.45639565 C12.5401082,5.66386972 12.2484393,5.72388137 12.0111369,5.60003222 L12.0111369,5.60003222 L12.0091369,5.60003222 Z" id="Jobs-icon-Copy-2" fill="#7F8FA4"></path>
    </g>
</svg>