<?xml version="1.0" encoding="UTF-8"?>
<svg width="30px" height="30px" viewBox="0 0 30 30" version="1.1" xmlns="http://www.w3.org/2000/svg" xmlns:xlink="http://www.w3.org/1999/xlink">
    <!-- Generator: Sketch 51.2 (57519) - http://www.bohemiancoding.com/sketch -->
    <title>github-logo copy 2</title>
    <desc>Created with Sketch.</desc>
    <defs></defs>
    <g id="Page-1" stroke="none" stroke-width="1" fill="none" fill-rule="evenodd">
        <g id="github-logo-copy-2" transform="translate(0.823575, 0.558284)" fill="#354052" fill-rule="nonzero">
            <path d="M26.6792383,7.50675296 C25.4006131,5.2051196 23.6662396,3.38291326 21.4756613,2.03972289 C19.2847571,0.696464007 16.8929427,0.0250058393 14.2985229,0.0250058393 C11.7044291,0.0250058393 9.31183226,0.696669534 7.12138444,2.03972289 C4.93061058,3.38284475 3.19630228,5.2051196 1.91767704,7.50675296 C0.639247415,9.80831782 0,12.3216444 0,15.0466644 C0,18.3200315 0.909018562,21.2635271 2.72751215,23.8779047 C4.54581011,26.4924878 6.8947819,28.3016774 9.77423187,29.305679 C10.109408,29.3710367 10.3575297,29.3250671 10.5188576,29.1689348 C10.6802508,29.0125969 10.7608496,28.8167977 10.7608496,28.5823594 C10.7608496,28.5432407 10.7576543,28.1913092 10.7514594,27.5261539 C10.7450689,26.8609986 10.7420693,26.2807261 10.7420693,25.7856104 L10.3138394,25.8634368 C10.0408078,25.9159834 9.69637189,25.9382488 9.28053176,25.931946 C8.86488726,25.9258487 8.43339689,25.8800846 7.98664752,25.7949962 C7.53970253,25.7106614 7.12399282,25.5150678 6.73919235,25.2086264 C6.35458751,24.902185 6.08155589,24.5010639 5.92016271,24.0058798 L5.73398997,23.5557747 C5.60989655,23.2561157 5.41452929,22.9232297 5.14762735,22.55835 C4.88072542,22.1931277 4.61082385,21.9455356 4.33779224,21.8151627 L4.20743871,21.7171261 C4.12057984,21.6519739 4.03998106,21.5733939 3.96544676,21.4822083 C3.89097766,21.3910226 3.83522365,21.2997684 3.7979891,21.2083772 C3.76068935,21.1169175 3.79159859,21.0419 3.89104287,20.9830506 C3.99048715,20.9242012 4.17020417,20.8956329 4.43097642,20.8956329 L4.80319148,20.9540712 C5.05144354,21.0063437 5.35851444,21.1624761 5.72479545,21.4234274 C6.09088083,21.6841732 6.39182206,22.0231565 6.62768433,22.4402402 C6.91330136,22.9750226 7.25741118,23.382515 7.66099195,23.662923 C8.06424667,23.9433309 8.47082706,24.0832951 8.88034188,24.0832951 C9.2898567,24.0832951 9.6435523,24.0506848 9.94155911,23.9858066 C10.2392399,23.9205859 10.5185316,23.8225493 10.7793038,23.6922449 C10.8910075,22.8182052 11.195144,22.146747 11.6914524,21.6773908 C10.9840612,21.5992904 10.3480743,21.4816602 9.78316556,21.3252538 C9.21858286,21.1686419 8.63515467,20.9144729 8.03327222,20.5620619 C7.43106372,20.2101304 6.93149477,19.7731105 6.53443494,19.2517559 C6.1373099,18.7301272 5.81139349,18.0453098 5.55714217,17.1979201 C5.30276043,16.3501879 5.17553696,15.3722883 5.17553696,14.2639473 C5.17553696,12.6858391 5.66591139,11.3429227 6.64646463,10.2344447 C6.18712986,9.04800328 6.23049409,7.71796667 6.77668774,6.2444719 C7.13664344,6.12697871 7.67044731,6.21514998 8.37783851,6.50843765 C9.08536013,6.80186233 9.60338333,7.0532224 9.93242979,7.26162723 C10.2614763,7.46996355 10.5251177,7.64651163 10.7237455,7.78969575 C11.8782773,7.45078099 13.0697176,7.28128935 14.2983925,7.28128935 C15.5270674,7.28128935 16.7187685,7.45078099 17.8733655,7.78969575 L18.580822,7.32047659 C19.0646102,7.00738978 19.6359095,6.72047346 20.2933503,6.45965913 C20.9511824,6.19898182 21.4542075,6.12718423 21.8019038,6.24467742 C22.3602264,7.7182407 22.4099811,9.04820881 21.950516,10.2346502 C22.931004,11.3431283 23.421574,12.6863872 23.421574,14.2641529 C23.421574,15.3724939 23.2938941,16.3534764 23.0399036,17.2077169 C22.7855871,18.0620945 22.4568667,18.7462269 22.053612,19.2615527 C21.6499008,19.77681 21.1471366,20.2104044 20.5452541,20.5622674 C19.9432412,20.9144044 19.3596174,21.1685734 18.7950347,21.3251853 C18.2301912,21.4817972 17.5942043,21.5994959 16.8868131,21.6777334 C17.5319945,22.2643087 17.8546505,23.1902099 17.8546505,24.4550258 L17.8546505,28.5818114 C17.8546505,28.8162497 17.9322496,29.0119803 18.0875783,29.1683867 C18.2427114,29.324519 18.487703,29.3704887 18.8228791,29.3050624 C21.7027204,28.3011979 24.0516921,26.4919398 25.8699249,23.8773566 C27.687962,21.262979 28.5973066,18.3194834 28.5973066,15.0461163 C28.5966545,12.3214389 27.9570811,9.80831782 26.6792383,7.50675296 Z" id="Shape"></path>
        </g>
    </g>
</svg>