<svg width="339" height="192" viewBox="0 0 339 192" fill="none" xmlns="http://www.w3.org/2000/svg">
<g opacity="0.66369">
<path opacity="0.145973" fill-rule="evenodd" clip-rule="evenodd" d="M0.0128174 -54.7471L365.812 3.99991L366.312 62.7469C291.987 86.2792 223.661 79.0032 161.333 40.919C99.0055 2.83478 45.232 -29.0539 0.0128174 -54.7471Z" fill="#FFB78A"/>
<path opacity="0.102144" fill-rule="evenodd" clip-rule="evenodd" d="M25.5 -218L283.953 5.43469L283.5 77.8984L25.5 -218Z" fill="#FFB78A"/>
<path opacity="0.1526" fill-rule="evenodd" clip-rule="evenodd" d="M133.5 -197L320.931 76.9999H133.5C224.182 57.5952 252.104 17.385 217.265 -43.6307C182.426 -104.646 154.504 -155.769 133.5 -197Z" fill="#FFB78A"/>
<path opacity="0.078497" fill-rule="evenodd" clip-rule="evenodd" d="M337.744 -9.1925C284.113 18.4112 228.296 28.5344 170.292 21.1771L24.5 3.99991C92.0468 25.0256 142.756 38.8067 176.627 45.3432C243.692 59.3009 297.538 54.937 338.166 32.2517" fill="#FFB78A"/>
</g>
</svg>
