<?xml version="1.0" encoding="UTF-8"?>
<svg width="27px" height="34px" viewBox="0 0 27 34" version="1.1" xmlns="http://www.w3.org/2000/svg" xmlns:xlink="http://www.w3.org/1999/xlink">
    <!-- Generator: Sketch 51.2 (57519) - http://www.bohemiancoding.com/sketch -->
    <title>Group 6</title>
    <desc>Created with Sketch.</desc>
    <defs></defs>
    <g id="Page-1" stroke="none" stroke-width="1" fill="none" fill-rule="evenodd">
        <g id="CI/E2E-Dashboard" transform="translate(-1090.000000, -20.000000)">
            <g id="Group-6" transform="translate(1090.000000, 20.000000)">
                <path d="M11.9742007,11.0312035 L10.1561024,11.0312035 L10.1561024,9.95763336 L11.6879405,9.95763336 C11.9485316,9.95763336 12.1597979,9.74636705 12.1597979,9.48577589 C12.1597979,9.22518474 11.9485316,9.01391842 11.6879405,9.01391842 L10.1561024,9.01391842 L10.1561024,7.94028539 L11.9742007,7.94028539 C12.2347918,7.94028539 12.4460581,7.72901907 12.4460581,7.46842792 C12.4460581,7.20783677 12.2347918,6.99657045 11.9742007,6.99657045 L9.68424491,6.99657045 C9.42365376,6.99657045 9.21238744,7.20783677 9.21238744,7.46842792 L9.21238744,11.503061 C9.21238744,11.7636521 9.42365376,11.9749184 9.68424491,11.9749184 L11.9742007,11.9749184 C12.2347918,11.9749184 12.4460581,11.7636521 12.4460581,11.503061 C12.4460581,11.2424698 12.2347918,11.0312035 11.9742007,11.0312035 Z" id="Shape" fill="#E39500" fill-rule="nonzero"></path>
                <path d="M7.87476588,6.99663336 C7.61417473,6.99663336 7.40290841,7.20789968 7.40290841,7.46849083 L7.40290841,9.7158536 L5.99520029,7.23558198 C5.88950421,7.04929266 5.67169481,6.95768939 5.46439209,7.01229903 C5.25727812,7.06697158 5.11301556,7.25433046 5.11301556,7.46849083 L5.11301556,11.5031239 C5.11301556,11.763715 5.32428188,11.9749813 5.58487303,11.9749813 C5.84546418,11.9749813 6.0567305,11.763715 6.0567305,11.5031239 L6.0567305,9.25576111 L7.46443862,11.7360327 C7.54968754,11.8862721 7.70804291,11.9750443 7.87476588,11.9749813 C7.91471648,11.9749813 7.95517039,11.9698853 7.99524682,11.9593157 C8.20236079,11.9046431 8.34662335,11.7172842 8.34662335,11.5031239 L8.34662335,7.46849083 C8.34662335,7.20789968 8.13535703,6.99663336 7.87476588,6.99663336 Z" id="Shape" fill="#E39500" fill-rule="nonzero"></path>
                <path d="M17.0509467,7.00701423 C16.795892,6.95284499 16.54543,7.11541562 16.4911979,7.37028156 L16.0940197,9.23650932 L15.6968416,7.37028156 C15.6504737,7.15247216 15.4580817,6.99669628 15.235302,6.99669628 C15.0125853,6.99669628 14.8201304,7.15247216 14.7738254,7.37028156 L14.3765843,9.23657223 L13.9794062,7.37028156 C13.925174,7.11541562 13.6746492,6.95284499 13.4196574,7.00701423 C13.1647914,7.06124638 13.0021579,7.31189707 13.0563901,7.56676302 L13.9151077,11.6013961 C13.9614127,11.8192055 14.1538047,11.9749813 14.3765843,11.9749813 C14.599364,11.9749813 14.791756,11.8192055 14.838061,11.6013961 L15.235302,9.73510538 L15.6324802,11.6013961 C15.6788481,11.8192055 15.8712401,11.9749813 16.0940197,11.9749813 C16.3167994,11.9749813 16.5091914,11.8192055 16.5554963,11.6013961 L17.414214,7.56676302 C17.4684462,7.31183415 17.3058126,7.06124638 17.0509467,7.00701423 Z" id="Shape" fill="#E39500" fill-rule="nonzero"></path>
                <path d="M19.7324183,9.0427961 C19.0128042,8.77861883 18.8967273,8.62252838 18.8967273,8.35099013 C18.8966644,8.15715108 19.1844974,7.94028539 19.5697848,7.94028539 C19.9550721,7.94028539 20.2429052,8.15715108 20.2429052,8.35099013 C20.2429052,8.61158129 20.4541715,8.8228476 20.7147626,8.8228476 C20.9753538,8.8228476 21.1866201,8.61158129 21.1866201,8.35099013 C21.1866201,7.60413413 20.4613437,6.99657045 19.5697848,6.99657045 C18.6782258,6.99657045 17.9529494,7.60419704 17.9529494,8.35099013 C17.9529494,9.39486469 18.8632568,9.72906561 19.4072141,9.92869277 C20.1267653,10.1928071 20.2429052,10.3489605 20.2429052,10.6204987 C20.2429052,10.8144007 19.9550721,11.0312035 19.5697848,11.0312035 C19.1844974,11.0312035 18.8966644,10.8143378 18.8966644,10.6204987 C18.8966644,10.3599076 18.685398,10.1486413 18.4248069,10.1486413 C18.1642157,10.1486413 17.9529494,10.3599076 17.9529494,10.6204987 C17.9529494,11.3673547 18.6782258,11.9749184 19.5697848,11.9749184 C20.4613437,11.9749184 21.1866201,11.3672918 21.1866201,10.6204987 C21.1866201,9.57656127 20.2763127,9.24242327 19.7324183,9.0427961 Z" id="Shape" fill="#E39500" fill-rule="nonzero"></path>
                <path d="M25.6297559,11.804861 L23.7082264,10.2676752 L23.7082264,1.92083109 C23.7082894,1.38253608 23.2703427,0.94465235 22.7321106,0.94465235 L3.56752506,0.94465235 C3.02923005,0.94465235 2.59134632,1.38253608 2.59134632,1.92083109 L2.59134632,10.2676752 L0.669816867,11.804861 C0.288430202,12.1099955 0.0696770781,12.5650548 0.0696770781,13.0535217 L0.0696770781,31.1719678 C0.0696770781,32.2664255 0.960040669,33.1567891 2.05449835,33.1567891 L24.2450115,33.1567891 C25.3394692,33.1567891 26.2298328,32.2664255 26.2298328,31.1719678 C26.2298328,31.1719678 26.2298328,13.1570787 26.2298328,13.0535217 C26.2298957,12.5651178 26.0111426,12.1099955 25.6297559,11.804861 Z M3.53506126,1.92083109 C3.53506126,1.9029005 3.54959447,1.88836729 3.56752506,1.88836729 L22.7320477,1.88836729 C22.7499783,1.88836729 22.7645115,1.9029005 22.7645115,1.92083109 L22.7645115,13.0160877 C22.7645115,13.2766788 22.9757778,13.4879451 23.236369,13.4879451 C23.4969601,13.4879451 23.7082264,13.2766788 23.7082264,13.0160877 L23.7082264,11.4761965 L25.0401857,12.5417765 C25.1964649,12.6668502 25.2861178,12.8533283 25.2861178,13.0535217 C25.2861807,13.2285494 25.2180445,13.3931332 25.094292,13.5169486 L20.9564795,17.6546983 C20.8857009,17.6123569 20.8032202,17.5875058 20.7147626,17.5875058 L14.1584604,17.5875058 C13.8978692,17.5875058 13.6866029,17.7987721 13.6866029,18.0593632 C13.6866029,18.3199544 13.8978692,18.5312207 14.1584604,18.5312207 L20.0798941,18.5312207 L19.0062611,19.6047908 L14.1583975,19.6047908 C13.8978063,19.6047908 13.68654,19.8160571 13.68654,20.0766483 C13.68654,20.3372394 13.8978063,20.5485058 14.1583975,20.5485058 L18.0625462,20.5485058 L16.1757454,22.4353065 L15.623106,21.882667 C14.259312,20.5188102 12.0401978,20.5188102 10.6764039,21.882667 L10.1237644,22.4353065 L8.23696368,20.5485058 L12.1411124,20.5485058 C12.4017035,20.5485058 12.6129699,20.3372394 12.6129699,20.0766483 C12.6129699,19.8160571 12.4017035,19.6047908 12.1411124,19.6047908 L7.29324873,19.6047908 L6.2196157,18.5312207 L12.1410495,18.5312207 C12.4016406,18.5312207 12.6129069,18.3199544 12.6129069,18.0593632 C12.6129069,17.7987721 12.4016406,17.5875058 12.1410495,17.5875058 L5.58487303,17.5875058 C5.49641548,17.5875058 5.41387188,17.612294 5.34315618,17.6546983 L3.53506126,15.8466033 L3.53506126,1.92083109 Z M1.25938705,12.5417765 L2.59134632,11.4761965 L2.59134632,14.9028884 L1.20534364,13.5168857 C1.08159115,13.3931332 1.01339202,13.2285494 1.01339202,13.0534588 C1.01345493,12.8533283 1.10304494,12.6668502 1.25938705,12.5417765 Z M24.2450744,32.4563638 L2.05456126,32.4563638 C1.94207044,32.4563638 1.83392071,32.437867 1.73237698,32.4047112 L8.54524389,25.5918442 C8.72951996,25.4075682 8.72951996,25.108788 8.54524389,24.9245749 C8.36096782,24.7402988 8.06218767,24.7402988 7.87797451,24.9245749 L1.06504469,31.7374418 C1.03188883,31.6358351 1.01339202,31.5277483 1.01339202,31.4152575 L1.01339202,14.9028884 L9.45649504,23.3459914 L9.28580846,23.516678 C9.10153239,23.7009541 9.10153239,23.9997342 9.28580846,24.1839474 C9.47008453,24.3682235 9.76886469,24.3682235 9.95307784,24.1839474 L11.3436733,22.793352 C11.8261003,22.3109249 12.4675119,22.0452377 13.1497549,22.0452377 C13.8319979,22.0452377 14.4734095,22.3109249 14.9558366,22.793352 L24.5672587,32.4047741 C24.465715,32.437867 24.3575652,32.4563638 24.2450744,32.4563638 Z" id="Shape" fill="#7F8FA4" fill-rule="nonzero"></path>
                <path d="M20.7147626,4.47496412 L5.58487303,4.47496412 C5.32428188,4.47496412 5.11301556,4.68623044 5.11301556,4.94682159 C5.11301556,5.20741274 5.32428188,5.41867906 5.58487303,5.41867906 L20.7146997,5.41867906 C20.9752909,5.41867906 21.1865572,5.20741274 21.1865572,4.94682159 C21.1865572,4.68623044 20.9753538,4.47496412 20.7147626,4.47496412 Z" id="Shape" fill="#000000" fill-rule="nonzero"></path>
                <path d="M20.7147626,13.5528727 L5.58487303,13.5528727 C5.32428188,13.5528727 5.11301556,13.764139 5.11301556,14.0247302 C5.11301556,14.2853213 5.32428188,14.4965877 5.58487303,14.4965877 L20.7146997,14.4965877 C20.9752909,14.4965877 21.1865572,14.2853213 21.1865572,14.0247302 C21.1865572,13.764139 20.9753538,13.5528727 20.7147626,13.5528727 Z" id="Shape" fill="#000000" fill-rule="nonzero"></path>
                <path d="M12.1411753,15.5702207 L5.58487303,15.5702207 C5.32428188,15.5702207 5.11301556,15.781487 5.11301556,16.0420782 C5.11301556,16.3026693 5.32428188,16.5139356 5.58487303,16.5139356 L12.1411124,16.5139356 C12.4017035,16.5139356 12.6129699,16.3026693 12.6129699,16.0420782 C12.6129699,15.781487 12.4017665,15.5702207 12.1411753,15.5702207 Z" id="Shape" fill="#000000" fill-rule="nonzero"></path>
                <path d="M20.7147626,15.5702207 L14.1584604,15.5702207 C13.8978692,15.5702207 13.6866029,15.781487 13.6866029,16.0420782 C13.6866029,16.3026693 13.8978692,16.5139356 14.1584604,16.5139356 L20.7146997,16.5139356 C20.9752909,16.5139356 21.1865572,16.3026693 21.1865572,16.0420782 C21.1865572,15.781487 20.9753538,15.5702207 20.7147626,15.5702207 Z" id="Shape" fill="#000000" fill-rule="nonzero"></path>
                <polygon id="Path-5" fill="#7F8FA4" points="0.720598121 14.0351178 10.4033426 23.7303989 1.76242085 32.3154685 0.720598121 31.4924217"></polygon>
            </g>
        </g>
    </g>
</svg>