<?xml version="1.0" encoding="UTF-8"?>
<svg width="58px" height="53px" viewBox="0 0 58 53" version="1.1" xmlns="http://www.w3.org/2000/svg" xmlns:xlink="http://www.w3.org/1999/xlink">
    <!-- Generator: Sketch 51.2 (57519) - http://www.bohemiancoding.com/sketch -->
    <title>slack with name</title>
    <desc>Created with Sketch.</desc>
    <defs></defs>
    <g id="Page-1" stroke="none" stroke-width="1" fill="none" fill-rule="evenodd">
        <g id="slack-with-name" fill="#354052">
            <g id="slack-copy" transform="translate(16.500424, 0.376466)" fill-rule="nonzero">
                <path d="M24.6079759,13.9246428 C24.2326017,12.7090766 22.9906227,12.0453029 21.833605,12.4396721 L19.615344,13.1975752 C19.1241136,11.6071148 18.6004433,9.91603344 18.1092128,8.32881887 C19.4577795,7.86790994 20.3274738,7.57091581 20.3274738,7.57091581 C21.4844915,7.17654654 22.1162942,5.87171985 21.74092,4.65615369 C21.3655457,3.44058753 20.1235668,2.77681375 18.9665491,3.17118301 L16.7482881,3.92908608 C16.3095791,2.51227799 16.0268899,1.59857472 16.0268899,1.59857472 C15.6530604,0.384631475 14.4110815,-0.280765223 13.2540637,0.11360404 C12.097046,0.507973302 11.4652433,1.8128 11.8406175,3.02836616 L12.5620158,5.35887752 L7.9277659,6.94122332 C7.49060167,5.52441523 7.20791243,4.61071196 7.20791243,4.61071196 C6.83099344,3.3951458 5.58901448,2.7297491 4.43354151,3.12574128 C3.2765238,3.52011055 2.64317632,4.82493724 3.0200953,6.03888048 L3.74149353,8.37101476 L1.4521741,9.15326161 C0.370849136,9.56386006 -0.236237595,10.7891637 0.0866151452,11.9674028 C0.423370635,13.1943294 1.66380485,13.9424949 2.81155406,13.5513715 C2.82082256,13.5481257 3.72141178,13.241394 5.10087349,12.7691246 L6.60700469,17.637881 L4.31768526,18.4201278 C3.23790505,18.8307263 2.63081832,20.0560299 2.95212631,21.234269 C3.2888818,22.4611956 4.52931601,23.210984 5.67706522,22.8182377 C5.68633372,22.8149919 6.58692295,22.5082602 7.9679294,22.0359908 L8.71249888,24.4411565 C9.10332062,25.5755767 10.2696068,26.2133838 11.3910953,25.8758167 C12.5589263,25.5220204 13.2726007,24.2188166 12.8987713,23.0129879 C12.8956818,23.0032504 12.603724,22.0587117 12.1557465,20.6078223 C13.6696015,20.0917342 15.2792309,19.5415647 16.7899964,19.0254765 L17.5345659,21.4306421 C17.9253876,22.5650624 19.0916738,23.2028694 20.2131623,22.8653023 C21.3809932,22.511506 22.0946677,21.2083023 21.7208382,20.0024736 C21.7177487,19.9927361 21.425791,19.0481974 20.9762688,17.597308 C22.3248355,17.1363991 23.1945297,16.8394049 23.1945297,16.8394049 C24.3500026,16.4450357 24.9833501,15.140209 24.6079759,13.9246428 Z M10.7948218,16.2097124 C10.3020466,14.619252 9.7799211,12.9281707 9.28869061,11.3409561 C10.8025456,10.8248679 12.412175,10.2746985 13.9229405,9.75861031 L15.4290717,14.6273666 L10.7948218,16.2097124 Z" id="Shape"></path>
            </g>
            <text id="OpenEBS-Copy" font-family="Lato-Regular, Lato" font-size="14" font-weight="normal">
                <tspan x="0.0942555431" y="49.7470729">OpenEBS</tspan>
            </text>
        </g>
    </g>
</svg>