<?xml version="1.0" encoding="UTF-8"?>
<svg width="122px" height="23px" viewBox="0 0 122 23" version="1.1" xmlns="http://www.w3.org/2000/svg" xmlns:xlink="http://www.w3.org/1999/xlink">
    <!-- Generator: Sketch 51.2 (57519) - http://www.bohemiancoding.com/sketch -->
    <title>Group 5 Copy</title>
    <desc>Created with Sketch.</desc>
    <defs></defs>
    <g id="Page-1" stroke="none" stroke-width="1" fill="none" fill-rule="evenodd">
        <g id="Group-5-Copy" transform="translate(0.450112, 0.652678)">
            <path d="M2.46079317,0.259088629 C2.56239126,0.259088629 2.65128959,0.259088629 2.75288768,0.259088629 C2.76558745,0.27178839 2.77828721,0.27178839 2.79098697,0.27178839 C2.91798458,0.284488151 3.03228243,0.322587435 3.15928004,0.360686719 C3.45137455,0.47498457 3.6672705,0.690880512 3.84506715,0.944875738 C4.13716166,1.33856834 4.32765808,1.78305998 4.46735546,2.24025139 C4.59435307,2.64664375 4.6832514,3.06573587 4.75944997,3.48482799 C4.8483483,3.91661988 4.9118471,4.34841176 4.96264615,4.78020364 C5.00074543,5.14849672 5.02614495,5.50409004 5.05154448,5.87238311 C4.96264615,6.02478025 4.9118471,6.18987715 4.86104806,6.35497404 C4.79754925,6.54547046 4.7467502,6.73596688 4.72135068,6.93916306 C4.58165331,6.50737118 4.56895355,6.06287953 4.58165331,5.60568813 C4.49275498,5.78348479 4.42925617,5.9739812 4.37845713,6.15177786 C4.37845713,6.10097882 4.37845713,6.05017977 4.37845713,6.01208049 C4.37845713,5.71998598 4.37845713,5.42789147 4.36575737,5.1230972 C4.34035784,4.62780651 4.27685904,4.13251582 4.18796071,3.64992489 C4.08636262,3.09113539 3.92126572,2.55774542 3.6672705,2.04975497 C3.54027288,1.8084595 3.40057551,1.5798638 3.19737933,1.40206714 C3.00688291,1.22427049 2.79098697,1.09727287 2.52429198,1.08457311 C2.1559989,1.07187335 1.83850487,1.19887096 1.55911012,1.44016643 C1.38131347,1.59256356 1.27971538,1.8084595 1.19081705,2.03705521 C1.05111967,2.40534828 1.05111967,2.79904088 1.10191872,3.18003372 C1.16541752,3.67532441 1.26701561,4.15791534 1.41941275,4.62780651 C1.74960654,5.73268574 2.27029676,6.7613664 2.91798458,7.7138485 C3.12118076,8.01864277 3.34977646,8.29803752 3.62917121,8.53933298 C3.76886859,8.6663306 3.84506715,8.65363083 3.93396548,8.48853394 C4.04826333,8.28533776 4.1244619,8.06944182 4.17526095,7.85354587 C4.21336023,7.70114874 4.25145951,7.5487516 4.27685904,7.39635447 C4.31495832,7.52335208 4.32765808,7.65034969 4.39115689,7.77734731 C4.46735546,7.95514396 4.53085426,8.15834014 4.72135068,8.25993823 C4.73405044,8.272638 4.7467502,8.28533776 4.73405044,8.31073728 C4.6832514,8.48853394 4.70865092,8.6663306 4.7467502,8.84412725 C4.78484949,9.03462367 4.8483483,9.21242033 4.9118471,9.37751723 C4.94994639,9.49181508 5.00074543,9.59341317 5.05154448,9.69501126 C5.01344519,9.5172146 5.02614495,9.33941794 5.076944,9.17432105 C5.11504328,8.99652439 5.17854209,8.83142749 5.28014018,8.67903036 C5.20394161,9.32671818 5.31823946,9.96170625 5.54683517,10.5839945 C5.54683517,10.558595 5.55953493,10.558595 5.55953493,10.558595 C5.55953493,10.2284012 5.55953493,9.89820744 5.59763421,9.56801365 C5.62303373,9.36481747 5.64843326,9.17432105 5.73733158,8.98382463 C5.78813063,8.88222654 5.83892967,8.79332821 5.94052777,8.74252916 C5.96592729,8.7298294 5.99132681,8.7298294 6.00402657,8.76792869 C6.10562466,9.00922415 6.19452299,9.25051961 6.24532204,9.50451484 C6.28342132,9.66961174 6.30882084,9.83470863 6.27072156,10.0125053 C6.27072156,10.0252051 6.2580218,10.0379048 6.27072156,10.0379048 C6.28342132,10.0379048 6.29612108,10.0252051 6.30882084,10.0125053 C6.55011631,9.69501126 6.72791296,9.33941794 6.80411153,8.94572534 C6.81681129,8.84412725 6.82951105,8.74252916 6.82951105,8.64093107 C6.82951105,8.53933298 6.80411153,8.45043465 6.79141177,8.34883656 C6.90570962,8.45043465 7.00730771,8.55203274 7.09620604,8.67903036 C7.2740027,8.90762606 7.41370007,9.14892152 7.47719888,9.41561651 C7.51529816,9.55531388 7.52799792,9.69501126 7.51529816,9.84740839 C7.5025984,9.93630672 7.47719888,10.0125053 7.47719888,10.1014036 C7.47719888,10.1014036 7.47719888,10.1141034 7.46449912,10.1141034 L7.46449912,10.1014036 C7.47719888,10.0887039 7.48989864,10.0760041 7.48989864,10.0506046 C7.60419649,9.80930911 7.69309482,9.56801365 7.76929339,9.31401842 C7.8327922,9.08542272 7.87089148,8.85682701 7.87089148,8.61553155 C7.87089148,8.59013203 7.87089148,8.56473251 7.85819172,8.52663322 C7.90899076,8.55203274 7.93439029,8.59013203 7.95978981,8.62823131 C8.0613879,8.75522892 8.08678742,8.90762606 8.1248867,9.07272296 C8.15028623,9.17432105 8.16298599,9.2886189 8.17568575,9.39021699 C8.20108527,9.33941794 8.21378503,9.2886189 8.23918456,9.25051961 C8.32808289,8.9584251 8.37888193,8.6663306 8.34078265,8.36153632 C8.32808289,8.22183895 8.27728384,8.09484134 8.20108527,7.98054349 C8.17568575,7.95514396 8.18838551,7.92974444 8.20108527,7.90434492 C8.23918456,7.82814635 8.27728384,7.76464754 8.30268336,7.67574922 C8.30268336,7.68844898 8.30268336,7.68844898 8.31538312,7.70114874 C8.37888193,7.98054349 8.46778026,8.24723847 8.59477787,8.5012337 C8.69637596,8.67903036 8.77257453,8.69173012 8.92497167,8.55203274 C9.10276832,8.39963561 9.25516546,8.22183895 9.40756259,8.03134253 C9.85205424,7.45985327 10.2076476,6.82486521 10.5251416,6.16447762 C10.9061344,5.36439266 11.1855292,4.52620842 11.3506261,3.66262465 C11.4268246,3.26893205 11.4776237,2.87523945 11.4268246,2.46884709 C11.3887254,2.1386533 11.2744275,1.84655879 11.0712313,1.5798638 C10.8807349,1.33856834 10.6140399,1.21157072 10.3092456,1.13537216 C9.99175161,1.05917359 9.6996571,1.1226724 9.43296212,1.31316881 C9.28056498,1.42746667 9.15356737,1.56716404 9.03926952,1.71956118 C8.81067381,2.06245473 8.64557692,2.44344757 8.5185793,2.82444041 C8.39158169,3.21813301 8.30268336,3.62452537 8.25188432,4.03091773 C8.21378503,4.335712 8.17568575,4.64050627 8.15028623,4.94530054 C8.13758647,5.08499791 8.1248867,5.23739505 8.1248867,5.37709242 C8.11218694,5.61838789 8.11218694,5.84698359 8.1248867,6.08827906 C8.1248867,6.25337595 8.15028623,6.43117261 8.15028623,6.59626951 C8.11218694,6.50737118 8.08678742,6.41847285 8.04868814,6.32957452 C8.02328861,6.27877547 7.99788909,6.21527667 7.98518933,6.16447762 C7.99788909,6.31687476 7.98518933,6.46927189 7.98518933,6.62166903 C7.98518933,6.77406616 7.95978981,6.91376354 7.90899076,7.05346091 C7.85819172,7.18045853 7.79469291,7.28205662 7.65499554,7.33285566 C7.61689625,7.34555542 7.59149673,7.34555542 7.57879697,7.29475638 C7.54069769,7.18045853 7.54069769,7.07886044 7.55339745,6.96456258 C7.57879697,6.79946569 7.65499554,6.65976831 7.74389387,6.52007094 C7.75659363,6.50737118 7.76929339,6.49467142 7.75659363,6.48197166 C7.74389387,6.46927189 7.73119411,6.46927189 7.71849434,6.46927189 C7.60419649,6.46927189 7.5025984,6.50737118 7.40100031,6.54547046 C7.4390996,6.11367858 7.46449912,5.68188669 7.5025984,5.26279457 C7.54069769,4.83100269 7.59149673,4.38651104 7.6676953,3.95471916 C7.76929339,3.29433157 7.93439029,2.64664375 8.15028623,2.01165569 C8.31538312,1.55446428 8.5185793,1.1226724 8.8487731,0.76707908 C9.20436641,0.37338648 9.64885806,0.246388867 10.1568485,0.309887674 C10.5759406,0.37338648 10.9442337,0.563882899 11.249028,0.855977409 C11.7443187,1.31316881 11.9475148,1.89735783 11.9856141,2.55774542 C11.9856141,2.72284232 11.9856141,2.88793921 11.9856141,3.05303611 C11.9856141,3.20543325 11.9729144,3.37053014 11.9475148,3.52292728 C11.884016,4.00551821 11.782418,4.47540937 11.6427206,4.93260078 C11.2871273,6.07557929 10.8045363,7.16775876 10.2457468,8.22183895 C10.1568485,8.38693585 10.0679502,8.53933298 9.97905185,8.69173012 C9.91555305,8.80602797 9.92825281,8.86952678 10.0171511,8.94572534 C10.0298509,8.9584251 10.0425507,8.9584251 10.0552504,8.97112487 C10.2076476,9.08542272 10.3346452,9.22512009 10.448943,9.36481747 C10.6902385,9.6823115 10.8426356,10.0379048 10.9315339,10.4315974 C10.9950328,10.7236919 11.033132,11.0284862 11.0077325,11.3205807 C10.9950328,11.5491764 10.9696332,11.7777721 10.9442337,12.0063678 C10.9188342,12.260363 10.8807349,12.5143583 10.8553354,12.7683535 C10.8172361,13.0858475 10.7664371,13.3906418 10.7283378,13.7081358 C10.6775387,14.1145282 10.6013402,14.5082208 10.5378413,14.9146131 C10.4743425,15.295606 10.4108437,15.6765988 10.3473449,16.0575917 C10.2965459,16.3242866 10.2711464,16.6036814 10.2076476,16.8703764 C10.0933497,17.3910666 9.90285328,17.899057 9.71235686,18.3943477 C9.6996571,18.381648 9.6996571,18.3689482 9.68695734,18.3435487 C9.66155782,18.2673501 9.6361583,18.2038513 9.59805901,18.1276527 C9.35676355,17.6323621 9.05196928,17.1878704 8.6836762,16.7941778 C8.37888193,16.463984 8.02328861,16.1845893 7.64229578,15.9432938 C7.22320365,15.6892986 6.79141177,15.4988022 6.29612108,15.4480031 C5.95322753,15.4099038 5.62303373,15.4607029 5.3055397,15.6004003 C4.93724662,15.7527974 4.63245235,15.9686933 4.34035784,16.2353883 C3.95936501,16.5909816 3.62917121,16.9719745 3.34977646,17.4164661 C3.12118076,17.7720594 2.9433841,18.1530523 2.82908625,18.5467449 C2.77828721,18.7245415 2.75288768,18.9023382 2.7147884,19.0801348 C2.70208864,19.1182341 2.68938888,19.1563334 2.67668912,19.2071325 C2.66398936,19.1944327 2.66398936,19.1817329 2.65128959,19.1690332 C2.4861927,18.7880403 2.3210958,18.4070475 2.18139843,18.0260547 C2.05440081,17.7085606 1.94010296,17.3783668 1.86390439,17.0354733 C1.77500607,16.6544804 1.7623063,16.2480881 1.73690678,15.8543955 C1.72420702,15.6131 1.6988075,15.3591048 1.68610774,15.1178093 C1.67340798,14.9146131 1.63530869,14.6987172 1.62260893,14.495521 C1.59720941,14.228826 1.58450965,13.9494313 1.57180989,13.6700365 C1.55911012,13.3525425 1.52101084,13.0350485 1.49561132,12.7175544 C1.47021179,12.4254599 1.44481227,12.1460652 1.41941275,11.8539707 C1.39401323,11.5364766 1.40671299,11.2316824 1.47021179,10.9268881 C1.59720941,10.3680986 1.85120463,9.87280792 2.21949771,9.42831627 C2.3210958,9.31401842 2.42269389,9.19972057 2.53699174,9.09812248 C2.61319031,9.03462367 2.61319031,8.98382463 2.57509103,8.8949263 C2.56239126,8.88222654 2.56239126,8.86952678 2.5496915,8.84412725 C2.1559989,8.15834014 1.80040559,7.45985327 1.48291156,6.74866664 C1.08921896,5.85968335 0.746325402,4.9580003 0.568528744,4.00551821 C0.505029938,3.66262465 0.454230892,3.30703134 0.441531131,2.95143802 C0.441531131,2.93873826 0.454230892,2.9260385 0.42883137,2.91333874 C0.42883137,2.86253969 0.42883137,2.81174065 0.42883137,2.7609416 C0.441531131,2.7609416 0.441531131,2.74824184 0.441531131,2.73554208 C0.441531131,2.62124423 0.454230892,2.51964614 0.466930654,2.40534828 C0.505029938,2.06245473 0.593928267,1.73226094 0.746325402,1.42746667 C1.03841991,0.843277647 1.5337106,0.500384093 2.1559989,0.322587435 C2.28299652,0.284488151 2.37189485,0.27178839 2.46079317,0.259088629 Z M7.85819172,14.2923248 C7.90899076,14.2923248 7.95978981,14.2923248 7.99788909,14.2923248 C8.04868814,14.2923248 8.09948718,14.2796251 8.13758647,14.2796251 C8.78527429,14.178027 9.33136403,13.8986322 9.78855543,13.4287411 C10.0933497,13.111247 10.1949478,12.742954 10.0679502,12.3238618 C9.90285328,11.7904719 9.57265949,11.3840795 9.10276832,11.091985 C8.83607334,10.9268881 8.53127907,10.9014886 8.23918456,10.9903869 C8.01058885,11.0665855 7.80739267,11.1935831 7.64229578,11.3713797 C7.23590342,11.7777721 6.98190819,12.260363 6.85491058,12.8191525 C6.76601225,13.2255449 6.82951105,13.6192375 7.02000747,13.9875306 C7.1089058,14.1653272 7.24860318,14.2669253 7.45179936,14.2923248 C7.57879697,14.3050246 7.71849434,14.2796251 7.85819172,14.2923248 Z M4.82294877,14.3050246 C4.86104806,14.3050246 4.88644758,14.3050246 4.9118471,14.3050246 C5.12774304,14.3050246 5.31823946,14.2415258 5.44523708,14.0383296 C5.57223469,13.8224337 5.64843326,13.593838 5.67383278,13.3525425 C5.6992323,13.0731478 5.63573349,12.8064528 5.55953493,12.5397578 C5.36903851,11.89207 5.00074543,11.3840795 4.39115689,11.0538857 C4.18796071,10.9395879 3.97206477,10.8887888 3.74346906,10.9395879 C3.42597503,11.0157864 3.18467957,11.1935831 2.95608386,11.409479 C2.7147884,11.6507745 2.5496915,11.9301692 2.43539365,12.2476633 C2.29569628,12.6159564 2.34649532,12.9588499 2.58779079,13.2763439 C2.72748816,13.4668404 2.90528482,13.6192375 3.09578124,13.7462351 C3.61647145,14.1399277 4.21336023,14.2796251 4.82294877,14.3050246 Z" id="Shape" fill="#563A39" fill-rule="nonzero"></path>
            <path d="M9.78855543,18.3689482 C9.80125519,18.4451468 9.82665472,18.5340451 9.83935448,18.6102437 C9.94095257,19.1309339 9.81395496,19.6135248 9.49646092,20.0326169 C9.10276832,20.5660069 8.58207811,20.9089005 7.95978981,21.1120966 C7.64229578,21.2136947 7.32480174,21.251794 6.99460795,21.2644938 C6.98190819,21.2644938 6.95650867,21.251794 6.94380891,21.2771935 C6.68981368,21.2771935 6.44851822,21.2771935 6.19452299,21.2771935 C6.18182323,21.2644938 6.16912347,21.2644938 6.15642371,21.2644938 C5.72463182,21.251794 5.3055397,21.2263945 4.87374782,21.1501959 C4.5181545,21.0866971 4.16256119,20.9977988 3.83236739,20.8454017 C3.12118076,20.5025081 2.76558745,19.9310188 2.76558745,19.1436337 C2.76558745,19.1182341 2.77828721,19.0928346 2.75288768,19.0674351 C2.79098697,18.8896384 2.81638649,18.7118418 2.86718554,18.5340451 C2.98148339,18.1276527 3.15928004,17.7466599 3.38787575,17.4037664 C3.6672705,16.9719745 4.01016405,16.5782819 4.37845713,16.2226886 C4.65785188,15.9559936 4.97534591,15.7400976 5.34363898,15.5877005 C5.66113302,15.4607029 5.99132681,15.4099038 6.33422036,15.4353034 C6.82951105,15.4861024 7.26130294,15.6638991 7.68039506,15.930594 C8.0613879,16.1718895 8.41698121,16.4512843 8.72177549,16.7814781 C9.09006856,17.1878704 9.40756259,17.6196623 9.6361583,18.114953 C9.67425758,18.1784518 9.6996571,18.2546504 9.72505663,18.3308489 C9.76315591,18.3308489 9.76315591,18.3562485 9.78855543,18.3689482 Z M8.6836762,19.4103286 C8.67097644,19.4103286 8.65827668,19.4230284 8.63287716,19.4357282 C8.31538312,19.6770236 7.98518933,19.8929196 7.61689625,20.0580165 C7.05810676,20.2993119 6.4866175,20.3628107 5.88972872,20.2485129 C5.39443803,20.1596146 4.93724662,19.9691181 4.49275498,19.7405224 C4.30225856,19.6389243 4.11176214,19.5373263 3.92126572,19.4357282 C3.92126572,19.4611277 3.94666524,19.4738274 3.95936501,19.499227 C4.37845713,20.0199172 4.9118471,20.40091 5.54683517,20.616806 C6.04212586,20.7819029 6.55011631,20.8200021 7.07080652,20.6803048 C7.6676953,20.5152079 8.1248867,20.1723143 8.49317978,19.6897234 C8.58207811,19.6008251 8.64557692,19.5119267 8.6836762,19.4103286 Z M8.8487731,17.8355582 C8.86147286,17.7593597 8.83607334,17.6958609 8.78527429,17.6323621 C8.70907572,17.5180642 8.59477787,17.4291659 8.48048002,17.3529673 C8.2264848,17.1751707 7.896291,17.2132699 7.69309482,17.4164661 C7.56609721,17.5434637 7.52799792,17.7085606 7.51529816,17.8736575 C7.5025984,18.1784518 7.40100031,18.4705463 7.23590342,18.7245415 C7.14700509,18.8642389 7.05810676,19.0039363 6.95650867,19.1436337 C6.89300986,19.2198322 6.91840938,19.2960308 7.00730771,19.3468298 C7.07080652,19.3849291 7.13430533,19.3722294 7.19780413,19.3468298 C7.62959602,19.1563334 8.04868814,18.9404375 8.41698121,18.648343 C8.6836762,18.432447 8.83607334,18.1784518 8.8487731,17.8355582 Z M3.97206477,17.9498561 C3.97206477,18.0641539 3.99746429,18.165752 4.0609631,18.2673501 C4.18796071,18.4959458 4.39115689,18.6610427 4.59435307,18.8007401 C4.87374782,18.9912365 5.17854209,19.1436337 5.48333636,19.2960308 C5.54683517,19.3214303 5.61033397,19.3468298 5.67383278,19.3595296 C5.75003135,19.3849291 5.80083039,19.3468298 5.85162944,19.3087305 C5.88972872,19.283331 5.90242848,19.2452317 5.87702896,19.1944327 C5.85162944,19.1436337 5.82622991,19.1055344 5.78813063,19.0674351 C5.77543087,19.0547353 5.75003135,19.0293358 5.75003135,19.0039363 C5.75003135,18.965837 5.73733158,18.9404375 5.71193206,18.9150379 C5.68653254,18.8896384 5.67383278,18.8642389 5.64843326,18.8388394 C5.41983755,18.5340451 5.31823946,18.1911516 5.29283994,17.8228585 C5.26744042,17.4291659 4.94994639,17.1751707 4.59435307,17.2259697 C4.25145951,17.3021683 3.97206477,17.6069625 3.97206477,17.9498561 Z" id="Shape" fill="#AF8070" fill-rule="nonzero"></path>
            <path d="M12.0618127,2.51964614 C12.0618127,2.51964614 12.1118127,2.51964614 12.0618127,2.51964614 C12.1118127,2.6863128 12.1118127,2.85297947 12.1118127,3.01964614 C12.0618127,2.85297947 12.0618127,2.6863128 12.0618127,2.51964614 Z" id="Shape" fill="#AF8070" fill-rule="nonzero"></path>
            <path d="M4.27685904,7.39635447 C4.23875975,7.5487516 4.21336023,7.70114874 4.17526095,7.85354587 C4.11176214,8.06944182 4.03556357,8.28533776 3.93396548,8.48853394 C3.84506715,8.65363083 3.76886859,8.6663306 3.62917121,8.53933298 C3.34977646,8.29803752 3.12118076,8.01864277 2.91798458,7.7138485 C2.27029676,6.7613664 1.7623063,5.73268574 1.41941275,4.62780651 C1.27971538,4.15791534 1.16541752,3.67532441 1.10191872,3.18003372 C1.05111967,2.79904088 1.06381943,2.40534828 1.19081705,2.03705521 C1.26701561,1.8084595 1.3686137,1.60526332 1.55911012,1.44016643 C1.83850487,1.19887096 2.1559989,1.07187335 2.52429198,1.08457311 C2.79098697,1.09727287 3.00688291,1.22427049 3.19737933,1.40206714 C3.40057551,1.5798638 3.54027288,1.8084595 3.6672705,2.04975497 C3.92126572,2.55774542 4.08636262,3.09113539 4.18796071,3.64992489 C4.27685904,4.14521558 4.32765808,4.62780651 4.36575737,5.1230972 C4.37845713,5.41519171 4.39115689,5.70728622 4.37845713,6.01208049 C4.37845713,6.06287953 4.36575737,6.11367858 4.37845713,6.15177786 C4.37845713,6.16447762 4.36575737,6.18987715 4.36575737,6.20257691 C4.2895588,6.48197166 4.25145951,6.7613664 4.25145951,7.04076115 C4.25145951,7.16775876 4.26415928,7.28205662 4.27685904,7.39635447 Z" id="Shape" fill="#348FC0" fill-rule="nonzero"></path>
            <path d="M8.21378503,6.58356975 C8.21378503,6.41847285 8.20108527,6.24067619 8.18838551,6.07557929 C8.17568575,5.83428383 8.17568575,5.60568813 8.18838551,5.36439266 C8.18838551,5.22469529 8.20108527,5.07229815 8.21378503,4.93260078 C8.23918456,4.62780651 8.26458408,4.32301224 8.31538312,4.01821797 C8.37888193,3.61182561 8.4550805,3.20543325 8.58207811,2.81174065 C8.70907572,2.41804805 8.87417262,2.04975497 9.10276832,1.70686141 C9.20436641,1.55446428 9.34406379,1.41476691 9.49646092,1.30046905 C9.76315591,1.09727287 10.0425507,1.04647383 10.3727445,1.1226724 C10.664839,1.19887096 10.9315339,1.32586858 11.1347301,1.56716404 C11.3379263,1.82115927 11.4395244,2.12595354 11.4903234,2.45614733 C11.5411225,2.86253969 11.4903234,3.25623229 11.4141249,3.64992489 C11.249028,4.52620842 10.9696332,5.3516929 10.5886404,6.15177786 C10.2711464,6.81216545 9.91555305,7.43445375 9.4710614,8.01864277 C9.33136403,8.20913919 9.16626713,8.37423609 8.98847047,8.53933298 C8.83607334,8.67903036 8.75987477,8.6663306 8.65827668,8.48853394 C8.5185793,8.23453871 8.42968098,7.96784372 8.37888193,7.68844898 C8.37888193,7.67574922 8.37888193,7.67574922 8.36618217,7.66304945 C8.41698121,7.47255304 8.40428145,7.26935685 8.36618217,7.07886044 C8.31538312,6.91376354 8.26458408,6.74866664 8.21378503,6.58356975 Z" id="Shape" fill="#348FC0" fill-rule="nonzero"></path>
            <path d="M8.21378503,6.58356975 C8.26458408,6.74866664 8.31538312,6.90106378 8.34078265,7.06616067 C8.37888193,7.25665709 8.39158169,7.45985327 8.34078265,7.65034969 C8.31538312,7.72654826 8.2899836,7.80274683 8.23918456,7.8789454 C8.2264848,7.90434492 8.21378503,7.91704468 8.23918456,7.95514396 C8.31538312,8.06944182 8.36618217,8.19643943 8.37888193,8.3361368 C8.41698121,8.64093107 8.36618217,8.93302558 8.27728384,9.22512009 C8.26458408,9.27591914 8.23918456,9.32671818 8.21378503,9.36481747 C8.20108527,9.26321938 8.17568575,9.14892152 8.16298599,9.04732343 C8.13758647,8.8949263 8.09948718,8.74252916 7.99788909,8.60283179 C7.97248957,8.56473251 7.93439029,8.52663322 7.896291,8.5012337 C7.896291,8.53933298 7.896291,8.56473251 7.90899076,8.59013203 C7.90899076,8.83142749 7.87089148,9.06002319 7.80739267,9.2886189 C7.73119411,9.54261412 7.64229578,9.78390959 7.52799792,10.0252051 C7.51529816,10.0379048 7.51529816,10.0506046 7.5025984,10.0760041 C7.5025984,9.98710577 7.52799792,9.9109072 7.54069769,9.82200887 C7.55339745,9.66961174 7.54069769,9.52991436 7.5025984,9.39021699 C7.4390996,9.11082224 7.28670246,8.86952678 7.12160556,8.65363083 C7.03270723,8.53933298 6.91840938,8.42503513 6.81681129,8.32343704 C6.82951105,8.42503513 6.85491058,8.51393346 6.85491058,8.61553155 C6.85491058,8.71712964 6.85491058,8.81872773 6.82951105,8.92032582 C6.76601225,9.31401842 6.57551583,9.66961174 6.33422036,9.98710577 C6.3215206,9.99980553 6.3215206,10.0125053 6.29612108,10.0125053 C6.28342132,10.0125053 6.28342132,9.99980553 6.29612108,9.98710577 C6.33422036,9.82200887 6.30882084,9.64421221 6.27072156,9.47911532 C6.21992251,9.22512009 6.13102418,8.98382463 6.02942609,8.74252916 C6.01672633,8.70442988 5.99132681,8.70442988 5.96592729,8.71712964 C5.8643292,8.76792869 5.80083039,8.85682701 5.76273111,8.9584251 C5.68653254,9.14892152 5.64843326,9.33941794 5.62303373,9.54261412 C5.58493445,9.87280792 5.57223469,10.2030017 5.58493445,10.5331955 C5.58493445,10.5331955 5.58493445,10.5458953 5.57223469,10.558595 C5.34363898,9.93630672 5.22934113,9.31401842 5.3055397,8.65363083 C5.20394161,8.80602797 5.1404428,8.97112487 5.10234352,9.14892152 C5.06424424,9.32671818 5.05154448,9.49181508 5.076944,9.66961174 C5.01344519,9.56801365 4.97534591,9.45371579 4.93724662,9.3521177 C4.87374782,9.17432105 4.81024901,8.99652439 4.77214973,8.81872773 C4.73405044,8.64093107 4.70865092,8.46313441 4.75944997,8.28533776 C4.75944997,8.25993823 4.75944997,8.24723847 4.7467502,8.23453871 C4.55625379,8.13294062 4.49275498,7.92974444 4.41655641,7.75194778 C4.36575737,7.63764993 4.34035784,7.49795256 4.30225856,7.37095494 C4.2895588,7.25665709 4.27685904,7.14235924 4.27685904,7.02806139 C4.27685904,6.74866664 4.31495832,6.46927189 4.39115689,6.18987715 C4.39115689,6.17717738 4.40385665,6.15177786 4.40385665,6.1390781 C4.46735546,5.96128144 4.5181545,5.78348479 4.60705283,5.59298837 C4.59435307,6.05017977 4.60705283,6.49467142 4.7467502,6.9264633 C4.77214973,6.72326712 4.82294877,6.5327707 4.88644758,6.34227428 C4.93724662,6.17717738 5.00074543,6.01208049 5.076944,5.85968335 C5.076944,5.87238311 5.076944,5.88508288 5.076944,5.89778264 L5.06424424,5.9104824 C5.03884471,6.03748001 5.03884471,6.16447762 5.06424424,6.27877547 C5.076944,6.34227428 5.076944,6.40577309 5.11504328,6.46927189 C5.1404428,6.60896927 5.20394161,6.74866664 5.28014018,6.88836402 C5.36903851,6.62166903 5.4706366,6.3676738 5.38173827,6.08827906 C5.45793684,6.15177786 5.52143564,6.22797643 5.58493445,6.304175 C5.66113302,6.41847285 5.75003135,6.5327707 5.81353015,6.65976831 C5.87702896,6.77406616 5.91512824,6.88836402 5.96592729,7.00266187 C6.01672633,6.71056736 6.11832442,6.43117261 6.2580218,6.15177786 C6.29612108,6.48197166 6.37231965,6.78676593 6.52471678,7.07886044 C6.56281607,7.02806139 6.60091535,6.97726235 6.62631487,6.9264633 C6.75331249,6.6978676 6.81681129,6.45657213 6.76601225,6.20257691 C6.75331249,6.15177786 6.72791296,6.10097882 6.72791296,6.05017977 L6.74061273,6.05017977 C6.89300986,6.29147524 7.00730771,6.55817022 7.09620604,6.83756497 C7.12160556,6.77406616 7.15970485,6.73596688 7.19780413,6.68516784 C7.2740027,6.60896927 7.36290103,6.5327707 7.46449912,6.49467142 C7.56609721,6.45657213 7.6676953,6.41847285 7.78199315,6.41847285 C7.79469291,6.41847285 7.82009243,6.40577309 7.82009243,6.43117261 C7.82009243,6.44387237 7.80739267,6.45657213 7.80739267,6.46927189 C7.71849434,6.60896927 7.64229578,6.74866664 7.61689625,6.91376354 C7.60419649,7.02806139 7.60419649,7.14235924 7.64229578,7.24395733 C7.65499554,7.29475638 7.68039506,7.29475638 7.71849434,7.28205662 C7.85819172,7.23125757 7.92169052,7.12965948 7.97248957,7.00266187 C8.02328861,6.86296449 8.04868814,6.72326712 8.04868814,6.57086998 C8.04868814,6.41847285 8.04868814,6.26607571 8.04868814,6.11367858 C8.07408766,6.16447762 8.09948718,6.22797643 8.11218694,6.27877547 C8.13758647,6.41847285 8.17568575,6.50737118 8.21378503,6.58356975 Z" id="Shape" fill="#060707" fill-rule="nonzero"></path>
            <path d="M7.85819172,14.2923248 C7.71849434,14.2923248 7.59149673,14.3177244 7.45179936,14.2923248 C7.24860318,14.2669253 7.1089058,14.1653272 7.02000747,13.9875306 C6.82951105,13.6192375 6.76601225,13.2255449 6.85491058,12.8191525 C6.98190819,12.260363 7.23590342,11.7777721 7.64229578,11.3713797 C7.80739267,11.2062829 8.01058885,11.0665855 8.23918456,10.9903869 C8.54397883,10.8887888 8.83607334,10.9141883 9.10276832,11.091985 C9.57265949,11.3840795 9.90285328,11.7904719 10.0679502,12.3238618 C10.1949478,12.742954 10.0933497,13.111247 9.78855543,13.4287411 C9.33136403,13.8986322 8.78527429,14.178027 8.13758647,14.2796251 C8.08678742,14.2923248 8.03598838,14.2923248 7.99788909,14.2923248 C7.94709005,14.2923248 7.90899076,14.2923248 7.85819172,14.2923248 Z M8.03598838,14.2034265 C8.1248867,14.2034265 8.20108527,14.2034265 8.27728384,14.1907268 C8.60747763,14.1145282 8.82337358,13.8986322 8.95037119,13.593838 C9.00117023,13.4795401 9.03926952,13.3652423 9.02656976,13.2382447 C9.01386999,13.0858475 8.88687238,13.009649 8.74717501,13.0731478 C8.70907572,13.0858475 8.6836762,13.0985473 8.64557692,13.1239468 C8.60747763,13.1493463 8.56937835,13.1620461 8.53127907,13.1747458 C8.39158169,13.2128451 8.26458408,13.1620461 8.17568575,13.0350485 C8.08678742,12.9080509 8.08678742,12.793753 8.18838551,12.6794552 C8.21378503,12.6413559 8.25188432,12.6159564 8.2899836,12.5778571 C8.40428145,12.4508595 8.34078265,12.2730628 8.17568575,12.2349635 C7.99788909,12.1968642 7.8327922,12.209564 7.6676953,12.2730628 C7.36290103,12.3873607 7.13430533,12.6032566 7.05810676,12.9207506 C6.99460795,13.1747458 7.03270723,13.4287411 7.12160556,13.6700365 C7.21050389,13.911332 7.38830055,14.0764289 7.64229578,14.1526275 C7.76929339,14.1907268 7.90899076,14.2034265 8.03598838,14.2034265 Z" id="Shape" fill="#FFFFFF" fill-rule="nonzero"></path>
            <path d="M4.82294877,14.3050246 C4.20066047,14.2796251 3.60377169,14.1399277 3.08308148,13.7589349 C2.89258506,13.6192375 2.7147884,13.4668404 2.57509103,13.2890437 C2.33379556,12.9715497 2.28299652,12.6286561 2.42269389,12.260363 C2.53699174,11.942869 2.70208864,11.6634743 2.9433841,11.4221788 C3.17197981,11.1935831 3.41327527,11.0157864 3.7307693,10.9522876 C3.95936501,10.9014886 4.17526095,10.9522876 4.37845713,11.0665855 C4.97534591,11.3967793 5.35633875,11.9047697 5.54683517,12.5524575 C5.62303373,12.8191525 5.67383278,13.0858475 5.66113302,13.3652423 C5.64843326,13.6065377 5.57223469,13.8478332 5.43253731,14.0510294 C5.31823946,14.2415258 5.12774304,14.3050246 4.89914734,14.3177244 C4.88644758,14.3050246 4.86104806,14.3050246 4.82294877,14.3050246 Z M3.46407432,13.2255449 C3.46407432,13.2509444 3.46407432,13.3017435 3.47677408,13.3525425 C3.47677408,13.3906418 3.48947384,13.4287411 3.5021736,13.4541406 C3.59107193,13.8097339 3.80696787,14.0637291 4.16256119,14.1653272 C4.26415928,14.1907268 4.37845713,14.1907268 4.49275498,14.2034265 C4.69595116,14.2161263 4.87374782,14.178027 5.03884471,14.0637291 C5.34363898,13.860533 5.50873588,13.5811382 5.4706366,13.2128451 C5.45793684,13.060448 5.33093922,12.9461501 5.16584233,13.0731478 C5.1404428,13.0985473 5.10234352,13.111247 5.076944,13.1239468 C4.96264615,13.1747458 4.86104806,13.1747458 4.75944997,13.0985473 C4.56895355,12.9461501 4.55625379,12.7556537 4.73405044,12.5905568 C4.7467502,12.5778571 4.77214973,12.5651573 4.78484949,12.5397578 C4.8483483,12.4635592 4.86104806,12.3873607 4.79754925,12.2984623 C4.75944997,12.2349635 4.69595116,12.1968642 4.61975259,12.1968642 C4.5181545,12.1841645 4.41655641,12.1841645 4.31495832,12.209564 C3.80696787,12.2984623 3.45137455,12.7175544 3.46407432,13.2255449 Z" id="Shape" fill="#FFFFFF" fill-rule="nonzero"></path>
            <path d="M7.48989864,10.0887039 C7.48989864,10.1387039 7.48989864,10.1387039 7.48989864,10.0887039 C7.48989864,10.1387039 7.48989864,10.1387039 7.48989864,10.0887039 Z" id="Shape" fill="#060707" fill-rule="nonzero"></path>
            <path d="M8.8487731,17.8355582 C8.83607334,18.1784518 8.6836762,18.432447 8.41698121,18.648343 C8.04868814,18.9531372 7.62959602,19.1690332 7.19780413,19.3468298 C7.13430533,19.3722294 7.07080652,19.3849291 7.00730771,19.3468298 C6.91840938,19.2960308 6.90570962,19.232532 6.95650867,19.1436337 C7.05810676,19.0039363 7.14700509,18.8642389 7.23590342,18.7245415 C7.40100031,18.4578465 7.48989864,18.1784518 7.51529816,17.8736575 C7.52799792,17.7085606 7.56609721,17.5434637 7.69309482,17.4164661 C7.896291,17.2132699 8.23918456,17.1751707 8.48048002,17.3529673 C8.59477787,17.4291659 8.69637596,17.5180642 8.78527429,17.6323621 C8.83607334,17.6958609 8.86147286,17.7593597 8.8487731,17.8355582 Z" id="Shape" fill="#060707" fill-rule="nonzero"></path>
            <path d="M3.97206477,17.9498561 C3.97206477,17.6069625 4.25145951,17.3021683 4.59435307,17.2513692 C4.96264615,17.1878704 5.26744042,17.4545654 5.29283994,17.848258 C5.31823946,18.2165511 5.41983755,18.5594446 5.64843326,18.8642389 C5.67383278,18.8896384 5.68653254,18.9150379 5.71193206,18.9404375 C5.73733158,18.965837 5.75003135,18.9912365 5.75003135,19.0293358 C5.75003135,19.0547353 5.77543087,19.0801348 5.78813063,19.0928346 C5.82622991,19.1309339 5.85162944,19.1817329 5.87702896,19.2198322 C5.90242848,19.2579315 5.88972872,19.2960308 5.85162944,19.3341301 C5.80083039,19.3722294 5.75003135,19.3976289 5.67383278,19.3849291 C5.61033397,19.3722294 5.54683517,19.3468298 5.48333636,19.3214303 C5.17854209,19.1690332 4.87374782,19.0293358 4.59435307,18.8261396 C4.39115689,18.6737425 4.18796071,18.5086456 4.0609631,18.2927496 C4.01016405,18.165752 3.97206477,18.0641539 3.97206477,17.9498561 Z" id="Shape" fill="#060707" fill-rule="nonzero"></path>
            <path d="M3.94666524,19.4484279 C4.13716166,19.550026 4.31495832,19.6643239 4.5181545,19.7532222 C4.96264615,19.9818179 5.41983755,20.1596146 5.91512824,20.2612126 C6.51201702,20.3755105 7.08350628,20.3120117 7.64229578,20.0707162 C8.01058885,19.9056193 8.34078265,19.6897234 8.65827668,19.4484279 C8.67097644,19.4357282 8.6836762,19.4230284 8.70907572,19.4230284 C8.67097644,19.5246265 8.60747763,19.6008251 8.54397883,19.6897234 C8.17568575,20.1723143 7.71849434,20.5279076 7.12160556,20.6803048 C6.61361511,20.8200021 6.10562466,20.7946026 5.59763421,20.616806 C4.96264615,20.40091 4.42925617,20.0326169 4.01016405,19.499227 C3.97206477,19.4865272 3.94666524,19.4738274 3.94666524,19.4484279 Z" id="Shape" fill="#FFFFFF" fill-rule="nonzero"></path>
            <path d="M6.7152132,6.07557929 C6.7152132,6.12637834 6.74061273,6.17717738 6.75331249,6.22797643 C6.79141177,6.48197166 6.74061273,6.72326712 6.61361511,6.95186282 C6.58821559,7.00266187 6.55011631,7.05346091 6.51201702,7.10425996 C6.35961989,6.81216545 6.28342132,6.50737118 6.24532204,6.17717738 C6.10562466,6.45657213 6.00402657,6.73596688 5.95322753,7.02806139 C5.91512824,6.91376354 5.8643292,6.79946569 5.80083039,6.68516784 C5.73733158,6.55817022 5.64843326,6.44387237 5.57223469,6.32957452 C5.72463182,6.11367858 5.94052776,5.98668097 6.19452299,5.96128144 C6.20722275,5.96128144 6.21992251,5.96128144 6.23262227,5.94858168 C6.28342132,5.94858168 6.3215206,5.94858168 6.37231965,5.94858168 C6.4866175,5.96128144 6.58821559,5.98668097 6.68981368,6.03748001 C6.68981368,6.05017977 6.70251344,6.06287953 6.7152132,6.07557929 Z" id="Shape" fill="#348FC0" fill-rule="nonzero"></path>
            <path d="M6.23262227,4.91990102 C5.91512824,4.85640221 5.78813063,4.48810913 5.99132681,4.23411391 C6.13102418,4.05631725 6.39771917,4.03091773 6.57551583,4.1706151 C6.75331249,4.31031248 6.77871201,4.57700746 6.63901464,4.75480412 C6.56281607,4.84370245 6.47391774,4.8945015 6.35961989,4.91990102 C6.3215206,4.93260078 6.27072156,4.91990102 6.23262227,4.91990102 Z" id="Shape" fill="#348FC0" fill-rule="nonzero"></path>
            <path d="M6.26537706,4.91990102 C6.40174069,4.91990102 6.58355888,4.93260078 6.71992251,4.91990102 C6.71992251,5.22469529 6.71992251,5.52948956 6.71992251,5.83428383 C6.71992251,5.87238311 6.71992251,5.92318216 6.71992251,5.96128144 C6.53810433,5.96128144 6.40174069,5.96128144 6.21992251,5.96128144 C6.26537706,5.61838789 6.26537706,5.26279457 6.26537706,4.91990102 Z" id="Shape" fill="#060707" fill-rule="nonzero"></path>
            <path d="M7.22791296,6.72326712 C7.1862463,6.77406616 7.14457963,6.81216545 7.11680185,6.87566426 C7.01957963,6.59626951 6.88069074,6.32957452 6.72791296,6.08827906 C6.85291296,6.12637834 6.9362463,6.21527667 7.01957963,6.304175 C7.13069074,6.41847285 7.1862463,6.55817022 7.22791296,6.6978676 C7.22791296,6.71056736 7.22791296,6.71056736 7.22791296,6.72326712 Z" id="Shape" fill="#348FC0" fill-rule="nonzero"></path>
            <path d="M5.29479507,6.50737118 C5.14479507,6.44387237 5.14479507,6.38037357 5.09479507,6.31687476 C4.99479507,6.18987715 4.99479507,6.06287953 5.09479507,5.94858168 C5.09479507,5.93588192 5.09479507,5.93588192 5.14479507,5.93588192 C5.19479507,6.11367858 5.24479507,6.304175 5.29479507,6.50737118 Z" id="Shape" fill="#4B3938" fill-rule="nonzero"></path>
            <path d="M5.37291663,6.15435352 C5.37291663,6.15435352 5.32291663,6.15435352 5.37291663,6.15435352 C5.32291663,6.10435352 5.37291663,6.10435352 5.37291663,6.15435352 C5.37291663,6.10435352 5.37291663,6.15435352 5.37291663,6.15435352 Z" id="Shape" fill="#060707" fill-rule="nonzero"></path>
            <path d="M8.03598838,14.2034265 C7.896291,14.2034265 7.76929339,14.1907268 7.62959602,14.1526275 C7.37560079,14.0764289 7.21050389,13.911332 7.1089058,13.6700365 C7.00730771,13.4287411 6.98190819,13.1620461 7.045407,12.9207506 C7.12160556,12.5905568 7.35020127,12.3873607 7.65499554,12.2730628 C7.82009243,12.209564 7.99788909,12.1968642 8.16298599,12.2349635 C8.32808289,12.260363 8.39158169,12.4381597 8.27728384,12.5778571 C8.25188432,12.6159564 8.21378503,12.6413559 8.17568575,12.6794552 C8.08678742,12.793753 8.07408766,12.9207506 8.16298599,13.0350485 C8.25188432,13.1747458 8.37888193,13.2128451 8.5185793,13.1747458 C8.55667859,13.1620461 8.59477787,13.1493463 8.63287716,13.1239468 C8.65827668,13.111247 8.69637596,13.0858475 8.73447525,13.0731478 C8.87417262,13.0223487 8.98847047,13.0858475 9.01386999,13.2382447 C9.02656976,13.3652423 8.98847047,13.4795401 8.93767143,13.593838 C8.81067381,13.8986322 8.59477787,14.1145282 8.26458408,14.1907268 C8.20108527,14.2034265 8.1248867,14.2034265 8.03598838,14.2034265 Z" id="Shape" fill="#060707" fill-rule="nonzero"></path>
            <path d="M3.46407432,13.2255449 C3.46407432,12.7048547 3.81966763,12.2984623 4.30225856,12.209564 C4.40385665,12.1968642 4.50545474,12.1841645 4.60705283,12.1968642 C4.6832514,12.209564 4.7467502,12.2349635 4.78484949,12.2984623 C4.83564853,12.3873607 4.83564853,12.4635592 4.77214973,12.5397578 C4.75944997,12.5524575 4.73405044,12.5778571 4.72135068,12.5905568 C4.54355402,12.7556537 4.55625379,12.9461501 4.7467502,13.0985473 C4.8483483,13.1747458 4.94994639,13.1874456 5.06424424,13.1239468 C5.10234352,13.111247 5.12774304,13.0858475 5.15314257,13.0731478 C5.31823946,12.9461501 5.44523708,13.060448 5.45793684,13.2128451 C5.49603612,13.5811382 5.33093922,13.860533 5.02614495,14.0637291 C4.86104806,14.178027 4.6832514,14.2161263 4.48005522,14.2034265 C4.36575737,14.1907268 4.26415928,14.2034265 4.14986142,14.1653272 C3.79426811,14.0637291 3.59107193,13.8097339 3.48947384,13.4541406 C3.47677408,13.4160413 3.47677408,13.3906418 3.46407432,13.3525425 C3.46407432,13.3144432 3.46407432,13.2636442 3.46407432,13.2255449 Z" id="Shape" fill="#060707" fill-rule="nonzero"></path>
            <path d="M88.4583988,11.7013235 C88.9695553,11.8247726 89.4083783,12.0388797 89.7604012,12.4246581 C90.0501034,12.7315596 90.2120174,13.137293 90.2132086,13.5593291 C90.2215672,14.4073987 90.2215672,15.2557899 90.2132086,16.1045025 C90.2025997,17.1557488 89.5626897,17.882459 88.4395921,18.1076572 C88.127592,18.1685233 87.8103864,18.1987256 87.492506,18.1978329 C84.4945251,18.204584 81.4970264,18.1978329 78.4990455,18.2060307 C78.296994,18.2060307 78.2357517,18.1553973 78.2362339,17.9480413 C78.2426635,14.0947574 78.2426635,10.2413128 78.2362339,6.38770736 C78.2362339,6.18420922 78.2907251,6.12634245 78.4961521,6.12682467 C81.3952773,6.13309357 84.2939203,6.12923579 87.1930455,6.13309357 C87.7109531,6.13309357 88.2196984,6.1962648 88.7033682,6.4094074 C89.4373117,6.73249686 89.8751703,7.28126673 89.9089259,8.0827215 C89.9448645,8.85929958 89.9356868,9.63730922 89.8814392,10.4128234 C89.8230902,11.172807 89.5188074,11.5093987 88.6136747,11.6666035 C88.5620768,11.6752835 88.5104789,11.6902324 88.4583988,11.7013235 Z M83.6983748,16.7444125 C84.8074879,16.7444125 85.916601,16.754057 87.0257141,16.7381436 C87.3285207,16.732977 87.6291831,16.6862469 87.9192734,16.5992634 C88.2823874,16.490281 88.4979411,16.2101093 88.50855,15.8277064 C88.527839,15.1217318 88.5394123,14.4143106 88.5191589,13.708336 C88.5032456,13.1624595 88.240434,12.880359 87.6993797,12.7540165 C87.5280805,12.7116567 87.3525925,12.6885279 87.1761677,12.6850586 C84.8132745,12.6807186 82.4542392,12.6850586 80.093275,12.6783075 C79.9114769,12.6783075 79.8675946,12.7434076 79.868559,12.9121857 C79.8738635,14.1071345 79.8762746,15.3016011 79.868559,16.4960676 C79.868559,16.7096925 79.9428214,16.7516459 80.1381217,16.7501992 C81.3234261,16.7405547 82.5106593,16.7444125 83.6983748,16.7444125 Z M83.5869812,11.2412827 L83.5869812,11.222476 C84.7443166,11.222476 85.9050276,11.2350138 87.0638097,11.2176538 C87.8112555,11.2065626 88.2389873,10.7981197 88.2457385,10.1394029 C88.2510429,9.66585988 88.253454,9.19183459 88.2457385,8.71877375 C88.236094,8.19459725 87.9838913,7.85077219 87.4833438,7.70031859 C87.2607449,7.63276388 87.029743,7.59688796 86.7971403,7.59374729 C84.5707163,7.58603172 82.3442924,7.59374729 80.1178684,7.58506728 C79.918228,7.58506728 79.8671124,7.65016739 79.8680768,7.84064551 C79.8757924,8.87935403 79.8714524,9.91854478 79.8719346,10.9577355 C79.8719346,11.2388716 79.8719346,11.2403182 80.1530707,11.2408005 L83.5869812,11.2412827 Z" id="Shape" fill="#F15A29" fill-rule="nonzero"></path>
            <path d="M67.6813351,12.7168853 L67.6813351,12.973428 C67.6813351,13.7160516 67.6784417,14.4586751 67.6813351,15.2012987 C67.6856751,16.135847 68.2720583,16.7241592 69.2085356,16.7251236 C71.8745862,16.7280169 74.5411192,16.7280169 77.2081343,16.7251236 C77.6300795,16.7251236 77.5779994,16.6793124 77.581375,17.0988465 C77.581375,17.3881803 77.5702838,17.6775142 77.585715,17.966848 C77.5963239,18.1597373 77.523026,18.2031374 77.3446034,18.2012085 C76.4674396,18.1930107 75.5902758,18.1973507 74.7131121,18.1973507 C72.761073,18.1973507 70.8071051,18.1645595 68.8569949,18.208924 C67.458548,18.2402685 66.2245391,17.1740733 66.07505,15.8658021 C66.0610529,15.7394671 66.0542907,15.6124351 66.0547966,15.4853281 C66.0547966,13.2786752 66.0547966,11.0718617 66.0547966,8.86488734 C66.0547966,7.30682456 67.2333498,6.12875356 68.7933415,6.12778912 C71.6384577,6.12489578 74.4797161,6.12778912 77.3233856,6.12248466 C77.5225437,6.12248466 77.598735,6.16781363 77.5886083,6.37902734 C77.5712483,6.73201464 77.5799283,7.08644861 77.585715,7.43991813 C77.585715,7.56577835 77.544726,7.62557401 77.415008,7.61641178 C77.3518368,7.61255399 77.2881833,7.61641178 77.2221188,7.61641178 C74.5409584,7.61641178 71.8601196,7.61641178 69.1796022,7.61641178 C68.4051519,7.61641178 67.8713309,8.03160585 67.7083395,8.75879826 C67.6857575,8.88380493 67.6767038,9.01088007 67.6813351,9.1378256 C67.6784417,9.74590891 67.6885684,10.3544744 67.6750662,10.9625578 C67.6707261,11.1708781 67.7387196,11.2210293 67.9393244,11.2205471 C70.5066801,11.2144389 73.0741965,11.213153 75.6418737,11.2166893 C75.9181875,11.2166893 75.9186698,11.2166893 75.9186698,11.4910743 C75.9186698,11.8165748 75.9075786,12.1425576 75.9230098,12.4670938 C75.932172,12.659983 75.8747875,12.7173676 75.6751471,12.7168853 C73.2563161,12.7101342 70.8373244,12.7086875 68.4181719,12.7125453 L67.6813351,12.7168853 Z" id="Shape" fill="#F15A29" fill-rule="nonzero"></path>
            <path d="M91.0537235,16.7376614 L91.3536662,16.7376614 C94.027754,16.7376614 96.7015202,16.7376614 99.374965,16.7376614 C100.282509,16.7376614 100.869857,16.1922671 100.915186,15.2871344 C100.934157,14.863169 100.929488,14.4384758 100.901201,14.0150299 C100.857006,13.2804033 100.243964,12.7098012 99.5080586,12.718332 C97.4778994,12.7144742 95.4477402,12.718332 93.417581,12.718332 C92.9517535,12.718332 92.5013572,12.6358719 92.0905031,12.4077803 C91.281815,11.9578662 90.7344918,11.2986672 90.6674628,10.3554389 C90.6192405,9.66778877 90.600916,8.96277863 90.6978428,8.28187963 C90.8709609,7.06619524 91.9998452,6.14273803 93.2613407,6.13598691 C96.0056723,6.12103799 98.7500039,6.13212912 101.494335,6.12778912 C101.652505,6.12778912 101.706031,6.17986921 101.702174,6.33610949 C101.693976,6.67366565 101.691082,7.01556181 101.702174,7.35456464 C101.708925,7.54118498 101.6472,7.59326507 101.461062,7.59326507 C98.8937064,7.58683543 96.3261899,7.58587098 93.7585127,7.59037173 C93.2222807,7.59037173 92.7829754,7.79579876 92.4762816,8.24908846 C92.1425832,8.74192045 92.1512632,10.0680339 92.4994283,10.5507392 C92.8070866,10.9765422 93.2314429,11.1747359 93.7575483,11.1742537 C95.7592563,11.1708781 97.7599999,11.1742537 99.7626724,11.1713603 C100.254058,11.1713603 100.719403,11.2562316 101.144724,11.5089165 C102.033461,12.0393619 102.514719,12.8138122 102.532562,13.8568607 C102.542206,14.415275 102.536902,14.9741716 102.532562,15.5330681 C102.523882,16.9903463 101.35208,18.1910818 99.8962482,18.1968685 C97.0173763,18.208924 94.1385045,18.1997618 91.2596327,18.2036196 C91.1106258,18.2036196 91.0435968,18.1732395 91.0479368,18.0054259 C91.0595101,17.5965007 91.0537235,17.1875755 91.0537235,16.7376614 Z" id="Shape" fill="#F15A29" fill-rule="nonzero"></path>
            <path d="M38.4914074,21.6322257 C37.9918242,21.6322257 37.5202101,21.635119 37.0485959,21.6274035 C37.0090536,21.6274035 36.9521513,21.5618211 36.9362379,21.5155277 C36.9159845,21.4586254 36.9294868,21.3896675 36.9294868,21.326014 C36.9294868,17.4232219 36.9294868,13.5205905 36.9294868,9.6181198 C36.9294868,9.3090148 36.9294868,9.30853258 37.2395562,9.30853258 C39.2755021,9.30853258 41.3116087,9.30853258 43.347876,9.30853258 C44.119433,9.30853258 44.7849008,9.56073525 45.336564,10.1095051 C45.7773159,10.5473637 45.9866007,11.0802202 45.9894941,11.6916791 C45.9962452,13.063443 45.9962452,14.4350462 45.9894941,15.8064886 C45.9822607,17.0863087 44.9136544,18.1587728 43.5745209,18.1905996 C42.3096497,18.2204974 41.0438141,18.1997618 39.7784608,18.2012085 C39.4249912,18.2012085 39.0710395,18.2084418 38.71757,18.2012085 C38.5401119,18.195904 38.4861029,18.2605219 38.4870674,18.4350867 C38.4938185,19.410624 38.4904429,20.3861613 38.4904429,21.3616985 L38.4914074,21.6322257 Z M38.4914074,13.7314827 C38.4914074,14.6785688 38.4914074,15.625655 38.4914074,16.5727411 C38.4914074,16.717408 38.5044274,16.8138526 38.6910477,16.8138526 C40.1897971,16.8138526 41.6880642,16.825426 43.1863313,16.8138526 C43.8445658,16.8085482 44.4053913,16.2409716 44.4121424,15.5865949 C44.4253231,14.3649631 44.4243587,13.1422061 44.409249,11.9183239 C44.399362,11.7288285 44.3434155,11.5446023 44.2462576,11.3816096 C43.9569238,10.8738287 43.4708429,10.7064973 42.9186975,10.7016751 C41.5265194,10.6954062 40.1338592,10.7016751 38.7411989,10.6958884 C38.5483097,10.6958884 38.4875496,10.7600241 38.4894785,10.9533955 C38.4943007,11.8792638 38.4914074,12.8051322 38.4914074,13.7314827 Z" id="Shape" fill="#F15A29" fill-rule="nonzero"></path>
            <path d="M51.8677935,14.5676575 C50.7008136,14.5676575 49.5338338,14.5719975 48.3673361,14.5637997 C48.1570868,14.5637997 48.0804134,14.6211843 48.0890934,14.8391491 C48.1050068,15.2418054 48.0929512,15.6454261 48.0939156,16.0480824 C48.0939156,16.5630966 48.3832495,16.8591816 48.907426,16.862075 C49.8125587,16.8668972 50.7176914,16.862075 51.6228241,16.862075 C52.6055948,16.862075 53.5888477,16.866415 54.5716183,16.8586994 C54.7490764,16.8586994 54.8054965,16.9112617 54.7987454,17.0863087 C54.7866898,17.3973426 54.7910298,17.7088587 54.7987454,18.0198926 C54.8016387,18.1587728 54.7471475,18.2021729 54.6111606,18.2016907 C52.5747325,18.1978329 50.5383044,18.2074774 48.5013941,18.191564 C47.603977,18.1848129 46.8136133,17.5931252 46.6081863,16.8225327 C46.5641881,16.6449409 46.542801,16.4625022 46.5445329,16.2795495 C46.5392284,14.7803179 46.5411573,13.2810863 46.5416395,11.782337 C46.5382041,10.5176781 47.5030329,9.46068151 48.762759,9.34903932 C49.1350353,9.31576592 49.5111693,9.31576592 49.8853744,9.31721259 C51.0427098,9.3215526 52.2058319,9.29888811 53.3631673,9.3528971 C54.424058,9.40111941 55.3537841,10.2358476 55.5625867,11.2287449 C55.591176,11.3878292 55.6037766,11.5493748 55.6002001,11.710968 C55.6040579,12.5736651 55.5944135,13.4363622 55.6069513,14.2990593 C55.6103268,14.5228108 55.53076,14.5705509 55.3258152,14.5691042 C54.1728198,14.5633175 53.0203066,14.5676575 51.8677935,14.5676575 Z M51.0629631,13.1721039 C51.974847,13.1721039 52.8872131,13.1677639 53.7990969,13.1759617 C53.980895,13.1759617 54.0527463,13.1320794 54.043584,12.9401546 C54.0295996,12.6440696 54.043584,12.346538 54.0397262,12.0494886 C54.0344218,11.3401384 53.5121742,10.751344 52.8052351,10.7354307 C51.6533649,10.7100336 50.5010125,10.7100336 49.3481779,10.7354307 C48.6402744,10.751344 48.1132045,11.3309762 48.0943978,12.037433 C48.0866823,12.3412335 48.101149,12.6459985 48.0900578,12.9493169 C48.0833067,13.1301505 48.1546757,13.1754795 48.3258649,13.1740328 C49.2387132,13.1687284 50.1505971,13.1721039 51.0629631,13.1721039 Z" id="Shape" fill="#F15A29" fill-rule="nonzero"></path>
            <path d="M65.3579842,14.7075022 C65.3579842,15.7896108 65.3536442,16.8717194 65.361842,17.953828 C65.361842,18.1443061 65.3136197,18.2147107 65.1149438,18.2055485 C64.7547232,18.1901173 64.3916092,18.1910818 64.0328352,18.2055485 C63.8433215,18.213264 63.794617,18.150575 63.7955814,17.9644369 C63.8013681,16.0336157 63.8024933,14.1027945 63.798957,12.1719732 C63.798957,11.3174739 63.3495251,10.7590596 62.5003302,10.725304 C61.3290104,10.6770817 60.1523861,10.6823861 58.9801017,10.7306084 C58.1882914,10.7633996 57.7335551,11.3160273 57.7311439,12.1116954 C57.7263217,13.738716 57.7311439,15.3652545 57.7311439,16.991793 C57.7311439,17.3245269 57.7268039,17.6567786 57.7311439,17.9890303 C57.7340373,18.1365906 57.6964239,18.2079596 57.5300569,18.2036196 C57.1341518,18.1934929 56.7377644,18.1954218 56.3418592,18.2036196 C56.1971923,18.2065129 56.1634367,18.1520217 56.1639189,18.0174815 C56.1672945,15.8884666 56.15765,13.7599339 56.1711523,11.6309189 C56.1779034,10.5136081 57.1013606,9.52456852 58.2548382,9.35386155 C58.4154791,9.32803556 58.5777565,9.31369326 58.7404369,9.31094369 C60.0983771,9.30805035 61.4563173,9.30226368 62.8137752,9.31094369 C63.7410902,9.31721259 64.4764804,9.7121533 65.0103014,10.4682791 C65.23078,10.7765766 65.3499254,11.1458095 65.3512331,11.5248299 C65.3579842,12.5857207 65.3536442,13.6466114 65.3536442,14.7075022 L65.3579842,14.7075022 Z" id="Shape" fill="#F15A29" fill-rule="nonzero"></path>
            <path d="M36.0166385,12.1141065 C36.0166385,13.2232196 36.0258007,14.3323327 36.0142274,15.4414458 C36.0060578,16.6955166 35.1256231,17.7746361 33.8987147,18.0343593 C33.7141036,18.0740115 33.5257444,18.093575 33.3369248,18.0927083 C33.2057601,18.0927083 33.0745955,18.0927083 32.9434308,18.0956016 C31.2980856,18.1414128 29.651776,18.102835 28.0059486,18.1148905 C27.5299944,18.1182661 27.0530758,18.1110327 26.5771216,18.1206772 C26.2477633,18.1274283 25.9212982,18.1148905 25.6054421,18.0198926 C24.6323159,17.7276654 23.9909592,17.0993287 23.7069298,16.1189692 C23.6453229,15.8992609 23.6146476,15.6720363 23.6157897,15.4438569 C23.6157897,15.1795986 23.6148252,14.9153404 23.6128963,14.6510821 C23.6103245,12.9002908 23.6082348,11.1491781 23.6066274,9.39774385 C23.6066274,9.11275 23.6008408,8.82630949 23.6206119,8.5422801 C23.6531706,8.04747222 23.8268798,7.57236575 24.1211595,7.17324876 C24.5342988,6.58985182 25.1671915,6.19984368 25.8740404,6.09306906 C26.1382986,6.04918675 26.4044858,6.07185124 26.6697085,6.05834899 C27.5642323,6.0125378 28.4597206,6.04629342 29.3542444,6.03954229 C30.2487682,6.03279117 31.1481142,6.03954229 32.0450492,6.03954229 C32.49207,6.03954229 32.9400552,6.02845116 33.387076,6.03954229 C34.0416106,6.05066663 34.6685568,6.30508956 35.1457436,6.75323246 C35.5813576,7.14158096 35.8715461,7.666846 35.9684162,8.24233734 C35.9991623,8.41864621 36.0152913,8.59719369 36.0166385,8.77615829 C36.0204963,9.88912917 36.0166385,11.0021 36.0166385,12.1145887 L36.0166385,12.1141065 Z M29.8707053,16.6609879 C30.8062181,16.6609879 31.7412486,16.6609879 32.6767614,16.6609879 C32.8692765,16.6617345 33.0616273,16.6496521 33.2525358,16.6248212 C33.6329464,16.5814177 33.9789247,16.3839399 34.2097486,16.0784624 C34.3704905,15.8814913 34.4663367,15.6396018 34.4841335,15.3859901 C34.4908847,15.2500032 34.4841335,15.1130518 34.4841335,14.9765827 C34.4809187,14.6525288 34.4770609,14.3286356 34.4725602,14.0049032 C34.4691846,13.7681317 34.4648446,13.5308779 34.4609868,13.2941064 L34.4503779,12.4617893 L34.4407335,11.7201302 L34.4291601,10.9225332 C34.4253023,10.6698483 34.4209623,10.4176457 34.4175867,10.1649608 C34.4132467,9.81052681 34.4122823,9.45561062 34.4040845,9.10117665 C34.4026013,8.95680167 34.3906754,8.81272314 34.3684,8.67006921 C34.3224622,8.36437978 34.1754369,8.08289264 33.9507948,7.87054334 C33.6754454,7.61207177 33.3412648,7.49682045 32.9694708,7.47849597 C32.9173907,7.47849597 32.8648284,7.4977849 32.8117839,7.49923157 C32.7235371,7.49923157 32.634808,7.49440934 32.546079,7.49392711 C32.1897161,7.49392711 31.832871,7.48958711 31.4760259,7.48958711 C29.9464143,7.48958711 28.4169634,7.48958711 26.8876733,7.48958711 C26.7239724,7.49005758 26.5604754,7.50117216 26.3982169,7.5228605 C26.0584087,7.55885347 25.7431703,7.71681532 25.5109264,7.96747018 C25.2828349,8.21533285 25.1405791,8.50225558 25.1386502,8.84511619 C25.1386502,9.12480558 25.1449191,9.40401275 25.1487769,9.68370214 L25.1603502,10.4586346 L25.1719236,11.285165 L25.1820503,12.0480419 L25.1936236,12.8519078 L25.205197,13.5974247 C25.2090547,13.8674696 25.2133948,14.1370323 25.2167703,14.4070772 C25.2167703,14.6288999 25.2129125,14.8507225 25.2240037,15.0720629 C25.2280257,15.2469085 25.2486939,15.4209735 25.2857282,15.5918994 C25.4670441,16.328254 26.0572852,16.6576124 26.7126263,16.6807591 C26.7367375,16.6807591 26.7608486,16.6556835 26.785442,16.6556835 C26.9339667,16.6556835 27.0820092,16.6605057 27.2305339,16.6609879 L29.8707053,16.6609879 Z" id="Shape" fill="#F15A29" fill-rule="nonzero"></path>
            <text id="CI" font-family="Muli-SemiBold, Muli" font-size="14" font-weight="500" fill="#7F8FA4">
                <tspan x="109.157234" y="17.604">CI</tspan>
            </text>
        </g>
    </g>
</svg>